<svg width="1920" height="1079" viewBox="0 0 1920 1079" fill="none" xmlns="http://www.w3.org/2000/svg">
<g clip-path="url(#clip0_1_2444)">
<rect width="1920" height="1079" fill="white"/>
<g filter="url(#filter0_f_1_2444)">
<circle cx="299.5" cy="267.5" r="102.5" fill="#FC0882" fill-opacity="0.2"/>
</g>
<g filter="url(#filter1_f_1_2444)">
<circle cx="81" cy="71" r="137" fill="#4C6FFF" fill-opacity="0.2"/>
</g>
<circle cx="1021.5" cy="590.5" r="109.5" fill="#FCDE08" fill-opacity="0.05"/>
<g opacity="0.05" clip-path="url(#clip1_1_2444)">
<path d="M1298.21 1127.13C1298.21 1127.13 1186.01 1155.66 1108.36 1082.56C1108.36 1082.56 1030.46 1022.1 983.59 912.469L1017.11 893.433C1017.11 893.433 1061.64 1004.15 1119.15 1053.7C1119.4 1053.4 1192.22 1137.44 1298.21 1127.13Z" fill="#FC0882"/>
<path d="M1350.74 1099.15C1350.74 1099.15 1277.79 1153.22 1178.97 1084.38C1178.97 1084.38 1110.81 1035.17 1056.47 932.387L1094.32 915.339C1094.32 915.339 1151.47 1041.1 1253.19 1089.08C1253.43 1088.78 1290.53 1109.62 1350.74 1099.15Z" fill="#FC0882"/>
<path d="M1075.94 887.773C1068.97 882.186 1058.79 883.308 1053.2 890.279C1047.62 897.249 1048.74 907.43 1055.71 913.017C1062.68 918.604 1072.86 917.483 1078.45 910.512C1084.03 903.541 1082.91 893.361 1075.94 887.773Z" fill="#FC0882"/>
<path d="M998.368 867.551C991.066 861.697 980.401 862.872 974.547 870.175C968.694 877.478 969.869 888.143 977.172 893.996C984.474 899.85 995.14 898.675 1000.99 891.372C1006.85 884.069 1005.67 873.404 998.368 867.551Z" fill="#FC0882"/>
</g>
<g filter="url(#filter2_f_1_2444)">
<circle cx="1631" cy="208" r="39" fill="#FFF6C1"/>
</g>
<circle cx="29" cy="1039" r="168" fill="#FCB2D9" fill-opacity="0.1"/>
</g>
<defs>
<filter id="filter0_f_1_2444" x="47" y="15" width="505" height="505" filterUnits="userSpaceOnUse" color-interpolation-filters="sRGB">
<feFlood flood-opacity="0" result="BackgroundImageFix"/>
<feBlend mode="normal" in="SourceGraphic" in2="BackgroundImageFix" result="shape"/>
<feGaussianBlur stdDeviation="75" result="effect1_foregroundBlur_1_2444"/>
</filter>
<filter id="filter1_f_1_2444" x="-256" y="-266" width="674" height="674" filterUnits="userSpaceOnUse" color-interpolation-filters="sRGB">
<feFlood flood-opacity="0" result="BackgroundImageFix"/>
<feBlend mode="normal" in="SourceGraphic" in2="BackgroundImageFix" result="shape"/>
<feGaussianBlur stdDeviation="100" result="effect1_foregroundBlur_1_2444"/>
</filter>
<filter id="filter2_f_1_2444" x="1572" y="149" width="118" height="118" filterUnits="userSpaceOnUse" color-interpolation-filters="sRGB">
<feFlood flood-opacity="0" result="BackgroundImageFix"/>
<feBlend mode="normal" in="SourceGraphic" in2="BackgroundImageFix" result="shape"/>
<feGaussianBlur stdDeviation="10" result="effect1_foregroundBlur_1_2444"/>
</filter>
<clipPath id="clip0_1_2444">
<rect width="1920" height="1079" fill="white"/>
</clipPath>
<clipPath id="clip1_1_2444">
<rect width="436.747" height="139.035" fill="white" transform="translate(1263.79 1207.64) rotate(-141.287)"/>
</clipPath>
</defs>
</svg>
