<svg width="383" height="313" viewBox="0 0 383 313" fill="none" xmlns="http://www.w3.org/2000/svg">
<path d="M3.83524 59.0781L0 65.9863V265.702C0 278.881 10.6836 289.565 23.8627 289.565H359.137C372.316 289.565 383 278.881 383 265.702V65.9863L379.165 59.0781H3.83524Z" fill="#DDEAFB"/>
<path d="M343.926 59.0781V226.628C343.926 239.807 333.242 250.491 320.063 250.491H0V265.702C0 278.881 10.6836 289.565 23.8627 289.565H359.137C372.316 289.565 383 278.881 383 265.702V65.9863L379.165 59.0781H343.926Z" fill="#CBE2FF"/>
<path d="M359.137 0.130859H23.8627C10.6836 0.130859 0 10.8145 0 23.9936V65.9859H383V23.9936C383 10.8145 372.316 0.130859 359.137 0.130859Z" fill="#698ED5"/>
<path d="M43.2256 43.7646C49.1384 43.7646 53.9316 38.9714 53.9316 33.0586C53.9316 27.1458 49.1384 22.3525 43.2256 22.3525C37.3128 22.3525 32.5195 27.1458 32.5195 33.0586C32.5195 38.9714 37.3128 43.7646 43.2256 43.7646Z" fill="#DD636E"/>
<path d="M76.1592 43.7646C82.072 43.7646 86.8652 38.9714 86.8652 33.0586C86.8652 27.1458 82.072 22.3525 76.1592 22.3525C70.2464 22.3525 65.4531 27.1458 65.4531 33.0586C65.4531 38.9714 70.2464 43.7646 76.1592 43.7646Z" fill="#FFE07D"/>
<path d="M109.093 43.7646C115.006 43.7646 119.799 38.9714 119.799 33.0586C119.799 27.1458 115.006 22.3525 109.093 22.3525C103.18 22.3525 98.3867 27.1458 98.3867 33.0586C98.3867 38.9714 103.18 43.7646 109.093 43.7646Z" fill="#86F1A7"/>
<path d="M165.882 174.321H35.2617C31.1303 174.321 27.7812 170.972 27.7812 166.841V105.559C27.7812 101.427 31.1303 98.0781 35.2617 98.0781H165.882C170.013 98.0781 173.362 101.427 173.362 105.559V166.841C173.362 170.972 170.013 174.321 165.882 174.321Z" fill="#BED8FB"/>
<path d="M164.188 261.306H122.73C118.599 261.306 115.25 257.957 115.25 253.826V210.827C115.25 206.696 118.599 203.347 122.73 203.347H164.188C168.319 203.347 171.668 206.696 171.668 210.827V253.826C171.668 257.957 168.319 261.306 164.188 261.306Z" fill="#BED8FB"/>
<path d="M86.3094 215.298H32.545C29.3524 215.298 26.7656 212.711 26.7656 209.519C26.7656 206.327 29.3531 203.739 32.545 203.739H86.3094C89.5021 203.739 92.0888 206.327 92.0888 209.519C92.0888 212.711 89.5021 215.298 86.3094 215.298Z" fill="#698ED5"/>
<path d="M86.3094 240.002H32.545C29.3524 240.002 26.7656 237.415 26.7656 234.223C26.7656 231.031 29.3531 228.443 32.545 228.443H86.3094C89.5021 228.443 92.0888 231.031 92.0888 234.223C92.0888 237.415 89.5021 240.002 86.3094 240.002Z" fill="#698ED5"/>
<path d="M350.62 110.445H320.096C316.903 110.445 314.316 107.857 314.316 104.665C314.316 101.473 316.904 98.8857 320.096 98.8857H350.62C353.813 98.8857 356.399 101.473 356.399 104.665C356.399 107.857 353.813 110.445 350.62 110.445Z" fill="#698ED5"/>
<path d="M293.292 110.445H200.639C197.446 110.445 194.859 107.857 194.859 104.665C194.859 101.473 197.447 98.8857 200.639 98.8857H293.292C296.485 98.8857 299.071 101.473 299.071 104.665C299.071 107.857 296.485 110.445 293.292 110.445Z" fill="#698ED5"/>
<path d="M350.623 135.15H200.639C197.446 135.15 194.859 132.562 194.859 129.37C194.859 126.178 197.447 123.591 200.639 123.591H350.623C353.816 123.591 356.402 126.178 356.402 129.37C356.402 132.562 353.816 135.15 350.623 135.15Z" fill="#698ED5"/>
<path d="M349.31 252.901L337.372 247.878C338.276 242.016 338.283 236.138 337.466 230.417L349.463 225.526C351.836 224.558 352.976 221.849 352.008 219.476L344.521 201.109C343.554 198.736 340.845 197.596 338.471 198.564L326.473 203.455C323.058 198.793 318.942 194.595 314.198 191.036L319.222 179.098C320.216 176.736 319.106 174.014 316.743 173.02L298.463 165.327C296.1 164.333 293.379 165.443 292.385 167.806L287.362 179.744C281.5 178.84 275.622 178.832 269.901 179.65L265.009 167.653C264.042 165.28 261.333 164.14 258.959 165.107L240.593 172.595C238.219 173.563 237.079 176.271 238.047 178.645L242.938 190.643C238.276 194.058 234.079 198.173 230.52 202.917L218.582 197.894C216.219 196.9 213.497 198.01 212.503 200.373L204.811 218.653C203.817 221.016 204.926 223.738 207.289 224.732L219.227 229.755C218.324 235.617 218.315 241.495 219.134 247.216L207.136 252.108C204.763 253.076 203.623 255.784 204.591 258.158L212.078 276.524C213.046 278.897 215.755 280.037 218.128 279.069L230.126 274.179C233.541 278.841 237.658 283.038 242.401 286.597L237.378 298.535C236.384 300.897 237.493 303.619 239.856 304.614L258.137 312.306C260.5 313.3 263.221 312.191 264.215 309.828L269.239 297.89C275.1 298.793 280.978 298.801 286.7 297.983L291.591 309.98C292.558 312.354 295.268 313.494 297.641 312.526L316.007 305.039C318.381 304.071 319.521 301.362 318.553 298.988L313.661 286.991C318.323 283.576 322.52 279.46 326.08 274.717L338.018 279.74C340.38 280.734 343.101 279.624 344.096 277.261L351.789 258.981C352.783 256.617 351.673 253.895 349.31 252.901ZM266.546 266.75C251.119 260.258 243.874 242.489 250.365 227.062C256.857 211.635 274.626 204.391 290.053 210.882C305.48 217.374 312.724 235.143 306.233 250.57C299.742 265.997 281.973 273.241 266.546 266.75Z" fill="#736E6E"/>
<path d="M278.299 246.944C282.788 246.944 286.427 243.305 286.427 238.816C286.427 234.327 282.788 230.688 278.299 230.688C273.811 230.688 270.172 234.327 270.172 238.816C270.172 243.305 273.811 246.944 278.299 246.944Z" fill="#736E6E"/>
<path d="M349.312 252.901L337.374 247.878C338.277 242.016 338.285 236.138 337.467 230.417L349.464 225.526C351.838 224.558 352.978 221.849 352.01 219.476L344.523 201.109C343.556 198.736 340.846 197.596 338.473 198.564L326.475 203.455C323.06 198.793 318.944 194.595 314.2 191.036L319.223 179.098C320.217 176.736 319.108 174.014 316.745 173.02L298.465 165.327C296.102 164.333 293.38 165.443 292.387 167.806L288.752 176.443C307.222 186.59 319.743 206.222 319.743 228.783C319.743 261.745 293.022 288.465 260.061 288.465C253.256 288.465 246.724 287.31 240.631 285.212C241.212 285.684 241.802 286.144 242.403 286.596L237.38 298.534C236.386 300.896 237.495 303.617 239.858 304.611L258.139 312.304C260.502 313.298 263.224 312.188 264.218 309.825L269.241 297.887C275.103 298.791 280.981 298.799 286.702 297.981L291.593 309.978C292.561 312.352 295.27 313.492 297.644 312.524L316.01 305.036C318.383 304.069 319.523 301.36 318.555 298.986L313.664 286.989C318.326 283.574 322.524 279.458 326.083 274.714L338.021 279.737C340.383 280.732 343.105 279.622 344.099 277.259L351.791 258.978C352.784 256.617 351.674 253.895 349.312 252.901Z" fill="#595454"/>
<path d="M359.137 0.130859H343.926V65.9859H383V23.9936C383 10.8145 372.316 0.130859 359.137 0.130859Z" fill="#4073C8"/>
</svg>
