<svg width="433" height="434" viewBox="0 0 433 434" fill="none" xmlns="http://www.w3.org/2000/svg">
<path d="M173.33 126.128C173.33 115.292 170.236 109.73 164.048 109.425C161.585 109.309 159.181 109.701 156.843 110.607C154.976 111.275 153.719 111.935 153.058 112.602V138.464C157.017 140.944 160.532 142.097 163.597 141.916C170.083 141.488 173.33 136.23 173.33 126.128ZM180.963 126.577C180.963 132.082 179.671 136.651 177.07 140.284C174.172 144.396 170.156 146.514 165.021 146.63C161.15 146.753 157.162 145.542 153.058 143.004V166.509L146.42 164.145V111.971C147.509 110.636 148.911 109.49 150.611 108.519C154.562 106.22 159.363 105.038 165.014 104.979L165.108 105.074C170.272 105.008 174.252 107.126 177.049 111.42C179.656 115.358 180.963 120.405 180.963 126.577Z" fill="#646464"/>
<path d="M221.543 142.003C221.543 149.386 220.802 154.499 219.32 157.342C217.831 160.185 214.999 162.455 210.815 164.145C207.423 165.479 203.755 166.204 199.819 166.328L198.722 162.15C202.724 161.606 205.542 161.062 207.176 160.519C210.394 159.431 212.602 157.763 213.815 155.529C214.788 153.708 215.267 150.235 215.267 145.093V143.367C210.728 145.426 205.97 146.449 200.995 146.449C197.727 146.449 194.843 145.426 192.359 143.367C189.57 141.126 188.176 138.283 188.176 134.838V107.25L194.814 104.979V132.749C194.814 135.715 195.773 138 197.69 139.603C199.608 141.205 202.092 141.974 205.135 141.916C208.178 141.851 211.44 140.676 214.904 138.377V105.98H221.543V142.003Z" fill="#646464"/>
<path d="M247.457 146.267C246.666 146.332 245.939 146.361 245.271 146.361C241.516 146.361 238.589 145.469 236.497 143.677C234.413 141.886 233.367 139.413 233.367 136.258V110.149H228.82V105.979H233.367V94.9049L239.998 92.5479V105.979H247.457V110.149H239.998V136.077C239.998 138.564 240.666 140.327 242.003 141.357C243.15 142.205 244.974 142.691 247.457 142.814V146.267Z" fill="#646464"/>
<path d="M287.646 145.724H281.007V120.137C281.007 117.534 280.397 115.293 279.184 113.422C277.782 111.304 275.836 110.245 273.337 110.245C270.294 110.245 266.488 111.848 261.92 115.053V145.724H255.281V84.5643L261.92 82.4756V110.332C266.161 107.25 270.795 105.705 275.829 105.705C279.344 105.705 282.191 106.887 284.37 109.244C286.556 111.601 287.646 114.539 287.646 118.049V145.724Z" fill="#646464"/>
<path d="M322.937 125.083C322.937 120.92 322.145 117.483 320.569 114.763C318.695 111.449 315.783 109.701 311.846 109.52C304.569 109.94 300.937 115.147 300.937 125.127C300.937 129.703 301.692 133.525 303.218 136.593C305.164 140.502 308.084 142.431 311.977 142.366C319.284 142.308 322.937 136.549 322.937 125.083ZM330.208 125.127C330.208 131.052 328.69 135.984 325.661 139.922C322.327 144.331 317.722 146.543 311.846 146.543C306.021 146.543 301.482 144.331 298.206 139.922C295.236 135.984 293.754 131.052 293.754 125.127C293.754 119.557 295.359 114.872 298.569 111.057C301.961 107.01 306.421 104.979 311.933 104.979C317.446 104.979 321.935 107.01 325.392 111.057C328.602 114.872 330.208 119.557 330.208 125.127Z" fill="#646464"/>
<path d="M368.26 145.724H361.621V118.687C361.621 115.72 360.728 113.407 358.941 111.739C357.154 110.078 354.772 109.273 351.802 109.338C348.649 109.396 345.65 110.426 342.803 112.42V145.724H336.164V111.601C339.984 108.823 343.5 107.01 346.71 106.162C349.739 105.371 352.412 104.979 354.714 104.979C356.29 104.979 357.772 105.132 359.166 105.436C361.774 106.038 363.895 107.155 365.529 108.794C367.352 110.607 368.26 112.783 368.26 115.329V145.724Z" fill="#646464"/>
<path d="M80.8588 84.8083C77.4432 84.8241 74.1814 85.115 71.3114 85.6221C62.8567 87.1136 61.3216 90.2354 61.3216 95.9925V103.596H81.3012V106.13H61.3216H53.8235C48.0169 106.13 42.9324 109.615 41.3421 116.245C39.5076 123.844 39.4262 128.586 41.3421 136.52C42.7623 142.427 46.154 146.635 51.9606 146.635H58.83V137.52C58.83 130.935 64.5358 125.127 71.3114 125.127H91.2677C96.8228 125.127 101.257 120.56 101.257 114.989V95.9925C101.257 90.5859 96.6897 86.5245 91.2677 85.6221C87.8355 85.0516 84.2743 84.7925 80.8588 84.8083ZM70.054 90.9235C72.1177 90.9235 73.803 92.6339 73.803 94.7369C73.803 96.8324 72.1177 98.5269 70.054 98.5269C67.9828 98.5269 66.3049 96.8324 66.3049 94.7369C66.3049 92.6339 67.9828 90.9235 70.054 90.9235Z" fill="url(#paint0_linear_581_14796)"/>
<path d="M103.748 106.131V114.99C103.748 121.858 97.9163 127.639 91.2664 127.639H71.3101C65.8437 127.639 61.3203 132.31 61.3203 137.777V156.773C61.3203 162.18 66.0287 165.36 71.3101 166.911C77.6345 168.768 83.6993 169.104 91.2664 166.911C96.2963 165.457 101.256 162.531 101.256 156.773V149.17H81.2999V146.636H101.256H111.246C117.053 146.636 119.216 142.591 121.236 136.521C123.322 130.272 123.233 124.262 121.236 116.245C119.801 110.473 117.06 106.131 111.246 106.131H103.748ZM92.5238 154.239C94.595 154.239 96.2729 155.934 96.2729 158.029C96.2729 160.132 94.595 161.842 92.5238 161.842C90.4601 161.842 88.7748 160.132 88.7748 158.029C88.7748 155.934 90.4601 154.239 92.5238 154.239Z" fill="url(#paint1_linear_581_14796)"/>
<path d="M381.195 100.072H382.359V92.7829H385.116V91.9141H378.438V92.7829H381.195V100.072ZM386.148 100.072H387.142V93.4147L389.3 100.071H390.408L392.657 93.4373V100.072H393.741V91.9141H392.306L389.848 98.9029L387.752 91.9141H386.148V100.072Z" fill="#646464"/>
<path opacity="0.44382" d="M108.301 179.825C108.301 180.506 107.608 181.18 106.262 181.809C104.917 182.438 102.945 183.009 100.459 183.49C97.9723 183.972 95.0207 184.354 91.7723 184.614C88.5239 184.875 85.0423 185.009 81.5262 185.009C78.0102 185.009 74.5286 184.875 71.2802 184.614C68.0318 184.354 65.0802 183.972 62.594 183.49C60.1077 183.009 58.1356 182.438 56.79 181.809C55.4445 181.18 54.752 180.506 54.752 179.825C54.752 179.144 55.4445 178.47 56.79 177.841C58.1356 177.212 60.1077 176.64 62.594 176.159C65.0802 175.678 68.0318 175.296 71.2802 175.035C74.5286 174.775 78.0102 174.641 81.5262 174.641C85.0423 174.641 88.5239 174.775 91.7723 175.035C95.0207 175.296 97.9723 175.678 100.459 176.159C102.945 176.64 104.917 177.212 106.262 177.841C107.608 178.47 108.301 179.144 108.301 179.825Z" fill="url(#paint2_radial_581_14796)"/>
<path d="M433 217C433 245.431 427.4 273.584 416.52 299.851C405.64 326.118 389.693 349.985 369.589 370.089C349.485 390.193 325.618 406.14 299.351 417.02C273.084 427.9 244.931 433.5 216.5 433.5C188.069 433.5 159.916 427.9 133.649 417.02C107.382 406.14 83.5153 390.193 63.4114 370.089C43.3075 349.985 27.3602 326.118 16.4801 299.851C5.59993 273.584 -2.48553e-06 245.431 0 217L216.5 217H433Z" fill="#103E2E"/>
<path fill-rule="evenodd" clip-rule="evenodd" d="M102.323 301.918C102.279 310.38 108.484 315.425 118.386 313.131V290.705C108.359 287.651 102.365 293.829 102.323 301.918ZM118.688 258.277H132.326V322.829C119.254 324.966 106.734 326.322 97.7775 321.314C86.245 314.866 85.3179 294.376 94.4436 285.25C99.0704 280.623 108.385 277.366 118.386 279.492V259.187C118.359 258.756 118.335 258.328 118.688 258.277Z" fill="white"/>
<path fill-rule="evenodd" clip-rule="evenodd" d="M154.45 272.521H140.812V258.277H154.45V272.521Z" fill="white"/>
<path fill-rule="evenodd" clip-rule="evenodd" d="M318.102 313.739C332.969 319.516 334.614 287.128 319.618 290.1C310.305 291.946 310.604 310.825 318.102 313.739ZM318.708 278.887C330.062 277.673 338.627 282.683 342.044 290.403C347.875 303.576 341.724 318.69 332.346 323.134C327.486 325.437 322.397 325.657 317.799 325.255C303.588 324.016 294.625 309.533 299.616 293.434C300.397 290.914 301.274 289.373 301.737 288.585C304.827 283.333 310.042 279.814 318.708 278.887Z" fill="white"/>
<path fill-rule="evenodd" clip-rule="evenodd" d="M173.241 308.585C169.469 314.924 178.947 316.442 185.06 314.646V305.251C180.363 305.907 175.016 305.602 173.241 308.585ZM197.183 323.435C185.917 324.083 168.797 327.92 162.634 320.404C159.013 315.988 159.403 307.565 162.634 303.433C166.81 298.093 175.926 296.929 184.151 296.159C184.898 294.32 184.394 291.329 183.545 290.098C176.021 288.181 168.545 291.151 163.241 293.431V282.824C171.253 279.143 189.812 275.267 195.365 283.734C198.281 288.18 197.183 295.936 197.183 302.826V323.435Z" fill="white"/>
<path fill-rule="evenodd" clip-rule="evenodd" d="M245.066 324.041H231.428V306.464C231.428 300.676 232.364 293.337 229.306 291.007C226.911 289.182 221.229 290.098 217.79 291.007V324.041H204.152V281.916C218.094 278.294 243.258 274.412 245.066 291.916C245.957 300.547 244.405 313.495 245.066 324.041Z" fill="white"/>
<path fill-rule="evenodd" clip-rule="evenodd" d="M265.367 309.494C267.662 313.207 273.876 314.599 279.004 312.221C278.723 305.128 278.624 297.853 278.701 290.401C266.915 287.287 259.891 300.637 265.367 309.494ZM299.613 280.703C298.399 284.338 296.622 287.41 295.067 290.704C293.661 291.019 292.443 290.146 291.733 290.704C291.422 305.477 294.879 325.504 289.005 336.163C285.469 342.58 278.958 346.698 269.003 347.376C261.752 347.871 256.124 346.686 250.82 344.649V331.92C257.041 335.553 272.761 338.514 277.186 331.011C278.488 328.803 278.406 326.522 279.004 323.131C276.155 323.281 273.389 324.6 269.913 324.647C255.62 324.837 246.778 313.456 250.214 297.674C251.543 291.57 255.12 286.654 259.912 283.734C269.865 277.667 285.164 278.128 299.613 280.703Z" fill="white"/>
<path fill-rule="evenodd" clip-rule="evenodd" d="M154.451 279.734C154.436 289.777 154.438 296.993 154.437 309.193C153.858 321.183 153.992 330.73 149.602 336.467C148.736 337.599 146.898 339.249 145.359 340.407C144.067 341.38 141.605 343.352 140.207 343.438C138.798 343.525 135.178 341.482 133.54 340.71C131.388 339.697 129.4 338.352 127.176 337.68C132.363 334.465 137.288 332.055 139.298 325.557C141.046 319.906 140.813 311.718 140.813 303.737C140.813 295.857 140.849 286.695 140.849 279.738L154.451 279.735V279.734Z" fill="white"/>
<defs>
<linearGradient id="paint0_linear_581_14796" x1="39.9355" y1="84.8076" x2="85.949" y2="124.075" gradientUnits="userSpaceOnUse">
<stop stop-color="#5A9FD4"/>
<stop offset="1" stop-color="#306998"/>
</linearGradient>
<linearGradient id="paint1_linear_581_14796" x1="92.0437" y1="157.39" x2="75.5476" y2="134.24" gradientUnits="userSpaceOnUse">
<stop stop-color="#FFD43B"/>
<stop offset="1" stop-color="#FFE873"/>
</linearGradient>
<radialGradient id="paint2_radial_581_14796" cx="0" cy="0" r="1" gradientUnits="userSpaceOnUse" gradientTransform="translate(81.5262 179.825) rotate(-90) scale(5.1841 22.82)">
<stop stop-color="#B8B8B8" stop-opacity="0.498039"/>
<stop offset="1" stop-color="#7F7F7F" stop-opacity="0"/>
</radialGradient>
</defs>
</svg>
