<svg width="160" height="32" viewBox="0 0 160 32" fill="none" xmlns="http://www.w3.org/2000/svg">
<g clip-path="url(#clip0)">
<path d="M16.3578 15.1604C16.3578 19.8219 12.7359 23.3814 8.27317 23.3814C5.24516 23.3814 2.841 21.8069 1.56188 19.3811V23.0342H0V0.984195H1.56038V10.9382C2.841 8.51232 5.24366 6.93786 8.27167 6.93786C12.7374 6.93786 16.3578 10.4974 16.3578 15.1604ZM14.7975 15.1604C14.7975 11.4122 11.8936 8.45043 8.17892 8.45043C4.46422 8.45043 1.56038 11.4122 1.56038 15.1604C1.56038 18.9086 4.46422 21.8703 8.17892 21.8703C11.8936 21.8703 14.7975 18.9086 14.7975 15.1604Z" fill="white"/>
<path d="M26.2287 7.06453V8.5771C23.5433 8.5771 21.015 10.2467 21.015 14.2787V23.0356H19.4546V7.28493H21.015V10.372C22.0772 7.88271 24.1058 7.06453 26.2287 7.06453Z" fill="white"/>
<path d="M28.2335 2.2129C28.2335 1.55172 28.796 0.984131 29.4827 0.984131C30.1694 0.984131 30.7319 1.55172 30.7319 2.2129C30.7319 2.90579 30.1694 3.47338 29.4827 3.47338C28.796 3.47338 28.2335 2.90579 28.2335 2.2129ZM28.7017 7.28499H30.2621V23.0341H28.7017V7.28499Z" fill="white"/>
<path d="M49.8126 7.2849V22.2793C49.8126 27.0042 46.3477 29.6821 42.0391 29.6821C38.3872 29.6821 35.7961 28.2012 34.671 25.9022L36.0444 25.1142C36.8568 26.7838 38.6041 28.1695 42.0376 28.1695C45.9393 28.1695 48.2492 25.8705 48.2492 22.2793V19.3809C46.9686 21.8068 44.5659 23.3812 41.5379 23.3812C37.0737 23.3812 33.4517 19.8217 33.4517 15.1602C33.4517 10.4987 37.0737 6.93921 41.5379 6.93921C44.5659 6.93921 46.9701 8.51367 48.2492 10.9395V7.28641H49.8126V7.2849ZM48.2507 15.1602C48.2507 11.412 45.3469 8.45027 41.6322 8.45027C37.9175 8.45027 35.0136 11.412 35.0136 15.1602C35.0136 18.9084 37.9175 21.8702 41.6322 21.8702C45.3484 21.8687 48.2507 18.9084 48.2507 15.1602Z" fill="white"/>
<path d="M67.1444 13.2387V23.0356H65.5526V13.2387C65.5526 10.3403 63.898 8.45037 60.9642 8.45037C57.9048 8.45037 55.5006 10.4656 55.5006 14.7195V23.0356H53.9403V0.984131H55.5006V10.2769C56.687 7.94618 58.6842 6.9378 61.0884 6.9378C64.8031 6.9378 67.1444 9.42704 67.1444 13.2387Z" fill="white"/>
<path d="M74.2056 8.82756V19.0653C74.2056 21.8369 75.6733 21.9003 78.8569 21.6165V23.0339C74.7667 23.6634 72.6138 22.6565 72.6138 19.0653V8.82756H69.1804V7.2848H72.6138V3.3479L74.2056 2.87541V7.2848H78.8569V8.82756H74.2056Z" fill="white"/>
<path d="M88.4301 23.3967C85.432 23.3967 83.3106 22.3234 82.1152 20.2055L85.4215 18.3064C86.002 19.4341 87.0313 20.0258 88.4316 20.0258C90.4782 20.0258 90.6981 18.954 90.6981 18.4936C90.6981 17.452 89.4878 17.1109 87.9543 16.6807C85.6115 16.0225 82.6942 15.2013 82.6942 11.9603C82.6942 8.36607 85.8554 7.09049 88.5617 7.09049C90.9464 7.09049 92.9227 8.08378 94.1794 9.89977L90.924 11.6705C90.3345 10.813 89.5566 10.3949 88.5617 10.3949C87.1779 10.3949 86.6857 11.1361 86.6857 11.829C86.6857 12.8932 87.9424 13.2268 89.3965 13.6133C91.7543 14.2397 94.6895 15.0171 94.6895 18.5268C94.6881 22.1181 91.4566 23.3967 88.4301 23.3967Z" fill="#F39200"/>
<path d="M107.617 22.9374L102.088 15.2297L107.3 7.55059H111.724L106.17 15.2478L111.87 22.9374H107.617ZM97.779 22.9374V0.98405H101.64V22.9359H97.779V22.9374Z" fill="#F39200"/>
<path d="M118.679 7.55078H114.818V22.9376H118.679V7.55078Z" fill="#F39200"/>
<path d="M126.77 0H122.908V22.9376H126.77V0Z" fill="#F39200"/>
<path d="M134.859 0H130.997V22.9376H134.859V0Z" fill="#F39200"/>
<path d="M144.273 23.3967C141.275 23.3967 139.154 22.3234 137.958 20.2055L141.265 18.3064C141.845 19.4341 142.875 20.0258 144.275 20.0258C146.321 20.0258 146.541 18.954 146.541 18.4936C146.541 17.452 145.331 17.1109 143.798 16.6807C141.455 16.0225 138.537 15.2013 138.537 11.9603C138.537 8.36607 141.699 7.09049 144.405 7.09049C146.79 7.09049 148.764 8.08378 150.023 9.89977L146.767 11.6705C146.178 10.813 145.4 10.3949 144.405 10.3949C143.021 10.3949 142.529 11.1361 142.529 11.829C142.529 12.8932 143.786 13.2268 145.24 13.6133C147.598 14.2397 150.533 15.0171 150.533 18.5268C150.531 22.1181 147.298 23.3967 144.273 23.3967Z" fill="#F39200"/>
<path d="M121.043 32L124.644 26.4348H117.564L121.043 32Z" fill="white"/>
<path d="M159.47 23.9997C159.184 23.9997 158.952 23.7798 158.952 23.4776C158.952 23.1887 159.181 22.9554 159.47 22.9554C159.756 22.9554 159.987 23.1865 159.987 23.4776C159.987 23.7798 159.758 23.9997 159.47 23.9997Z" fill="white"/>
<path d="M157.001 22.2154C155.301 22.2154 154.004 20.9178 154.004 19.1668C154.004 18.0314 154.579 17.0581 155.475 16.6404L155.75 17.1159C155.026 17.4514 154.557 18.2403 154.557 19.1668C154.557 20.5689 155.636 21.6244 157.003 21.6244C158.371 21.6244 159.45 20.5689 159.45 19.1668C159.45 18.2269 158.968 17.4626 158.256 17.0804L158.543 16.5938C159.428 17.0581 160 18.0314 160 19.1668C159.998 20.9178 158.701 22.2154 157.001 22.2154Z" fill="white"/>
<path d="M157.001 15.7716C155.301 15.7716 154.004 14.4162 154.004 12.723C154.004 11.0432 155.301 9.68556 157.001 9.68556C158.701 9.68556 159.998 11.041 159.998 12.723C159.998 14.4162 158.701 15.7716 157.001 15.7716ZM157.001 10.2788C155.634 10.2788 154.555 11.3454 154.555 12.7253C154.555 14.1051 155.634 15.1828 157.001 15.1828C158.369 15.1828 159.448 14.1051 159.448 12.7253C159.448 11.3454 158.367 10.2788 157.001 10.2788Z" fill="white"/>
<path d="M156.231 0H159.871V0.579943H156.231C155.138 0.579943 154.552 1.21766 154.552 2.12201C154.552 3.09525 155.196 3.85962 156.667 3.85962H159.871V4.43957H156.231C155.138 4.43957 154.552 5.03062 154.552 5.92386C154.552 6.87488 155.196 7.71924 156.667 7.71924H159.871V8.29919H154.127V7.71924H155.116C154.323 7.2904 154.002 6.59491 154.002 5.85276C154.002 5.00618 154.416 4.34624 155.174 4.04405C154.37 3.62631 154.002 2.88416 154.002 2.10868C154.002 0.879914 154.795 0 156.231 0Z" fill="white"/>
</g>
<defs>
<clipPath id="clip0">
<rect width="160" height="32" fill="white"/>
</clipPath>
</defs>
</svg>
