<?xml version="1.0" encoding="utf-8"?>
<!-- Generator: Adobe Illustrator 23.0.3, SVG Export Plug-In . SVG Version: 6.00 Build 0)  -->
<svg version="1.1" id="Layer_1" xmlns="http://www.w3.org/2000/svg" xmlns:xlink="http://www.w3.org/1999/xlink" x="0px" y="0px"
	 viewBox="0 0 648 470" style="enable-background:new 0 0 648 470;" xml:space="preserve">
<style type="text/css">
	.st0{fill:#F4F7FA;}
	.st1{opacity:0.7;clip-path:url(#SVGID_3_);}
	.st2{fill:#FFFFFF;}
	.st3{fill:url(#SVGID_4_);}
	.st4{clip-path:url(#SVGID_7_);}
	.st5{fill:#97A6B7;}
	.st6{fill:url(#SVGID_8_);}
	.st7{fill:url(#SVGID_9_);}
	.st8{fill:url(#SVGID_10_);}
	.st9{opacity:0.3;fill:#D8DEE8;}
	.st10{fill:url(#SVGID_11_);}
	.st11{opacity:0.6;fill:#FFFFFF;}
	.st12{opacity:0.8;}
	.st13{fill:url(#SVGID_12_);}
	.st14{fill:url(#SVGID_13_);}
	.st15{fill:url(#SVGID_14_);}
	.st16{fill:#26264F;}
	.st17{fill:url(#SVGID_15_);}
	.st18{fill:url(#SVGID_16_);}
	.st19{fill:url(#SVGID_17_);}
	.st20{opacity:0.25;fill:url(#SVGID_18_);}
	.st21{fill:#444B8C;}
	.st22{fill:url(#SVGID_19_);}
	.st23{fill:url(#SVGID_20_);}
	.st24{fill:url(#SVGID_21_);}
	.st25{fill:url(#SVGID_22_);}
	.st26{fill:url(#SVGID_23_);}
	.st27{fill:url(#SVGID_24_);}
	.st28{fill:url(#SVGID_25_);}
	.st29{opacity:0.3;fill:url(#SVGID_26_);}
	.st30{fill:url(#SVGID_27_);}
	.st31{fill:url(#SVGID_28_);}
	.st32{fill:url(#SVGID_29_);}
	.st33{fill:#C9CED6;}
	.st34{fill:url(#SVGID_30_);}
	.st35{fill:url(#SVGID_31_);}
	.st36{fill:url(#SVGID_32_);}
	.st37{fill:#C2C2C2;}
	.st38{fill:url(#SVGID_33_);}
	.st39{fill:url(#SVGID_34_);}
	.st40{fill:url(#SVGID_35_);}
	.st41{fill:url(#SVGID_36_);}
	.st42{fill:#BFC8D6;}
	.st43{fill:url(#SVGID_37_);}
	.st44{fill:url(#SVGID_38_);}
	.st45{fill:url(#SVGID_39_);}
	.st46{fill:url(#SVGID_40_);}
	.st47{fill:url(#SVGID_41_);}
	.st48{opacity:0.3;fill:url(#SVGID_42_);}
	.st49{fill:url(#SVGID_43_);}
	.st50{opacity:0.3;}
	.st51{fill:url(#SVGID_44_);}
	.st52{fill:url(#SVGID_45_);}
	.st53{fill:url(#SVGID_46_);}
	.st54{fill:url(#SVGID_47_);}
	.st55{fill:#D8DEE8;}
</style>
<g>
	<path class="st0" d="M492.7,80.6c-6.5-8.9-61.8-82-151.6-78.5c-4.5,0.2-92,4.8-124.3,62.2c-23.9,42.4,1.4,80.1-27.7,109
		c-25.4,25.2-56.6,8.5-72.2,28.9c-23.8,31,14.1,114.9,72.2,161.6c60,48.3,174.9,83.7,264.1,19.3C553.5,310.8,552.5,162.4,492.7,80.6
		z"/>
	<g>
		<g>
			<g>
				<defs>
					<path id="SVGID_1_" d="M362.1,262.8c-8.7-10.3-20.5-27.4-20.8-48.8c-0.5-37.4,34.5-45.9,44.8-92.6c8.3-37.6-10-52,5.6-83
						c2.6-5.2,16.1-33.3,38-34.4c12.3-0.6,21.9,7.6,23.6,9.1c27,23.2,24.8,86.4-1.3,130.3c-15,25.2-24.4,25.6-55,62.9
						C379.2,228.1,368.3,249,362.1,262.8z"/>
				</defs>
				<linearGradient id="SVGID_2_" gradientUnits="userSpaceOnUse" x1="439.5511" y1="42.1155" x2="370.1054" y2="249.3149">
					<stop  offset="0" style="stop-color:#FF9085"/>
					<stop  offset="1" style="stop-color:#FB6FBB"/>
				</linearGradient>
				<use xlink:href="#SVGID_1_"  style="overflow:visible;fill:url(#SVGID_2_);"/>
				<clipPath id="SVGID_3_">
					<use xlink:href="#SVGID_1_"  style="overflow:visible;"/>
				</clipPath>
				<g class="st1">
					<path class="st2" d="M366.5,278.6c-10.7-30.6-10.9-55.4-0.7-73.5c5-8.9,10.6-13.2,16.6-17.8c6.4-4.9,13.1-10,19-21.3
						c5.8-11,5.9-18.3,6-27.5c0.1-8.3,0.2-18.6,4.6-34.9c3.8-14.3,8-22.4,11.7-29.6c4-7.8,7.1-13.9,8.4-25
						c2-18.1-2.6-37.1-13.7-56.3l0.5-0.3c11.2,19.3,15.8,38.3,13.8,56.6c-1.2,11.2-4.4,17.4-8.4,25.2c-3.7,7.1-7.8,15.2-11.7,29.5
						c-4.4,16.2-4.5,26.5-4.6,34.8c-0.1,9.3-0.2,16.6-6.1,27.8c-6,11.4-12.7,16.6-19.2,21.5c-5.9,4.5-11.5,8.8-16.5,17.6
						c-10.1,18-9.9,42.6,0.7,73.1L366.5,278.6z"/>
					<path class="st2" d="M422.2,77.6l-0.1-0.4c-0.1-0.5-10.6-45.5-33.8-52.8l0.2-0.5c22.4,7,33.1,48.5,34.1,52.8
						c21-11.9,31.7-28.9,36.9-41.2c5.7-13.3,6.4-24,6.4-24.1l0.6,0c0,0.1-0.7,10.9-6.5,24.3c-5.3,12.4-16.1,29.7-37.5,41.6
						L422.2,77.6z"/>
					<path class="st2" d="M408.6,121.1l-0.1-0.2c-3.3-12-10.8-24.5-16.5-32.9c-6.2-9.1-11.6-15.4-11.7-15.5l0.4-0.4
						c0.1,0.1,5.5,6.4,11.7,15.5c5.7,8.4,13.2,20.8,16.5,32.8c1.8-0.3,13.4-2.1,27.5-8.8c14.1-6.7,33.5-19.8,46.4-44l0.5,0.3
						c-13,24.3-32.5,37.5-46.7,44.2c-15.3,7.3-27.7,8.9-27.9,8.9L408.6,121.1z"/>
					<path class="st2" d="M391.7,183.4c-2.2,0-3.4-0.1-3.5-0.1l-0.3,0l0-0.3c4-27.2-19.9-53.9-20.2-54.1l0.4-0.4
						c0.2,0.3,24.2,26.9,20.4,54.3c3.3,0.2,34,1.4,70.2-21.4l0.3,0.5c-20.1,12.7-38.3,17.8-50,19.9
						C401.3,183.1,395.3,183.4,391.7,183.4z"/>
				</g>
			</g>
		</g>
		<g>
			
				<linearGradient id="SVGID_4_" gradientUnits="userSpaceOnUse" x1="-1579.6171" y1="-759.0472" x2="-1440.0925" y2="-912.3521" gradientTransform="matrix(0.9998 1.870000e-02 -1.870000e-02 0.9998 2513.8557 395.449)">
				<stop  offset="3.597120e-03" style="stop-color:#E38DDD"/>
				<stop  offset="1" style="stop-color:#9571F6"/>
			</linearGradient>
			<path class="st3" d="M387,159.2c5.4-7.3,14.5-18.3,28.2-28.8c24.4-18.6,38.8-17,46.7-32.4c8.2-15.9-3.5-25.3,6.6-43.4
				c0.8-1.5,11.8-20.6,27.5-19.9c11,0.5,18.4,10.4,21.9,15.1c13.5,18,19.5,50.3,2.7,72.5c-15.9,21.1-44.1,22.6-53,23
				c-15.7,0.7-21-3.8-36.9-2.6C411.5,144.1,396.5,152.5,387,159.2z"/>
		</g>
		<g>
			<g>
				<defs>
					<path id="SVGID_5_" d="M290.8,280.9c-5.3-16.2-10.7-41-4.4-68.5c7.3-31.6,23.4-37.9,37.9-71.7c20.7-48.2-2.7-83.1,18.7-97.8
						c10.4-7.2,26.9-7.2,37,0c28.9,20.6,21,110.2-24.9,145.2c-20.7,15.8-38.8,13.9-54.4,34.4C287.1,240.5,288.1,264.4,290.8,280.9z"
						/>
				</defs>
				<linearGradient id="SVGID_6_" gradientUnits="userSpaceOnUse" x1="304.3017" y1="52.1203" x2="361.8752" y2="235.3087">
					<stop  offset="0" style="stop-color:#FFC444"/>
					<stop  offset="0.9964" style="stop-color:#F36F56"/>
				</linearGradient>
				<use xlink:href="#SVGID_5_"  style="overflow:visible;fill:url(#SVGID_6_);"/>
				<clipPath id="SVGID_7_">
					<use xlink:href="#SVGID_5_"  style="overflow:visible;"/>
				</clipPath>
				<g class="st4">
					<path class="st2" d="M287.6,240l-0.6-0.1c1.7-6.9,4.1-13.6,7-20c6.6-14.8,13.9-22.9,23.2-33.2c6-6.7,12.8-14.2,20.7-25.1
						c14.7-20.3,19.3-27.4,23.3-38.9c8.1-22.7,6.8-43,5.4-53.1c-2.1-14.3-6.9-28-14.3-40.5l0.5-0.3c7.5,12.6,12.3,26.3,14.4,40.7
						c1.5,10.2,2.7,30.6-5.4,53.4c-4.1,11.5-8.7,18.7-23.4,39c-7.9,10.9-14.7,18.4-20.7,25.1c-9.2,10.2-16.5,18.3-23.1,33
						C291.7,226.5,289.3,233.2,287.6,240z"/>
					<path class="st2" d="M365.6,106.9l0-0.5c-0.3-16.7-11-27.5-19.9-33.6c-9.7-6.6-19.4-9.4-19.5-9.4l0.2-0.6
						c0.1,0,9.9,2.8,19.6,9.5c8.9,6.1,19.6,16.9,20.1,33.6c1.8-1.1,9.1-5.7,15.7-14c6.9-8.7,14.5-23.5,11-44.2l0.6-0.1
						c3.5,20.9-4.1,35.8-11.1,44.6c-7.6,9.6-16.2,14.3-16.2,14.3L365.6,106.9z"/>
					<path class="st2" d="M363.2,160.5c-11.9,0-21-4-21.2-4.1l-0.2-0.1l0.1-0.2c8.2-31.4-12.7-47.4-12.9-47.6l0.3-0.5
						c0.2,0.2,21.3,16.4,13.1,48c2.6,1.1,27.6,11,48.6-5.3l0.4,0.5C382,158.3,371.9,160.5,363.2,160.5z"/>
					<path class="st2" d="M343.9,191.9c-16.1,0-24.3-7.3-24.4-7.4l-0.2-0.1l0.1-0.2c3.8-8.7,2.8-20.2,1.3-28.4
						c-1.6-8.8-4.2-15.7-4.2-15.8l0.5-0.2c0,0.1,2.6,7,4.3,15.9c1.5,8.2,2.5,19.7-1.2,28.5c1.7,1.4,17.5,13.4,47,2.6l0.2,0.5
						C358.2,190.7,350.4,191.9,343.9,191.9z"/>
				</g>
			</g>
		</g>
	</g>
	<g>
		<g>
			<path class="st5" d="M391.5,394c-6.7-2.2-11.6-7.9-13-14.8l-9.7-48l-82.9,2.9l-10.2,50c-1.4,7,4.3,14,10.9,16.6l34.7,13.6
				c6.5,2.5,13.4,3.5,20.3,2.9l73.3-6.3c2.1-0.2,3.9-1.9,4.1-4c0.2-2.2,1.8-4.6-0.3-5.3L391.5,394z"/>
			<linearGradient id="SVGID_8_" gradientUnits="userSpaceOnUse" x1="339.6235" y1="483.877" x2="349.9594" y2="383.9631">
				<stop  offset="0" style="stop-color:#444B8C"/>
				<stop  offset="0.9964" style="stop-color:#26264F"/>
			</linearGradient>
			<path class="st6" d="M392.3,391c-6.7-2.2-11.6-7.8-13-14.6l-9.7-47.4l-80.9,2.9l-10.2,49.3c-1.4,6.9,2.3,13.8,8.9,16.4l34.6,13.4
				c6.4,2.5,13.4,3.5,20.3,2.9l73.2-6.2c2.1-0.2,3.9-1.8,4.1-4c0.2-2.1-1-4.1-3.1-4.8L392.3,391z"/>
		</g>
		<g>
			<linearGradient id="SVGID_9_" gradientUnits="userSpaceOnUse" x1="267.8944" y1="205.0985" x2="158.7927" y2="217.7313">
				<stop  offset="0" style="stop-color:#444B8C"/>
				<stop  offset="0.3946" style="stop-color:#383C74"/>
				<stop  offset="0.9964" style="stop-color:#26264F"/>
			</linearGradient>
			<path class="st7" d="M116.5,363.1c-9,0.5-16.3-5.3-16.3-13V72.3c0-7.7,7.4-13.7,16.3-13.3l415.7,18c6.6,0.3,11.9,5.8,11.9,12.4
				v236.2c0,6.6-5.3,12.2-11.9,12.6L116.5,363.1z"/>
			<linearGradient id="SVGID_10_" gradientUnits="userSpaceOnUse" x1="453.576" y1="4.7439" x2="160.7248" y2="450.3368">
				<stop  offset="0" style="stop-color:#444B8C"/>
				<stop  offset="0.9964" style="stop-color:#26264F"/>
			</linearGradient>
			<path class="st8" d="M120.2,363.1c-9,0.5-16.3-5.3-16.3-13V72.3c0-7.7,7.4-13.7,16.3-13.3l415.7,18c6.6,0.3,11.9,5.8,11.9,12.4
				v236.2c0,6.6-5.3,12.2-11.9,12.6L120.2,363.1z"/>
			<path class="st9" d="M535.9,82.6L120.2,65.5c-4.8-0.2-8.7,3-8.7,7.1v216v61c0,4.1,3.9,7.2,8.7,7l415.7-23.9
				c3.5-0.2,6.4-3.2,6.4-6.7v-54V89.3C542.3,85.7,539.5,82.8,535.9,82.6z"/>
			<linearGradient id="SVGID_11_" gradientUnits="userSpaceOnUse" x1="416.0943" y1="61.6036" x2="73.8609" y2="563.4702">
				<stop  offset="0" style="stop-color:#AA80F9"/>
				<stop  offset="0.9964" style="stop-color:#6165D7"/>
			</linearGradient>
			<path class="st10" d="M120.2,333c-1.9,0.1-3.4-1.1-3.4-2.7V72.8c0-1.6,1.5-2.8,3.4-2.8l415.7,16.5c1.4,0.1,2.5,1.2,2.5,2.6v220.7
				c0,1.4-1.1,2.5-2.5,2.6L120.2,333z"/>
		</g>
		<path class="st11" d="M492.5,321.1c-35-21.6-10.5-83.1-49.8-114c-39.6-31.2-95.3,7.1-123.1-25.2c-20.7-24,3.5-53-16.2-75.6
			C272.5,70.8,193.4,119.5,157,84.6c-5.2-5-10.4-12.5-13.3-24.5l-23.4-1c-9-0.4-16.3,5.6-16.3,13.3v277.8c0,7.7,7.4,13.5,16.3,13
			l415.7-24.8c6.6-0.4,11.9-6,11.9-12.6v-4.2C520.3,330.9,503.4,327.8,492.5,321.1z"/>
		<g class="st12">
			<g>
				<path class="st0" d="M355.5,123.3v41.5c0,0-10.5,3.3-12.7,13.2l-14.2,0c-2.2-10.1-12.8-13.5-12.8-13.5v-42l8.9,0.2
					c-0.2,0.6-0.4,1.1-0.4,1.7c0,4.7,5.1,8.5,11.5,8.6c6.3,0.1,11.5-3.5,11.5-8.1c0-0.6-0.4-1.2-0.5-1.7L355.5,123.3z"/>
				<g>
					<polygon class="st0" points="315.6,122.3 301.2,131.7 308.4,142.9 319.7,139.8 					"/>
					<polygon class="st0" points="355.8,123.1 369.8,132.9 362.8,143.6 351.8,140.2 					"/>
				</g>
			</g>
			<g>
				<g>
					<g>
						<path class="st2" d="M267,204.1l-115.7,0.6v-98.3l115.7,2.7V204.1z M153,202.9l111.2-0.5v-91.1L153,108.8V202.9z"/>
					</g>
					<g>
						<path class="st2" d="M267,308.8L151.3,313v-98.3l115.7-1V308.8z M153,311.2l111.2-4v-91.7l-111.2,1V311.2z"/>
					</g>
					<g>
						<path class="st2" d="M389.5,203.4L283.5,204v-94.5l106.1,2.4V203.4z M285.2,202.3l102.7-0.5v-87.7l-102.7-2.3V202.3z"/>
					</g>
					<g>
						<path class="st2" d="M389.5,304.2l-106.1,3.9v-94.5l106.1-0.9V304.2z M285.2,306.4l102.7-3.7v-88.3l-102.7,0.9V306.4z"/>
					</g>
					<g>
						<path class="st2" d="M504.1,202.8l-99.3,0.5v-91.1l99.3,2.3V202.8z M407.1,201.7l95.3-0.5v-84.6l-95.3-2.1V201.7z"/>
					</g>
					<g>
						<path class="st2" d="M504.1,300l-99.3,3.7v-91.1l99.3-0.8V300z M407.1,302l95.3-3.5v-85.1l-95.3,0.8V302z"/>
					</g>
				</g>
				<g>
					<path class="st2" d="M251.9,192.2c0,2.5-2.2,4.6-4.9,4.6l-78.6,0.3c-2.9,0-5.2-2.1-5.2-4.7l0,0c0-2.6,2.3-4.7,5.2-4.7l78.6,0
						C249.7,187.6,251.9,189.6,251.9,192.2L251.9,192.2z"/>
				</g>
				<g>
					<path class="st2" d="M377.3,191.9c0,2.4-2.1,4.4-4.6,4.4l-72.8,0.2c-2.7,0-4.8-2-4.8-4.5l0,0c0-2.5,2.2-4.5,4.8-4.5l72.8,0
						C375.3,187.5,377.3,189.5,377.3,191.9L377.3,191.9z"/>
				</g>
				<g>
					<path class="st2" d="M493.8,191.7c0,2.3-1.9,4.2-4.3,4.3l-67.6,0.2c-2.5,0-4.5-1.9-4.5-4.3l0,0c0-2.4,2-4.3,4.5-4.3l67.6,0
						C491.9,187.5,493.8,189.4,493.8,191.7L493.8,191.7z"/>
				</g>
				<g>
					<path class="st2" d="M251.9,293.9c0,2.5-2.2,4.6-4.9,4.7l-78.6,2.6c-2.9,0.1-5.2-1.9-5.2-4.5l0,0c0-2.6,2.3-4.8,5.2-4.9
						l78.6-2.4C249.7,289.4,251.9,291.3,251.9,293.9L251.9,293.9z"/>
				</g>
				<g>
					<path class="st2" d="M377.3,289.8c0,2.4-2.1,4.5-4.6,4.6l-72.8,2.4c-2.7,0.1-4.8-1.9-4.8-4.4l0,0c0-2.5,2.2-4.6,4.8-4.7
						l72.8-2.2C375.3,285.5,377.3,287.4,377.3,289.8L377.3,289.8z"/>
				</g>
				<g>
					<path class="st2" d="M493.8,286.1c0,2.3-1.9,4.3-4.3,4.4l-67.6,2.3c-2.5,0.1-4.5-1.8-4.5-4.2l0,0c0-2.4,2-4.4,4.5-4.5l67.6-2.1
						C491.9,281.9,493.8,283.8,493.8,286.1L493.8,286.1z"/>
				</g>
				<g>
					<path class="st2" d="M286.9,92.1c0,3.1-2.8,5.6-6.1,5.5l-121.7-3.2c-3.6-0.1-6.7-2.8-6.7-6v-0.1c0-3.2,3-5.8,6.6-5.7l121.6,3.6
						C284,86.3,286.9,88.9,286.9,92.1L286.9,92.1z"/>
				</g>
			</g>
			<g>
				<path class="st0" d="M347.6,237.7c0-1-0.7-1.8-1.7-1.8l-18.5,0.3c-1.1,0-1.9,0.8-1.9,1.8v0.3c0,1,0.9,1.8,2,1.8l18.4-0.3
					c1,0,1.8-0.8,1.8-1.8V237.7z"/>
				<g>
					<path class="st0" d="M335.6,226c-0.9,0-1.6,1-1.6,2c0,1.3-0.7,2.5-1.8,3l-0.4,0.2c-1.6,0.6-2.7,2.2-2.8,4.1l0,1.2l8.3,0.3V226
						L335.6,226z"/>
					<path class="st0" d="M337.6,226c0.9,0,1.6,0.9,1.6,1.9c0,1.3,0.7,2.5,1.8,2.9l0.4,0.2c1.6,0.6,2.6,2.2,2.8,4l0.1,1.2l-8.1,0.6
						V226L337.6,226z"/>
				</g>
				<path class="st0" d="M344.1,239.2l-15.3,0.3c-3.3,0.1-6.2,2.5-6.2,5.6v1.7l5.3-0.1c0.5,0,0.9,0.2,0.9,0.6v0.2
					c0,0.5-0.4,0.8-0.9,0.8l-5.3,0.1v3.9l5.3-0.1c0.5,0,0.9,0.4,0.9,0.8v0.2c0,0.5-0.4,0.6-0.9,0.6l-5.3,0.1v3.9l5.3-0.1
					c0.5,0,0.9,0.6,0.9,1.1v0.2c0,0.5-0.4,0.9-0.9,0.9l-5.3,0.1v3.9l5.3-0.1c0.5,0,0.9,0.2,0.9,0.7v0.2c0,0.5-0.4,0.7-0.9,0.7
					l-5.3,0.1v3.9l5.3-0.1c0.5,0,0.9,0.5,0.9,0.9v0.2c0,0.5-0.4,1.1-0.9,1.1l-5.3,0.1v0.4c0,3.2,2.9,5.7,6.3,5.6l15.2-0.4
					c3.3-0.1,5.7-2.8,5.7-5.9v-27.1C349.8,241.5,347.4,239.2,344.1,239.2z"/>
			</g>
			<g>
				<g>
					<path class="st0" d="M460.3,236c-1-0.7-2.5-0.5-3.3,0.6l-13.6,18.7c-0.8,1.1-0.5,2.5,0.5,3.2l0.4,0.3c1.1,0.7,2.5,0.5,3.3-0.6
						l13.6-18.7c0.8-1,0.5-2.5-0.5-3.2L460.3,236z"/>
				</g>
				<g>
					<g>
						<path class="st0" d="M441.1,240.9c-0.5,0.7-0.1,1.8,0.7,2.4c1.1,0.8,1.7,2.1,1.4,3.2l-0.1,0.5c-0.4,1.6,0.3,3.5,1.9,4.7l1,0.6
							l5.3-6.5l-9.2-6.4L441.1,240.9z"/>
					</g>
					<g>
						<path class="st0" d="M442.3,239.3c0.5-0.7,1.7-0.7,2.6-0.1c1.1,0.8,2.6,0.9,3.6,0.3l0.4-0.2c1.4-0.9,3.5-0.8,5.1,0.2l1,0.7
							l-4.5,6.9l-9.2-6.4L442.3,239.3z"/>
					</g>
				</g>
				<g>
					<path class="st0" d="M444.8,236.7c2.1,1.4,2.5,4.2,1,6.3c-1.5,2-4.4,2.5-6.4,1.1c-2.1-1.4-2.5-4.3-1-6.3
						C439.8,235.8,442.7,235.3,444.8,236.7z"/>
				</g>
				<g>
					<path class="st0" d="M472.1,261.3c-4.1,5.7-12.1,7.1-17.8,3.2c-5.7-3.9-7-11.8-2.8-17.5c4.1-5.7,12.1-7.1,17.8-3.1
						C474.9,247.8,476.2,255.6,472.1,261.3z M454.6,249.1c-2.9,4-2,9.6,2,12.3c4,2.8,9.6,1.8,12.5-2.2c2.9-4,2-9.5-2-12.3
						C463.1,244.1,457.5,245.1,454.6,249.1z"/>
				</g>
			</g>
			<g>
				<g>
					<polygon class="st0" points="196.1,247.5 175.1,247.8 175.1,250.2 196.1,249.8 					"/>
					<path class="st0" d="M201.6,264.2l-5.5,0.1v-11.6l-21,0.4v12v8.6v0.5l0.1,0c0.3,4.1,3.9,6.9,8.3,6.8l18-0.5
						c4.6-0.1,8.2-3.5,8.2-7.7v-0.9C209.7,267.6,206.2,264.1,201.6,264.2z"/>
				</g>
				<g>
					<polygon class="st0" points="227.9,227.9 206.9,228.2 206.9,230.5 227.9,230.2 					"/>
					<path class="st0" d="M232.7,245.1l-4.8,0.1v-12.1l-21,0.3v11.9v8.5v0.5l-0.2,0c0.3,4,3.9,6.9,8.2,6.8l17.7-0.4
						c4.5-0.1,7.8-3.4,7.8-7.5v-0.9C240.4,248,237.2,245,232.7,245.1z"/>
				</g>
			</g>
			<g>
				<g>
					<g>
						<path class="st0" d="M466.7,146.3c0,3.2-2.5,5.8-5.8,5.8l-14.8-0.2c-3.3,0-6.1-2.7-6.1-6v-14.6c0-3.3,2.8-5.9,6.1-5.8
							l14.7,0.3c3.3,0.1,5.9,2.7,5.9,6V146.3z M465,131.5c0-2.5-1.9-4.5-4.4-4.6l-14.8-0.3c-2.5,0-4.6,1.9-4.6,4.4v14.7
							c0,2.5,2.1,4.5,4.7,4.6l14.7,0.2c2.5,0,4.4-2,4.4-4.4V131.5z"/>
					</g>
					<g>
						<path class="st0" d="M453.9,133.9c-0.2,0.7-0.7,2.6-1.6,5.2l3.2,0c-0.8-2.7-1.3-4.1-1.4-4.5
							C454.1,134.4,454,134.1,453.9,133.9z"/>
						<path class="st0" d="M464.4,131.5c0-1.6-1.4-2.9-3-2.9l-15.3-0.3c-1.6,0-3.3,1.2-3.3,2.8v14.7c0,1.6,1.6,2.9,3.3,2.9l15.1,0.2
							c1.6,0,3.2-1.2,3.2-2.8V131.5z M457.1,144.1l-0.9-2.7l-4.5-0.1l-0.9,2.7l-2.8,0l4.4-11.8l3.2,0.1l4.4,11.9L457.1,144.1z"/>
					</g>
				</g>
				<g>
					<g>
						<g>
							<path class="st0" d="M453.1,173.5c0,3.3-2.8,5.9-6.1,5.9l-14.9,0c-3.4,0-6.1-2.7-6.1-6v-14.6c0-3.3,2.7-5.9,6.1-5.9l15,0.2
								c3.3,0,6.1,2.7,6.1,6V173.5z M451.4,159.2c0-2.5-2.2-4.5-4.7-4.6l-15-0.1c-2.6,0-4.7,2-4.7,4.5v14.7c0,2.5,2.1,4.5,4.6,4.6
								l15.1,0c2.5,0,4.7-2,4.7-4.5V159.2z"/>
						</g>
						<g>
							<path class="st0" d="M450.8,158.7c0-1.6-1.7-2.9-3.3-2.9l-15.2-0.1c-1.6,0-3.1,1.3-3.1,2.9v14.8c0,1.6,1.3,2.9,2.9,2.9
								l15.4,0c1.6,0,3.3-1.3,3.3-2.9V158.7z M443.2,170.8c-0.8,0.6-1.8,1-3.2,1l-4.5,0v-12.4l3.7,0c1.8,0,3,0.2,3.8,0.7
								c0.8,0.5,1.2,1.3,1.2,2.3c0,0.7-0.1,1.3-0.5,1.8c-0.3,0.5-1.4,0.7-1.4,0.8v0.1c0,0.2,1.3,0.5,1.7,1c0.3,0.5,0.5,1.2,0.5,1.9
								C444.4,169.3,444,170.2,443.2,170.8z"/>
							<path class="st0" d="M439.3,166.5l-1.6,0v2.7l1.7,0c0.7,0,1.3,0,1.7-0.2c0.3-0.3,0.5-0.5,0.5-1.1
								C441.6,166.8,440.8,166.5,439.3,166.5z"/>
							<path class="st0" d="M440.9,164c0.3-0.2,0.5-0.6,0.5-1.1c0-0.5-0.2-0.8-0.5-1c-0.3-0.2-1-0.3-1.8-0.3l-1.3,0v2.7l1.5,0
								C439.9,164.3,440.6,164.2,440.9,164z"/>
						</g>
					</g>
					<g>
						<g>
							<path class="st0" d="M480.9,173.7c0,3.2-2.6,5.8-5.9,5.8l-14.4,0c-3.3,0-5.8-2.7-5.8-5.9V159c0-3.3,2.5-5.9,5.8-5.8l14.5,0.2
								c3.3,0,5.8,2.7,5.8,5.9V173.7z M479.7,159.5c0-2.5-1.9-4.5-4.4-4.5l-14.5-0.1c-2.5,0-4.3,2-4.3,4.5v14.6
								c0,2.5,1.8,4.5,4.4,4.5l14.6,0c2.5,0,4.3-2,4.3-4.5V159.5z"/>
						</g>
						<path class="st0" d="M478,158.9c0-1.6-1.2-2.9-2.8-2.9l-14.5-0.1c-1.6,0-2.6,1.3-2.6,2.8v14.6c0,1.6,1.1,2.9,2.7,2.9l14.5,0
							c1.6,0,2.6-1.3,2.6-2.8V158.9z M469.7,169.8c0.9,0,2.7-0.2,3.2-0.6v2.2c-0.6,0.4-2.2,0.6-3.5,0.6c-1.8,0-3.2-0.5-4.1-1.6
							c-0.9-1.1-1.4-2.6-1.4-4.6c0-1.3,0.2-2.4,0.7-3.3c0.5-0.9,1.1-1.7,2-2.2c0.9-0.5,1.9-0.7,3-0.7c1.2,0,2.4,0.3,3.6,0.9
							l-0.8,2.1c-0.5-0.2-0.9-0.4-1.4-0.6c-0.5-0.2-0.9-0.2-1.4-0.3c-1,0-1.7,0.3-2.3,1.1c-0.5,0.7-0.7,1.7-0.7,3
							C466.5,168.4,467.6,169.8,469.7,169.8z"/>
					</g>
				</g>
			</g>
			<g>
				<polygon class="st0" points="222.1,169.4 220,171 204.1,152.3 206.3,150.8 				"/>
				<g>
					<path class="st0" d="M225.3,175.2c-1.8,1.3-4.3,1-5.7-0.7c-1.4-1.6-1.1-4,0.7-5.3c1.8-1.3,4.3-1,5.7,0.7
						C227.4,171.6,227.1,174,225.3,175.2z M221.3,170.5c-1.1,0.8-1.3,2.2-0.4,3.2c0.8,1,2.4,1.2,3.5,0.4c1.1-0.8,1.3-2.2,0.4-3.2
						C223.9,169.9,222.4,169.7,221.3,170.5z"/>
				</g>
				<g>
					<path class="st0" d="M208.4,136.6c-4.8-4.3-11.7-4.5-16.9-0.9c-5.1,3.6-6.7,9.7-3.4,15.1L208.4,136.6z"/>
					<path class="st0" d="M192.3,154.9c4.4,2.7,10.7,2.8,15.3-0.4c4.5-3.2,5.9-8.8,4.2-13.3L192.3,154.9z"/>
				</g>
				<path class="st0" d="M211.6,138.4c0.4,0.4,0.2,0.9-0.3,1.3L190.8,154c-0.5,0.3-1,0.3-1.4-0.1l-0.9-1c-0.4-0.4-0.3-0.9,0.2-1.3
					l20.5-14.3c0.5-0.3,1.1-0.4,1.5,0.1L211.6,138.4z"/>
			</g>
		</g>
	</g>
	<g>
		<g>
			<g>
				<linearGradient id="SVGID_12_" gradientUnits="userSpaceOnUse" x1="358.5749" y1="181.7131" x2="352.1752" y2="192.0655">
					<stop  offset="0" style="stop-color:#FFC444"/>
					<stop  offset="0.9964" style="stop-color:#F36F56"/>
				</linearGradient>
				<path class="st13" d="M358.2,192.3c0.6-1,1.8-3.1,1.9-6c0.1-5.6-4-10-4.6-9.7c-0.3,0.1,0.1,1.8,0.3,2.5c0.4,1.5,0.9,1.7,0.9,2.4
					c-0.1,1.4-2.1,1.5-3.2,3.4c-0.8,1.4-0.8,3.3,0,4.9C354.9,192.2,358.1,192.3,358.2,192.3z"/>
				<linearGradient id="SVGID_13_" gradientUnits="userSpaceOnUse" x1="449.731" y1="304.242" x2="452.3153" y2="309.5561">
					<stop  offset="0" style="stop-color:#FFC444"/>
					<stop  offset="0.9964" style="stop-color:#F36F56"/>
				</linearGradient>
				<polygon class="st14" points="446.8,313.7 445.2,308.2 451.9,303.3 456,301.8 453.6,309.4 				"/>
				
					<linearGradient id="SVGID_14_" gradientUnits="userSpaceOnUse" x1="-806.4113" y1="439.5701" x2="-806.4113" y2="422.8986" gradientTransform="matrix(1 0 0 1 1249.563 0)">
					<stop  offset="0" style="stop-color:#FFC444"/>
					<stop  offset="0.9964" style="stop-color:#F36F56"/>
				</linearGradient>
				<path class="st15" d="M438.6,424.2c0,0,3.6,9.2,2.7,13.2c3.9-0.1,6.4-0.6,6.4-0.6s-1.6-4.2-1.9-6.2c-0.4-2.8-0.4-7.3-0.4-7.3
					L438.6,424.2z"/>
				<path class="st16" d="M398.5,445.6c0.2,0.3,0.7,0.9,0.7,1.7c0,0.4-0.1,0.8-0.2,1.1c-0.6,1.6-1.6,1.8-2.6,3.6
					c-0.6,1.1-0.5,1.4-1.1,1.9c-0.8,0.6-1.7,0.7-2.5,0.7c-1.4,0-3.4,0-5.8-0.3c1.3-1.7,2.7-3.4,4.2-5.1c0.6-0.8,1.3-1.5,1.9-2.2
					l3.8-1.3C397.3,445.6,397.9,445.6,398.5,445.6z"/>
				
					<linearGradient id="SVGID_15_" gradientUnits="userSpaceOnUse" x1="-857.2261" y1="444.3213" x2="-857.2261" y2="424.2295" gradientTransform="matrix(1 0 0 1 1249.563 0)">
					<stop  offset="0" style="stop-color:#FFC444"/>
					<stop  offset="0.9964" style="stop-color:#F36F56"/>
				</linearGradient>
				<path class="st17" d="M395.3,427c0,0-2.2,11.5,0.6,14.7c2.4,3.2-1.1,0.9-1.1,0.9l-4.2,3.7l-2.5,4.4c0,0,2.3-11.2,1.7-15.7
					c-0.6-4.4-0.9-7.5-0.9-7.5L395.3,427z"/>
				
					<linearGradient id="SVGID_16_" gradientUnits="userSpaceOnUse" x1="-868.4662" y1="365.3973" x2="-802.733" y2="365.3973" gradientTransform="matrix(1 0 0 1 1249.563 0)">
					<stop  offset="0" style="stop-color:#311944"/>
					<stop  offset="1" style="stop-color:#893976"/>
				</linearGradient>
				<path class="st18" d="M387,301.7c0,0-5.9,5.3-5.9,27c0,21.7,2.8,68.9,2.8,68.9l4.5,33.8c0,0,4.6,0.2,7.7-0.8
					c2.8-12.7,7.3-34.3,5.2-52.3c-0.9-19.6,7.8-44.1,7.8-44.1s7.5,24.8,12.7,37.3c5.3,12.4,15.3,51.3,16.3,54.1
					c6.2,0.6,8.8-1.1,8.8-1.1s-4-41.9-7.7-57.7c-3.7-15.8-3.4-54-9.6-64.9C415.6,296.4,387,301.7,387,301.7z"/>
				
					<linearGradient id="SVGID_17_" gradientUnits="userSpaceOnUse" x1="-870.5554" y1="316.3967" x2="-823.1981" y2="395.9386" gradientTransform="matrix(1 0 0 1 1249.563 0)">
					<stop  offset="0" style="stop-color:#311944"/>
					<stop  offset="1" style="stop-color:#893976"/>
				</linearGradient>
				<path class="st19" d="M387,301.7c0,0-5.9,5.3-5.9,27c0,21.7,2.8,68.9,2.8,68.9l4.5,33.8c0,0,4.6,0.2,7.7-0.8
					c2.8-12.7,7.3-34.3,5.2-52.3c-0.9-19.6,7.8-44.1,7.8-44.1s7.5,24.8,12.7,37.3c5.3,12.4,15.3,51.3,16.3,54.1
					c6.2,0.6,8.8-1.1,8.8-1.1s-4-41.9-7.7-57.7c-3.7-15.8-3.4-54-9.6-64.9C415.6,296.4,387,301.7,387,301.7z"/>
				
					<linearGradient id="SVGID_18_" gradientUnits="userSpaceOnUse" x1="-851.9122" y1="305.297" x2="-804.5549" y2="384.8389" gradientTransform="matrix(1 0 0 1 1249.563 0)">
					<stop  offset="0" style="stop-color:#311944"/>
					<stop  offset="1" style="stop-color:#893976"/>
				</linearGradient>
				<path class="st20" d="M417.6,341.5c1.8,12,5.5,18.4,14.7,26.7c7.4,5.5,1.8,17.5,4.6,26.7c0.9,2.8,3.7,5.5,4.6,8.3
					c3.4,6.8,0.2,15.2,1.8,22.5c2.4-0.3,3.5-1,3.5-1s-4-41.9-7.7-57.7c-3.7-15.8-3.4-54-9.6-64.9c-14-5.6-42.5-0.3-42.5-0.3
					s-5.9,5.3-5.9,27c0,1.8,0,3.7,0.1,5.8c6.1,5.4,18.6,6.6,26.4,0.6c0.5-0.4,1-0.6,1.5-0.7c0-0.1,0-0.1,0-0.1s0,0,0,0.1
					C412.6,333.7,416.8,338.3,417.6,341.5z"/>
				<g>
					<path class="st16" d="M440.3,440.9c0,0-0.9,0-0.8,1.2c0.1,1.2-0.4,5.2,4.2,5.4c4.6,0.2,5.3-0.3,5.5-0.3c0.2,0-1.2-3.9-1.2-3.9
						l-1.5-1.9l-4-0.4L440.3,440.9z"/>
					<path class="st21" d="M450.5,444.9c-0.1-1-0.6-2.5-1.2-3.7c-0.8-1.8-0.1-2.5-0.9-4.2c-0.3-0.6-0.5-1.1-1.1-1.7
						c-0.1-0.1-1.4-1.3-3.3-1.2c-0.4,0-0.9,0-1.5,0.4c-0.7,0.4-1.1,1-1.4,1.5c-0.5,0.8-0.4,1-1.1,3.3c-0.1,0.2-0.2,0.6-0.3,1.1
						c-0.1,0.4-0.1,0.8-0.1,1c1.2,0,5.9,0.2,6.8,0.9c1,0.7,1.5,1.9,1.5,3.1c0,1.2,0.6,1.8,1.2,1.7
						C449.7,447.1,450.8,446.1,450.5,444.9z"/>
				</g>
				<path class="st21" d="M394.7,440c1,0,1.8,0.8,2.4,2.8c0.6,2,3.3,3.8,0.1,3.3c-3.2-0.4-5.6,4.1-6.7,5.8c-1.1,1.7-4.2,3.2-4.2,1.5
					c0.1-1.6,1.4-2.4,1.8-4.1C388.5,447.8,392.3,440,394.7,440z"/>
				
					<linearGradient id="SVGID_19_" gradientUnits="userSpaceOnUse" x1="-1144.6866" y1="-4850.7739" x2="-1094.5327" y2="-4747.6406" gradientTransform="matrix(-0.9906 -0.1367 0.1367 -0.9906 -36.6882 -4705.269)">
					<stop  offset="0" style="stop-color:#FFC444"/>
					<stop  offset="0.9964" style="stop-color:#F36F56"/>
				</linearGradient>
				<path class="st22" d="M449.3,304.3c0.8-2.1,5.5-16.1-2.2-28.8c-6.3-10.4-17.2-13.8-18.8-14.3c-9.5-2.8-14.2,0.8-17.2-2.5
					c-5.1-5.6,0.7-24.7,11.8-28.6c12.5-4.3,27.6,12.3,33.6,23.2c8,14.3,6,28.5,5.6,31.4c-1.2,7.6-4,13.4-6.1,17
					C453.8,302.6,451.5,303.4,449.3,304.3z"/>
				<linearGradient id="SVGID_20_" gradientUnits="userSpaceOnUse" x1="387.7038" y1="230.9575" x2="438.4987" y2="335.4091">
					<stop  offset="0" style="stop-color:#FFC444"/>
					<stop  offset="0.9964" style="stop-color:#F36F56"/>
				</linearGradient>
				<path class="st23" d="M416.6,227.5c-11.2-0.4-19.8-0.3-24.7,4.6c-5.1,5.1,0.1,10.9-1.1,24.4C389.1,277,376,282.1,375,303
					c-0.3,7,0.9,12.8,1.8,16.3c2.9,3.6,7.6,8.6,14.5,12.9c10.1,6.2,16,5.1,30.5,9.1c23.8,6.5,25.9,14.3,37.7,12.3
					c11.9-2,22.4-12,21.1-17.5c-0.8-3.3-5.6-2.4-11.1-7.4c-7.1-6.5-4.4-12.7-9.8-19.6c-7.8-10-18.6-3.9-25.3-12.6
					c-6.7-8.8-4-26.1,1.6-35.5c3.7-6.2,5.3-13.4,8.4-19.8c0.3-0.5,0.6-1.4,0.4-2.5c-0.5-4.2-7.5-6.5-12.8-8.2
					C424,227.8,417.5,227.5,416.6,227.5z"/>
				
					<linearGradient id="SVGID_21_" gradientUnits="userSpaceOnUse" x1="-839.7371" y1="217.8885" x2="-830.03" y2="233.3172" gradientTransform="matrix(1 0 0 1 1249.563 0)">
					<stop  offset="0" style="stop-color:#FFC444"/>
					<stop  offset="0.9964" style="stop-color:#F36F56"/>
				</linearGradient>
				<path class="st24" d="M407.1,227l2.2-0.7c0,0,0.6,3,7.7,3.4c3.9,0,6.5-2.2,6.5-2.2l1.5,1.1c0,0-3.3,4.1-8.6,4
					C409.7,232.5,407.1,227,407.1,227z"/>
				<g>
					
						<linearGradient id="SVGID_22_" gradientUnits="userSpaceOnUse" x1="-828.0181" y1="215.5213" x2="-838.6863" y2="232.7786" gradientTransform="matrix(1 0 0 1 1249.563 0)">
						<stop  offset="0" style="stop-color:#FFC444"/>
						<stop  offset="0.9964" style="stop-color:#F36F56"/>
					</linearGradient>
					<path class="st25" d="M411.6,217.9c0.4-3.3,3-5.4,3.6-5.8c2.4-1.9,2.9-2.1,3.7-2.2l1.1-0.2c0,0,0.1,0,0.1,0c0.7,0,2.6,0.8,3,1
						c1.1,0.8,0.3,6.4-3.1,13.4c-0.1,0.6-0.3,1.2-0.4,1.8c3,0.5,3.7,1.1,3.8,1.5c0.1,0.9-3.2,2.1-6.3,2.2c-3.8,0.1-7.8-1.5-7.8-2.8
						c0-0.5,0.7-1.1,3.5-1.7c0.4-0.6,0.9-1.2,1.3-1.8C413.7,222.9,411.3,220.3,411.6,217.9z"/>
					
						<linearGradient id="SVGID_23_" gradientUnits="userSpaceOnUse" x1="-1410.6235" y1="-363.0336" x2="-1420.9473" y2="-346.3335" gradientTransform="matrix(0.9717 -0.2361 0.2361 0.9717 1874.1375 232.8961)">
						<stop  offset="0" style="stop-color:#FFC444"/>
						<stop  offset="0.9964" style="stop-color:#F36F56"/>
					</linearGradient>
					<path class="st26" d="M416.3,216.7c0.9-0.5,1.5,0.6,1.1,1.6c-0.4,1-1.8,1.6-2.6,1C414,218.7,415.2,217.4,416.3,216.7z"/>
					<linearGradient id="SVGID_24_" gradientUnits="userSpaceOnUse" x1="414.5975" y1="141.8113" x2="504.0045" y2="283.9175">
						<stop  offset="0" style="stop-color:#444B8C"/>
						<stop  offset="0.9964" style="stop-color:#26264F"/>
					</linearGradient>
					<path class="st27" d="M528.2,216.7c-11.4-12.3-37.8-8.9-52.5,1c-6.8,4.6-10.3,10-18.4,10.5c-6.1,0.3-15.9-2-21-8.6
						c-0.6-0.8-3.2-4.3-7.1-8.8c-1.7-1.9-3.4-3.8-6-4.2c-0.7-0.1-2.9-0.5-4.4,1c-1.2,1.2-1.5,3.2-1.1,4.7c0.2,0.9,0.5,1,0.4,1.5
						c-0.1,1.6-3,2.3-2.9,3.1c0.1,0.6,1.6,0.4,1.9,1.1c0.3,0.8-1.4,1.5-2.1,3.5c-1.3,0.9-2.2,3.1-2.5,6.1c-0.4,4.4,0,8,0.8,10.7
						c4,13,6.9,22.3,13.9,27.5c9.2,6.9,17.5,0.5,41-0.5c32.2-1.4,40.2,9.5,51.7,2.1C534.5,258.1,540,229.5,528.2,216.7z"/>
				</g>
				<linearGradient id="SVGID_25_" gradientUnits="userSpaceOnUse" x1="382.0508" y1="233.3927" x2="432.0091" y2="336.1239">
					<stop  offset="0" style="stop-color:#FFC444"/>
					<stop  offset="0.9964" style="stop-color:#F36F56"/>
				</linearGradient>
				<path class="st28" d="M359.6,191.5c-0.3,2.7-1.3,14.6,7,24.6c7.7,9.4,18.5,11.3,20.6,11.6c9.8,1.5,14-2.7,17.4,0.1
					c5.8,4.9,2.7,24.6-7.8,29.9c-11.8,6-29-8.4-36.5-18.4c-9.9-13.1-9.9-27.4-9.8-30.4c0.1-7.7,2.1-13.8,3.7-17.6
					c0.6-0.2,1.6-0.4,2.8-0.4C358.1,191,359,191.3,359.6,191.5z"/>
				<linearGradient id="SVGID_26_" gradientUnits="userSpaceOnUse" x1="380.3682" y1="234.5249" x2="431.163" y2="338.9763">
					<stop  offset="0" style="stop-color:#FFC444"/>
					<stop  offset="0.9964" style="stop-color:#F36F56"/>
				</linearGradient>
				<path class="st29" d="M459.9,345.6c-2.9-2.9,0.3-8.8-3.9-13.2c-3.9-4.1-8.4-0.8-14.7-4.3c-8.1-4.5-5.9-12.7-13.6-17.2
					c-5.6-3.2-8.2,0.2-16.8-1.4c-8.6-1.7-19.1-7.6-24.3-18.2c-2.2-4.5-3-9-3.1-13c-3.9,6.9-7.9,13.6-8.4,24.8
					c-0.3,7,0.9,12.8,1.8,16.3c2.9,3.6,7.6,8.6,14.5,12.9c10.1,6.2,16,5.1,30.5,9.1c23.8,6.5,25.9,14.3,37.7,12.3
					c7.6-1.3,14.6-5.8,18.4-10.4C466.9,347.9,462,347.7,459.9,345.6z"/>
			</g>
		</g>
	</g>
	<g>
		<g>
			<g>
				<linearGradient id="SVGID_27_" gradientUnits="userSpaceOnUse" x1="198.5238" y1="449.0177" x2="201.208" y2="451.2749">
					<stop  offset="0" style="stop-color:#AA80F9"/>
					<stop  offset="0.9964" style="stop-color:#6165D7"/>
				</linearGradient>
				<path class="st30" d="M208.6,453.4c0,3.5-2.2,6.4-4.9,6.4c-2.7,0-4.9-2.9-4.9-6.4c0-3.5,2.2-6.4,4.9-6.4
					C206.4,447,208.6,449.9,208.6,453.4z"/>
				<linearGradient id="SVGID_28_" gradientUnits="userSpaceOnUse" x1="200.2645" y1="453.485" x2="209.968" y2="453.485">
					<stop  offset="0" style="stop-color:#AA80F9"/>
					<stop  offset="0.9964" style="stop-color:#6165D7"/>
				</linearGradient>
				<path class="st31" d="M210,453.5c0,3.5-2.2,6.4-4.9,6.4c-2.7,0-4.9-2.9-4.9-6.4c0-3.5,2.2-6.4,4.9-6.4
					C207.8,447.1,210,450,210,453.5z"/>
				<linearGradient id="SVGID_29_" gradientUnits="userSpaceOnUse" x1="203.0828" y1="453.6136" x2="207.1488" y2="453.6136">
					<stop  offset="0" style="stop-color:#40447E"/>
					<stop  offset="0.9964" style="stop-color:#3C3B6B"/>
				</linearGradient>
				<path class="st32" d="M207.1,453.6c0,1.5-0.9,2.7-2,2.7c-1.1,0-2-1.2-2-2.7c0-1.5,0.9-2.7,2-2.7
					C206.2,450.9,207.1,452.1,207.1,453.6z"/>
			</g>
			<path class="st33" d="M203.8,445.7v7c0,1,0.8,1.9,1.9,1.9l0,0c0.6,0,1.2-0.3,1.5-0.8l6.3-8.6L203.8,445.7z"/>
		</g>
		<g>
			<g>
				<linearGradient id="SVGID_30_" gradientUnits="userSpaceOnUse" x1="250.4677" y1="443.4211" x2="253.152" y2="445.6783">
					<stop  offset="0" style="stop-color:#AA80F9"/>
					<stop  offset="0.9964" style="stop-color:#6165D7"/>
				</linearGradient>
				<path class="st34" d="M260.6,447.8c0,3.5-2.2,6.4-4.9,6.4c-2.7,0-4.9-2.9-4.9-6.4c0-3.5,2.2-6.4,4.9-6.4
					C258.4,441.4,260.6,444.3,260.6,447.8z"/>
				<linearGradient id="SVGID_31_" gradientUnits="userSpaceOnUse" x1="252.2086" y1="447.8886" x2="261.9121" y2="447.8886">
					<stop  offset="0" style="stop-color:#AA80F9"/>
					<stop  offset="0.9964" style="stop-color:#6165D7"/>
				</linearGradient>
				<path class="st35" d="M261.9,447.9c0,3.5-2.2,6.4-4.9,6.4c-2.7,0-4.9-2.9-4.9-6.4c0-3.5,2.2-6.4,4.9-6.4
					C259.7,441.5,261.9,444.4,261.9,447.9z"/>
				<linearGradient id="SVGID_32_" gradientUnits="userSpaceOnUse" x1="255.0269" y1="448.0171" x2="259.0928" y2="448.0171">
					<stop  offset="0" style="stop-color:#40447E"/>
					<stop  offset="0.9964" style="stop-color:#3C3B6B"/>
				</linearGradient>
				<path class="st36" d="M259.1,448c0,1.5-0.9,2.7-2,2.7c-1.1,0-2-1.2-2-2.7s0.9-2.7,2-2.7C258.2,445.3,259.1,446.5,259.1,448z"/>
			</g>
			<path class="st33" d="M255.7,440.1v7c0,1,0.8,1.9,1.9,1.9l0,0c0.6,0,1.2-0.3,1.5-0.8l6.3-8.6L255.7,440.1z"/>
		</g>
		<path class="st33" d="M203,446.8c-0.6,0-1.2-0.5-1.3-1.1c-0.1-0.7,0.4-1.3,1.1-1.4l61.5-6.9c3.3-0.6,6.1-3.1,7-6.5l24.1-105.2
			c1.4-5.1,5.8-8.8,11.1-9.1l18.7-1.1c0.7,0,1.3,0.5,1.3,1.2c0,0.7-0.5,1.3-1.2,1.3l-18.7,1.1c-4.2,0.3-7.7,3.2-8.8,7.3l-24.1,105.2
			c-1.2,4.3-4.7,7.6-9.1,8.3l-61.6,6.9C203.1,446.8,203.1,446.8,203,446.8z"/>
		<path class="st37" d="M244.2,399.8c-0.6,0-1.1-0.4-1.2-0.9l-14.5-50.7c-0.2-0.7,0.2-1.4,0.9-1.6c0.7-0.2,1.4,0.2,1.6,0.9
			l14.5,50.7c0.2,0.7-0.2,1.4-0.9,1.6C244.4,399.8,244.3,399.8,244.2,399.8z"/>
		<path class="st37" d="M259,397.7c-0.6,0-1.1-0.4-1.3-1l-8.9-50.2c-0.1-0.7,0.3-1.4,1-1.5c0.7-0.1,1.4,0.3,1.5,1l8.9,50.2
			c0.1,0.7-0.3,1.4-1,1.5C259.2,397.6,259.1,397.7,259,397.7z"/>
		<path class="st37" d="M268.2,396C268.2,396,268.2,396,268.2,396c-0.8,0-1.3-0.6-1.3-1.3L269,345c0-0.7,0.6-1.3,1.3-1.2
			c0.7,0,1.2,0.6,1.2,1.3l-2.1,49.7C269.5,395.5,268.9,396,268.2,396z"/>
		<path class="st33" d="M224,401.6c-0.5,0-1-0.3-1.2-0.9l-17-50.7c-0.2-0.7,0.1-1.4,0.8-1.6c0.7-0.2,1.4,0.1,1.6,0.8l17,50.7
			c0.2,0.7-0.1,1.4-0.8,1.6C224.2,401.6,224.1,401.6,224,401.6z"/>
		<linearGradient id="SVGID_33_" gradientUnits="userSpaceOnUse" x1="324.76" y1="318.0894" x2="371.7124" y2="318.0894">
			<stop  offset="0" style="stop-color:#40447E"/>
			<stop  offset="0.9964" style="stop-color:#3C3B6B"/>
		</linearGradient>
		<path class="st38" d="M369.2,322.4c-0.1,0-0.1,0-0.2,0l-41.9-3.4c-1.4-0.1-2.4-1.3-2.3-2.7c0.1-1.4,1.3-2.4,2.7-2.3l41.9,3.4
			c1.4,0.1,2.4,1.3,2.3,2.7C371.6,321.3,370.5,322.4,369.2,322.4z"/>
		<g>
			<g>
				<linearGradient id="SVGID_34_" gradientUnits="userSpaceOnUse" x1="242.4459" y1="457.1783" x2="245.1301" y2="459.4355">
					<stop  offset="0" style="stop-color:#AA80F9"/>
					<stop  offset="0.9964" style="stop-color:#6165D7"/>
				</linearGradient>
				<path class="st39" d="M252.5,461.6c0,3.5-2.2,6.4-4.9,6.4c-2.7,0-4.9-2.9-4.9-6.4c0-3.5,2.2-6.4,4.9-6.4
					C250.4,455.2,252.5,458.1,252.5,461.6z"/>
				<linearGradient id="SVGID_35_" gradientUnits="userSpaceOnUse" x1="244.1866" y1="461.6457" x2="253.8901" y2="461.6457">
					<stop  offset="0" style="stop-color:#AA80F9"/>
					<stop  offset="0.9964" style="stop-color:#6165D7"/>
				</linearGradient>
				<path class="st40" d="M253.9,461.6c0,3.5-2.2,6.4-4.9,6.4c-2.7,0-4.9-2.9-4.9-6.4c0-3.5,2.2-6.4,4.9-6.4
					C251.7,455.3,253.9,458.1,253.9,461.6z"/>
				<linearGradient id="SVGID_36_" gradientUnits="userSpaceOnUse" x1="247.0049" y1="461.7742" x2="251.0709" y2="461.7742">
					<stop  offset="0" style="stop-color:#40447E"/>
					<stop  offset="0.9964" style="stop-color:#3C3B6B"/>
				</linearGradient>
				<path class="st41" d="M251.1,461.8c0,1.5-0.9,2.7-2,2.7c-1.1,0-2-1.2-2-2.7c0-1.5,0.9-2.7,2-2.7
					C250.2,459.1,251.1,460.3,251.1,461.8z"/>
			</g>
			<path class="st42" d="M247.7,453.9v7c0,1,0.8,1.9,1.9,1.9l0,0c0.6,0,1.2-0.3,1.5-0.8l6.3-8.6L247.7,453.9z"/>
		</g>
		<g>
			<g>
				<linearGradient id="SVGID_37_" gradientUnits="userSpaceOnUse" x1="287.4183" y1="452.6761" x2="290.1025" y2="454.9333">
					<stop  offset="0" style="stop-color:#AA80F9"/>
					<stop  offset="0.9964" style="stop-color:#6165D7"/>
				</linearGradient>
				<path class="st43" d="M297.5,457.1c0,3.5-2.2,6.4-4.9,6.4c-2.7,0-4.9-2.9-4.9-6.4c0-3.5,2.2-6.4,4.9-6.4
					C295.3,450.7,297.5,453.6,297.5,457.1z"/>
				<linearGradient id="SVGID_38_" gradientUnits="userSpaceOnUse" x1="289.1591" y1="457.1435" x2="298.8626" y2="457.1435">
					<stop  offset="0" style="stop-color:#AA80F9"/>
					<stop  offset="0.9964" style="stop-color:#6165D7"/>
				</linearGradient>
				<path class="st44" d="M298.9,457.1c0,3.5-2.2,6.4-4.9,6.4s-4.9-2.9-4.9-6.4c0-3.5,2.2-6.4,4.9-6.4S298.9,453.6,298.9,457.1z"/>
				<linearGradient id="SVGID_39_" gradientUnits="userSpaceOnUse" x1="291.9774" y1="457.2719" x2="296.0433" y2="457.2719">
					<stop  offset="0" style="stop-color:#40447E"/>
					<stop  offset="0.9964" style="stop-color:#3C3B6B"/>
				</linearGradient>
				<path class="st45" d="M296,457.3c0,1.5-0.9,2.7-2,2.7c-1.1,0-2-1.2-2-2.7c0-1.5,0.9-2.7,2-2.7C295.1,454.6,296,455.8,296,457.3z
					"/>
			</g>
			<path class="st42" d="M292.7,449.4v7c0,1,0.8,1.9,1.9,1.9l0,0c0.6,0,1.2-0.3,1.5-0.8l6.3-8.6L292.7,449.4z"/>
		</g>
		<path class="st33" d="M182.3,352.1c-0.7,0-1.2-0.5-1.3-1.2c-0.1-0.7,0.5-1.3,1.2-1.4l109.6-7.9c0.1,0,0.2,0,0.3,0l45.4,7.7
			c0.7,0.1,1.2,0.8,1,1.5c-0.1,0.7-0.8,1.2-1.5,1l-45.2-7.7L182.3,352.1C182.3,352.1,182.3,352.1,182.3,352.1z"/>
		<path class="st33" d="M323,403.4c-0.1,0-0.1,0-0.2,0l-44.6-6.8l-67.9,6.5c-0.7,0.1-1.3-0.4-1.4-1.1c-0.1-0.7,0.4-1.3,1.1-1.4
			l68.1-6.6c0.1,0,0.2,0,0.3,0l44.8,6.9c0.7,0.1,1.2,0.8,1.1,1.5C324.2,402.9,323.6,403.4,323,403.4z"/>
		<g>
			<linearGradient id="SVGID_40_" gradientUnits="userSpaceOnUse" x1="223.8337" y1="322.642" x2="255.8667" y2="321.2493">
				<stop  offset="0" style="stop-color:#311944"/>
				<stop  offset="1" style="stop-color:#893976"/>
			</linearGradient>
			<path class="st46" d="M277.7,336.2c-0.4,0.1-0.9-0.3-0.9-0.7c-1.1-7.8-4.3-16.2-8.9-22.1c-4.1-5.2-7.3-7.5-13.2-8.5
				c0,0-0.1,0-0.1,0c-12.5-1.3-13.2,27.9-13.1,32c0.2,6.5-0.4,1.5-0.9,2c-0.5,0.6-0.9,2.5-1-1c-0.3-9.2,0.7-33.8,14.8-34.9
				c0,0,0.1,0,0.1,0c6.7,0.9,10.3,3.4,14.9,9.2c4.8,6,8.1,14.7,9.1,22.8C278.6,335.4,278.3,336,277.7,336.2
				C277.7,336.2,277.7,336.2,277.7,336.2z"/>
			<linearGradient id="SVGID_41_" gradientUnits="userSpaceOnUse" x1="217.0613" y1="372.3801" x2="251.7998" y2="372.3801">
				<stop  offset="0" style="stop-color:#FF9085"/>
				<stop  offset="1" style="stop-color:#FB6FBB"/>
			</linearGradient>
			<path class="st47" d="M219.7,403.6c6.7,2.3,15,3.5,22,5.9c2.4-10.7,6.7-21,10.1-31.3c-6.6-14.3-12.2-29.1-19.6-43
				c-1.7,0.5-3.4,1-5.2,1.5c-0.7,23.3-5.4,41.5-9.9,63.7C216.8,402.3,217.7,402.9,219.7,403.6z"/>
			<linearGradient id="SVGID_42_" gradientUnits="userSpaceOnUse" x1="228.5658" y1="372.3785" x2="251.7986" y2="372.3785">
				<stop  offset="0" style="stop-color:#FF9085"/>
				<stop  offset="1" style="stop-color:#FB6FBB"/>
			</linearGradient>
			<path class="st48" d="M251.8,378.2c-6.6-14.3-12.2-29.1-19.6-43c-1,0.4-2,0.4-3,1c0,3.2,0.7,11.6,1,14c1.3,10,5.2,19.9,3.8,28.8
				c-1.2,7.3-5.4,9.3-5.4,16c0,7.1,6,11.1,11.7,14.2c0.5,0.1,1,0.3,1.4,0.4C244.1,398.9,248.4,388.6,251.8,378.2z"/>
			<linearGradient id="SVGID_43_" gradientUnits="userSpaceOnUse" x1="267.9225" y1="366.6585" x2="317.9911" y2="451.0166">
				<stop  offset="0" style="stop-color:#FF9085"/>
				<stop  offset="1" style="stop-color:#FB6FBB"/>
			</linearGradient>
			<path class="st49" d="M232.2,335.2c23.2,0.3,43-1.3,65.8-4.8c9.8,24.3,16.5,47.5,23.8,72.6c-25.7,1-55,2.5-80.2,6.6
				C235.9,386.1,237.3,359.3,232.2,335.2z"/>
			<g class="st50">
				<linearGradient id="SVGID_44_" gradientUnits="userSpaceOnUse" x1="267.2194" y1="358.6752" x2="308.0149" y2="454.4829">
					<stop  offset="0" style="stop-color:#FF9085"/>
					<stop  offset="1" style="stop-color:#FB6FBB"/>
				</linearGradient>
				<path class="st51" d="M298.1,330.4c-11.4,1.7-21.7,3-33.5,3.9c-1.8,0.1-1.4,2.9-1.3,5c0.5,11.8,22.6,11.4,26,25.4
					c2.6,10.5-8.2,22.6-16.1,27.3c-8.3,4.8-15.8,2.9-22.4,8.5c-2.9,2.4-3.9,5.1-5.1,8.6c24.2-3.5,51.6-5,76.2-6
					C314.6,377.9,307.8,354.8,298.1,330.4z"/>
			</g>
			<linearGradient id="SVGID_45_" gradientUnits="userSpaceOnUse" x1="271.8259" y1="293.3433" x2="257.7267" y2="413.6903">
				<stop  offset="0" style="stop-color:#311944"/>
				<stop  offset="1" style="stop-color:#893976"/>
			</linearGradient>
			<path class="st52" d="M253.5,340.4c-0.9-1.8,0.1,2.7-1.1-1.3c-2.2-7.6-5.7-20.9-1.2-29.7c1.3-2.6,4.3-4.9,7.1-5.6
				c14.6-3.8,24.6,20.3,27.8,29.8c1.1,3.2,0.2,1.8-0.6,1.2c-0.7-0.5,0.9,5.3-1.5-1.5c-1.7-4.7-12.7-32.6-25.2-27.5
				c-2.3,0.9-4.7,3-5.9,4.6c-4.8,6.1,0.1,24.5,0.8,27c1.9,6.8-0.3,0.1-0.1,2.9C253.8,340.8,253.7,340.7,253.5,340.4z"/>
			<linearGradient id="SVGID_46_" gradientUnits="userSpaceOnUse" x1="279.3326" y1="291.5652" x2="241.019" y2="364.4544">
				<stop  offset="0" style="stop-color:#311944"/>
				<stop  offset="1" style="stop-color:#893976"/>
			</linearGradient>
			<path class="st53" d="M256.1,340.4c0.1,1.4-0.8,2.6-2.3,2.7s-2.5-1-2.6-2.4c-0.1-1.4,0.8-2.6,2.3-2.7
				C254.8,337.9,255.9,339,256.1,340.4z"/>
			<linearGradient id="SVGID_47_" gradientUnits="userSpaceOnUse" x1="305.9178" y1="298.24" x2="264.6537" y2="376.7423">
				<stop  offset="0" style="stop-color:#311944"/>
				<stop  offset="1" style="stop-color:#893976"/>
			</linearGradient>
			<path class="st54" d="M288.5,335.5c0.1,1.4-0.8,2.8-2.2,3.2c-1.4,0.4-2.5-0.7-2.6-2.1c-0.1-1.4,0.9-2.8,2.3-3.1
				C287.4,333.2,288.4,334,288.5,335.5z"/>
			<path class="st55" d="M306.6,366.8c-7-6.6-14.7-12.8-22.3-18.7c-0.7-0.5-1-0.4-1.6,0c-3.3,2-7.2,4.2-10.4,6.1
				c-1.1,0.7-1.4,1.5-0.5,2.5c6.2,7.6,12.9,15.4,19,23.1c0.7,0.8,1.3,0.9,2.2,0.2c4.4-3.3,9.5-7,13.7-10.6
				C307.5,368.6,307.5,367.7,306.6,366.8z M281.8,355.5c-0.8,0.7-1.9,0.1-2.5-0.6c-0.6-0.8-0.9-2-0.1-2.7c0.8-0.7,1.9-0.2,2.4,0.6
				C282.2,353.6,282.6,354.8,281.8,355.5z"/>
			<path class="st0" d="M306.5,366.5c-7-6.6-14.7-12.8-22.4-18.7c-0.7-0.5-1-0.4-1.6,0c-3.3,2-7.2,4.2-10.4,6.1
				c-1.1,0.7-1.4,1.5-0.5,2.5c6.3,7.6,12.9,15.4,19,23.1c0.7,0.8,1.3,0.9,2.2,0.2c4.4-3.3,9.5-7,13.6-10.6
				C307.4,368.4,307.5,367.5,306.5,366.5z M281.8,355.3c-0.8,0.7-1.9,0.1-2.5-0.6c-0.6-0.8-0.9-2-0.1-2.7c0.8-0.7,1.9-0.2,2.4,0.6
				C282.2,353.3,282.6,354.5,281.8,355.3z"/>
			<path class="st16" d="M277.2,351.1c-0.1,0-0.1,0-0.2-0.1c-0.8-1.4-1.8-2.8-3.1-3.8c-3.5-2.5-7.4-2.7-11.5-2.8
				c-4-0.2-7.3-0.4-10.2-3.3c-0.7-0.7-1.5-1.8-1.2-2.8c0.1-0.4,0.7-0.4,1.1-0.5c0.1,0,0.2,0.1,0.2,0.2c0,0.1-0.1,0.2-0.2,0.2
				c-0.2,0.1-0.8-0.1-0.8,0.3c0,0.9,0.2,1.5,1.2,2.4c2.6,2.5,6,3,9.9,3c4,0.1,8.2,0.4,11.7,2.9c1.3,0.9,2.4,2.5,3.2,3.9
				C277.5,350.9,277.4,351,277.2,351.1C277.3,351.1,277.3,351.1,277.2,351.1z"/>
			<path class="st16" d="M279.2,354.1c-0.1,0.1-0.1,0.1-0.2-0.1c0-0.2-0.3,0.2,0.1-0.4c0.3-0.6,1.4-2,1-3.4
				c-0.3-0.9-0.2-1.9-1.9-2.9c-3.5-2.2-8.9-3.7-13.3-4.9c-2.7-0.8-5.6-1.8-8.2-2.9c-0.6-0.2-0.9-0.4-1.5-0.6c-0.1,0-0.2-0.2-0.1-0.3
				c0-0.1,0.1-0.2,0.3-0.1c0.6,0.2,0.9,0.3,1.5,0.6c2.5,1.1,5.5,2.1,8.2,2.8c4.3,1.3,9.9,2.8,13.4,5c1.7,1.1,1.7,2.2,2,3.2
				c0.5,1.6-0.7,3.1-1.1,3.8C279.1,354.6,279.3,354,279.2,354.1z"/>
			<path class="st2" d="M306.5,366.5c-7-6.6-14.7-12.8-22.4-18.7c-0.7-0.5-1-0.3-1.6,0c-0.3,0.1-0.6,0.4-0.9,0.6
				c0.3,0.9,0.9,2,1.4,2.8c2.8,4,8.2,4.1,9.8,8.2c1.4,3.6-2,6.3-2.2,10.6c-0.1,2.1,1.3,6.9,3.3,8.9c4.1-3,8.6-6.4,12.4-9.7
				C307.4,368.3,307.5,367.5,306.5,366.5z"/>
		</g>
		<path class="st42" d="M219.5,363.4c-0.1,0-0.2,0-0.4-0.1L181.9,352c-0.7-0.2-1.1-0.9-0.8-1.6c0.2-0.7,0.9-1,1.6-0.8l37,11.2
			L337,349.4c0.7-0.1,1.3,0.4,1.4,1.1c0.1,0.7-0.4,1.3-1.1,1.4l-117.7,11.5C219.6,363.4,219.5,363.4,219.5,363.4z"/>
		<path class="st42" d="M242.1,411.1c-0.5,0-0.9-0.3-1.1-0.7l-22.6-47.7c-0.3-0.6,0-1.4,0.6-1.7c0.6-0.3,1.4,0,1.7,0.6l22.2,46.9
			l80-7.6c0.7-0.1,1.3,0.4,1.4,1.1c0.1,0.7-0.4,1.3-1.1,1.4l-80.9,7.7C242.2,411.1,242.1,411.1,242.1,411.1z"/>
		<path class="st42" d="M242.1,411.1c-0.1,0-0.2,0-0.3,0l-31.9-8c-0.3-0.1-0.6-0.3-0.8-0.6l-27.9-51c-0.3-0.6-0.1-1.4,0.5-1.7
			c0.6-0.3,1.4-0.1,1.7,0.5l27.6,50.5l31.4,7.9c0.7,0.2,1.1,0.9,0.9,1.5C243.2,410.7,242.6,411.1,242.1,411.1z"/>
		<path class="st42" d="M227.7,380.7c-0.1,0-0.2,0-0.4-0.1l-35.1-10.3c-0.7-0.2-1.1-0.9-0.9-1.6c0.2-0.7,0.9-1.1,1.6-0.9l34.8,10.2
			l103.5-9c0.7-0.1,1.3,0.5,1.4,1.2c0.1,0.7-0.5,1.3-1.2,1.4l-103.8,9C227.8,380.7,227.7,380.7,227.7,380.7z"/>
		<path class="st42" d="M236.3,398.8c-0.1,0-0.2,0-0.3,0l-33.6-9.4c-0.7-0.2-1.1-0.9-0.9-1.6c0.2-0.7,0.9-1.1,1.6-0.9l33.4,9.3
			l89.9-7.9c0.7-0.1,1.3,0.5,1.4,1.2c0.1,0.7-0.5,1.3-1.2,1.4l-90.1,7.9C236.3,398.8,236.3,398.8,236.3,398.8z"/>
		<path class="st42" d="M258.6,409.5c-0.5,0-1.1-0.4-1.2-0.9L243,360.2c-0.2-0.7,0.2-1.4,0.9-1.6c0.7-0.2,1.4,0.2,1.6,0.9l14.4,48.3
			c0.2,0.7-0.2,1.4-0.9,1.6C258.8,409.5,258.7,409.5,258.6,409.5z"/>
		<path class="st42" d="M274.5,408c-0.6,0-1.1-0.4-1.3-1.1l-8.6-49c-0.1-0.7,0.3-1.4,1-1.5c0.7-0.1,1.4,0.3,1.5,1l8.6,49
			c0.1,0.7-0.3,1.4-1,1.5C274.7,408,274.6,408,274.5,408z"/>
		<path class="st42" d="M292.5,405.9c-0.7,0-1.2-0.5-1.3-1.2l-2.7-48.6c0-0.7,0.5-1.3,1.2-1.3c0.7,0,1.3,0.5,1.3,1.2l2.7,48.6
			C293.8,405.3,293.3,405.9,292.5,405.9C292.6,405.9,292.5,405.9,292.5,405.9z"/>
		<path class="st42" d="M309.5,404C309.5,404,309.5,404,309.5,404c-0.8,0-1.3-0.6-1.3-1.3l2.6-49.4c0-0.7,0.6-1.2,1.3-1.2
			c0.7,0,1.2,0.6,1.2,1.3l-2.6,49.4C310.8,403.5,310.2,404,309.5,404z"/>
		<path class="st42" d="M232.4,408.6c-0.5,0-0.9-0.3-1.1-0.7L208,359.5c-0.3-0.6,0-1.4,0.6-1.7c0.6-0.3,1.4,0,1.7,0.6l23.3,48.4
			c0.3,0.6,0,1.4-0.6,1.7C232.8,408.6,232.6,408.6,232.4,408.6z"/>
		<path class="st42" d="M219.5,405.4c-0.5,0-0.9-0.3-1.1-0.7l-24.7-49.5c-0.3-0.6-0.1-1.4,0.6-1.7c0.6-0.3,1.4-0.1,1.7,0.6
			l24.7,49.5c0.3,0.6,0.1,1.4-0.6,1.7C219.9,405.3,219.7,405.4,219.5,405.4z"/>
		<path class="st42" d="M247.4,455.8c-0.2,0-0.3,0-0.5-0.1l-44.4-9c-0.7-0.3-1-1-0.7-1.7c0.3-0.7,1-1,1.7-0.7l44.1,8.9l55.6-6.8
			c4-0.5,7.2-3.3,8.3-7.1l30.5-110.6c1.4-5,5.8-8.7,11.1-9.1l16.2-1.2c0.7,0,1.3,0.5,1.4,1.2c0.1,0.7-0.5,1.3-1.2,1.4l-16.2,1.2
			c-4.1,0.3-7.7,3.2-8.8,7.2L313.9,440c-1.3,4.8-5.4,8.4-10.4,9l-55.9,6.8C247.5,455.8,247.5,455.8,247.4,455.8z"/>
	</g>
</g>
</svg>
