<?xml version="1.0" encoding="utf-8"?>
<!-- Generator: Adobe Illustrator 23.0.3, SVG Export Plug-In . SVG Version: 6.00 Build 0)  -->
<svg version="1.1" id="Layer_1" xmlns="http://www.w3.org/2000/svg" xmlns:xlink="http://www.w3.org/1999/xlink" x="0px" y="0px"
	 viewBox="0 0 648 470" style="enable-background:new 0 0 648 470;" xml:space="preserve">
<style type="text/css">
	.st0{fill:#E8F2FA;}
	.st1{fill:#A8CCFF;}
	.st2{opacity:0.6;fill:#FFFFFF;}
	.st3{fill:#5C9CF4;}
	.st4{fill:#DAE6FF;}
	.st5{opacity:0.5;fill:#C8DFFD;}
	.st6{opacity:0.5;fill:#7798F8;}
	.st7{opacity:0.3;}
	.st8{fill:#B8D0FC;}
	.st9{fill:#FF912B;}
	.st10{fill:#FC7600;}
	.st11{fill:#4B49F2;}
	.st12{fill:#C23B35;}
	.st13{fill:#1E3865;}
	.st14{fill:#25468F;}
	.st15{fill:#FFEBD8;}
	.st16{fill:#448DE8;}
	.st17{fill:#F9D0B3;}
	.st18{fill:#478BE0;}
	.st19{fill:#9CC3F8;}
	.st20{fill:#F99352;}
	.st21{fill:#FFAE73;}
	.st22{fill:#FDDBBA;}
	.st23{fill:#EB6600;}
	.st24{fill:#FFFFFF;}
	.st25{fill:#0B3563;}
	.st26{fill:#0D458E;}
	.st27{fill:#F1DDCB;}
	.st28{fill:#89B4FD;}
	.st29{fill:#F9924F;}
	.st30{fill:#F8CAA4;}
	.st31{fill:#D44B40;}
	.st32{fill:#2A3967;}
	.st33{fill:#2D3554;}
</style>
<g>
	<path class="st0" d="M36.5,433.4l206.4-1.1l55,0l18.2,0l55.1,0l251.9-0.1c0,0,57.6-73.9-3.9-144c-63.8-72.7-94.8-13.5-114.4-115.9
		C455.5-85.4-32.6,64.6,95.4,283.9C141.5,362.9,4.7,320.9,36.5,433.4z"/>
	<g>
		<g>
			<path class="st1" d="M226.4,379.7l-1.1-0.6c-1.2-0.7-1.6-2.2-1-3.3l5.1-9.4c0.7-1.2,2.2-1.6,3.3-1l1.6,0.9
				c0.2,0.1,0.3,0.4,0.2,0.7c-0.1,0.2-0.4,0.3-0.7,0.2l-1.6-0.9c-0.7-0.4-1.6-0.1-2,0.6l-5.1,9.4c-0.4,0.7-0.1,1.6,0.6,2l1.1,0.6
				c0.7,0.4,1.6,0.1,2-0.6l3.4-6.2c0.1-0.2,0.4-0.3,0.7-0.2c0.2,0.1,0.3,0.4,0.2,0.7l-3.4,6.2C229.1,379.9,227.6,380.3,226.4,379.7z
				"/>
		</g>
		<g>
			<path class="st1" d="M221.7,389.5l-2-1.1c-1.9-1-2.5-3.5-1.4-5.5l7.7-14.1c0.1-0.2,0.4-0.3,0.7-0.2c0.2,0.1,0.3,0.4,0.2,0.7
				l-7.7,14.1c-0.8,1.5-0.4,3.4,1,4.1l2,1.1c1.4,0.8,3.2,0.1,4-1.4l8.8-16c0.8-1.5,0.4-3.4-1-4.1c-0.2-0.1-0.3-0.4-0.2-0.7
				c0.1-0.2,0.4-0.3,0.7-0.2c1.9,1,2.5,3.5,1.4,5.5l-8.8,16C225.9,389.7,223.5,390.5,221.7,389.5z"/>
		</g>
	</g>
	<g>
		<path class="st2" d="M414.4,327.6H168.8c-6,0-10.9-4.9-10.9-10.9V110.5c0-6,4.9-10.9,10.9-10.9h245.6c6,0,10.9,4.9,10.9,10.9
			v206.1C425.4,322.7,420.5,327.6,414.4,327.6z"/>
		<path class="st3" d="M425.4,124.9H157.9v-17.1c0-4.5,3.7-8.2,8.2-8.2h251.2c4.5,0,8.2,3.7,8.2,8.2V124.9z"/>
		<g>
			<path class="st4" d="M168.7,112.1c0-1.7,1.4-3,3-3c1.7,0,3,1.4,3,3c0,1.7-1.4,3-3,3C170.1,115.1,168.7,113.7,168.7,112.1z"/>
			<path class="st4" d="M181.4,112.1c0-1.7,1.4-3,3-3c1.7,0,3,1.4,3,3c0,1.7-1.4,3-3,3C182.7,115.1,181.4,113.7,181.4,112.1z"/>
			<path class="st4" d="M194.1,112.1c0-1.7,1.4-3,3-3c1.7,0,3,1.4,3,3c0,1.7-1.4,3-3,3C195.4,115.1,194.1,113.7,194.1,112.1z"/>
		</g>
		<rect x="179.1" y="144.9" class="st5" width="75.8" height="75.8"/>
		<path class="st6" d="M335.8,150.6h-60.3c-1.6,0-2.9-1.3-2.9-2.9l0,0c0-1.6,1.3-2.9,2.9-2.9h60.3c1.6,0,2.9,1.3,2.9,2.9l0,0
			C338.7,149.3,337.4,150.6,335.8,150.6z"/>
		<path class="st6" d="M407.9,146.7h-60.3c-1.6,0-2.9-1.3-2.9-2.9l0,0c0-1.6,1.3-2.9,2.9-2.9h60.3c1.6,0,2.9,1.3,2.9,2.9l0,0
			C410.8,145.5,409.5,146.7,407.9,146.7z"/>
		<g class="st7">
			<path class="st8" d="M347.8,172.6h-73.3c-1,0-1.9-0.8-1.9-1.9l0,0c0-1,0.8-1.9,1.9-1.9h73.3c1,0,1.9,0.8,1.9,1.9l0,0
				C349.6,171.8,348.8,172.6,347.8,172.6z"/>
			<path class="st8" d="M375.6,172.6h-19.3c-1,0-1.9-0.8-1.9-1.9l0,0c0-1,0.8-1.9,1.9-1.9h19.3c1,0,1.9,0.8,1.9,1.9l0,0
				C377.5,171.8,376.6,172.6,375.6,172.6z"/>
			<path class="st8" d="M302.1,184.2h-27.6c-1,0-1.9-0.8-1.9-1.9l0,0c0-1,0.8-1.9,1.9-1.9h27.6c1,0,1.9,0.8,1.9,1.9l0,0
				C304,183.3,303.2,184.2,302.1,184.2z"/>
			<path class="st8" d="M346.9,184.2H309c-1,0-1.9-0.8-1.9-1.9l0,0c0-1,0.8-1.9,1.9-1.9h37.9c1,0,1.9,0.8,1.9,1.9l0,0
				C348.8,183.3,347.9,184.2,346.9,184.2z"/>
			<path class="st8" d="M375.6,184.2h-19.3c-1,0-1.9-0.8-1.9-1.9l0,0c0-1,0.8-1.9,1.9-1.9h19.3c1,0,1.9,0.8,1.9,1.9l0,0
				C377.5,183.3,376.6,184.2,375.6,184.2z"/>
			<path class="st8" d="M312,194.1h-37.5c-1,0-1.9-0.8-1.9-1.9l0,0c0-1,0.8-1.9,1.9-1.9H312c1,0,1.9,0.8,1.9,1.9l0,0
				C313.9,193.3,313,194.1,312,194.1z"/>
			<path class="st8" d="M383.6,194.1h-61.3c-1,0-1.9-0.8-1.9-1.9l0,0c0-1,0.8-1.9,1.9-1.9h61.3c1,0,1.9,0.8,1.9,1.9l0,0
				C385.5,193.3,384.7,194.1,383.6,194.1z"/>
		</g>
		<g class="st7">
			<path class="st8" d="M347.8,209.2h-73.3c-1,0-1.9-0.8-1.9-1.9l0,0c0-1,0.8-1.9,1.9-1.9h73.3c1,0,1.9,0.8,1.9,1.9l0,0
				C349.6,208.4,348.8,209.2,347.8,209.2z"/>
			<path class="st8" d="M375.6,209.2h-19.3c-1,0-1.9-0.8-1.9-1.9l0,0c0-1,0.8-1.9,1.9-1.9h19.3c1,0,1.9,0.8,1.9,1.9l0,0
				C377.5,208.4,376.6,209.2,375.6,209.2z"/>
			<path class="st8" d="M302.1,220.8h-27.6c-1,0-1.9-0.8-1.9-1.9l0,0c0-1,0.8-1.9,1.9-1.9h27.6c1,0,1.9,0.8,1.9,1.9l0,0
				C304,219.9,303.2,220.8,302.1,220.8z"/>
			<path class="st8" d="M346.9,220.8H309c-1,0-1.9-0.8-1.9-1.9l0,0c0-1,0.8-1.9,1.9-1.9h37.9c1,0,1.9,0.8,1.9,1.9l0,0
				C348.8,219.9,347.9,220.8,346.9,220.8z"/>
		</g>
		<g>
			<path class="st8" d="M213.1,156.2h7.8l21.2,48.4h-8.9l-4.9-11.6h-22.7l-4.9,11.6h-8.7L213.1,156.2z M225.2,185.6l-8.3-19.2
				l-8.2,19.2H225.2z"/>
		</g>
		<g>
			<rect x="179.1" y="236" class="st9" width="42.4" height="8.2"/>
			<rect x="179.1" y="244.2" class="st10" width="42.4" height="8.2"/>
			<rect x="179.1" y="252.4" class="st11" width="42.4" height="8.2"/>
		</g>
		<g>
			<path class="st8" d="M252.6,240.7h-23.3c-1,0-1.8-0.8-1.8-1.8l0,0c0-1,0.8-1.8,1.8-1.8h23.3c1,0,1.8,0.8,1.8,1.8l0,0
				C254.4,239.9,253.6,240.7,252.6,240.7z"/>
			<path class="st8" d="M244.8,246.9h-15.5c-1,0-1.8-0.8-1.8-1.8l0,0c0-1,0.8-1.8,1.8-1.8h15.5c1,0,1.8,0.8,1.8,1.8l0,0
				C246.6,246.1,245.8,246.9,244.8,246.9z"/>
		</g>
		<g>
			<rect x="179.1" y="278.3" class="st9" width="42.4" height="16.7"/>
			<rect x="179.1" y="290.9" class="st12" width="42.4" height="11.9"/>
			<polygon class="st11" points="179.1,278.3 194.3,291.1 179.1,302.8 			"/>
		</g>
		<g>
			<path class="st8" d="M252.6,282.9h-23.3c-1,0-1.8-0.8-1.8-1.8l0,0c0-1,0.8-1.8,1.8-1.8h23.3c1,0,1.8,0.8,1.8,1.8l0,0
				C254.4,282.1,253.6,282.9,252.6,282.9z"/>
			<path class="st8" d="M244.8,289.2h-15.5c-1,0-1.8-0.8-1.8-1.8l0,0c0-1,0.8-1.8,1.8-1.8h15.5c1,0,1.8,0.8,1.8,1.8l0,0
				C246.6,288.4,245.8,289.2,244.8,289.2z"/>
		</g>
	</g>
	<g>
		<path class="st13" d="M428.1,120.2c0,0,1.1,13.1-1.9,12.9c-3-0.2-8.9-6-20.8-5c-11.9,0.9-26.5,3.6-35.4-12.1
			c-8.8-15.6,11.3-20.1,11.3-20.1L428.1,120.2L428.1,120.2z"/>
		<polygon class="st14" points="402.7,119.2 462.8,124.2 464.1,121.5 406.4,79 348.2,72.2 347.1,74.5 402.7,119.2 		"/>
		<g>
			<path class="st9" d="M443.6,164.5c-0.4-1.2-1.6-2-2.9-1.6c-1.2,0.4-2,1.6-1.6,2.9c0.4,1.2,1.6,2,2.9,1.6
				C443.3,167.1,444,165.8,443.6,164.5L443.6,164.5z"/>
			<path class="st9" d="M441.6,165.2c2.4-0.2,3,21.8,3,21.8s-1.6,0.7-2.3,0.6c-0.8-0.2-1.2-3.1-1.2-3.1l-0.1,3.1
				c0,0-2.6,0.1-3.6-0.6C437.4,186.9,437.8,165.5,441.6,165.2L441.6,165.2z"/>
		</g>
		<polygon class="st9" points="442.4,165.7 442,117.7 441.6,117.5 410.2,94.3 409.1,95.8 440.2,118.8 440.9,165.6 		"/>
	</g>
	<g>
		<g>
			<g>
				<path class="st15" d="M482.9,391.9H350.8v-50.2h132.5c10.7,0,19.4,8.7,19.4,19.4v11C502.8,383,493.9,391.9,482.9,391.9z"/>
				<path class="st3" d="M616.1,362.3v7.6c0,4-1,7.8-2.8,11.1c-3.6,6.5-10.2,10.9-17.8,10.9H346.7c-1.6,0-3-1.4-3-3.2v-1.1
					c0-1.8,1.3-3.2,3-3.2h151.7c0.8-1.1,1.5-2.2,2.1-3.4c1.4-2.9,2.2-6.1,2.2-9.6v-9.6c0-1.8-0.2-3.5-0.6-5.1
					c-0.7-2.8-1.9-5.3-3.5-7.5H346.7c-1.6,0-3-1.4-3-3.2v-1.1c0-1.8,1.3-3.2,3-3.2h250c8.8,0,16.2,6.3,18.6,15
					C615.8,358.5,616.1,360.4,616.1,362.3z"/>
				<path class="st16" d="M615.3,356.7H502.1c-0.7-2.8-1.9-5.3-3.5-7.5H346.7c-1.6,0-3-1.4-3-3.2v-1.1c0-1.8,1.3-3.2,3-3.2h250
					C605.6,341.7,613,348,615.3,356.7z"/>
			</g>
			<polygon class="st17" points="350.8,366.8 369.2,367.6 350.8,368.1 			"/>
			<polygon class="st17" points="350.8,374.7 394.6,375.5 350.8,376 			"/>
		</g>
		<g>
			<g>
				<g>
					<path class="st9" d="M331.5,430.8h129.7v-39H330.4c-9.7,0-17.6,7.9-17.6,17.6v2.7C312.8,422.4,321.2,430.8,331.5,430.8z"/>
					<path class="st15" d="M454.9,430.8h147.8v-39H454.5c-9.9,0-17.9,8-17.9,17.9v2.9C436.7,422.6,444.8,430.8,454.9,430.8z"/>
					<path class="st9" d="M426.9,430.8h180.9c1.5,0,2.7-1.2,2.7-2.7v-0.4c0-1.5-1.2-2.7-2.7-2.7H426.9c-1.5,0-2.7,1.2-2.7,2.7v0.4
						C424.2,429.6,425.4,430.8,426.9,430.8z"/>
					<path class="st9" d="M426.9,397.6h180.9c1.5,0,2.7-1.2,2.7-2.7v-0.4c0-1.5-1.2-2.7-2.7-2.7H426.9c-1.5,0-2.7,1.2-2.7,2.7v0.4
						C424.2,396.4,425.4,397.6,426.9,397.6z"/>
				</g>
				<polygon class="st17" points="602.8,411.3 582.6,412 602.8,412.4 				"/>
				<polygon class="st17" points="602.8,402.3 554.8,403 602.8,403.4 				"/>
			</g>
			<g>
				<path class="st3" d="M555.3,402.8c0,0,2.1,1.7,2.7,4.4c0.1,0.5,0.2,1,0.2,1.5c0.1,3.7,0,12,0,12l6.1-4.1l6,4.1v-11.2
					c0-2.1-0.5-4.2-1.5-5.5c-0.5-0.7-1-1.1-1.7-1.1H555.3z"/>
				<path class="st18" d="M555.3,402.8c0,0,2.1,1.7,2.7,4.4l12.1,0.2c0,0-0.5-3.9-3-4.6H555.3z"/>
			</g>
		</g>
		<g>
			<g>
				<g>
					<path class="st15" d="M445.1,341.8H317.5v-57.4h128.1c11.3,0,20.5,9.2,20.5,20.5v15.9C466.1,332.4,456.7,341.8,445.1,341.8z"/>
					<path class="st1" d="M466.2,306.7V319c0,5.3-2.5,9.8-6.1,12.3c-1.8,1.2-3.8,1.9-6,1.9H313.6c-1.6,0-3,1.6-3,3.6v1.5
						c0,2,1.3,3.6,3,3.6h242.8c7,0,13.1-4.1,16.8-10.5c2.3-4,3.7-8.8,3.7-14.1v-9.7c0-3.6-0.7-7-1.9-10c-3.1-7.7-9.7-13-17.4-13
						H313.6c-1.6,0-3,1.6-3,3.6v1.5c0,2,1.3,3.6,3,3.6h141c3.4,0,6.4,1.7,8.5,4.5C465,299.9,466.1,303.1,466.2,306.7z"/>
					<path class="st19" d="M310.6,336.8v1.5c0,2,1.3,3.6,3,3.6h242.8c7,0,13.1-4.1,16.8-10.5H460.1c-1.8,1.2-3.8,1.9-6,1.9H313.6
						C311.9,333.2,310.6,334.8,310.6,336.8z"/>
				</g>
				<polygon class="st17" points="317.5,313.1 335.5,314.1 317.5,314.7 				"/>
				<polygon class="st17" points="317.5,299.9 360.3,300.9 317.5,301.5 				"/>
			</g>
			<g>
				<path class="st9" d="M359.9,300.7c0,0-2.8,1.8-3.8,4.8c-0.2,0.5-0.3,1.1-0.3,1.7c-0.2,4,0,13,0,13l-8.4-4.5l-8.3,4.5v-12.2
					c0-2.3,0.7-4.5,2-6c0.6-0.7,1.4-1.2,2.3-1.2H359.9z"/>
				<path class="st10" d="M359.9,300.7c0,0-2.8,1.8-3.8,4.8l-16.7,0.2c0,0,0.7-4.3,4.1-5H359.9z"/>
			</g>
		</g>
	</g>
	<g id="girl_2_15_">
		<path class="st20" d="M146.5,336.7c0,0,26.2,11.4,30.9,11.2c4.7-0.2,34-8.9,34-8.9l-0.7,5c0,0-22.6,13-30.5,13.7
			c-7.8,0.7-34.4-7-36.9-8.6C140.8,347.5,139.1,338.4,146.5,336.7z"/>
		<path class="st13" d="M142.6,294.8c0,0-9.7-1.8-14.5,1.7c-8.7,6.4-9.2,28.3-12.4,31.5c-3.3,3.3-11.1,1.9-11.8,18.8
			c-0.7,16.9,3.1,18.3-1.4,25.9c-4.6,7.5,1.9,15.1,1.9,15.1s-2.7-4.2-1.5-7.2c0,0,1.1,6.6,5.3,8.2c4.2,1.6,4.8,2.7,5.5,5
			c0,0,36-18.4,36-31.5c0-13.1,7.1-26,3.6-31.7c0,0,1.5,2.4,1.7,5.1c0,0,2.1-4-1.5-7.7c-3.6-3.7,4.2-11.3,3.1-20.2
			C155.8,301.7,151.5,295.1,142.6,294.8z"/>
		<path class="st21" d="M149.7,349.2c-2.3,1.6-5.2,2.9-8.8,3.7c-13.6,3.1-18.8-8.3-20.7-16.2c1.8-1.1,3.6-1.3,4.6-1.4
			c1-0.1,2-0.2,2.9-0.2c1.5-1.2,3.8-5.9,4.3-13.3l0.6,0.2l10.7,2.9c0,0-0.5,3.4-0.7,6.6c-0.2,2.5-0.2,4.9,0.3,5.5
			c0.8,0.2,1.3,0.3,1.3,0.3s0,0,0,0C144.3,337.5,147.4,342.6,149.7,349.2z"/>
		<path class="st20" d="M143.3,324.8c0,0-0.5,3.4-0.7,6.6c-6.1-0.6-8.9-6.4-10-9.5L143.3,324.8z"/>
		<path class="st21" d="M145.1,328c0,0-14.4-0.8-13.7-9.7c0.6-8.9-0.8-15.1,8.4-14.9c9.2,0.1,10.7,3.7,11.3,6.7
			C151.5,313.1,148.9,328,145.1,328z"/>
		<path class="st13" d="M151,305c-2-2.8-3.7-2.4-4.7-1.6c-7.5-4.9-13,1.1-13,1.1c-1.4,6.3-6.3,9.7-6.3,9.7s2.5,1.8,8.6,0.7
			c1.9-0.3,3.6-1.5,5.1-3c-2.7,3.9-6.3,6.6-6.3,6.6c7.4-2.8,11.1-12.6,11.4-13.7c0.8,0.8,2.4,2.7,2.8,4.4c0.6,2.3,2.9,6,4.3,5.9
			C152.9,315.2,154,309.3,151,305z"/>
		<path class="st22" d="M116.1,378.4c-1.3-6.6-5.5-33.1-1.3-41.7c1.5-3.1,7.5-3.3,14-3.1c2,1.3,9.8,6.3,13,5.7c0,0,0.1,0,0.2,0
			c1.5-0.4,2.1-1.4,0.8-2.3c0,0,3.2-0.3,7.3,0.4c2.3,0.4,8.4,3.6,8.4,3.6s-3.1,5.6-7.6,7.5c0.8,6.9-0.4,10-7.6,26
			c-6.1,13.5,0.8,25.7,0.8,25.7s-35.7,28.7-35.9,14.1C108,403.2,117.8,386.9,116.1,378.4z"/>
		<path class="st23" d="M145.9,431.4c1.9-0.2,3.7-1.3,4.8-2.9c0.2-0.3,0.4-0.5,0.6-0.8c4.1-6.2,5.6-25,14.8-45.1
			c2.2-4.9,10.2-5.8,12.4-11.3c0,0,5.4-17.9-10.3-18.4c-15.6-0.5-41.9,49.9-42.3,55.1C125.4,413.1,115.5,434.8,145.9,431.4z"/>
		<path class="st13" d="M208.1,431h-22.3c0,0-0.8-3.6,0.6-6c1.3-2.1,0.8-3.4-0.2-5.1c1,0.4,2.3,0.8,3.7,0.7c1.1-0.1,2.3-0.6,3.3-1.2
			c1,1.1,5.1,5.7,6.3,6.7C201.1,427.1,207.6,426.7,208.1,431z"/>
		<path class="st10" d="M178.9,358c1.3,10.1,6.6,41.8,15.8,57.3c3,5-7.5,7.8-7.6,7.8c-1.4-0.4-3.7-2.6-4.8-3.6
			c-7.5-6.8-22.7-25.9-22.7-41.2c0-7.5-0.1-21.8,5.3-25.4C168.3,350.6,178.4,354,178.9,358z"/>
		<path class="st9" d="M132.6,431c0,0,0.8-1.1,2.3-3.3c1.7-2.6,3.6-7.7,5.9-14.2c2.4-6.9,5.3-15.3,8.9-24.1c1.1-2.7,2.3-5.5,3.5-8.2
			c2.2-4.9,8.4-4.2,10.5-9.7c0,0,8.5-19.2-7.1-19.7c-15.6-0.5-45.4,51.3-47.1,56.3C107.6,413.4,98.5,436.2,132.6,431z"/>
		<path class="st14" d="M191.7,431h-22.3c0,0-0.8-3.6,0.6-6c1.3-2.1,0.8-3.4-0.2-5.1c1,0.4,2.3,0.8,3.7,0.7c1.1-0.1,2.3-0.6,3.3-1.2
			c1,1.1,5.1,5.7,6.3,6.7C184.8,427.1,191.3,426.7,191.7,431z"/>
		<path class="st10" d="M140.8,413.4c2.4-6.9,5.3-15.3,8.9-24.1c-0.9-6.7-3-12.5-6.3-14.8C143.3,374.5,135.1,399.9,140.8,413.4z"/>
		<path class="st9" d="M165.9,357.3c1.3,10.1,3.2,42.5,12.5,58c3,5-7.5,7.8-7.6,7.8c-1.4-0.4-3.7-2.6-4.8-3.6
			c-7.5-6.8-22.7-25.9-22.7-41.2c0-7.5,8.8-21.2,14.2-24.8C160.9,351.2,165.4,353.3,165.9,357.3z"/>
		<path class="st24" d="M147.8,322.9c0,0-1.4-0.5-5.2-0.2c0,0,0.2,1.5,3,1.6C147.2,324.4,147.8,322.9,147.8,322.9z"/>
		<g>
			<g>
				<polygon class="st25" points="214.3,328.5 209.7,320.1 199.7,348 205.6,354.3 				"/>
				<polygon class="st26" points="190.2,333.3 180.9,359.9 205.6,354.3 214.3,328.5 				"/>
				<polygon class="st27" points="181.4,358.5 180.9,357.8 189.7,332.7 190.2,333.3 				"/>
				<polygon class="st15" points="189.7,332.7 213.1,328.1 214.3,328.5 190.2,333.3 				"/>
			</g>
			<polygon class="st27" points="214.3,328.5 209.3,320.5 206.1,329.5 213.1,328.1 			"/>
		</g>
		<path class="st21" d="M197.3,337.2c-0.8-0.2-2.5-0.8-4.3-1.3c0.5-0.4,1.1-0.9,1.3-1.4c0.3-1,0.5-1.3-0.5-1c-1,0.3-4.7,2-4.7,2
			s0,0,0,0c-2.1,0.6-4,3.5-4,3.5s-25.5,9-28.6,9.1c-4.7,0.2-36.3-11.4-36.3-11.4c-7.5,1.6-5.8,10.8-3.2,12.4
			c2.6,1.6,25.3,9.9,38.8,10.1c6.8,0.1,31.7-15.9,31.7-15.9s2.9-1.3,5.2-0.9c2.3,0.4,7.6,0,8.7-1.9
			C202.5,338.7,198.6,337.4,197.3,337.2z"/>
		<path class="st22" d="M136.5,342.5c0,0-2.8,8.9-12.5,11c0,0-16-4.9-8-15.9C115.9,337.6,123.8,331.7,136.5,342.5z"/>
		<path class="st21" d="M213.9,337.9L213.9,337.9c0-0.2,0-0.5-0.1-0.7c0,0-2.3-3.6-3-3.8c-2.3-0.5-2.3,2.6-1.8,4.5
			c0.3,1.3,1.2,2.6,1.9,3.3l0,0l-0.1,2.8C214.6,341.9,213.9,337.9,213.9,337.9z"/>
	</g>
	<g>
		<path class="st0" d="M79.9,290.6c0.9-22.6-18-32.6-37.3-32.6c-19.3,0-40.4,5-42.2,35c-1.2,19.3,9.1,31.2,38.7,31.2
			c10,0,17.7-1.6,23.7-4.4L77.6,333l-7.3-18.2C76.8,308.8,79.5,300.4,79.9,290.6z"/>
		<g>
			<path class="st28" d="M27.9,283.1v5.3h3.4v-5.3h1.4v12.3h-1.4v-5.7h-3.4v5.7h-1.4v-12.3H27.9z"/>
			<path class="st28" d="M35.8,291.1c0,2.7,1.1,3.3,2.1,3.3c0.6,0,1.1-0.1,1.5-0.3l0.2,1c-0.5,0.3-1.2,0.4-2,0.4
				c-2.1,0-3.2-1.7-3.2-4.4c0-2.8,1.2-4.6,3-4.6c1.8,0,2.5,1.9,2.5,3.9c0,0.3,0,0.6,0,0.8H35.8z M38.5,290.1c0-1.8-0.6-2.5-1.3-2.5
				c-0.9,0-1.4,1.3-1.4,2.5H38.5z"/>
			<path class="st28" d="M41.4,282.8h1.4v12.6h-1.4V282.8z"/>
			<path class="st28" d="M44.9,282.8h1.4v12.6h-1.4V282.8z"/>
			<path class="st28" d="M53.8,291c0,3.4-1.6,4.6-2.9,4.6c-1.6,0-2.9-1.4-2.9-4.5c0-3.2,1.4-4.6,3-4.6
				C52.5,286.4,53.8,287.9,53.8,291z M49.4,291c0,1.5,0.3,3.4,1.5,3.4c1.2,0,1.5-2.1,1.5-3.4c0-1.3-0.3-3.4-1.5-3.4
				C49.6,287.5,49.4,289.6,49.4,291z"/>
		</g>
	</g>
	<g>
		<path class="st28" d="M467.1,223c0.8-20.6-16.4-29.8-34.1-29.8c-17.7,0-36.9,4.6-38.6,32c-1.1,17.6,8.3,28.5,35.4,28.5
			c9.1,0,16.2-1.4,21.7-4l13.5,12l-6.7-16.6C464.2,239.6,466.7,231.8,467.1,223z"/>
		<g>
			<path class="st24" d="M412.5,219.4c0.5-0.1,1.1-0.2,1.7-0.2c0.9,0,1.7,0.2,2.3,0.7c0.4,0.4,0.7,1,0.7,1.8c0,1.1-0.6,1.9-1.6,2.3
				v0c1.2,0.3,1.9,1.3,1.9,2.7c0,0.9-0.3,1.6-0.7,2.1c-0.6,0.7-1.6,0.9-2.7,0.9c-0.8,0-1.2,0-1.5-0.1V219.4z M413.7,223.6h0.5
				c1,0,1.8-0.7,1.8-1.8c0-1-0.4-1.7-1.7-1.7c-0.3,0-0.5,0-0.6,0.1V223.6z M413.7,228.7c0.1,0,0.3,0.1,0.6,0.1c1.2,0,2-0.7,2-2.1
				c0-1.4-1-2.1-2.1-2.1h-0.5V228.7z"/>
			<path class="st24" d="M423.5,225.9c0,2.9-1.3,3.9-2.5,3.9c-1.3,0-2.4-1.2-2.4-3.8c0-2.7,1.2-3.9,2.5-3.9
				C422.4,222,423.5,223.3,423.5,225.9z M419.8,225.9c0,1.2,0.2,2.9,1.3,2.9c1,0,1.2-1.7,1.2-2.9c0-1.1-0.2-2.9-1.3-2.9
				C420,223,419.8,224.7,419.8,225.9z"/>
			<path class="st24" d="M424.8,224.1c0-0.9,0-1.3-0.1-1.9h1l0.1,0.9h0c0.3-0.6,0.9-1,1.7-1c1,0,1.8,0.8,1.8,2.6v5h-1.2v-4.8
				c0-0.9-0.2-1.8-1-1.8c-0.5,0-1,0.4-1.1,1.2c0,0.2-0.1,0.4-0.1,0.7v4.7h-1.2V224.1z"/>
			<path class="st24" d="M429.8,231.8c0.3-0.1,0.8-0.2,1-0.6c0.3-0.4,0.4-1,0.4-2.4v-6.6h1.2v7c0,1.6-0.2,2.3-0.8,2.9
				c-0.4,0.5-1.2,0.7-1.6,0.7L429.8,231.8z M432.5,220.2c0,0.5-0.3,0.8-0.7,0.8c-0.4,0-0.7-0.3-0.7-0.8c0-0.5,0.3-0.8,0.7-0.8
				C432.2,219.5,432.5,219.8,432.5,220.2z"/>
			<path class="st24" d="M438.6,225.9c0,2.9-1.3,3.9-2.5,3.9c-1.3,0-2.4-1.2-2.4-3.8c0-2.7,1.2-3.9,2.5-3.9
				C437.5,222,438.6,223.3,438.6,225.9z M434.8,225.9c0,1.2,0.2,2.9,1.3,2.9c1,0,1.2-1.7,1.2-2.9c0-1.1-0.2-2.9-1.3-2.9
				C435,223,434.8,224.7,434.8,225.9z"/>
			<path class="st24" d="M444.4,227.6c0,0.8,0,1.5,0.1,2h-1l-0.1-0.8h0c-0.2,0.4-0.8,0.9-1.6,0.9c-1.3,0-1.8-1-1.8-2.9v-4.7h1.2v4.5
				c0,1.2,0.2,2,1,2c0.7,0,1-0.6,1.1-1c0-0.2,0.1-0.4,0.1-0.7v-4.9h1.2V227.6z"/>
			<path class="st24" d="M446,224.1c0-0.6,0-1.4-0.1-1.9h1.1l0.1,1.2h0c0.2-0.7,0.9-1.3,1.6-1.3c0.1,0,0.2,0,0.2,0v1.2
				c-0.1,0-0.2,0-0.2,0c-0.8,0-1.3,0.7-1.4,1.5c0,0.2,0,0.4,0,0.7v4.1H446V224.1z"/>
		</g>
	</g>
	<g>
		<path class="st13" d="M461.6,331.7c4.2,7.4,9.5,10.3,9.5,10.3l22.2,0.2C493.3,342.2,458.4,326.1,461.6,331.7z"/>
		<g>
			<path class="st21" d="M478.2,389c0.6,0.7,0.6,1.4,0.4,2.2c0,0,0,0,0,0c-0.5,1.5-2.3,3.1-4.3,4.7c-0.3,0.2-0.5,0.4-0.7,0.6
				c-0.1,0-0.1,0.1-0.2,0.1c0,0-0.1,0.1-0.1,0.1c-1.9,1.7-1.2,2.1-4.6,5.7c-3.9,4-6.6,4.1-7.3,3.7c-0.6-0.3,0.7-2.5,2.1-4.9
				c0.1-0.1,0.1-0.2,0.2-0.3c0.2-0.3,0.4-0.6,0.6-1c1.7-2.9,1.3-4.3,0.9-8.6c-0.3-3.5-5.3-19.6-5.3-19.6l7.5-1.2
				c0,0,2.2,12.8,4.6,14.8c1.3,1.1,2.8,1.1,4.1,1.9c0.1,0.1,0.2,0.1,0.3,0.2C476.9,387.9,477.7,388.3,478.2,389z"/>
			<path class="st13" d="M478.2,389c0.6,0.7,0.6,1.4,0.4,2.2c0,0,0,0,0,0c-0.7,1.5-2.4,3.1-4.4,4.7c-0.3,0.2-0.5,0.4-0.7,0.6
				c-0.1,0-0.1,0.1-0.2,0.1c0,0-0.1,0.1-0.1,0.1c-1.9,1.7-1.2,2.1-4.6,5.7c-3.9,4-6.6,4.1-7.3,3.7c-0.6-0.3,0.7-2.5,2.1-4.9
				c0.8-0.3,4.3-1.7,7-5.1c2.4-3,3.9-6.8,5.6-9c0.1,0.1,0.2,0.1,0.3,0.2C476.9,387.9,477.7,388.3,478.2,389z"/>
			<path class="st21" d="M418.2,383.9c-0.5,2.3-3.7,1.9-7.4,1c-3.7-0.9-2.8,0.1-8-0.5c-5.2-0.6-6.8-2.6-6.9-3.3
				c-0.1-0.7,2.4-0.9,5.2-1.2c0.3,0,0.7-0.1,1-0.1c3.1-0.4,5.4-2.4,8.3-4c2.7-1.5,6.7-7.9,6.7-7.9l7.1,0.6c0,0-3.8,5.7-5.3,8.1
				c-0.9,1.4-0.8,3.4-0.7,4.9C418.4,382.3,418.4,383.1,418.2,383.9z"/>
			<path class="st13" d="M410.8,384.9c-3.7-0.9-2.8,0.1-8-0.5c-5.2-0.6-6.8-2.6-6.9-3.3c-0.1-0.7,2.4-0.9,5.2-1.2l0,0.1
				c0,0,3.1,2.2,7.4,2.4c3.5,0.1,7.3-0.9,9.7-0.8c0,0.8,0.1,1.6-0.1,2.4C417.8,386.2,414.5,385.8,410.8,384.9z"/>
			<path class="st13" d="M445.9,338.5l6.5,18L461,380c0,0,2.4,0.2,4.6-0.4c2.1-0.6,4.5-2.1,4.5-2.1s-2.2-25.2-6.7-39.7
				c-1.1-3.7-2.4-6.7-3.8-8.4C452.7,321,445.9,338.5,445.9,338.5z"/>
			<path class="st14" d="M452.9,310c4.4-1.4,16.8,0.5,29.4,3.1l2.7-4.3l27.1-1.9c0,0,8.8,19.9,3.8,32.5c-0.7,1.8-2.5,2.6-5,2.6
				c0,0,0,0,0,0c0,0-16.2,0.3-21.4,0.2c-13.5-0.1-28.4-9.5-30.4-9.9c-3.2-0.7-4.5,5.7-7.7,12.4c-3.2,6.7-30.1,29.4-30.1,29.4
				s-4.1,0-5.8-0.6c-1.8-0.7-2.5-1.6-2.5-1.6S443,313.1,452.9,310z"/>
			<path class="st13" d="M485.4,271.5c9.6,5.4,29.1,16.5,29.2,16.4c0,0,7.2,2.8,11.3,0.1c6.8-4.5,10.6-16.6-1.8-27.1
				c-6.2-5.3-10.6-6.6-11.2-14.9c-0.3-4.5-6.4-19.5-16.7-18.2c-0.9,0.1-1.7,0.2-2.6,0.2c-1.2,0-3.2,0.1-5.2,1.3
				C482.5,232.7,470.9,269.3,485.4,271.5z"/>
			<path class="st21" d="M493.5,267c0,0,4.7,1.7,7.9,0.3c3-1.3,5.3-6.2,5.3-6.2c-1.4-0.1-2.9-1.3-4-9.1l-0.6,0.2l-9.8,3.5
				c0,0,0.7,3.2,1.1,6.1C493.8,264.3,494,266.7,493.5,267z"/>
			<path class="st29" d="M492.3,255.6c0,0,0.4,2.2,1,5.4c5.6-1,8-5.8,8.8-8.8L492.3,255.6z"/>
			<path class="st21" d="M490.8,258.7c0,0,13.4-1.7,12.2-10c-1.2-8.3-0.3-14.2-8.9-13.4c-8.6,0.7-9.8,4.2-10.1,7
				C483.8,245.1,487.3,258.9,490.8,258.7z"/>
			<path class="st13" d="M484.6,237.7c0,0,8.5,7.5,14.4,8.1c5.8,0.6,8.1-1.2,8.1-1.2s-3.4-2.9-5.5-7.5c-0.6-1.4-1.9-2.3-3.4-2.4
				C494,234.2,486.1,234,484.6,237.7z"/>
			<path class="st13" d="M490,237.1c0,0-2.9,2.8-3.8,4.8c-0.9,2-1.2,6.7-0.5,8.6c0,0-4.4-8.7-1.9-12.9
				C486.5,233.1,490,237.1,490,237.1z"/>
			<path class="st22" d="M482,286.7c0.2,27.1,0,21.5,2.9,24.1c0.7,0.6,2.7,1,5.4,1.2c8.3,0.6,23-0.7,23.5-2.2c2-5.3,0.6-7,2.3-15.1
				c0.2-0.9,0.4-1.8,0.6-2.8c1.4-5.6,2.7-7.5-2-16.5c-4.2-8.2-8.7-14.8-9.1-14.6c-11.4,6.6-12.3,1-12.3,1S481.9,273.5,482,286.7z"/>
			<path class="st14" d="M452.5,356.5L461,380c0,0,2.4,0.2,4.6-0.4c2.1-0.6,4.5-2.1,4.5-2.1s-2.2-25.2-6.7-39.7L452.5,356.5z"/>
			<path class="st22" d="M493.4,261.7c0,0-11.7,1.9-13.1,6.9c-1.4,5-9.7,34.5-9.7,34.5s5.9,1.1,8.7-1.6c2.8-2.7,9.7-25.4,9.7-25.4
				L493.4,261.7z"/>
			<path class="st30" d="M490.3,312c8.3,0.6,23-0.7,23.5-2.2c2-5.3,0.6-7,2.3-15.1l-3.9-11.3c0,0,0.6,12.6-3.2,15.9
				c-3.7,3.3-15.2,6.3-17.1,9C491.1,309.6,490.5,310.9,490.3,312z"/>
			<path class="st21" d="M499.9,306.7c0,0-8.2-1.9-9.5-1.2c-1.3,0.7-4.6,3.4-5,4.3c-0.4,0.9,3-0.7,4-1c0.7-0.2,2.6,0.5,3.5,0.8
				c3.9,1.3,6.2,0.7,6.2,0.7L499.9,306.7z"/>
			<path class="st22" d="M505.7,260.8c0,0,11,0.8,14.8,6.1c5.3,7.5,15.8,39.5,9.6,43.8c-6.9,4.7-31.3,1-31.3,1s-0.8-3.8,0.4-5.6
				c1.1-1.8,19.5-4.7,20.4-5.5c0.9-0.8-10.5-16.6-10.5-19.2C509.1,278.8,505.7,260.8,505.7,260.8z"/>
			<path class="st21" d="M489.9,307.9c0,0-1.7,2.2-2.3,2.5c-0.6,0.3-0.9,0.2-0.9,0.2l1.2-2.1L489.9,307.9z"/>
			<path class="st21" d="M490.4,305.6l-5,2.4c0,0,0.2,0.3,0.8,0.3c0.6,0,2.2-0.6,2.2-0.6L490.4,305.6z"/>
		</g>
		<g>
			<g>
				<polygon class="st9" points="488.7,313.9 449.1,313.6 437.4,283.9 477,284.2 				"/>
				<polygon class="st10" points="448.7,312.5 500.9,312.8 500.9,314 449.1,313.6 				"/>
			</g>
			<path class="st24" d="M459.2,298.9c-0.3-1,0.3-1.9,1.4-1.9c1,0,2.1,0.9,2.4,1.9c0.3,1-0.3,1.9-1.4,1.9
				C460.6,300.8,459.5,299.9,459.2,298.9z"/>
		</g>
	</g>
	<g>
		
			<rect x="296.4" y="359.2" transform="matrix(1.958630e-04 -1 1 1.958630e-04 -111.0181 727.5351)" class="st31" width="23.9" height="120.2"/>
		<path class="st15" d="M248.2,431.2l-17.7-7.6l-10.3-4.4l10.5-4.5l17.4-7.5c0,0,2.3,5.8,2.4,11.3
			C250.6,427.2,248.2,431.2,248.2,431.2z"/>
		<path class="st15" d="M382.4,415.3l0,7.6c0,4.6-3.8,8.4-8.4,8.4l-5.6,0l0-23.9l6,0C378.9,407.3,382.4,410.9,382.4,415.3z"/>
		<path class="st14" d="M230.8,414.8c0.4,2.4,0.8,6.1-0.2,8.9l-10.3-4.4L230.8,414.8z"/>
	</g>
	<g>
		<path class="st9" d="M274.1,282.9c0,0,2.2,9.3,8.4,9.3c5.4,0,12.8-12.2,12.8-12.2L274.1,282.9z"/>
		<path class="st14" d="M346.1,420.9l-4,2.8c0,0-19.4-20.7-24.1-40.5c-0.8-3.5-1.2-7-0.8-10.3c0,0-0.3-0.9-0.8-2.5
			c0-0.1,0-0.1-0.1-0.2c-0.2-0.7-0.5-1.5-0.8-2.4c-0.9-3-2.2-7.1-3.7-11.8c-3.4-10.7-11.1-35-14.5-45l23.8-8.6c0,0,2.7,6.2,6.6,22.9
			c0.6,2.2,1.2,4.6,1.8,7.2c0.6,3,1.2,6.3,1.7,9.8c0.8,6,1.4,12.7,1.4,20.1c0,3-0.1,6.1-0.2,9.3c-0.1,2.4,0.2,5.5,0.9,9.1
			C336.4,397,346.1,420.9,346.1,420.9z"/>
		<path class="st13" d="M358.8,430.9h-19.3c0,0-0.7-3.1,0.5-5.2c1.1-1.8,0.7-2.9-0.1-4.4c0.9,0.4,2,0.7,3.2,0.6c1-0.1,2-0.5,2.9-1
			c0.8,0.9,4.4,5,5.5,5.8C352.8,427.5,358.4,427.2,358.8,430.9z"/>
		<path class="st13" d="M331.3,342.3l-15,27.9c-0.2-0.7-0.5-1.5-0.8-2.4c-0.9-3-2.2-7.1-3.7-11.8c-3.4-10.7-11.1-35-14.5-45
			l23.8-8.6c0,0,2.7,6.2,6.6,22.9c0.6,2.2,1.2,4.6,1.8,7.2C330.2,335.5,330.8,338.7,331.3,342.3z"/>
		<path class="st13" d="M297,424.8c0,0-1.3,3.3-0.1,6h10.5c0,0,0.2-2.5-3.6-5.4C301,423.3,297,424.8,297,424.8z"/>
		<path class="st32" d="M308.4,212c0-0.5,0.3-6.1,8.8-6.6c0,0-4.2,0.6-4.9,2.5c0,0,2.8-2.4,5.2-1.7c2.3,0.7,3.8,4.7,3.9,6.1
			c0,1.3-1.1,5.7-2.6,6.1c-0.6,0.2-1.2,0.1-1.8,0c0.4,0.6,0.8,1.3,1.2,2c3.6,6.9,0.5,15.1-2.4,14.4c-1.9-0.4-3,2.8-3,2.8l-17.9-15.4
			C294.9,222.1,301.1,208.3,308.4,212z"/>
		<path class="st21" d="M297.2,258.8c2,1.4,4.5,2.5,7.6,3.2c11.7,2.7,16.2-7.2,17.9-14c-1.6-0.9-3.1-1.1-4-1.2
			c-0.8-0.1-1.7-0.2-2.5-0.2c-1.3-1-3.3-5.1-3.7-11.5l-0.6,0.1l-9.2,2.5c0,0,0.4,2.9,0.6,5.7c0.2,2.2,0.2,4.2-0.2,4.8
			c-0.7,0.2-1.2,0.3-1.2,0.3s0,0,0,0C301.9,248.7,299.2,253.1,297.2,258.8z"/>
		<path class="st20" d="M302.7,237.7c0,0,0.4,2.9,0.6,5.7c5.2-0.5,7.7-5.5,8.6-8.2L302.7,237.7z"/>
		<path class="st21" d="M302.6,242.1c0,0,12.1-3.1,10-10.6c-2-7.5-1.9-12.9-9.6-11.2c-7.8,1.7-8.5,4.9-8.4,7.6
			C294.6,230.6,299.4,242.8,302.6,242.1z"/>
		<path class="st32" d="M293.8,223.6c1.2-2.8,2.8-2.6,3.7-2.2c5.6-5.4,11.3-1.2,11.3-1.2c2.3,5.1,7,7.2,7,7.2s-1.8,2-7.2,2
			c-1.6,0-3.3-0.7-4.9-1.7c3,2.9,6.4,4.6,6.4,4.6c-6.8-1.1-11.5-8.8-12-9.7c-0.6,0.9-1.6,2.7-1.7,4.2c-0.1,2.1,0.7,6.1-0.4,6.2
			C296,233.1,291.9,227.8,293.8,223.6z"/>
		<path class="st21" d="M299.2,247.8c0,0,20.2-4.9,29,2.3l-4.4,61.3l-39.6-9.6c0,0,1.1-3.9,8.7-14.2
			C300.5,277.4,297.2,262.3,299.2,247.8z"/>
		<path class="st14" d="M311,304.7c0,0,0,0.2-0.1,0.6c0,0.2,0,0.4-0.1,0.6c-0.2,1.6-0.5,4.6-0.9,8.6c-1.1,10.4-2.8,27.1-4,40.3
			c-0.9,10.3-1.5,18.5-1.2,19.8c0.9,3.9,0,51.1,0,51.1c-3.4,1.6-8.5,0-8.5,0s-9-42.5-7.7-48.4c1.3-5.9-0.8-10.9-0.8-10.9
			c-7-32.4-6.2-50.4-4.8-59c0.4-2.5,0.9-4.2,1.2-5.3c0.3-0.9,0.5-1.3,0.5-1.3C300,296.7,311,304.7,311,304.7z"/>
		<path class="st9" d="M330.9,267.7c-1,7.4-4.9,16.4-6.3,21.3c0,0,2.3,16.9,0.1,21.5c-0.3,0.5-0.6,0.9-1,1.1
			c-8.3,3.6-40.4,0.1-41.8-10.3c-0.5-3.8,12.2-17,13-18.6c0.3-0.7,0.6-2.8-0.9-7.3c-2.1,6.5-13.8,4.6-13.8,4.6
			c1.4-2.3,4.8-18.6,8.6-25.9c2.9-5.5,10.5-6.3,10.5-6.3s3.2,5.1,10.9,4.3c7.7-0.7,9.1-5.4,9.1-5.4s6.8,0.9,8.9,2.6
			C328.8,249.6,332.2,258,330.9,267.7z"/>
		<path class="st10" d="M324.7,289c0,0,2.3,16.9,0.1,21.5c-6-3-10.8-11.2-9.7-20.3c0.8-6.7,2-8.3,5.6-12.1c2.6-2.8,8.8-3,8.3-1.6
			C327.6,280.4,325.4,286.4,324.7,289z"/>
		<g>
			<polygon class="st26" points="299.5,269 313.3,291.1 289.9,291.1 276.7,269.5 			"/>
			<polygon class="st27" points="312.6,290 312.9,289.2 299.8,268.3 299.5,269 			"/>
			<polygon class="st15" points="299.8,268.3 277.7,268.9 276.7,269.5 299.5,269 			"/>
			<polygon class="st25" points="276.7,269.5 264.3,262.8 278.8,285.5 289.9,291.1 			"/>
		</g>
		<path class="st21" d="M342.3,285c-1.3,0.6-4.7,4.6-6,5c-5.5,1.8-28.7-3-28.7-3l0.7-4.1c0,0,22.8,0.6,25.4-0.1
			c0.5-0.1,2.9-4,3.9-4.5L342.3,285z"/>
		<path class="st21" d="M308.4,282.9c0,0-2.8-2.2-4.6-1.7c-1.9,0.5-4.6,2.9-5.6,3.4c-1,0.6-3.8,2.6-2.4,3.8c1.4,1.2,5.8,0.2,7.5-0.8
			c1.7-0.9,4.4-0.6,4.4-0.6L308.4,282.9z"/>
		<path class="st21" d="M304.3,281.1c0,0-3.3-0.4-4.3-0.4c-0.9,0-0.7,0.2-0.2,0.9c0.5,0.7,2.2,1,2.3,1.2
			C302.3,283.1,304.3,281.1,304.3,281.1z"/>
		<path class="st9" d="M319.5,246.7c0,0,9.9,1.2,12.7,5.4c3.5,5.4,11.6,26.8,11.4,32.2c0,0-6,10.2-26.4,8.5c0,0-2.1-7.5,2.2-10
			c0,0,10.5-1.9,11.7-2.9l-8.6-15.6L319.5,246.7z"/>
		<path class="st21" d="M279.9,277.6c-0.3-1.3-3-0.5-4,0.3c-0.2,0.2-0.5,0.5-0.7,0.8c0-0.2-0.1-0.4-0.1-0.6
			c-0.1-0.6-0.7-1.6-0.9-0.9c-0.2,0.8-0.4,4.1-0.4,4.1c0,2.7,1.7,3.8,2.8,2.9C277.7,283.3,280.2,278.8,279.9,277.6z"/>
	</g>
	<path class="st33" d="M644.4,433H19c-0.4,0-0.8-0.4-0.8-0.8v-0.5c0-0.4,0.4-0.8,0.8-0.8h625.4c0.4,0,0.8,0.4,0.8,0.8v0.5
		C645.2,432.6,644.8,433,644.4,433z"/>
</g>
</svg>
