<?xml version="1.0" encoding="utf-8"?>
<!-- Generator: Adobe Illustrator 23.0.3, SVG Export Plug-In . SVG Version: 6.00 Build 0)  -->
<svg version="1.1" id="Layer_1" xmlns="http://www.w3.org/2000/svg" xmlns:xlink="http://www.w3.org/1999/xlink" x="0px" y="0px"
	 viewBox="0 0 648 470" style="enable-background:new 0 0 648 470;" xml:space="preserve">
<style type="text/css">
	.st0{fill:#E9EFFE;}
	.st1{fill:#BDD0FB;}
	.st2{opacity:0.6;fill:#BDD0FB;}
	.st3{fill:#7D97F4;}
	.st4{fill:#91B3FA;}
	.st5{fill:#DCE5FE;}
	.st6{fill:url(#SVGID_1_);}
	.st7{fill:url(#SVGID_2_);}
	.st8{fill:url(#SVGID_3_);}
	.st9{fill:url(#SVGID_4_);}
	.st10{fill:url(#SVGID_5_);}
	.st11{fill:url(#SVGID_6_);}
	.st12{fill:url(#SVGID_7_);}
	.st13{fill:url(#SVGID_8_);}
	.st14{fill:#FFFFFF;}
	.st15{fill:url(#SVGID_9_);}
	.st16{fill:url(#SVGID_10_);}
	.st17{fill:url(#SVGID_11_);}
	.st18{fill:url(#SVGID_12_);}
	.st19{fill:url(#SVGID_13_);}
	.st20{fill:url(#SVGID_14_);}
	.st21{fill:url(#SVGID_15_);}
	.st22{fill:url(#SVGID_16_);}
	.st23{fill:url(#SVGID_17_);}
	.st24{fill:url(#SVGID_18_);}
	.st25{fill:url(#SVGID_19_);}
	.st26{fill:url(#SVGID_20_);}
	.st27{fill:url(#SVGID_21_);}
	.st28{fill:url(#SVGID_22_);}
	.st29{fill:url(#SVGID_23_);}
	.st30{fill:url(#SVGID_24_);}
	.st31{fill:url(#SVGID_25_);}
	.st32{fill:url(#SVGID_26_);}
	.st33{fill:url(#SVGID_27_);}
	.st34{fill:url(#SVGID_28_);}
	.st35{fill:url(#SVGID_29_);}
	.st36{fill:url(#SVGID_30_);}
	.st37{fill:url(#SVGID_31_);}
	.st38{fill:url(#SVGID_32_);}
	.st39{fill:url(#SVGID_33_);}
	.st40{fill:url(#SVGID_34_);}
	.st41{fill:url(#SVGID_35_);}
	.st42{fill:url(#SVGID_36_);}
	.st43{fill:url(#SVGID_37_);}
	.st44{fill:url(#SVGID_38_);}
	.st45{fill:url(#SVGID_39_);}
	.st46{fill:url(#SVGID_40_);}
	.st47{fill:url(#SVGID_41_);}
	.st48{fill:url(#SVGID_42_);}
	.st49{fill:url(#SVGID_43_);}
	.st50{fill:url(#SVGID_44_);}
	.st51{fill:url(#SVGID_45_);}
	.st52{fill:url(#SVGID_46_);}
	.st53{fill:url(#SVGID_47_);}
	.st54{fill:url(#SVGID_48_);}
	.st55{fill:url(#SVGID_49_);}
</style>
<g>
	<path class="st0" d="M635,307.5c-10.4-10.7-26-17-37.3-27.1c-18.3-16.2-23.4-40.3-22.6-62.7c0.7-22.4,6.4-44.7,6-67.1
		c-0.4-22.4-8.1-46.3-28.7-60.4c-22.2-15.2-54.4-15.4-81.3-7.5c-26.9,7.9-50,22.9-73.5,36.5c-12.3,7.1-27,14.3-41.3,10.8
		c-14.1-3.4-22.1-15.6-30-26.2c-9.2-12.3-21.2-24-37.4-28.6c-32.1-9.1-36.2,1.3-37.7,9.6c-2.3,12.3-5.7,21.3-17.4,25.2
		c-11.7,3.9-25,2.2-36.8-1.5c-11.8-3.7-22.5-9.4-34.1-13.4c-18.5-6.5-39.6-8.8-58.8-3.9c-19.2,4.9-36,17.9-40.8,34.4
		c-7.9,27.6,17.7,57.5,5.7,84.1c-8.2,18.3-31.3,28.1-46.9,42.7c-29.9,28.1-28,73.9-3.1,105.3c24.9,31.4,68,49.6,111.8,56.9
		c43.8,7.3,88.9,5,133.4,3.2c70-2.8,140.2-4.2,210.3-2.4c29,0.7,58.3,2,86.7-2.7c28.4-4.8,56.5-16.3,73.2-36.4
		C651.1,356,653.5,326.4,635,307.5z"/>
	<g>
		<g>
			<path class="st1" d="M35.2,82.5c-1.1-9.6,9.8-23.1,29.5-11.1c0.5-4.5,25.3-18.6,36.7,11c2-7.2,19.9-3.6,23.1,8.6
				c6.7-3,23,12.1,1.5,14.7C98.6,109,35.7,108,24.5,91.5C13.2,75.1,35.2,82.5,35.2,82.5z"/>
		</g>
		<path class="st2" d="M145.2,69.3c-0.7-6.1,6.3-14.8,18.9-7.2c0.3-2.9,16.2-12,23.6,7.1c1.3-4.6,12.8-2.3,14.8,5.5
			c4.3-1.9,14.7,7.7,1,9.4c-17.6,2.1-57.9,1.5-65.1-9C131.1,64.5,145.2,69.3,145.2,69.3z"/>
	</g>
	<g>
		<g>
			<path class="st3" d="M430.5,202.9c-1.9-3.3-2.7-7.2-2.2-11c0.6-4.9,0.9-11,0.3-17.6c-1.6-18.5-9.3-34.2-22.5-45.8
				c-1.7-1.5-2.6-3.8-2.3-6.1c0.4-3.4,0.6-7.6,0-12.1c-1.4-10.8-7.3-26.1-27.1-38.6c-2-6.4-7.9-18-24.6-27.1
				c-12.4-6.8-24.1-8.4-33.1-4.6c-3.7,1.6-6.8,4.1-8.9,7.1c-2.6,0.5-5.3,1.5-7.8,3.4c-1.4,1.1-2.6,2.3-3.7,3.8
				c-1.6,2.2-4.9,2.2-6.5,0c-1.1-1.4-2.3-2.7-3.7-3.8c-2.5-1.9-5.2-3-7.8-3.4c-2.2-3.1-5.2-5.6-8.9-7.1c-8.9-3.8-20.7-2.2-33.1,4.6
				c-16.7,9.1-22.5,20.7-24.6,27.1c-19.8,12.5-25.7,27.8-27.1,38.6c-0.4,2.8-0.4,5.4-0.4,7.9c0.2,5-1.6,9.8-5.1,13.3
				c-11.3,11.3-18,25.9-19.4,42.9c-0.6,6.7-0.3,12.8,0.3,17.7c0.4,3.7-0.3,7.4-2.2,10.7c-6.9,12.2-7.8,33.4-1.7,57
				c3.7,14.1,10,24.4,18.7,30.7c0,0,0,0,0,0c2.4,1.7,4.2,4.3,5.1,7.1c0.3,1.1,0.7,2.2,1.3,3.3c7.2,14.4,32.8,22,54.9,23.3
				c1.1,0.1,2.2,0.1,3.3,0.1c10.9,0,19.5-3.1,25.7-9.4c4.8-4.9,7.1-10.6,8.1-15.2c8.7-1.1,15.1-4.2,19-9.5c0.2-0.3,0.4-0.6,0.6-0.9
				c0.2,0.3,0.4,0.6,0.6,0.9c3.9,5.2,10.3,8.4,19,9.5c1,4.6,3.3,10.3,8.1,15.2c6.2,6.2,14.8,9.4,25.7,9.4c1.1,0,2.2,0,3.3-0.1
				c22.1-1.2,47.7-8.9,54.9-23.3c0.5-1.1,1-2.2,1.3-3.3c0.8-2.9,2.6-5.4,5.1-7.1c0,0,0,0,0,0c8.7-6.3,15.1-16.6,18.7-30.7
				C438.2,236.3,437.4,215.1,430.5,202.9z"/>
		</g>
		<path class="st4" d="M289.5,77.3v198.1c0,0,5.1,16.4-21.6,16.1c0,0,1.6,25.8-29,24.1c-30.6-1.7-55.8-15-47.1-28.1
			c0,0-17.6-0.7-25.2-29.9c-7.6-29.2-2.9-51.4,6-56.2c0,0-14.3-46.3,24.6-72c0,0-13.4-30.7,24.1-52.3c0,0,1.6-14.3,21.2-25.1
			c18.5-10.1,30.3-5,32.6,3.5C275.2,55.5,289.5,51.6,289.5,77.3z"/>
		<path class="st4" d="M301,77.3v198.1c0,0-5.1,16.4,21.6,16.1c0,0-1.6,25.8,29,24.1c30.6-1.7,55.8-15,47.1-28.1
			c0,0,17.6-0.7,25.2-29.9c7.6-29.2,2.9-51.4-6-56.2c0,0,14.3-46.3-24.6-72c0,0,13.4-30.7-24.1-52.3c0,0-1.6-14.3-21.2-25.1
			c-18.5-10.1-30.3-5-32.6,3.5C315.3,55.5,301,51.6,301,77.3z"/>
		<path class="st1" d="M273.1,80.4c-0.1,0-0.2,0-0.3,0c-4.2-0.8-11.9-4.9-10.7-14.6c1.1-9.2,9-11.6,13.1-11.6c0.8,0,1.4,0.6,1.4,1.4
			c0,0.8-0.6,1.4-1.4,1.4c0,0,0,0,0,0c-0.4,0-9.2,0.1-10.3,9.1c-1.2,9.6,8.1,11.5,8.5,11.5c0.8,0.1,1.3,0.9,1.1,1.6
			C274.4,79.9,273.8,80.4,273.1,80.4z"/>
		<path class="st1" d="M250.3,117.9c-2.4,0-4.7-0.5-6.7-1.2c-3-1.2-4.8-2.9-5.1-4.9c-0.1-0.8,0.4-1.5,1.2-1.6
			c0.8-0.1,1.5,0.4,1.6,1.2c0.1,0.7,1,1.7,3.3,2.6c3.5,1.4,8.9,1.6,11.8-0.8c1.9-1.5,2.6-4,2-7.4c-2-11.2-11.4-12.1-22.4-13.1
			c-2.4-0.2-4.9-0.5-7.4-0.8c-4.8-0.7-7.9-2.5-9.2-5.3c-1.8-4,0.9-8.3,1.1-8.5c0.4-0.7,1.3-0.8,1.9-0.4c0.6,0.4,0.8,1.3,0.4,1.9
			c0,0.1-2,3.3-0.9,5.8c1.1,2.3,4.4,3.3,7.1,3.6c2.4,0.3,4.8,0.6,7.2,0.8c11.1,1,22.6,2.1,24.9,15.4c1,5.5-1.1,8.5-3,10
			C256,117.2,253.1,117.9,250.3,117.9z"/>
		<path class="st1" d="M224.9,152.6c-2.8,0-5.1-1.2-6-3.1c-0.3-0.7,0-1.5,0.7-1.8c0.7-0.3,1.5,0,1.8,0.7c0.5,1.1,2.6,1.8,5.1,1.3
			c1.4-0.3,6-2,5.6-8.9c-0.3-4.5-1.7-7.6-4.3-9.2c-3.2-1.9-8.2-1.4-14.1,1.4c-12.3,5.9-16.5-0.8-16.6-1.1c-0.4-0.7-0.2-1.5,0.5-1.9
			c0.7-0.4,1.5-0.2,1.9,0.5c0.1,0.2,3.2,4.7,13,0c6.9-3.3,12.7-3.7,16.8-1.3c2.4,1.4,5.3,4.6,5.7,11.4c0.4,7.3-3.7,10.9-7.8,11.8
			C226.4,152.5,225.6,152.6,224.9,152.6z"/>
		<path class="st1" d="M215.2,187.4c-0.8,0-1.6-0.1-2.5-0.2c-5-0.8-9.3-4-12.7-9.6c-3.4-5.6-4.4-11-3-16c2.3-8.6,10.7-13.1,11-13.2
			c0.7-0.4,1.5-0.1,1.9,0.6c0.4,0.7,0.1,1.5-0.6,1.9c-0.1,0.1-7.6,4.1-9.6,11.5c-1.2,4.3-0.3,9,2.7,13.8c3,4.8,6.6,7.6,10.7,8.3
			c7.2,1.1,13.8-4.4,13.9-4.4c0.6-0.5,1.5-0.4,2,0.2c0.5,0.6,0.4,1.5-0.2,2C228.6,182.4,222.6,187.4,215.2,187.4z"/>
		<path class="st1" d="M267.9,191.1c-0.2,0-0.4,0-0.6-0.2c-0.7-0.4-1-1.2-0.6-1.9c0,0,0.8-1.6,0.7-4.5c0-2.7-0.8-7.1-4.3-12.6
			c-6.6-10.6-19.2-8.3-19.3-8.2c-0.8,0.1-1.5-0.3-1.6-1.1c-0.1-0.8,0.3-1.5,1.1-1.6c0.1,0,14.6-2.7,22.2,9.5
			c7.5,12,3.9,19.6,3.7,19.9C268.9,190.8,268.4,191.1,267.9,191.1z"/>
		<path class="st1" d="M252,227.9c-0.4,0-0.8-0.2-1.1-0.5c-0.5-0.6-0.4-1.5,0.2-2c1.7-1.4,3.6-3.8,3.3-6.9
			c-0.4-4.3-4.9-8.9-12.9-13.5c-8.7-4.9-15.9-6.3-21.2-4c-6.1,2.6-7.8,9.2-7.8,9.3c-0.2,0.8-0.9,1.2-1.7,1c-0.8-0.2-1.2-0.9-1-1.7
			c0.1-0.3,2-8,9.4-11.2c6.2-2.7,14.2-1.3,23.8,4.1c9,5.1,13.8,10.3,14.3,15.6c0.3,3.4-1.2,6.7-4.3,9.3
			C252.6,227.8,252.3,227.9,252,227.9z"/>
		<path class="st1" d="M262.7,263.6c-5.1,0-10-2.6-12.7-7.1c-0.4-0.7-0.2-1.5,0.5-1.9c0.7-0.4,1.5-0.2,1.9,0.5c3,5,9.3,7.1,14.6,4.9
			c2.3-0.9,9.7-5.1,6.4-19.2c-3.3-13.9-3.4-22.5-0.2-27.1c1.6-2.3,4-3.7,7.3-4.1c7.9-1.1,10.2,3.2,10.3,3.4c0.3,0.7,0.1,1.5-0.6,1.9
			c-0.7,0.3-1.5,0.1-1.9-0.6c-0.1-0.2-1.6-2.7-7.4-1.9c-2.5,0.4-4.2,1.3-5.4,2.9c-2.6,3.9-2.4,12,0.6,24.9c2,8.4,0.9,18.8-8,22.4
			C266.4,263.3,264.5,263.6,262.7,263.6z"/>
		<path class="st1" d="M212.7,240.9c-11.3,0-16.6-14.7-21.1-26.7c-1.1-3.1-2.2-6-3.3-8.5c-1.7-3.8-3.8-6-6.2-6.5
			c-3.5-0.7-6.7,2.1-6.7,2.2c-0.6,0.5-1.5,0.5-2-0.1c-0.5-0.6-0.5-1.5,0.1-2c0.2-0.2,4.3-3.9,9.2-2.8c3.4,0.7,6.1,3.4,8.2,8.1
			c1.1,2.5,2.2,5.5,3.4,8.6c4.8,13.2,10.3,28.1,22.3,24.2c4.5-1.4,7.2-3.5,7.9-6.2c1.2-4.3-2.9-9.1-2.9-9.1c-0.5-0.6-0.5-1.5,0.1-2
			c0.6-0.5,1.5-0.5,2,0.1c0.2,0.2,5.1,5.9,3.5,11.7c-1,3.6-4.3,6.4-9.7,8.1C215.8,240.7,214.2,240.9,212.7,240.9z"/>
		<path class="st1" d="M193.1,287.8c-0.2,0-0.5-0.1-0.7-0.2c-0.7-0.4-0.9-1.2-0.5-1.9c9.1-15.8,22.4-20.6,23-20.8
			c0.7-0.3,1.5,0.1,1.8,0.9c0.3,0.7-0.1,1.5-0.9,1.8l0,0c-0.1,0-13,4.8-21.5,19.6C194,287.5,193.6,287.8,193.1,287.8z"/>
		<path class="st1" d="M266.7,291.4c-0.4,0-0.7-0.1-1-0.4c-5.5-5.4-11.2-4.6-17.2-3.7c-5.4,0.8-11.1,1.6-15.9-3
			c-3.6-3.4-5.3-7.2-5.2-11.2c0.3-7.3,6.6-12.6,6.9-12.8c0.6-0.5,1.5-0.4,2,0.2c0.5,0.6,0.4,1.5-0.2,2c-0.1,0.1-5.7,4.8-5.9,10.7
			c-0.1,3.2,1.3,6.2,4.3,9.1c3.8,3.6,8.3,3,13.5,2.2c6.1-0.9,13.1-1.9,19.6,4.5c0.6,0.5,0.6,1.4,0,2
			C267.4,291.3,267.1,291.4,266.7,291.4z"/>
		<path class="st1" d="M327.3,81.9c-2.1,0-4.5-0.5-7-1.6c-4.2-1.8-6.9-4.6-8.2-8.3c-2.5-7.2,1.6-15.1,1.7-15.4
			c0.4-0.7,1.2-0.9,1.9-0.6c0.7,0.4,0.9,1.2,0.6,1.9c-0.1,0.1-3.7,7.2-1.6,13.2c1,2.9,3.3,5.1,6.7,6.6c7.3,3.2,12.2,0.2,14.2-3.4
			c1.3-2.4,1.6-5.8-1.1-7.6c-0.6-0.4-0.8-1.3-0.4-1.9c0.4-0.6,1.3-0.8,1.9-0.4c3.4,2.3,4.3,7.1,1.9,11.3
			C336.1,79.2,332.3,81.9,327.3,81.9z"/>
		<path class="st1" d="M338,102.2c-0.6,0-1.1-0.4-1.3-0.9c-0.1-0.3-2.2-6.4,1.1-10.8c2.2-2.9,6.1-4.3,11.7-4.1
			c9.1,0.4,14.8-0.6,17-2.9c0.9-0.9,1.3-2.2,1.1-3.9c-0.1-0.8,0.5-1.4,1.3-1.5c0.8-0.1,1.4,0.5,1.5,1.3c0.2,2.5-0.4,4.5-1.9,6
			c-2.9,3-9,4.2-19.1,3.7c-4.6-0.2-7.7,0.8-9.3,2.9c-2.4,3.2-0.7,8.1-0.7,8.2c0.3,0.7-0.1,1.5-0.9,1.8
			C338.3,102.2,338.1,102.2,338,102.2z"/>
		<path class="st1" d="M313.2,128.5c0,0-0.1,0-0.1,0c-0.8,0-1.4-0.7-1.4-1.4c0-0.8,0.7-1.4,1.4-1.4c3.1,0,6.6-2.7,8.5-6.7
			c2.2-4.6,1.8-9.5-1.1-13.1c-2.1-2.6-4.2-3.9-6.1-3.8c-2.6,0.1-4.3,2.6-4.3,2.7c-0.4,0.6-1.3,0.8-1.9,0.4c-0.6-0.4-0.8-1.3-0.4-1.9
			c0.1-0.2,2.5-3.7,6.5-3.9c2.9-0.1,5.7,1.5,8.4,4.8c3.7,4.5,4.2,10.5,1.5,16.1C321.7,125.2,317.3,128.5,313.2,128.5z"/>
		<path class="st1" d="M362.6,138.2c-3.4,0-7.4-1-12.2-3.9c-9.3-5.7-10.6-14.9-8.9-21.1c1.5-5.3,5.1-8.9,9-8.9c0,0,0,0,0,0
			c3.1,0,5.4,0.9,6.7,2.5c1.7,2.2,1.1,4.9,1.1,5c-0.2,0.8-0.9,1.2-1.7,1c-0.7-0.2-1.2-0.9-1-1.7c0,0,0.3-1.5-0.6-2.6
			c-0.8-0.9-2.3-1.5-4.5-1.5c0,0,0,0,0,0c-2.6,0-5.2,2.8-6.3,6.8c-1.5,5.5-0.4,13,7.6,17.9c5.7,3.5,10.9,4.4,15.3,2.7
			c3.2-1.2,4.9-3.5,4.9-3.5c0.5-0.6,1.3-0.8,2-0.3c0.6,0.5,0.8,1.3,0.3,2C374.4,132.8,370.3,138.2,362.6,138.2z"/>
		<path class="st1" d="M361.9,189.1c-4,0-8.7-1.4-13.7-5.4c-15.4-12.1-2.6-29.6-2.4-29.8c0.5-0.6,1.3-0.7,2-0.3
			c0.6,0.5,0.7,1.3,0.3,2l0,0c0,0-3,4-4.1,9.2c-1.5,6.7,0.5,12.3,6.1,16.7c13.2,10.4,21.9,0.6,22.2,0.2c0.5-0.6,1.4-0.7,2-0.2
			c0.6,0.5,0.7,1.4,0.2,2C372.2,186.1,367.8,189.1,361.9,189.1z"/>
		<path class="st1" d="M389.1,172.5c-2.7,0-6-0.9-9.9-4.1c-6.1-5.1-9.3-13.3-7.8-20.5c1-5,4-8.5,8.3-9.8c9-2.7,10.8-7.3,10.9-7.3
			c0.3-0.7,1.1-1.1,1.8-0.8c0.7,0.3,1.1,1.1,0.8,1.8c-0.1,0.2-2.2,5.9-12.7,9.1c-3.3,1-5.6,3.7-6.4,7.7c-1,5.2,0.7,12.7,6.8,17.8
			c4.4,3.7,9.1,4.5,12.4,2.2c2.1-1.5,3.1-3.9,2.4-6c-0.2-0.7,0.1-1.5,0.9-1.8c0.7-0.2,1.5,0.1,1.8,0.9c1.1,3.2-0.4,7-3.5,9.2
			C394.1,171.4,392,172.5,389.1,172.5z"/>
		<path class="st1" d="M376.9,238.7C376.9,238.7,376.9,238.7,376.9,238.7c-4.1,0-7.1-1.2-9.1-3.5c-3.1-3.6-2.5-8.6-2.5-8.8
			c0.1-0.8,0.8-1.3,1.6-1.2c0.8,0.1,1.3,0.8,1.2,1.6l0,0c0,0-0.5,4,1.8,6.6c1.5,1.7,3.8,2.5,6.9,2.6c0,0,0,0,0.1,0
			c5.7,0,10.6-5,13.8-9.2c3.8-5.1,6.5-11.1,7.4-14.5c0.2-0.5,0.3-1.1,0.5-1.7c1.1-4.4,2.5-9.8,6.9-11.8c3.1-1.4,7-0.9,12,1.6
			c0.7,0.3,1,1.2,0.6,1.9c-0.3,0.7-1.2,1-1.9,0.6c-4.1-2-7.3-2.6-9.6-1.5c-3.2,1.5-4.4,6-5.4,10c-0.2,0.6-0.3,1.2-0.5,1.8
			C399,219.5,389.6,238.6,376.9,238.7z"/>
		<g>
			<path class="st1" d="M334.2,259c-0.1,0-0.2,0-0.4,0c-13.1-3.4-21.5-11.2-23.6-21.7c-2.2-11.3,3-22.3,9.2-26.9
				c7-5.3,15.8-4.3,26.2,3c0.3,0.2,0.5,0.4,0.7,0.5c0.6,0.2,0.9,0.8,0.9,1.4c-0.1,0.8-0.8,1.3-1.5,1.3c-0.5,0-0.7-0.2-1.6-0.9
				c-3.5-2.4-14-9.8-22.9-3c-5.5,4.2-10,14.4-8.1,24.1c1.3,6.7,6.2,15.5,21.5,19.6c0.7,0.2,1.2,1,1,1.7
				C335.4,258.6,334.8,259,334.2,259z M345.9,213.7C345.9,213.7,345.9,213.7,345.9,213.7C345.9,213.7,345.9,213.7,345.9,213.7z
				 M345.9,213.7C345.9,213.7,345.9,213.7,345.9,213.7C345.9,213.7,345.9,213.7,345.9,213.7z"/>
		</g>
		<path class="st1" d="M322.9,291.4c-0.8,0-1.4-0.6-1.4-1.4c0-0.2,0-4.2,3.3-7.5c2.9-3,7.5-4.4,13.5-4.4c10.3,0.1,17.8-2.1,19.5-5.8
			c1.1-2.3,0.1-5.4-3.1-9.2c-0.5-0.6-0.4-1.5,0.2-2c0.6-0.5,1.5-0.4,2,0.2c3.9,4.7,5.1,8.8,3.4,12.2c-3.3,6.9-16.5,7.5-22.1,7.4
			c-5.3,0-9.1,1.2-11.5,3.6c-2.4,2.5-2.5,5.5-2.5,5.5C324.3,290.8,323.7,291.4,322.9,291.4C322.9,291.4,322.9,291.4,322.9,291.4z"/>
		<path class="st1" d="M397.5,288.1c-0.6,0-1.1-0.3-1.3-0.9c-6.2-15-19.6-16.7-19.8-16.7c-0.8-0.1-1.3-0.8-1.2-1.6
			c0.1-0.8,0.8-1.3,1.6-1.2c0.6,0.1,15.2,1.9,22.1,18.4c0.3,0.7,0,1.5-0.8,1.8C397.8,288.1,397.6,288.1,397.5,288.1z"/>
	</g>
	<g>
		<g>
			<path class="st1" d="M614,324.9c2,0.8,4-1.4,2.8-3.4c-6.5-11-21.5-31.3-44-30.7c-30.8,0.8-53.5,14.8-83,64.8
				c-28.7,48.6-94.4,65.5-112.1,65.9c-0.8,0-1.5,0.6-1.6,1.5l0,0c-0.2,1.1,0.7,2.1,1.8,2c12.5-0.6,78-4.6,111-22.2
				C523.5,384.4,574.5,308.9,614,324.9z"/>
			<path class="st5" d="M595.6,310.6c-2.4-1-5-1.7-7.5-2.3c-2.6-0.6-5.2-0.9-7.8-1.1c-1.3-0.1-2.6-0.1-3.9-0.1c-1.3,0-2.6,0-3.9,0.1
				c-2.6,0.2-5.2,0.5-7.8,1c-5.1,1-10.1,2.7-14.9,5c-4.7,2.3-9.2,5.1-13.4,8.2c-8.4,6.4-15.5,14.3-21.7,22.8c-1.5,2.2-3,4.3-4.5,6.5
				c-1.5,2.2-3,4.5-4.5,6.6l-2.3,3.3l-2.4,3.2c-1.6,2.2-3.3,4.2-4.9,6.4c-3.4,4.2-6.9,8.2-10.6,12.1c-3.7,3.9-7.7,7.6-11.8,11
				c-8.3,6.9-17.6,12.5-27.5,16.7c-9.9,4.2-20.3,6.9-30.8,8.9c-10.5,2-21.1,3.5-31.6,4.9c-0.2,0-0.3-0.1-0.3-0.3
				c0-0.2,0.1-0.3,0.3-0.3c10.5-1.8,21-3.4,31.4-5.7c10.4-2.3,20.7-5.1,30.3-9.3c9.7-4.2,18.7-9.9,26.8-16.7c4-3.4,7.9-7,11.5-10.9
				c3.7-3.8,7.1-7.9,10.4-12c1.6-2.1,3.3-4.2,4.8-6.3l2.3-3.2l2.3-3.3c1.5-2.2,3-4.4,4.5-6.6c1.5-2.2,3-4.4,4.6-6.6
				c6.4-8.7,13.7-16.8,22.3-23.3c8.6-6.5,18.7-11.3,29.4-13.2c2.7-0.4,5.4-0.8,8.1-0.9c1.4-0.1,2.7,0,4.1,0c1.4,0.1,2.7,0.1,4,0.3
				c5.4,0.6,10.7,1.7,15.6,4c0.3,0.1,0.4,0.4,0.3,0.7C596.2,310.6,595.9,310.7,595.6,310.6L595.6,310.6z"/>
		</g>
		<g>
			<linearGradient id="SVGID_1_" gradientUnits="userSpaceOnUse" x1="419.2938" y1="415.9773" x2="417.7006" y2="420.1285">
				<stop  offset="0" style="stop-color:#A737D5"/>
				<stop  offset="1" style="stop-color:#EF497A"/>
			</linearGradient>
			<path class="st6" d="M417,419.8l-0.4-2.8l0.4,0c1,0,2.1-0.1,3.1-0.2l1.2-0.1l-1,0.7c-1.1,0.8-2,1.5-2.9,2.1L417,419.8z
				 M417.3,417.7l0.1,0.9c0.5-0.3,0.9-0.7,1.5-1C418.4,417.7,417.9,417.7,417.3,417.7z"/>
			<path class="st1" d="M609.4,168.5c-12,12.6-29.1,20.6-45.8,26.5c-21.8,7.8-45.1,14.1-62.5,29.3c-18.2,16-27.6,39.8-32.7,63.5
				c-5.2,23.7-6.9,48-13.1,71.4c-5.9,22.3-16.7,44.3-35.1,58c15.7-1.7,28.8-14.4,35.6-28.9c7.2-15.4,8.7-32.8,11.2-49.7
				c2.5-16.9,6.4-34.3,17.2-47.4c21.3-25.8,60.9-26.3,88.1-45.7c14.1-10.1,24.2-24.8,31.2-40.6c4.8-10.8,8.3-22,11.3-33.4
				C615.5,168.3,611.6,166.1,609.4,168.5z"/>
		</g>
		<g>
			<path class="st3" d="M188.2,413.4c1.2-0.1,1.9-1.6,1.1-2.5c-8.7-10.8-42.8-58.2-2.7-89.7c45.5-35.8,60.7-43.3,58-76.7
				c-2.5-30.4-18.5-45.3-35.8-52.7c-1.2-0.5-2.3,1-1.4,2c7.4,8.5,22.9,29.3,15.3,48.5c-9.8,24.8-55.2,62.5-59.6,99.7
				c-4.4,36.8,10.2,52.4,23.9,70.8C187.1,413.2,187.6,413.4,188.2,413.4L188.2,413.4z"/>
			<path class="st1" d="M69.3,177.9c-1.1-1.5-0.2-3.6,1.6-4c5-0.9,14.2-3.6,24.5-11.3c10.4-7.7,35.7-23.2,64-2.9
				c28.2,20.3,13,79.7-6,136.2c-18.9,56.6,32.5,104.4,32.5,104.4l13.3,13.9c0,0-53.3-36.4-56.5-86.9c-3.2-50.5,29.2-111.2-6.7-126.8
				C101.7,185.7,87.5,203.8,69.3,177.9z"/>
			<g>
				<path class="st1" d="M34.7,236.3c-2.1-0.1-2.8-2.8-1.1-4c10-6.8,31-18.1,50-8.6c26,13.1,39.8,34.1,45,88.7
					c5,53.1,54.4,93.8,69.4,101.3c0.7,0.3,1,1.1,0.8,1.9l0,0c-0.3,1-1.4,1.5-2.3,1c-10.4-5.5-64.8-35.2-86-63.5
					C88.2,323.5,74.9,238.5,34.7,236.3z"/>
				<path class="st5" d="M56.3,230.6c5.1,0.1,10.1,1.2,14.9,2.9c1.2,0.4,2.4,0.9,3.6,1.4c1.2,0.5,2.3,1,3.4,1.7
					c2.3,1.1,4.4,2.5,6.5,4c8.3,5.9,15,14,19.7,23c4.8,9,7.7,18.9,9.7,28.8c0.4,2.5,0.9,5,1.2,7.5c0.4,2.5,0.7,5,1.2,7.4l0.6,3.7
					l0.7,3.7c0.5,2.5,1.1,4.9,1.6,7.3c1.2,4.9,2.5,9.7,4.1,14.4c1.6,4.7,3.4,9.4,5.5,13.9c4.2,9.1,9.7,17.5,16.3,25
					c3.3,3.8,6.9,7.3,10.6,10.6c3.7,3.3,7.7,6.5,11.6,9.5c8,6.1,16.4,11.7,24.6,17.4c0.1,0.1,0.1,0.2,0.1,0.3
					c-0.1,0.1-0.2,0.1-0.3,0.1c-4.2-2.7-8.4-5.5-12.6-8.3c-4.2-2.8-8.3-5.7-12.4-8.6c-8.1-5.9-15.9-12.5-22.7-20
					c-6.8-7.5-12.5-16.1-16.8-25.3c-2.2-4.6-4-9.3-5.7-14.1c-1.6-4.8-3-9.7-4.2-14.6c-0.6-2.5-1.2-4.9-1.6-7.4l-0.7-3.7l-0.7-3.7
					c-0.5-2.5-0.8-5-1.2-7.5c-0.4-2.5-0.8-4.9-1.2-7.4c-1.9-9.8-4.8-19.5-9.4-28.3c-2.3-4.4-5-8.6-8.2-12.4
					c-3.1-3.8-6.8-7.3-10.8-10.2c-2-1.4-4.1-2.8-6.3-4c-1.1-0.6-2.2-1.1-3.3-1.7c-1.1-0.5-2.3-1-3.4-1.4c-2.3-0.9-4.7-1.6-7.1-2.2
					c-2.4-0.5-4.9-1-7.4-1.1l0,0c-0.2,0-0.4-0.2-0.4-0.4C55.9,230.7,56,230.5,56.3,230.6z"/>
			</g>
			<path class="st5" d="M73.1,175.9c1.5,0.7,3.2,1.2,4.9,1.5c1.7,0.3,3.4,0.5,5.1,0.5c3.4,0,6.8-0.6,10-1.8c1.6-0.6,3.1-1.3,4.6-2.1
				c1.5-0.8,2.9-1.7,4.3-2.7c0.7-0.5,1.4-1,2-1.6l2-1.7c1.4-1.2,2.8-2.2,4.4-3.1c3-1.9,6.2-3.4,9.6-4.6c3.3-1.2,6.8-2.1,10.3-2.6
				c3.5-0.5,7.1-0.6,10.7-0.1c1.8,0.2,3.6,0.6,5.3,1.2c1.7,0.5,3.4,1.3,5,2.1c0.8,0.4,1.6,0.9,2.3,1.4c0.7,0.5,1.5,1,2.2,1.6
				c1.4,1.2,2.7,2.4,3.8,3.8c2.3,2.8,4.1,5.9,5.5,9.2c2.8,6.6,4,13.6,4.5,20.6c0.3,3.5,0.3,7,0.2,10.5c-0.1,3.5-0.3,7-0.7,10.4
				c-0.7,6.9-1.8,13.8-3.2,20.6c0,0.2-0.2,0.3-0.4,0.3c-0.2,0-0.3-0.2-0.3-0.4c1-6.9,1.9-13.7,2.3-20.6c0.2-3.4,0.4-6.9,0.4-10.3
				c0-3.4-0.1-6.9-0.4-10.3c-0.6-6.8-1.9-13.6-4.6-19.9c-0.7-1.5-1.4-3.1-2.3-4.5c-0.8-1.4-1.8-2.8-2.9-4.1
				c-1.1-1.3-2.3-2.4-3.5-3.5c-0.6-0.5-1.3-1-2-1.5c-0.7-0.4-1.4-0.9-2.1-1.3c-1.5-0.8-3-1.4-4.6-1.9c-1.6-0.5-3.2-0.9-4.9-1.1
				c-3.3-0.5-6.7-0.4-10.1,0c-6.7,0.9-13.3,3.2-19.2,6.6c-1.5,0.9-2.9,1.8-4.2,2.8l-2,1.6c-0.7,0.5-1.4,1.1-2.1,1.6
				c-1.5,1-3,1.9-4.6,2.7c-1.6,0.8-3.2,1.5-4.9,2c-3.4,1.1-7,1.6-10.5,1.4c-3.5-0.2-7-0.9-10.2-2.5c-0.1-0.1-0.2-0.2-0.1-0.4
				C72.8,175.9,72.9,175.9,73.1,175.9L73.1,175.9z"/>
		</g>
		<g>
			<linearGradient id="SVGID_2_" gradientUnits="userSpaceOnUse" x1="567.1933" y1="80.0692" x2="346.667" y2="437.2042">
				<stop  offset="0" style="stop-color:#FE7062"/>
				<stop  offset="1" style="stop-color:#FF928E"/>
			</linearGradient>
			<path class="st7" d="M359.6,391.9l94.7-181.4h-19.4c-3.6,0-5.5-4.2-3.3-6.9l100.9-123c4.4-5.3,13-1.9,12.6,4.9L538,205.8
				c-0.4,6.9-6.5,12-13.4,11.2l-13.5-1.5l-93.9,203.4c-2.4,5.3-7.7,8.7-13.6,8.7h-32.6L359.6,391.9z"/>
			<linearGradient id="SVGID_3_" gradientUnits="userSpaceOnUse" x1="417.6771" y1="330.0595" x2="240.7359" y2="340.468">
				<stop  offset="0" style="stop-color:#FE7062"/>
				<stop  offset="1" style="stop-color:#FF928E"/>
			</linearGradient>
			<path class="st8" d="M281.3,264.7l66.8,148.5c4,8.8,12.7,14.4,22.3,14.4H405c4.6,0,8.8-2.5,11-6.5l1.2-2.2l0,0
				c-3.7,0-7.1-2.1-8.8-5.4l-89-174.5L281.3,264.7z"/>
			<linearGradient id="SVGID_4_" gradientUnits="userSpaceOnUse" x1="339.5607" y1="322.1496" x2="135.9477" y2="326.0528">
				<stop  offset="0" style="stop-color:#FE7062"/>
				<stop  offset="1" style="stop-color:#FF928E"/>
			</linearGradient>
			<path class="st9" d="M328.4,256.7L328.4,256.7c-6.7-5.3-16.5-3.7-21.2,3.4l-98.3,147.6c-7.9,11.8-21.1,18.9-35.3,18.9h-13.8
				l-11.3-32.4c0,0,91.4-140.1,114.9-161.3c0,0,23.4-21.1,46.6-5.2c6.1,4.2,10.7,10.2,13.6,17.1L328.4,256.7z"/>
			<linearGradient id="SVGID_5_" gradientUnits="userSpaceOnUse" x1="179.2038" y1="431.8981" x2="105.048" y2="329.4461">
				<stop  offset="0" style="stop-color:#FE7062"/>
				<stop  offset="1" style="stop-color:#FF928E"/>
			</linearGradient>
			<path class="st10" d="M41.6,307c0,0,16.4-20.6,48.3-23.8c0,0,15.1,5.2,45.3,59.2c30.2,54,50.2,78.7,73.7,65.2l-1.9,3.2
				c-6.4,10.6-17.9,17.1-30.3,17.1h-13c-14.3,0-27.7-6.9-36.1-18.5C104,376.9,56,312.1,41.6,307z"/>
			<linearGradient id="SVGID_6_" gradientUnits="userSpaceOnUse" x1="317.8982" y1="-128.8343" x2="670.1104" y2="276.0997">
				<stop  offset="0" style="stop-color:#FF928E"/>
				<stop  offset="1" style="stop-color:#FEB3B1"/>
			</linearGradient>
			<path class="st11" d="M533.7,123.7c0,0-0.1,0-0.1,0c-0.6-0.1-1-0.6-0.9-1.2l0.7-5.9c0.1-0.6,0.6-1,1.2-0.9c0.6,0.1,1,0.6,0.9,1.2
				l-0.7,5.9C534.7,123.3,534.3,123.7,533.7,123.7z"/>
			<linearGradient id="SVGID_7_" gradientUnits="userSpaceOnUse" x1="283.2811" y1="-98.7239" x2="635.4938" y2="306.2106">
				<stop  offset="0" style="stop-color:#FF928E"/>
				<stop  offset="1" style="stop-color:#FEB3B1"/>
			</linearGradient>
			<path class="st12" d="M449.5,197.8c-0.2,0-0.4-0.1-0.6-0.2c-0.5-0.4-0.5-1-0.2-1.5L532,87.8c1-1.3,2.7-1.8,4.2-1.1
				c1.5,0.6,2.4,2.1,2.2,3.8l-1.5,13c-0.1,0.6-0.6,1-1.2,0.9c-0.6-0.1-1-0.6-0.9-1.2l1.5-13c0.1-0.8-0.4-1.4-0.9-1.6
				c-0.5-0.2-1.2-0.2-1.8,0.5l-83.3,108.3C450.1,197.7,449.8,197.8,449.5,197.8z"/>
			<linearGradient id="SVGID_8_" gradientUnits="userSpaceOnUse" x1="99.0422" y1="61.5273" x2="451.2552" y2="466.4622">
				<stop  offset="0" style="stop-color:#FF928E"/>
				<stop  offset="1" style="stop-color:#FEB3B1"/>
			</linearGradient>
			<path class="st13" d="M260.5,311.3c-0.2,0-0.4-0.1-0.6-0.2c-0.5-0.3-0.6-1-0.3-1.5l43.1-63.9c1.6-2.3,4.2-3.6,7-3.4
				c2.8,0.2,5.2,1.9,6.4,4.4c0.2,0.5,0,1.2-0.5,1.4c-0.5,0.2-1.2,0-1.4-0.5c-0.9-1.8-2.6-3-4.6-3.2c-2-0.2-3.9,0.8-5.1,2.5
				l-43.1,63.9C261.2,311.1,260.8,311.3,260.5,311.3z"/>
			<path class="st14" d="M249.3,327.9c-0.2,0-0.4-0.1-0.6-0.2c-0.5-0.3-0.6-1-0.3-1.5l2.8-4.1c0.3-0.5,1-0.6,1.5-0.3
				c0.5,0.3,0.6,1,0.3,1.5l-2.8,4.1C250,327.7,249.6,327.9,249.3,327.9z"/>
		</g>
		<g>
			<path class="st3" d="M495.6,254.5c-1.9-5.2-4.6-10.1-7.5-14.9c-0.9-1.5-3.1-1-3.4,0.7c-1.2,7.1-6,13.6-11.4,18.6
				c-7,6.3-15.3,10.9-22,17.5c-13.7,13.6-18.7,33.8-20.1,53.1c-1.4,19.3,0.3,38.8-3,57.9c-1.6,9.1-4.3,18.2-9.8,25.6
				c-5.4,7.3-13.8,12.7-22.8,13.1c-0.3,0-0.5,0.2-0.4,0.5l0,0c0,0.2,0.1,0.3,0.3,0.3c10.7,3.8,23.1-2.4,29.4-11.9
				c6.4-9.5,7.8-21.5,8.1-33c0.3-11.5-0.5-23.1,2.2-34.3c2.7-11.1,8.8-21.4,17.3-29.1c7.7-7,17.2-11.8,25.7-17.7
				c8.6-5.9,16.6-13.7,19.3-23.8C499.4,269.7,498.3,261.7,495.6,254.5z"/>
			<path class="st5" d="M485.3,254.6c-0.2,1-0.6,2-0.9,3c-0.4,1-0.8,2-1.2,2.9c-0.9,1.9-1.9,3.7-3,5.5c-0.5,0.9-1.2,1.7-1.8,2.6
				c-0.3,0.4-0.6,0.8-0.9,1.3l-1,1.2c-0.7,0.8-1.4,1.6-2.1,2.4l-2.2,2.3c-0.8,0.7-1.5,1.4-2.3,2.2c-0.4,0.4-0.8,0.7-1.2,1l-1.2,1
				c-0.8,0.7-1.6,1.3-2.4,2c-0.8,0.6-1.6,1.3-2.4,1.9c-3.2,2.6-6.4,5.2-9.3,8.1c-2.9,2.9-5.5,6.1-7.7,9.5c-1.2,1.7-2.1,3.5-3.1,5.3
				c-0.9,1.9-1.8,3.7-2.5,5.6c-1.6,3.8-2.7,7.8-3.8,11.8c-0.5,2-0.9,4-1.4,6.1l-1.1,6.1l0,0c0,0.2-0.2,0.3-0.3,0.2
				c-0.2,0-0.3-0.2-0.2-0.3c1.1-8.2,2.7-16.5,5.7-24.3c2.8-7.9,7.5-15.1,13.4-21.1c3-3,6.2-5.7,9.4-8.3c1.6-1.3,3.3-2.6,4.8-3.9
				l1.2-1c0.4-0.3,0.8-0.6,1.2-1c0.7-0.7,1.5-1.4,2.3-2.1l2.2-2.2c0.7-0.8,1.4-1.5,2-2.3c0.6-0.8,1.3-1.6,1.9-2.4
				c0.6-0.8,1.2-1.6,1.8-2.5c1.2-1.7,2.2-3.5,3.2-5.3c0.5-0.9,0.9-1.8,1.3-2.8c0.4-0.9,0.8-1.9,1.1-2.9l0,0c0-0.2,0.2-0.2,0.4-0.2
				C485.2,254.3,485.3,254.5,485.3,254.6z"/>
		</g>
	</g>
	<g>
		<linearGradient id="SVGID_9_" gradientUnits="userSpaceOnUse" x1="296.2464" y1="164.8054" x2="288.7482" y2="214.2941">
			<stop  offset="0" style="stop-color:#4042E2"/>
			<stop  offset="1" style="stop-color:#4F52FF"/>
		</linearGradient>
		<path class="st15" d="M313.5,168.6c-0.1-0.8-0.9-1.5-2.3-2.1c1.5-0.8,2.4-1.7,2.3-2.6c-0.2-2.7-8.7-4.2-18.8-3.3
			c-10.2,0.8-18.3,3.6-18.1,6.3c0.1,0.8,0.9,1.5,2.3,2.1c-1.5,0.8-2.4,1.7-2.3,2.6c0.1,0.8,0.9,1.5,2.3,2.1
			c-1.5,0.8-2.4,1.7-2.3,2.6c0.1,0.8,0.9,1.5,2.3,2.1c-1.5,0.8-2.4,1.7-2.3,2.6c0.1,1.2,1.8,2.1,4.6,2.7c0,0.9,0,1.8,0.1,2.9
			c0.4,4.9,5.9,8.8,13.2,8.8c7.3,0,13.6-5.2,13.7-10.2c0-1.2,0-2.3-0.1-3.2c3.5-1.2,5.6-2.6,5.5-4c-0.1-0.8-0.9-1.5-2.3-2.1
			c1.5-0.8,2.4-1.7,2.3-2.6c-0.1-0.8-0.9-1.5-2.3-2.1C312.8,170.4,313.6,169.5,313.5,168.6z"/>
		<g>
			<linearGradient id="SVGID_10_" gradientUnits="userSpaceOnUse" x1="293.2859" y1="187.0899" x2="277.2922" y2="245.3527">
				<stop  offset="0" style="stop-color:#09005D"/>
				<stop  offset="1" style="stop-color:#1A0F91"/>
			</linearGradient>
			<path class="st16" d="M290,184.7c-3,0-5.8-0.2-8.1-0.7c-0.1,0-0.2-0.2-0.2-0.3c0-0.1,0.2-0.2,0.3-0.2c3.6,0.7,8.4,0.8,13.5,0.4
				c4.2-0.3,8.1-1,11.3-1.9c0.1,0,0.3,0,0.3,0.2c0,0.1,0,0.3-0.2,0.3c-3.2,0.9-7.2,1.6-11.4,2C293.6,184.7,291.8,184.7,290,184.7z"
				/>
			<linearGradient id="SVGID_11_" gradientUnits="userSpaceOnUse" x1="292.694" y1="186.9274" x2="276.7003" y2="245.1904">
				<stop  offset="0" style="stop-color:#09005D"/>
				<stop  offset="1" style="stop-color:#1A0F91"/>
			</linearGradient>
			<path class="st17" d="M290,180.1c-3.9,0-7.4-0.4-9.9-1.1c-0.1,0-0.2-0.2-0.2-0.3c0-0.1,0.2-0.2,0.3-0.2c3.5,1,9.2,1.3,15.2,0.8
				c5.9-0.5,11.5-1.7,14.8-3.2c0.1-0.1,0.3,0,0.3,0.1c0.1,0.1,0,0.3-0.1,0.3c-3.4,1.6-9,2.8-15,3.3C293.6,180,291.8,180.1,290,180.1
				z"/>
			<linearGradient id="SVGID_12_" gradientUnits="userSpaceOnUse" x1="291.2071" y1="186.5192" x2="275.2134" y2="244.7821">
				<stop  offset="0" style="stop-color:#09005D"/>
				<stop  offset="1" style="stop-color:#1A0F91"/>
			</linearGradient>
			<path class="st18" d="M290,175.4c-4.2,0-8-0.4-10.5-1.3c-0.1,0-0.2-0.2-0.2-0.3c0-0.1,0.2-0.2,0.3-0.2c3.5,1.1,9.4,1.5,15.8,1
				c5.9-0.5,11.5-1.7,14.8-3.2c0.1-0.1,0.3,0,0.3,0.1c0.1,0.1,0,0.3-0.1,0.3c-3.4,1.6-9,2.8-15,3.3
				C293.6,175.3,291.7,175.4,290,175.4z"/>
			<linearGradient id="SVGID_13_" gradientUnits="userSpaceOnUse" x1="290.8089" y1="186.4099" x2="274.8152" y2="244.6727">
				<stop  offset="0" style="stop-color:#09005D"/>
				<stop  offset="1" style="stop-color:#1A0F91"/>
			</linearGradient>
			<path class="st19" d="M290,170.7c-3.4,0-6.4-0.3-8.8-0.8c-0.1,0-0.2-0.2-0.2-0.3c0-0.1,0.2-0.2,0.3-0.2c3.6,0.8,8.7,1,14.1,0.6
				c5.9-0.5,11.4-1.7,14.7-3.2c0.1-0.1,0.3,0,0.3,0.1c0.1,0.1,0,0.3-0.1,0.3c-3.4,1.5-9,2.7-14.9,3.2
				C293.6,170.6,291.8,170.7,290,170.7z"/>
		</g>
		<linearGradient id="SVGID_14_" gradientUnits="userSpaceOnUse" x1="295.9191" y1="166.2903" x2="295.1869" y2="77.6878">
			<stop  offset="0" style="stop-color:#FF928E"/>
			<stop  offset="1" style="stop-color:#FEB3B1"/>
		</linearGradient>
		<path class="st20" d="M269.8,145c-1.2-4.4-3.3-8.5-6.2-12.1c-6.1-7.6-16-23.2-17.2-44.4C244.7,57.6,272,42.1,297,44.2
			c25,2.1,49.6,20.7,46.9,49.4c-1.7,17.7-11.6,31.1-18.9,38.8c-4.7,4.9-8,10.9-9.8,17.4c-2.2,8-7.5,17.9-20,18.5
			C279.1,169.2,272.4,154.1,269.8,145z"/>
		<path class="st14" d="M299.4,162.2l8.7-56.9c0.2-1.2,0.8-2,1.3-1.8c0.5,0.2,0.8,1.3,0.6,2.5c0,0,0,0.1,0,0.1l-10,56.3
			c-0.1,0.4-0.3,0.7-0.5,0.6C299.4,163,299.3,162.6,299.4,162.2z"/>
		<path class="st14" d="M290.3,162.7l-8.7-56.9c-0.2-1.2-0.8-2-1.3-1.8c-0.5,0.2-0.8,1.3-0.6,2.5c0,0,0,0.1,0,0.1l10,56.3
			c0.1,0.4,0.3,0.7,0.5,0.6C290.3,163.5,290.4,163.1,290.3,162.7z"/>
		<path class="st14" d="M308.1,100.5c-0.2-0.4-0.7-0.5-1.1-0.3l-4.9,2.3l-1.7-4.8c-0.1-0.3-0.3-0.5-0.6-0.6c-0.6-0.2-1.2,0-1.5,0.5
			l0,0l-4,7.3l-3.7-10.4l0,0c-0.1-0.3-0.3-0.5-0.6-0.6c-0.6-0.3-1.4-0.2-1.8,0.4l-5.6,7.7c-0.2,0.3-0.1,0.7,0.2,1
			c0.4,0.2,0.9,0.2,1.2-0.1l4.9-5.5l4.4,9.9l0,0c0.1,0.2,0.2,0.3,0.4,0.4c0.4,0.2,0.9,0.1,1.2-0.3l4.3-6.9l1.6,3.5l0,0
			c0,0,0,0,0,0.1c0.2,0.4,0.7,0.5,1.1,0.3l5.8-2.7C308.1,101.3,308.3,100.8,308.1,100.5z"/>
		<path class="st14" d="M325.3,125.1c-0.2,0-0.4-0.1-0.6-0.2c-0.5-0.3-0.6-1-0.2-1.5c1.5-2,2.9-4.1,4.1-6.2c0.3-0.5,0.9-0.7,1.4-0.4
			c0.5,0.3,0.7,0.9,0.4,1.4c-1.2,2.2-2.7,4.3-4.2,6.4C325.9,124.9,325.6,125.1,325.3,125.1z"/>
		<path class="st14" d="M332.4,112.7c-0.1,0-0.3,0-0.4-0.1c-0.5-0.2-0.8-0.9-0.5-1.4c9.2-21.3,1.3-39.2,1.2-39.4
			c-0.2-0.5,0-1.2,0.5-1.4c0.5-0.2,1.2,0,1.4,0.5c0.3,0.8,8.4,18.9-1.2,41.1C333.2,112.5,332.8,112.7,332.4,112.7z"/>
	</g>
	<g>
		<g>
			<g>
				<path class="st4" d="M476.6,393.5c-0.2,0-0.5-0.1-0.6-0.3c-0.5-0.8-1-1.7-1.4-2.5c-0.2-0.3,0-0.8,0.3-0.9c0.3-0.2,0.8,0,0.9,0.3
					c0.4,0.8,0.8,1.6,1.3,2.4c0.2,0.3,0.1,0.8-0.2,1C476.8,393.5,476.7,393.5,476.6,393.5z"/>
				<path class="st4" d="M472.7,382.8c-0.3,0-0.6-0.3-0.7-0.6c-0.2-1.4-0.3-2.8-0.3-4.2c0-0.4,0-0.8,0-1.2c0-0.4,0.3-0.7,0.7-0.7
					c0.4,0,0.7,0.3,0.7,0.7c0,0.4,0,0.8,0,1.1c0,1.3,0.1,2.7,0.3,4c0.1,0.4-0.2,0.7-0.6,0.8C472.8,382.8,472.8,382.8,472.7,382.8z
					 M474.1,369.1c-0.1,0-0.2,0-0.2,0c-0.4-0.1-0.6-0.5-0.4-0.9c0.6-1.7,1.4-3.4,2.3-4.9c0.2-0.3,0.6-0.4,1-0.2
					c0.3,0.2,0.4,0.6,0.2,1c-0.9,1.5-1.6,3.1-2.2,4.7C474.7,368.9,474.4,369.1,474.1,369.1z M481.8,357.6c-0.2,0-0.4-0.1-0.5-0.2
					c-0.3-0.3-0.2-0.7,0-1c1.3-1.2,2.8-2.3,4.4-3.3c0.3-0.2,0.8-0.1,1,0.2c0.2,0.3,0.1,0.8-0.2,1c-1.5,0.9-2.9,1.9-4.1,3.1
					C482.1,357.6,482,357.6,481.8,357.6z M494,351.1c-0.3,0-0.6-0.2-0.7-0.5c-0.1-0.4,0.1-0.8,0.5-0.8c0.5-0.1,1-0.2,1.5-0.3
					c1.3-0.2,2.6-0.4,3.9-0.5c0.4,0,0.7,0.3,0.7,0.7c0,0.4-0.3,0.7-0.7,0.7c-1.2,0.1-2.5,0.2-3.7,0.5c-0.5,0.1-1,0.2-1.4,0.3
					C494.1,351.1,494,351.1,494,351.1z"/>
				<path class="st4" d="M510.5,351.9c-0.1,0-0.2,0-0.2,0c-0.9-0.3-1.7-0.6-2.6-0.8c-0.4-0.1-0.6-0.5-0.5-0.9
					c0.1-0.4,0.5-0.6,0.9-0.5c0.9,0.2,1.8,0.5,2.7,0.8c0.4,0.1,0.6,0.5,0.4,0.9C511,351.8,510.8,351.9,510.5,351.9z"/>
			</g>
			<g>
				<path class="st4" d="M527.5,368.6c-0.3,0-0.5-0.2-0.7-0.5c-0.3-0.9-0.7-1.7-1.1-2.5c-0.2-0.3,0-0.8,0.3-0.9
					c0.3-0.2,0.8,0,0.9,0.3c0.4,0.9,0.8,1.7,1.2,2.6c0.1,0.4,0,0.8-0.4,0.9C527.6,368.6,527.5,368.6,527.5,368.6z"/>
				<path class="st4" d="M501.1,407.2c-0.4,0-0.7-0.3-0.7-0.7c0-0.4,0.3-0.7,0.7-0.7c1.7,0,3.4-0.2,5.1-0.5c0.4-0.1,0.7,0.2,0.8,0.6
					c0.1,0.4-0.2,0.7-0.6,0.8C504.6,407,502.8,407.2,501.1,407.2C501.1,407.2,501.1,407.2,501.1,407.2z M514.2,403.9
					c-0.3,0-0.5-0.1-0.6-0.4c-0.2-0.3-0.1-0.8,0.3-0.9c1.5-0.8,2.9-1.7,4.3-2.8c0.3-0.2,0.7-0.2,1,0.1c0.2,0.3,0.2,0.7-0.1,1
					c-1.4,1.1-2.9,2.1-4.5,2.9C514.5,403.8,514.3,403.9,514.2,403.9z M524.3,394.8c-0.1,0-0.3,0-0.4-0.1c-0.3-0.2-0.4-0.7-0.2-1
					c1-1.4,1.8-2.9,2.5-4.4c0.2-0.4,0.6-0.5,0.9-0.4c0.4,0.2,0.5,0.6,0.4,0.9c-0.7,1.6-1.6,3.2-2.6,4.7
					C524.8,394.7,524.6,394.8,524.3,394.8z M529.1,382.1C529.1,382.1,529.1,382.1,529.1,382.1c-0.5-0.1-0.7-0.4-0.7-0.8
					c0.1-1.1,0.2-2.2,0.2-3.2c0-0.6,0-1.2-0.1-1.8c0-0.4,0.3-0.7,0.7-0.7c0.4,0,0.7,0.3,0.7,0.7c0,0.6,0.1,1.3,0.1,1.9
					c0,1.1-0.1,2.3-0.2,3.4C529.8,381.8,529.5,382.1,529.1,382.1z"/>
				<path class="st4" d="M492.7,406c-0.1,0-0.1,0-0.2,0c-0.9-0.3-1.8-0.6-2.7-1c-0.4-0.1-0.5-0.6-0.4-0.9c0.1-0.4,0.6-0.5,0.9-0.4
					c0.8,0.3,1.7,0.7,2.6,0.9c0.4,0.1,0.6,0.5,0.5,0.9C493.2,405.8,493,406,492.7,406z"/>
			</g>
			<g>
				<g>
					<path class="st4" d="M490.1,397c0.1,0.1,0.3,0.1,0.4,0l3.4-2.4c1.8,0.7,3.7,1.2,5.7,1.3l2,3.7c0.1,0.1,0.2,0.2,0.4,0.2l4.9-0.8
						c0.1,0,0.3-0.1,0.3-0.3l0.7-4.1c1.8-0.8,3.5-1.8,5-3.1l4,1.2c0.1,0,0.3,0,0.4-0.1l2.9-4c0.1-0.1,0.1-0.3,0-0.4l-2.4-3.4
						c0.7-1.8,1.2-3.7,1.3-5.7l3.7-2c0.1-0.1,0.2-0.2,0.2-0.4l-0.8-4.9c0-0.1-0.1-0.3-0.3-0.3l-4.1-0.7c-0.8-1.8-1.8-3.5-3.1-5
						l1.2-4c0-0.1,0-0.3-0.1-0.4l-4-2.9c-0.1-0.1-0.3-0.1-0.4,0l-3.4,2.4c-1.8-0.7-3.7-1.2-5.7-1.3l-2-3.7c-0.1-0.1-0.2-0.2-0.4-0.2
						l-4.9,0.8c-0.1,0-0.3,0.1-0.3,0.3l-0.7,4.1c-1.8,0.8-3.5,1.8-5,3.1l-4-1.2c-0.1,0-0.3,0-0.4,0.1l-2.9,4c-0.1,0.1-0.1,0.3,0,0.4
						l2.4,3.4c-0.7,1.8-1.2,3.7-1.3,5.7l-3.7,2c-0.1,0.1-0.2,0.2-0.2,0.4l0.8,4.9c0,0.1,0.1,0.3,0.3,0.3l4.1,0.7
						c0.8,1.8,1.8,3.5,3.1,5l-1.2,4c0,0.1,0,0.3,0.1,0.4L490.1,397z"/>
				</g>
				<g>
					<path class="st1" d="M500.8,383.3c-2.1,0-4.1-1.2-5-3.3c-1.2-2.8,0.1-6,2.9-7.2c2.8-1.2,6,0.1,7.2,2.9c1.2,2.8-0.1,6-2.9,7.2h0
						C502.3,383.1,501.6,383.3,500.8,383.3z M502.6,381.9L502.6,381.9L502.6,381.9z M500.8,374.4c-0.4,0-0.9,0.1-1.3,0.3
						c-1.7,0.7-2.5,2.7-1.8,4.4c0.7,1.7,2.7,2.5,4.4,1.8c1.7-0.7,2.5-2.7,1.8-4.4C503.4,375.2,502.1,374.4,500.8,374.4z"/>
				</g>
				<path class="st1" d="M500.9,390.8c-0.1,0-0.2,0-0.2,0c-0.1,0-0.3,0-0.4,0c0,0,0,0,0,0l0.1-2.1c0.8,0,1.6,0,2.3-0.1c0,0,0,0,0,0
					c2.9-0.5,5.4-2,7.1-4.4c1.4-1.9,2.1-4.1,2.1-6.4c0-0.6,0-1.2-0.1-1.8c-1-6-6.6-10-12.6-9.1c-5.4,0.9-9.2,5.5-9.2,10.8
					c0,0.6,0,1.2,0.1,1.8c0.3,2,1.2,3.8,2.4,5.3l-1.6,1.4c-1.5-1.8-2.5-4-2.9-6.3c-0.1-0.7-0.2-1.4-0.2-2.1c0-6.3,4.6-11.9,11-12.9
					c7.1-1.2,13.9,3.7,15,10.8c0.1,0.7,0.2,1.4,0.2,2.1c0,2.7-0.8,5.4-2.5,7.6c-2,2.8-5.1,4.7-8.5,5.3h0
					C502.3,390.7,501.6,390.8,500.9,390.8z"/>
			</g>
		</g>
		<g>
			<g>
				<path class="st4" d="M514.1,362.7c-0.2,0-0.5-0.1-0.6-0.3c-0.5-0.8-1-1.6-1.4-2.5c-0.2-0.3-0.1-0.8,0.3-0.9
					c0.3-0.2,0.8-0.1,0.9,0.3c0.4,0.8,0.9,1.6,1.4,2.4c0.2,0.3,0.1,0.8-0.2,1C514.3,362.7,514.2,362.7,514.1,362.7z"/>
				<path class="st4" d="M509.2,351.9c-0.3,0-0.6-0.2-0.7-0.5c-0.5-1.6-0.9-3.3-1.2-4.9l-0.1-0.6c-0.1-0.4,0.2-0.7,0.6-0.8
					c0.4-0.1,0.7,0.2,0.8,0.6l0.1,0.6c0.3,1.6,0.7,3.2,1.2,4.8c0.1,0.4-0.1,0.8-0.5,0.9C509.3,351.9,509.3,351.9,509.2,351.9z
					 M507.1,337.4C507.1,337.4,507.1,337.4,507.1,337.4c-0.4,0-0.7-0.3-0.7-0.7c0-1.9,0.1-3.8,0.4-5.7c0-0.4,0.4-0.7,0.8-0.6
					c0.4,0,0.7,0.4,0.6,0.8c-0.2,1.8-0.4,3.7-0.4,5.5C507.8,337.1,507.5,337.4,507.1,337.4z M509.5,323c-0.1,0-0.1,0-0.2,0
					c-0.4-0.1-0.6-0.5-0.4-0.9c0.6-1.8,1.3-3.6,2.1-5.3c0.2-0.4,0.6-0.5,0.9-0.3c0.4,0.2,0.5,0.6,0.3,0.9c-0.8,1.7-1.5,3.4-2,5.1
					C510.1,322.8,509.8,323,509.5,323z M516.1,310c-0.1,0-0.3,0-0.4-0.1c-0.3-0.2-0.4-0.7-0.2-1c1.1-1.5,2.3-3,3.6-4.4
					c0.3-0.3,0.7-0.3,1,0c0.3,0.3,0.3,0.7,0,1c-1.2,1.3-2.4,2.8-3.5,4.3C516.6,309.9,516.3,310,516.1,310z M526.4,299.6
					c-0.2,0-0.4-0.1-0.6-0.3c-0.2-0.3-0.2-0.7,0.1-1c1.5-1.1,3.1-2.2,4.7-3.1c0.3-0.2,0.8-0.1,1,0.3c0.2,0.3,0.1,0.8-0.3,1
					c-1.6,0.9-3.1,1.9-4.6,3C526.7,299.6,526.5,299.6,526.4,299.6z M539.3,292.8c-0.3,0-0.6-0.2-0.7-0.5c-0.1-0.4,0.1-0.8,0.4-0.9
					c1.8-0.6,3.6-1.1,5.5-1.5c0.4-0.1,0.8,0.2,0.8,0.5c0.1,0.4-0.2,0.8-0.5,0.8c-1.8,0.4-3.6,0.9-5.3,1.5
					C539.5,292.8,539.4,292.8,539.3,292.8z M559.3,290.5C559.2,290.5,559.2,290.5,559.3,290.5c-1.9-0.2-3.7-0.2-5.6-0.2
					c-0.4,0-0.7-0.3-0.7-0.7c0-0.4,0.3-0.7,0.7-0.7c1.9,0,3.8,0,5.7,0.2c0.4,0,0.7,0.4,0.6,0.8C559.9,290.2,559.6,290.5,559.3,290.5
					z"/>
				<path class="st4" d="M570.9,293.1c-0.1,0-0.2,0-0.2,0c-0.9-0.3-1.7-0.6-2.6-0.9c-0.4-0.1-0.6-0.5-0.5-0.9
					c0.1-0.4,0.5-0.6,0.9-0.5c0.9,0.3,1.8,0.6,2.7,0.9c0.4,0.1,0.6,0.5,0.4,0.9C571.4,292.9,571.1,293.1,570.9,293.1z"/>
			</g>
			<g>
				<path class="st4" d="M598.6,319.2c-0.3,0-0.5-0.2-0.6-0.4c-0.4-0.8-0.7-1.7-1.2-2.5c-0.2-0.3,0-0.8,0.3-0.9
					c0.3-0.2,0.8,0,0.9,0.3c0.4,0.8,0.8,1.7,1.2,2.6c0.2,0.4,0,0.8-0.4,0.9C598.8,319.2,598.7,319.2,598.6,319.2z"/>
				<path class="st4" d="M553.4,385.5C553.4,385.5,553.4,385.5,553.4,385.5c-1.9-0.1-3.7-0.2-5.6-0.5c-0.4-0.1-0.6-0.4-0.6-0.8
					c0.1-0.4,0.4-0.7,0.8-0.6c1.8,0.3,3.6,0.4,5.4,0.5c0.4,0,0.7,0.3,0.7,0.7C554.1,385.2,553.7,385.5,553.4,385.5z M562.3,384.9
					c-0.3,0-0.6-0.2-0.7-0.6c-0.1-0.4,0.2-0.7,0.6-0.8c0.5-0.1,1.1-0.2,1.6-0.3c1.2-0.2,2.5-0.5,3.7-0.9c0.4-0.1,0.8,0.1,0.9,0.5
					c0.1,0.4-0.1,0.8-0.5,0.9c-1.2,0.3-2.5,0.7-3.8,0.9c-0.5,0.1-1.1,0.2-1.6,0.3C562.3,384.9,562.3,384.9,562.3,384.9z M576,380.6
					c-0.3,0-0.5-0.1-0.6-0.4c-0.2-0.3,0-0.8,0.3-0.9c1.6-0.8,3.2-1.7,4.7-2.7c0.3-0.2,0.8-0.1,1,0.2c0.2,0.3,0.1,0.8-0.2,1
					c-1.6,1-3.2,1.9-4.8,2.8C576.2,380.5,576.1,380.6,576,380.6z M587.7,372.3c-0.2,0-0.4-0.1-0.5-0.2c-0.3-0.3-0.3-0.7,0-1
					c1.3-1.2,2.5-2.6,3.7-4c0.2-0.3,0.7-0.3,1-0.1c0.3,0.2,0.3,0.7,0.1,1c-1.2,1.4-2.5,2.8-3.8,4.1
					C588.1,372.2,587.9,372.3,587.7,372.3z M596.5,360.9c-0.1,0-0.2,0-0.3-0.1c-0.3-0.2-0.5-0.6-0.3-1c0.9-1.6,1.7-3.2,2.3-4.9
					c0.1-0.4,0.6-0.5,0.9-0.4c0.4,0.1,0.5,0.6,0.4,0.9c-0.7,1.7-1.5,3.4-2.4,5C596.9,360.8,596.7,360.9,596.5,360.9z M601.4,347.4
					c0,0-0.1,0-0.1,0c-0.4-0.1-0.6-0.4-0.5-0.8c0.4-1.8,0.6-3.6,0.8-5.4c0-0.4,0.4-0.7,0.8-0.6c0.4,0,0.7,0.4,0.6,0.8
					c-0.2,1.8-0.4,3.7-0.8,5.5C602.1,347.2,601.8,347.4,601.4,347.4z M602.1,333.1c-0.4,0-0.7-0.3-0.7-0.6c-0.1-1.4-0.4-2.8-0.6-4.3
					c-0.1-0.4-0.1-0.7-0.2-1.1c-0.1-0.4,0.2-0.8,0.5-0.8c0.4-0.1,0.8,0.2,0.8,0.5c0.1,0.4,0.2,0.7,0.2,1.1c0.3,1.5,0.5,2.9,0.7,4.4
					C602.9,332.7,602.6,333,602.1,333.1C602.2,333.1,602.2,333.1,602.1,333.1z"/>
				<path class="st4" d="M539.2,382.9c-0.1,0-0.2,0-0.2,0c-0.9-0.3-1.8-0.6-2.7-1c-0.4-0.1-0.5-0.6-0.4-0.9c0.1-0.4,0.6-0.5,0.9-0.4
					c0.9,0.4,1.7,0.7,2.6,1c0.4,0.1,0.6,0.5,0.4,0.9C539.8,382.8,539.5,382.9,539.2,382.9z"/>
			</g>
			<g>
				<g>
					<path class="st4" d="M536.6,369c0.2,0.1,0.5,0.1,0.7,0l5.7-4c3,1.2,6.2,2,9.6,2.3l3.3,6.1c0.1,0.2,0.4,0.3,0.6,0.3l8.2-1.3
						c0.2,0,0.4-0.2,0.5-0.5l1.2-6.9c3.1-1.3,5.9-3,8.4-5.2l6.7,2c0.2,0.1,0.5,0,0.6-0.2l4.9-6.8c0.1-0.2,0.1-0.5,0-0.7l-4-5.7
						c1.2-3,2-6.2,2.3-9.6l6.1-3.3c0.2-0.1,0.3-0.4,0.3-0.6l-1.3-8.2c0-0.2-0.2-0.4-0.5-0.5l-6.9-1.2c-1.3-3.1-3-5.9-5.2-8.4l2-6.7
						c0.1-0.2,0-0.5-0.2-0.6l-6.8-4.9c-0.2-0.1-0.5-0.1-0.7,0l-5.7,4c-3-1.2-6.2-2-9.6-2.3l-3.3-6.1c-0.1-0.2-0.4-0.3-0.6-0.3
						l-8.2,1.3c-0.2,0-0.4,0.2-0.5,0.5l-1.2,6.9c-3.1,1.3-5.9,3-8.4,5.2l-6.7-2c-0.2-0.1-0.5,0-0.6,0.2l-4.9,6.8
						c-0.1,0.2-0.1,0.5,0,0.7l4,5.7c-1.2,3-2,6.2-2.3,9.6l-6.1,3.3c-0.2,0.1-0.3,0.4-0.3,0.6l1.3,8.2c0,0.2,0.2,0.4,0.5,0.5l6.9,1.2
						c1.3,3.1,3,5.9,5.2,8.4l-2,6.7c-0.1,0.2,0,0.5,0.2,0.6L536.6,369z"/>
				</g>
				<g>
					<path class="st1" d="M554.7,345.3c-3.3,0-6.4-1.9-7.8-5.1c-0.9-2.1-0.9-4.4-0.1-6.5c0.8-2.1,2.4-3.8,4.5-4.7
						c2.1-0.9,4.4-0.9,6.5-0.1c2.1,0.8,3.8,2.4,4.7,4.5c1.9,4.3-0.1,9.3-4.4,11.1h0C557,345.1,555.8,345.3,554.7,345.3z
						 M557.6,343.6L557.6,343.6L557.6,343.6z M554.7,330.5c-0.9,0-1.7,0.2-2.5,0.5c-1.6,0.7-2.8,1.9-3.4,3.5
						c-0.6,1.6-0.6,3.3,0.1,4.9c1.4,3.2,5.1,4.7,8.4,3.3h0c3.2-1.4,4.7-5.1,3.3-8.4c-0.7-1.6-1.9-2.8-3.5-3.4
						C556.3,330.6,555.5,330.5,554.7,330.5z"/>
				</g>
				<path class="st1" d="M554.7,357.9c-0.1,0-0.3,0-0.4,0h0c0,0,0,0,0,0c0,0,0,0,0,0c-0.2,0-0.5,0-0.7,0l0.1-2.1
					c1.4,0.1,2.7,0,4.1-0.2h0c0,0,0.1,0,0.1,0c4.8-0.8,9-3.3,12-7.2c0.1-0.2,0.2-0.3,0.4-0.5c2.4-3.3,3.6-7.1,3.6-11.1
					c0-1-0.1-2.1-0.3-3.1c-1.7-10.4-11.5-17.5-21.9-15.8c-5,0.8-9.4,3.5-12.4,7.7c-2.4,3.3-3.6,7.1-3.6,11.1c0,1,0.1,2.1,0.3,3.1
					c0.6,3.4,2,6.6,4.2,9.2l-1.6,1.4c-2.5-2.9-4.1-6.5-4.7-10.3c-0.2-1.1-0.3-2.3-0.3-3.4c0-10.2,7.4-19.2,17.8-20.9
					c11.5-1.9,22.4,6,24.3,17.5c0.2,1.1,0.3,2.3,0.3,3.4c0,4.4-1.4,8.7-4,12.3c-3.3,4.6-8.2,7.6-13.8,8.5
					C557,357.8,555.9,357.9,554.7,357.9z"/>
			</g>
		</g>
	</g>
	<g>
		<path class="st4" d="M461.5,72.8c0.1-1.7-1.3-3.1-3-3.2c-5.6-0.2-18,1.4-29.5,16.6c-15.6,20.5-2.9,48.6,30,49.1
			c30.2,0.5,40.5-22.3,40-36.1c-0.1-1.8-1.8-2.9-3.5-2.4l-32.2,10.6c-1.6,0.5-3.3-0.7-3.3-2.5L461.5,72.8z"/>
		<path class="st4" d="M469.4,68.9l-5.1,30.2c-0.3,1.6,1.4,2.8,2.8,2.2l27.7-12.8c1.8-0.8,2.8-2.9,2.1-4.9
			c-1.8-5.4-7.2-15.4-23.7-17.6C471.5,65.7,469.7,67,469.4,68.9z"/>
	</g>
	<g>
		<g>
			<path class="st3" d="M162.2,50.5l-1.9,0.9l0,0c-0.3,0.2-0.7,0-0.9-0.3c-0.2-0.3,0-0.7,0.3-0.9l0,0l1.9-0.9c0.3-0.2,0.7,0,0.9,0.3
				C162.7,49.9,162.6,50.3,162.2,50.5L162.2,50.5z"/>
			<path class="st3" d="M154.8,54.4l-1.8,1l0,0c-0.3,0.2-0.7,0.1-0.9-0.2c-0.2-0.3-0.1-0.7,0.2-0.9l0,0l1.8-1
				c0.3-0.2,0.7-0.1,0.9,0.2C155.3,53.8,155.1,54.2,154.8,54.4L154.8,54.4z"/>
			<path class="st3" d="M147.6,58.7l-1.8,1.1l0,0c-0.3,0.2-0.7,0.1-0.9-0.2c-0.2-0.3-0.1-0.7,0.2-0.9l0,0l1.8-1.1
				c0.3-0.2,0.7-0.1,0.9,0.2C148,58.1,147.9,58.5,147.6,58.7L147.6,58.7z"/>
			<path class="st3" d="M140.6,63.2l-1.7,1.2l0,0c-0.3,0.2-0.7,0.1-0.9-0.2c-0.2-0.3-0.1-0.7,0.2-0.9l0,0l1.8-1.2
				c0.3-0.2,0.7-0.1,0.9,0.2C140.9,62.6,140.9,63,140.6,63.2L140.6,63.2z"/>
			<path class="st3" d="M133.6,68l-1.7,1.2l0,0c-0.3,0.2-0.7,0.1-1-0.2c-0.2-0.3-0.1-0.7,0.2-1l0,0l1.7-1.2c0.3-0.2,0.7-0.1,1,0.2
				C134,67.3,133.9,67.8,133.6,68L133.6,68z"/>
			<path class="st3" d="M126.8,72.9l-1.7,1.2l0,0c-0.3,0.2-0.7,0.2-1-0.1c-0.2-0.3-0.2-0.7,0.1-1l0,0l1.7-1.2c0.3-0.2,0.7-0.2,1,0.1
				C127.2,72.2,127.1,72.6,126.8,72.9L126.8,72.9z"/>
			<path class="st3" d="M120.1,77.9l-1.7,1.3l0,0c-0.3,0.2-0.8,0.2-1-0.1c-0.2-0.3-0.2-0.8,0.1-1l0,0l1.7-1.3c0.3-0.2,0.8-0.2,1,0.1
				C120.5,77.2,120.4,77.7,120.1,77.9L120.1,77.9z"/>
			<path class="st3" d="M113.5,83.1l-1.6,1.3l0,0c-0.3,0.3-0.8,0.2-1-0.1c-0.3-0.3-0.2-0.8,0.1-1l0,0l1.6-1.3c0.3-0.2,0.8-0.2,1,0.1
				C113.8,82.4,113.8,82.9,113.5,83.1L113.5,83.1z"/>
			<path class="st3" d="M107,88.5l-1.6,1.4l0,0c-0.3,0.3-0.8,0.2-1-0.1c-0.3-0.3-0.2-0.8,0.1-1l0,0l1.6-1.4c0.3-0.3,0.8-0.2,1,0.1
				C107.3,87.7,107.3,88.2,107,88.5L107,88.5z"/>
			<path class="st3" d="M100.6,93.9l-1.6,1.4l0,0c-0.3,0.3-0.8,0.2-1-0.1c-0.3-0.3-0.2-0.8,0.1-1l0,0l1.6-1.4c0.3-0.3,0.8-0.2,1,0.1
				C101,93.2,100.9,93.7,100.6,93.9L100.6,93.9z"/>
			<path class="st3" d="M94.4,99.6l-1.5,1.4l0,0c-0.3,0.3-0.8,0.3-1.1,0c-0.3-0.3-0.3-0.8,0-1.1l0,0l1.5-1.4c0.3-0.3,0.8-0.3,1.1,0
				C94.7,98.8,94.7,99.3,94.4,99.6L94.4,99.6z"/>
			<path class="st3" d="M88.4,105.4l-1.5,1.5l0,0c-0.3,0.3-0.8,0.3-1.1,0c-0.3-0.3-0.3-0.8,0-1.1l0,0l1.5-1.5c0.3-0.3,0.8-0.3,1.1,0
				C88.7,104.6,88.7,105.1,88.4,105.4L88.4,105.4z"/>
			<path class="st3" d="M82.5,111.4l-1.4,1.5l0,0c-0.3,0.3-0.8,0.3-1.1,0c-0.3-0.3-0.3-0.8,0-1.1l0,0l1.4-1.5c0.3-0.3,0.8-0.3,1.1,0
				C82.8,110.6,82.8,111.1,82.5,111.4L82.5,111.4z"/>
			<path class="st3" d="M76.9,117.7l-1.3,1.6l0,0c-0.3,0.3-0.8,0.4-1.1,0.1c-0.3-0.3-0.4-0.8-0.1-1.1l0,0l1.4-1.6
				c0.3-0.3,0.8-0.4,1.1-0.1C77.2,116.8,77.2,117.3,76.9,117.7L76.9,117.7z"/>
			<path class="st3" d="M71.8,124.2l-1.2,1.7l0,0c-0.3,0.4-0.8,0.4-1.1,0.2c-0.4-0.3-0.4-0.8-0.2-1.1l0,0l1.2-1.7
				c0.3-0.4,0.8-0.4,1.1-0.2C71.9,123.4,72,123.8,71.8,124.2L71.8,124.2z"/>
			<path class="st3" d="M67.1,131.2l-1.1,1.8l0,0c-0.2,0.4-0.7,0.5-1.1,0.3c-0.4-0.2-0.5-0.7-0.3-1.1l0,0l1.1-1.8
				c0.2-0.4,0.7-0.5,1.1-0.3C67.2,130.3,67.3,130.8,67.1,131.2L67.1,131.2z"/>
			<path class="st3" d="M63,138.4l-1,1.9l0,0c-0.2,0.4-0.7,0.6-1.1,0.4c-0.4-0.2-0.6-0.7-0.4-1.1l0,0l1-1.9c0.2-0.4,0.7-0.6,1.1-0.3
				C63,137.5,63.2,138,63,138.4L63,138.4z"/>
			<path class="st3" d="M59.3,145.9l-0.8,1.9l0,0c-0.2,0.4-0.7,0.6-1.1,0.4c-0.4-0.2-0.6-0.7-0.4-1.1l0,0l0.9-1.9
				c0.2-0.4,0.7-0.6,1.1-0.4C59.3,145,59.5,145.5,59.3,145.9L59.3,145.9z"/>
			<path class="st3" d="M56.2,153.7l-0.7,2l0,0c-0.2,0.4-0.6,0.7-1.1,0.5c-0.4-0.2-0.7-0.6-0.5-1.1l0,0l0.7-2
				c0.2-0.4,0.6-0.7,1.1-0.5S56.3,153.2,56.2,153.7L56.2,153.7z"/>
			<path class="st3" d="M53.5,161.6l-0.6,2l0,0c-0.1,0.5-0.6,0.7-1.1,0.6c-0.5-0.1-0.7-0.6-0.6-1.1l0,0l0.6-2
				c0.1-0.5,0.6-0.7,1.1-0.6C53.4,160.7,53.7,161.2,53.5,161.6L53.5,161.6z"/>
			<path class="st3" d="M51.5,169.7l-0.4,2l0,0c-0.1,0.5-0.6,0.8-1,0.7c-0.5-0.1-0.8-0.6-0.7-1l0,0l0.4-2.1c0.1-0.5,0.6-0.8,1-0.7
				C51.3,168.8,51.6,169.2,51.5,169.7L51.5,169.7z"/>
			<path class="st3" d="M50,177.9l-0.3,2.1l0,0c-0.1,0.5-0.5,0.8-1,0.8c-0.5-0.1-0.8-0.5-0.8-1l0,0l0.3-2.1c0.1-0.5,0.5-0.8,1-0.8
				C49.7,177,50.1,177.4,50,177.9L50,177.9z"/>
			<path class="st3" d="M49.2,186.2l-0.1,2.1l0,0c0,0.5-0.4,0.9-0.9,0.8c-0.5,0-0.9-0.4-0.8-0.9l0,0l0.1-2.1c0-0.5,0.4-0.9,0.9-0.8
				C48.8,185.3,49.2,185.7,49.2,186.2L49.2,186.2z"/>
			<path class="st3" d="M49,194.6l0.1,2.1l0,0c0,0.5-0.4,0.9-0.9,0.9c-0.5,0-0.9-0.4-0.9-0.9l0,0l-0.1-2.1c0-0.5,0.4-0.9,0.9-0.9
				C48.5,193.7,48.9,194.1,49,194.6L49,194.6z"/>
			<path class="st3" d="M49.4,202.9l0.2,2.1l0,0c0.1,0.5-0.3,0.9-0.8,1c-0.5,0.1-0.9-0.3-1-0.8l0,0l-0.2-2.1c-0.1-0.5,0.3-0.9,0.8-1
				C48.9,202.1,49.4,202.4,49.4,202.9L49.4,202.9z"/>
			<path class="st3" d="M50.6,211.2l0.4,2l0,0c0.1,0.5-0.2,1-0.7,1.1c-0.5,0.1-1-0.2-1.1-0.7l0,0l-0.4-2.1c-0.1-0.5,0.2-1,0.7-1.1
				C50.1,210.3,50.5,210.7,50.6,211.2L50.6,211.2z"/>
			<path class="st3" d="M52.6,219.3l0.6,2l0,0c0.1,0.5-0.1,1-0.6,1.1c-0.5,0.1-1-0.1-1.1-0.6l0,0l-0.6-2c-0.1-0.5,0.1-1,0.6-1.1
				C51.9,218.5,52.4,218.8,52.6,219.3L52.6,219.3z"/>
			<path class="st3" d="M55.4,227.1l0.8,1.9l0,0c0.2,0.5,0,1-0.5,1.2c-0.5,0.2-1,0-1.2-0.5l0,0l-0.8-2c-0.2-0.5,0-1,0.5-1.2
				C54.6,226.4,55.2,226.6,55.4,227.1L55.4,227.1z"/>
			<path class="st3" d="M59,234.6l1,1.8l0,0c0.2,0.4,0.1,1-0.3,1.2c-0.4,0.2-1,0.1-1.2-0.3l0,0l-1-1.9c-0.2-0.4-0.1-1,0.3-1.2
				S58.7,234.1,59,234.6L59,234.6z"/>
			<path class="st3" d="M63.3,241.7l1.2,1.7l0,0c0.3,0.4,0.2,1-0.2,1.3c-0.4,0.3-1,0.2-1.3-0.2l0,0l-1.2-1.7c-0.3-0.4-0.2-1,0.2-1.3
				C62.4,241.2,63,241.3,63.3,241.7L63.3,241.7z"/>
			<path class="st3" d="M68.4,248.3l1.4,1.6l0,0c0.3,0.4,0.3,1-0.1,1.3c-0.4,0.3-1,0.3-1.3-0.1l0,0l-1.4-1.6c-0.3-0.4-0.3-1,0.1-1.3
				C67.5,247.9,68,247.9,68.4,248.3L68.4,248.3z"/>
			<path class="st3" d="M74.1,254.3l1.5,1.4l0,0c0.4,0.3,0.4,0.9,0.1,1.3c-0.3,0.4-0.9,0.4-1.3,0.1l0,0l-1.6-1.4
				c-0.4-0.3-0.4-0.9-0.1-1.3C73.2,254,73.7,253.9,74.1,254.3L74.1,254.3z"/>
			<path class="st3" d="M80.5,259.6l1.7,1.2l0,0c0.4,0.3,0.5,0.9,0.2,1.3c-0.3,0.4-0.9,0.5-1.3,0.2l0,0l-1.7-1.2
				c-0.4-0.3-0.5-0.9-0.2-1.3C79.5,259.4,80.1,259.3,80.5,259.6L80.5,259.6z"/>
			<path class="st3" d="M87.5,264.1l1.8,1l0,0c0.4,0.2,0.6,0.8,0.4,1.2c-0.2,0.4-0.8,0.6-1.2,0.4l0,0l-1.9-1
				c-0.4-0.2-0.6-0.8-0.4-1.2C86.4,264.1,87,263.9,87.5,264.1L87.5,264.1z"/>
			<path class="st3" d="M94.9,267.7l1.9,0.7l0,0c0.5,0.2,0.7,0.7,0.5,1.2c-0.2,0.5-0.7,0.7-1.2,0.5l0,0l-2-0.7
				c-0.5-0.2-0.7-0.7-0.5-1.2S94.4,267.5,94.9,267.7L94.9,267.7z"/>
			<path class="st3" d="M102.8,270.2l2,0.4l0,0c0.5,0.1,0.8,0.6,0.7,1.1c-0.1,0.5-0.6,0.8-1.1,0.7l0,0l-2.1-0.4
				c-0.5-0.1-0.8-0.6-0.7-1.1C101.8,270.4,102.3,270.1,102.8,270.2L102.8,270.2z"/>
			<path class="st3" d="M111,271.4l2.1,0.1l0,0c0.5,0,0.9,0.5,0.9,1c0,0.5-0.5,0.9-1,0.9h0l-2.1-0.1c-0.5,0-0.9-0.5-0.9-1
				C110,271.7,110.5,271.3,111,271.4L111,271.4z"/>
			<path class="st3" d="M119.2,271.2l2.1-0.3l0,0c0.5-0.1,1,0.3,1,0.8c0.1,0.5-0.3,1-0.8,1l0,0l-2.1,0.3c-0.5,0.1-1-0.3-1-0.8
				C118.3,271.7,118.7,271.3,119.2,271.2L119.2,271.2z"/>
			<path class="st3" d="M127.4,269.7l2-0.5l0,0c0.5-0.1,1,0.2,1.1,0.7c0.1,0.5-0.2,1-0.7,1.1l0,0l-2.1,0.6c-0.5,0.1-1-0.2-1.1-0.7
				C126.6,270.4,126.9,269.9,127.4,269.7L127.4,269.7z"/>
			<path class="st3" d="M135.3,267.2l1.9-0.8l0,0c0.5-0.2,1,0,1.2,0.5c0.2,0.5,0,1-0.5,1.2l0,0l-2,0.8c-0.5,0.2-1,0-1.2-0.5
				C134.6,267.9,134.8,267.4,135.3,267.2L135.3,267.2z"/>
			<path class="st3" d="M142.8,263.7l1.8-1l0,0c0.5-0.2,1-0.1,1.3,0.4c0.2,0.5,0.1,1-0.4,1.3l0,0l-1.9,1c-0.5,0.2-1,0.1-1.3-0.4
				C142.2,264.5,142.4,264,142.8,263.7L142.8,263.7z"/>
			<path class="st3" d="M150.1,259.6l1.8-1.1l0,0c0.4-0.3,1-0.1,1.3,0.3c0.3,0.4,0.1,1-0.3,1.3l0,0l-1.8,1.1c-0.4,0.3-1,0.1-1.3-0.3
				C149.5,260.4,149.6,259.9,150.1,259.6L150.1,259.6z"/>
			<path class="st3" d="M157.1,255l1.7-1.2l0,0c0.4-0.3,1-0.2,1.3,0.2c0.3,0.4,0.2,1-0.2,1.3l0,0l-1.7,1.2c-0.4,0.3-1,0.2-1.3-0.2
				C156.5,255.9,156.6,255.3,157.1,255L157.1,255z"/>
			<path class="st3" d="M163.8,250l1.7-1.3l0,0c0.4-0.3,1-0.2,1.3,0.2c0.3,0.4,0.2,1-0.2,1.3l0,0l-1.7,1.3c-0.4,0.3-1,0.2-1.3-0.2
				C163.3,250.9,163.4,250.4,163.8,250L163.8,250z"/>
			<path class="st3" d="M170.5,244.9l1.7-1.3c0.4-0.3,1-0.3,1.3,0.2c0.3,0.4,0.3,1-0.2,1.3l0,0l-1.7,1.3c-0.4,0.3-1,0.2-1.3-0.2
				C170,245.8,170.1,245.2,170.5,244.9z"/>
			<path class="st3" d="M177.1,239.7l1.7-1.3c0.4-0.3,1-0.3,1.3,0.2c0.3,0.4,0.3,1-0.2,1.3l0,0l-1.7,1.3c-0.4,0.3-1,0.3-1.3-0.2
				C176.6,240.6,176.7,240,177.1,239.7z"/>
			<path class="st3" d="M183.8,234.5l1.7-1.3c0.4-0.3,1-0.2,1.3,0.2c0.3,0.4,0.2,1-0.2,1.3l0,0l0,0l-1.7,1.3l0,0
				c-0.4,0.3-1,0.2-1.3-0.2C183.3,235.5,183.4,234.9,183.8,234.5z"/>
			<path class="st3" d="M190.6,229.5l1.7-1.2c0.4-0.3,1-0.2,1.3,0.2c0.3,0.4,0.2,1-0.2,1.3l0,0l0,0l-1.7,1.2l0,0
				c-0.4,0.3-1,0.2-1.3-0.2C190,230.4,190.1,229.8,190.6,229.5z"/>
			<path class="st3" d="M197.6,224.8l1.8-1.1c0.4-0.3,1-0.1,1.3,0.3c0.3,0.4,0.1,1-0.3,1.3l0,0l0,0l-1.8,1.1l0,0
				c-0.4,0.3-1,0.1-1.3-0.3C197,225.6,197.1,225.1,197.6,224.8z"/>
			<path class="st3" d="M204.8,220.4l1.9-1c0.5-0.3,1-0.1,1.3,0.4c0.3,0.5,0.1,1-0.4,1.3l0,0l0,0l-1.8,1l0,0c-0.5,0.3-1,0.1-1.3-0.4
				C204.2,221.3,204.4,220.7,204.8,220.4z"/>
			<path class="st3" d="M212.4,216.5l1.9-0.9c0.5-0.2,1.1,0,1.3,0.4c0.2,0.5,0,1.1-0.5,1.3l0,0l0,0l-1.9,0.9l0,0
				c-0.5,0.2-1.1,0-1.3-0.5C211.7,217.3,211.9,216.7,212.4,216.5z"/>
			<path class="st3" d="M220.1,213l2-0.8c0.5-0.2,1.1,0,1.3,0.5c0.2,0.5,0,1.1-0.5,1.3l0,0l0,0l-1.9,0.8l0,0c-0.5,0.2-1.1,0-1.3-0.5
				C219.3,213.8,219.6,213.2,220.1,213z"/>
			<path class="st3" d="M228,209.9l2-0.7c0.5-0.2,1.1,0.1,1.2,0.6c0.2,0.5-0.1,1.1-0.6,1.2l0,0l0,0l-2,0.7l0,0
				c-0.5,0.2-1.1-0.1-1.2-0.6C227.2,210.6,227.5,210.1,228,209.9z"/>
			<path class="st3" d="M236,207.3l2-0.6c0.5-0.1,1,0.1,1.2,0.7c0.1,0.5-0.1,1-0.7,1.2l0,0l0,0l-2,0.6l0,0c-0.5,0.1-1-0.1-1.2-0.7
				C235.2,208,235.5,207.4,236,207.3z"/>
			<path class="st3" d="M244.2,205.1l2.1-0.5c0.5-0.1,1,0.2,1.2,0.7c0.1,0.5-0.2,1-0.7,1.2l0,0l0,0l-2,0.5l0,0
				c-0.5,0.1-1-0.2-1.2-0.7C243.3,205.7,243.7,205.2,244.2,205.1z"/>
			<path class="st3" d="M252.5,203.4l2.1-0.4c0.5-0.1,1,0.3,1.1,0.8c0.1,0.5-0.3,1-0.8,1.1h0l0,0l-2.1,0.4l0,0
				c-0.5,0.1-1-0.3-1.1-0.8C251.6,204,252,203.5,252.5,203.4z"/>
			<path class="st3" d="M260.9,202.1l2.1-0.2c0.5-0.1,1,0.3,1.1,0.9c0.1,0.5-0.3,1-0.9,1.1h0l0,0l-2.1,0.2l0,0
				c-0.5,0.1-1-0.3-1.1-0.9C259.9,202.7,260.3,202.2,260.9,202.1z"/>
			<path class="st3" d="M269.3,201.3l2.1-0.1c0.5,0,1,0.4,1,0.9c0,0.5-0.4,1-0.9,1h0l0,0l-2.1,0.1l0,0c-0.5,0-1-0.4-1-0.9
				C268.3,201.8,268.8,201.3,269.3,201.3z"/>
			<path class="st3" d="M277.8,201l2.1,0c0.5,0,1,0.4,1,1c0,0.5-0.4,1-1,1h0h0l-2.1,0h0c-0.5,0-1-0.4-1-1
				C276.8,201.4,277.2,201,277.8,201z"/>
			<path class="st3" d="M286.2,201.2l2.1,0.1c0.5,0,1,0.5,0.9,1c0,0.5-0.5,1-1,0.9h0l0,0l-2.1-0.1l0,0c-0.5,0-1-0.5-0.9-1
				C285.2,201.6,285.7,201.2,286.2,201.2z"/>
			<path class="st3" d="M294.7,201.9l2.1,0.2c0.5,0.1,0.9,0.6,0.9,1.1c-0.1,0.5-0.6,0.9-1.1,0.9l0,0l0,0l-2.1-0.2l0,0
				c-0.5-0.1-0.9-0.6-0.9-1.1C293.7,202.2,294.1,201.8,294.7,201.9z"/>
			<path class="st3" d="M303.1,203l2.1,0.4c0.5,0.1,0.9,0.6,0.8,1.1c-0.1,0.5-0.6,0.9-1.1,0.8h0l0,0l-2.1-0.4l0,0
				c-0.5-0.1-0.9-0.6-0.8-1.1C302,203.3,302.5,203,303.1,203z"/>
			<path class="st3" d="M311.4,204.6l2.1,0.5c0.5,0.1,0.9,0.6,0.8,1.2c-0.1,0.5-0.6,0.9-1.2,0.8l0,0l0,0l-2-0.4l0,0
				c-0.5-0.1-0.9-0.6-0.8-1.2C310.3,204.8,310.8,204.5,311.4,204.6z"/>
			<path class="st3" d="M319.6,206.6l2,0.6c0.5,0.1,0.8,0.7,0.7,1.2c-0.1,0.5-0.7,0.8-1.2,0.7h0l0,0l-2-0.5l0,0
				c-0.5-0.1-0.8-0.7-0.7-1.2C318.5,206.7,319.1,206.4,319.6,206.6z"/>
			<path class="st3" d="M327.7,208.9l2,0.7c0.5,0.2,0.8,0.7,0.6,1.3c-0.2,0.5-0.7,0.8-1.3,0.6l0,0l0,0l-2-0.6l0,0
				c-0.5-0.2-0.8-0.7-0.6-1.3C326.7,209,327.2,208.8,327.7,208.9z"/>
			<path class="st3" d="M335.7,211.7l2,0.8c0.5,0.2,0.8,0.8,0.6,1.3c-0.2,0.5-0.8,0.8-1.3,0.6l0,0l0,0l-1.9-0.8l0,0
				c-0.5-0.2-0.8-0.8-0.6-1.3C334.7,211.8,335.2,211.5,335.7,211.7z"/>
			<path class="st3" d="M343.6,215l1.9,0.9c0.5,0.2,0.7,0.8,0.5,1.3c-0.2,0.5-0.8,0.7-1.3,0.5l0,0l0,0l-1.9-0.9l0,0
				c-0.5-0.2-0.7-0.8-0.5-1.3C342.5,215,343.1,214.8,343.6,215z"/>
			<path class="st3" d="M351.2,218.8l1.9,1c0.5,0.3,0.7,0.9,0.4,1.4s-0.9,0.7-1.4,0.4l0,0l0,0l-1.8-1l0,0c-0.5-0.3-0.7-0.9-0.4-1.4
				C350.1,218.7,350.7,218.5,351.2,218.8z"/>
			<path class="st3" d="M358.5,223.1l1.8,1.2c0.5,0.3,0.6,0.9,0.3,1.4c-0.3,0.5-0.9,0.6-1.4,0.3l0,0l0,0l-1.7-1.2l0,0
				c-0.5-0.3-0.6-0.9-0.3-1.4C357.4,223,358,222.8,358.5,223.1z"/>
			<path class="st3" d="M365.3,228.2l1.6,1.4c0.4,0.4,0.5,1,0.1,1.4c-0.4,0.4-1,0.5-1.4,0.1l0,0l0,0l-1.6-1.3l0,0
				c-0.4-0.4-0.5-1-0.1-1.4C364.3,227.9,364.9,227.8,365.3,228.2z"/>
			<path class="st3" d="M371.7,233.9l1.5,1.5c0.4,0.4,0.4,1,0,1.4c-0.4,0.4-1,0.4-1.4,0l0,0l0,0l-1.4-1.5l0,0c-0.4-0.4-0.4-1,0-1.4
				C370.6,233.5,371.3,233.5,371.7,233.9z"/>
			<path class="st3" d="M377.2,240.3l1.3,1.7c0.3,0.5,0.2,1.1-0.2,1.4c-0.5,0.3-1.1,0.2-1.4-0.2l0,0l0,0l-1.2-1.7l0,0
				c-0.3-0.5-0.2-1.1,0.2-1.4C376.3,239.8,376.9,239.9,377.2,240.3z"/>
			<path class="st3" d="M381.9,247.5l1,1.9c0.3,0.5,0.1,1.1-0.4,1.4c-0.5,0.3-1.1,0.1-1.4-0.4l0,0l0,0l-0.9-1.8l0,0
				c-0.3-0.5-0.1-1.1,0.4-1.4C381,246.8,381.6,247,381.9,247.5z"/>
			<path class="st3" d="M385.3,255.4l0.7,2c0.2,0.5-0.1,1.1-0.7,1.3c-0.5,0.2-1.1-0.1-1.3-0.7l0,0l0,0l-0.6-2l0,0
				c-0.2-0.5,0.1-1.1,0.7-1.3C384.6,254.6,385.1,254.9,385.3,255.4z"/>
			<path class="st3" d="M387.4,263.7l0.3,2.1c0.1,0.6-0.3,1.1-0.9,1.2c-0.6,0.1-1.1-0.3-1.2-0.9l0,0l0,0l-0.3-2l0,0
				c-0.1-0.6,0.3-1.1,0.9-1.2C386.8,262.8,387.4,263.1,387.4,263.7z"/>
			<path class="st3" d="M388.3,272.2l0,2.1c0,0.6-0.5,1-1,1c-0.6,0-1-0.5-1-1v0l0,0l0-2.1l0,0c0-0.6,0.5-1,1-1
				C387.8,271.2,388.3,271.7,388.3,272.2z"/>
			<path class="st3" d="M387.8,280.8l-0.3,2.1c-0.1,0.6-0.6,1-1.2,0.9c-0.6-0.1-1-0.6-0.9-1.2l0,0l0,0l0.3-2.1l0,0
				c0.1-0.6,0.6-1,1.2-0.9C387.5,279.7,387.9,280.2,387.8,280.8z"/>
			<path class="st3" d="M386.3,289.2l-0.6,2.1c-0.1,0.5-0.7,0.9-1.3,0.7c-0.5-0.1-0.9-0.7-0.7-1.3l0,0l0,0l0.5-2l0,0
				c0.1-0.5,0.7-0.9,1.3-0.7C386.1,288,386.4,288.6,386.3,289.2z"/>
			<path class="st3" d="M383.7,297.3l-0.8,2c-0.2,0.5-0.8,0.8-1.3,0.6c-0.5-0.2-0.8-0.8-0.6-1.3l0,0l0,0l0.8-1.9l0,0
				c0.2-0.5,0.8-0.8,1.3-0.6C383.7,296.2,383.9,296.8,383.7,297.3z"/>
			<path class="st3" d="M380.1,305l-1,1.9c-0.3,0.5-0.9,0.7-1.4,0.4c-0.5-0.3-0.7-0.9-0.4-1.4l0,0l0,0l1-1.8l0,0
				c0.3-0.5,0.9-0.7,1.4-0.4C380.2,303.9,380.4,304.6,380.1,305z"/>
			<path class="st3" d="M375.7,312.3l-1.2,1.7c-0.3,0.5-1,0.6-1.4,0.2c-0.5-0.3-0.6-1-0.2-1.4l0,0l0,0l1.2-1.7l0,0
				c0.3-0.5,1-0.6,1.4-0.2C375.9,311.2,376,311.9,375.7,312.3z"/>
			<path class="st3" d="M370.5,319.1l-1.4,1.6c-0.4,0.4-1,0.5-1.5,0.1c-0.4-0.4-0.5-1-0.1-1.5l0,0l0,0l1.4-1.5l0,0
				c0.4-0.4,1-0.5,1.5-0.1C370.8,318,370.8,318.6,370.5,319.1z"/>
			<path class="st3" d="M364.4,325.1l-1.6,1.4c-0.4,0.4-1.1,0.3-1.5-0.1c-0.4-0.4-0.3-1.1,0.1-1.5l0,0l0,0l1.6-1.3l0,0
				c0.4-0.4,1.1-0.3,1.5,0.1C364.9,324.1,364.9,324.7,364.4,325.1z"/>
			<path class="st3" d="M357.7,330.3l-1.8,1.2c-0.5,0.3-1.1,0.2-1.4-0.3c-0.3-0.5-0.2-1.1,0.3-1.4l0,0l0,0l1.7-1.1l0,0
				c0.5-0.3,1.1-0.2,1.4,0.3S358.1,330,357.7,330.3z"/>
			<path class="st3" d="M350.3,334.6l-1.9,0.9c-0.5,0.2-1.1,0-1.4-0.5c-0.2-0.5,0-1.1,0.5-1.4l0,0l0,0l1.9-0.9l0,0
				c0.5-0.2,1.1,0,1.4,0.5C351,333.8,350.8,334.4,350.3,334.6z"/>
			<path class="st3" d="M342.4,337.9l-2,0.7c-0.5,0.2-1.1-0.1-1.3-0.6c-0.2-0.5,0.1-1.1,0.6-1.3l0,0l0,0l2-0.7l0,0
				c0.5-0.2,1.1,0.1,1.3,0.6C343.2,337.1,342.9,337.7,342.4,337.9z"/>
			<path class="st3" d="M334.3,340.5l-2,0.6c-0.6,0.2-1.1-0.2-1.3-0.7c-0.2-0.6,0.2-1.1,0.7-1.3l0,0l0,0l2-0.5l0,0
				c0.6-0.2,1.1,0.2,1.3,0.7C335.2,339.8,334.9,340.4,334.3,340.5z"/>
			<path class="st3" d="M326.1,342.5l-2.1,0.4c-0.6,0.1-1.1-0.3-1.2-0.8c-0.1-0.6,0.2-1.1,0.8-1.2l0,0l2-0.4l0,0
				c0.6-0.1,1.1,0.2,1.2,0.8C327,341.9,326.6,342.4,326.1,342.5L326.1,342.5z"/>
			<path class="st3" d="M317.7,344l-2.1,0.3c-0.6,0.1-1.1-0.3-1.1-0.9c-0.1-0.6,0.3-1.1,0.9-1.1l0,0l2.1-0.3l0,0
				c0.6-0.1,1.1,0.3,1.2,0.9C318.7,343.4,318.3,343.9,317.7,344L317.7,344z"/>
			<path class="st3" d="M309.3,345.1l-2.1,0.2c-0.5,0.1-1-0.3-1.1-0.9c-0.1-0.5,0.3-1,0.9-1.1l0,0l2.1-0.2l0,0
				c0.5-0.1,1,0.3,1.1,0.9C310.3,344.5,309.9,345,309.3,345.1L309.3,345.1z"/>
			<path class="st3" d="M300.9,345.7l-2.1,0.1c-0.5,0-1-0.4-1-0.9c0-0.5,0.4-1,0.9-1l0,0l2.1-0.1l0,0c0.5,0,1,0.4,1,0.9
				C301.8,345.2,301.4,345.7,300.9,345.7L300.9,345.7z"/>
			<path class="st3" d="M292.5,346.1l-2.1,0c-0.5,0-0.9-0.4-0.9-0.9c0-0.5,0.4-0.9,0.9-0.9l0,0l2.1-0.1l0,0c0.5,0,0.9,0.4,0.9,0.9
				C293.4,345.6,293,346.1,292.5,346.1C292.5,346.1,292.5,346.1,292.5,346.1z"/>
			<path class="st3" d="M284,346.1l-2.1,0c-0.4,0-0.8-0.4-0.8-0.8c0-0.4,0.4-0.8,0.8-0.8h0l2.1,0h0c0.5,0,0.8,0.4,0.8,0.8
				C284.9,345.7,284.5,346.1,284,346.1C284,346.1,284,346.1,284,346.1z"/>
			<path class="st3" d="M275.6,346l-2.1-0.1c-0.4,0-0.7-0.4-0.7-0.8c0-0.4,0.3-0.7,0.7-0.7h0l2.1,0h0c0.4,0,0.8,0.3,0.7,0.8
				C276.4,345.6,276,346,275.6,346C275.6,346,275.6,346,275.6,346z"/>
			<path class="st3" d="M267.2,345.6l-2.1-0.1c-0.3,0-0.6-0.3-0.6-0.6c0-0.3,0.3-0.6,0.6-0.6l2.1,0.1c0.4,0,0.6,0.3,0.6,0.7
				C267.8,345.3,267.5,345.6,267.2,345.6C267.2,345.6,267.2,345.6,267.2,345.6z"/>
			<path class="st3" d="M258.8,345.1l-2.1-0.2c-0.3,0-0.4-0.2-0.4-0.5c0-0.2,0.2-0.4,0.5-0.4l2.1,0.1c0.3,0,0.5,0.2,0.5,0.5
				C259.3,344.9,259.1,345.1,258.8,345.1C258.8,345.1,258.8,345.1,258.8,345.1z"/>
		</g>
		<g>
			<polygon class="st3" points="173.6,42.1 174.8,50.8 180.2,46.2 			"/>
			<path class="st4" d="M212.1,31.8l-20.7,23.8c-0.4,0.5-1,0.7-1.6,0.8c-0.6,0-1.2-0.2-1.6-0.6L165,34.1c-0.3-0.2-0.4-0.6-0.2-1
				c0.1-0.3,0.5-0.6,0.8-0.6L212.1,31.8z"/>
			<polygon class="st3" points="173.6,42.1 212.1,31.8 177.3,45.6 177.6,48 			"/>
			<polygon class="st3" points="179.6,47.7 174.8,50.8 177.3,45.6 			"/>
		</g>
	</g>
	<g>
		<g>
			
				<rect x="188.4" y="390.6" transform="matrix(-1 -1.224647e-16 1.224647e-16 -1 380.3573 820.6396)" class="st4" width="3.6" height="39.4"/>
			<path class="st4" d="M174.2,430.8h31.9v-0.1c0-1.3-1-2.3-2.3-2.3h-27.4c-1.3,0-2.3,1-2.3,2.3V430.8z"/>
			<path class="st4" d="M169.5,389.2c0,2.2,1.8,3.9,3.9,3.9h32.3c2.2,0,3.9-1.8,3.9-3.9v-3.5c0-2.2-1.8-3.9-3.9-3.9h-32.3
				c-2.2,0-3.9,1.8-3.9,3.9V389.2z"/>
		</g>
		<g>
			
				<linearGradient id="SVGID_15_" gradientUnits="userSpaceOnUse" x1="2818.4753" y1="396.656" x2="2844.4111" y2="396.656" gradientTransform="matrix(-1 0 0 1 3048.4612 0)">
				<stop  offset="0" style="stop-color:#FF928E"/>
				<stop  offset="1" style="stop-color:#FEB3B1"/>
			</linearGradient>
			<path class="st21" d="M217.1,364.3c0,0,5.4,0.8,11.5,4.9c1,0.6,1.5,1.8,1.3,2.9c-0.7,5.8-3.7,24.5-13.6,42.8
				c-0.5,1-0.7,2.1-0.4,3.2l1.7,8l3.2,3h-8.2l-5.5-14.8l2.3-0.7c1.8-0.6,3.1-2.2,3.1-4.1l0.3-15.9c-0.2-7.1,4.3-11.9,4.3-11.9
				l-13.1-0.6L217.1,364.3z"/>
			
				<linearGradient id="SVGID_16_" gradientUnits="userSpaceOnUse" x1="2788.3689" y1="25.3437" x2="2792.1047" y2="58.0325" gradientTransform="matrix(-1 0 0 1 3048.4612 0)">
				<stop  offset="0" style="stop-color:#09005D"/>
				<stop  offset="1" style="stop-color:#1A0F91"/>
			</linearGradient>
			<path class="st22" d="M224,430.5c0.7,1-8,2.3-12.5,0.1c0,0-6.2-10.7-6.2-16.2c0,0,0.5-1.1,4.1-0.9c0,0,2.1,12.7,4.3,14.1
				c2.2,1.4,6.1,0.1,6.1,0.1S222.9,429,224,430.5z"/>
			<linearGradient id="SVGID_17_" gradientUnits="userSpaceOnUse" x1="235.4264" y1="422.8082" x2="231.0329" y2="390.8332">
				<stop  offset="0" style="stop-color:#FF928E"/>
				<stop  offset="1" style="stop-color:#FEB3B1"/>
			</linearGradient>
			<path class="st23" d="M205.7,381.8c0.1-0.1,14.1-1.7,14.1-1.7s-0.5,4.3,1,10.2c1.4,5.9,22.1,31.4,22.1,31.4l-2.2,6.9
				c6.7,2.3,13.3,2.7,19.7,1.2l-13.4-8c0,0-12.5-42.7-20.2-50.4l-14.1-4.9L205.7,381.8z"/>
			
				<linearGradient id="SVGID_18_" gradientUnits="userSpaceOnUse" x1="-1892.3878" y1="364.2577" x2="-1860.6329" y2="426.3665" gradientTransform="matrix(-1 0 0 1 -1693.7076 0)">
				<stop  offset="0" style="stop-color:#09005D"/>
				<stop  offset="1" style="stop-color:#1A0F91"/>
			</linearGradient>
			<path class="st24" d="M174.2,356.9c0,0-8.1,12-8.8,17.5c-0.7,5.5,2.2,7.7,10.7,8.1c8.5,0.4,31.2,0.4,31.2,0.4l19.3-16.5
				c0,0-14.1-5-17.8-6.5C205.2,358.5,174.2,356.9,174.2,356.9z"/>
			
				<linearGradient id="SVGID_19_" gradientUnits="userSpaceOnUse" x1="2750.4045" y1="29.6842" x2="2754.1404" y2="62.3728" gradientTransform="matrix(-1 0 0 1 3048.4612 0)">
				<stop  offset="0" style="stop-color:#09005D"/>
				<stop  offset="1" style="stop-color:#1A0F91"/>
			</linearGradient>
			<path class="st25" d="M241.5,426.1c0,0-2.3,2.3-0.8,4.8c0,0,18.4,3.3,23.5,1.8c0,0-1-2.4-6.7-5.1l0.4,0.3
				c0.5,0.4,0.2,1.2-0.4,1.2C253.8,428.9,246.1,428.2,241.5,426.1z"/>
		</g>
		<g>
			
				<linearGradient id="SVGID_20_" gradientUnits="userSpaceOnUse" x1="2848.7947" y1="319.1087" x2="2877.876" y2="382.4035" gradientTransform="matrix(-1 0 0 1 3048.4612 0)">
				<stop  offset="0" style="stop-color:#4042E2"/>
				<stop  offset="1" style="stop-color:#4F52FF"/>
			</linearGradient>
			<path class="st26" d="M196.1,355.3c0,0,9.4-9,14.1-14.9c2.5-3.2,3.3-7.4,2.1-11.4c-2.1-7.1-5.9-14.5-6.2-15.7
				c-0.5-1.8-11.1-1.7-11.1-1.7s-20.8,13.5-29,36.4l9.2,2.9c0,0,5.4-9.1,10.8-14.9c0,0-9.3,12.3-9.6,17.3L196.1,355.3z"/>
			<linearGradient id="SVGID_21_" gradientUnits="userSpaceOnUse" x1="203.6599" y1="304.0293" x2="198.1274" y2="316.3961">
				<stop  offset="0" style="stop-color:#FF928E"/>
				<stop  offset="1" style="stop-color:#FEB3B1"/>
			</linearGradient>
			<path class="st27" d="M207.3,303.5c-0.1,0.4-2.9,9.5-3.1,9.7c-0.2,0.2-6,0.5-8.8-1.4l4.7-9.8L207.3,303.5z"/>
			<linearGradient id="SVGID_22_" gradientUnits="userSpaceOnUse" x1="211.7805" y1="285.2837" x2="196.9728" y2="303.9967">
				<stop  offset="0" style="stop-color:#FF928E"/>
				<stop  offset="1" style="stop-color:#FEB3B1"/>
			</linearGradient>
			<path class="st28" d="M202.8,284.3c0,0,5,2.1,8.4,9.3c3.4,7.2,0.9,10.5-2.3,11c-3.2,0.5-7.9,0.4-12.9-4.3
				C190.9,295.6,196.3,281.8,202.8,284.3z"/>
			
				<linearGradient id="SVGID_23_" gradientUnits="userSpaceOnUse" x1="2879.8645" y1="259.3525" x2="2839.3064" y2="301.5492" gradientTransform="matrix(-1 0 0 1 3048.4612 0)">
				<stop  offset="0" style="stop-color:#09005D"/>
				<stop  offset="1" style="stop-color:#1A0F91"/>
			</linearGradient>
			<path class="st29" d="M199.3,296.5c0,0-3.8-10.5,5.6-10.7l2.2,1.5c0,0,3.4-5.8-2.2-8.6c-5.6-2.8-14-0.3-16.4,7.3
				c-2.4,7.6-1,12.5,3,16.1c4,3.6,5.6-0.5,5.6-0.5s-2.2-3.4-1.3-5.2c0.9-1.8,2.9,0.4,2.9,0.4L199.3,296.5z"/>
			
				<linearGradient id="SVGID_24_" gradientUnits="userSpaceOnUse" x1="2839.1128" y1="288.0746" x2="2863.2939" y2="304.4995" gradientTransform="matrix(-1 0 0 1 3048.4612 0)">
				<stop  offset="0" style="stop-color:#FF928E"/>
				<stop  offset="1" style="stop-color:#FEB3B1"/>
			</linearGradient>
			<path class="st30" d="M198.2,297.6c0,0-1.9-5.4-4.4-3.3c-2.5,2.2,2.1,5,3.9,5.9L198.2,297.6z"/>
			<linearGradient id="SVGID_25_" gradientUnits="userSpaceOnUse" x1="177.7578" y1="348.0386" x2="185.4464" y2="352.5541">
				<stop  offset="0" style="stop-color:#FF928E"/>
				<stop  offset="1" style="stop-color:#FEB3B1"/>
			</linearGradient>
			<path class="st31" d="M215.3,356l-6.9-6.7l-9.6,4c0,0-9.5,1.5-15,0c-5.5-1.5-5.5-1.5-5.5-1.5L166,348l-1.9,5.5
				c-0.5,1.4,0,2.9,1.2,3.8c1.1,0.8,2.3,1.6,3.1,1.9c1.6,0.7,40-0.5,40-0.5L215.3,356z"/>
			
				<linearGradient id="SVGID_26_" gradientUnits="userSpaceOnUse" x1="2897.8911" y1="276.679" x2="2857.333" y2="318.8757" gradientTransform="matrix(-1 0 0 1 3048.4612 0)">
				<stop  offset="0" style="stop-color:#09005D"/>
				<stop  offset="1" style="stop-color:#1A0F91"/>
			</linearGradient>
			<path class="st32" d="M189.2,287.2c1.2-1.2,0.4-3.3-1.3-3.6c-5.5-0.9-13.8,0-17.3,11.7c-3.9,13.2-6.5,19.8-9.2,20.9
				c-1.7,0.8-1.8,3.2-0.1,3.9c1.3,0.6,3.1,0.8,5.7,0.2C187.2,316,182.2,294.4,189.2,287.2z"/>
		</g>
		<g>
			
				<linearGradient id="SVGID_27_" gradientUnits="userSpaceOnUse" x1="2802.1394" y1="620.2612" x2="2769.7751" y2="629.1315" gradientTransform="matrix(-0.9988 -4.940000e-02 -4.940000e-02 0.9988 3011.6912 -132.6588)">
				<stop  offset="0" style="stop-color:#09005D"/>
				<stop  offset="1" style="stop-color:#1A0F91"/>
			</linearGradient>
			<path class="st33" d="M189.1,359.1C189.1,359.1,189.1,359.1,189.1,359.1l40.3,0c1,0,1.8-0.8,1.8-1.8c0-1-0.8-1.8-1.8-1.8l-40.2,0
				c-1,0-1.8,0.8-1.8,1.8C187.4,358.3,188.1,359.1,189.1,359.1z"/>
			
				<linearGradient id="SVGID_28_" gradientUnits="userSpaceOnUse" x1="2822.384" y1="327.5248" x2="2799.4202" y2="351.7963" gradientTransform="matrix(-1 0 0 1 3048.4612 0)">
				<stop  offset="0" style="stop-color:#09005D"/>
				<stop  offset="1" style="stop-color:#1A0F91"/>
			</linearGradient>
			<path class="st34" d="M265.5,322.6H232c-2.5,0-4.7,1.4-5.8,3.7l-15.5,32.8h41.6c1.6,0,3-1,3.6-2.5l12-30.3
				C268.6,324.5,267.3,322.6,265.5,322.6z"/>
		</g>
		<g>
			<path class="st4" d="M132.9,360.6c-0.1-0.5,0-0.9,0.3-1.3c0.3-0.4,0.8-0.6,1.3-0.6h167.6c0.7,0,1.3,0.3,1.6,0.8
				c0.4,0.5,0.4,1.2,0.1,1.7l-1.8,3.7c-0.4,0.8-1.3,1.4-2.3,1.4H135.7c-0.9,0-1.7-0.6-1.9-1.5L132.9,360.6z"/>
			<g>
				<path class="st4" d="M292.8,438.2c0.2,0,0.4,0,0.6-0.1c0.7-0.3,1.1-1.2,0.8-2l-30.9-73.4c-0.3-0.8-1.2-1.1-1.9-0.8
					c-0.7,0.3-1.1,1.2-0.8,2l30.9,73.4C291.7,437.9,292.2,438.2,292.8,438.2z"/>
				<path class="st4" d="M258,438.2c0.6,0,1.1-0.3,1.4-0.9l30.9-73.4c0.3-0.8,0-1.6-0.8-2c-0.7-0.3-1.6,0-1.9,0.8l-30.9,73.4
					c-0.3,0.8,0,1.6,0.8,2C257.7,438.2,257.9,438.2,258,438.2z"/>
				<path class="st4" d="M171.3,438.2c0.2,0,0.4,0,0.6-0.1c0.7-0.3,1.1-1.2,0.8-2l-30.9-73.4c-0.3-0.8-1.2-1.1-1.9-0.8
					c-0.7,0.3-1.1,1.2-0.8,2l30.9,73.4C170.2,437.9,170.7,438.2,171.3,438.2z"/>
				<path class="st4" d="M136.6,438.2c0.6,0,1.1-0.3,1.4-0.9l30.9-73.4c0.3-0.8,0-1.6-0.8-2c-0.7-0.3-1.6,0-1.9,0.8l-30.9,73.4
					c-0.3,0.8,0,1.6,0.8,2C136.2,438.2,136.4,438.2,136.6,438.2z"/>
			</g>
		</g>
	</g>
	<g>
		<g>
			
				<linearGradient id="SVGID_29_" gradientUnits="userSpaceOnUse" x1="10491.9873" y1="132.2198" x2="10478.5313" y2="224.7961" gradientTransform="matrix(1 0 0 1 -10346.5801 0)">
				<stop  offset="0" style="stop-color:#4042E2"/>
				<stop  offset="1" style="stop-color:#4F52FF"/>
			</linearGradient>
			<path class="st35" d="M121.3,237.2c0,0,72.7-35.9,48.9-62.3c-23.8-26.4-68.1-15.9-70.3,12C97.7,214.6,151.6,208.1,121.3,237.2z"
				/>
			<g>
				<path class="st14" d="M164.1,182.4H132c-0.4,0-0.7-0.3-0.7-0.7s0.3-0.7,0.7-0.7h32.1c0.4,0,0.7,0.3,0.7,0.7
					S164.4,182.4,164.1,182.4z"/>
				<path class="st14" d="M122.5,182.4H113c-0.4,0-0.7-0.3-0.7-0.7s0.3-0.7,0.7-0.7h9.5c0.4,0,0.7,0.3,0.7,0.7
					S122.9,182.4,122.5,182.4z"/>
				<path class="st14" d="M165.1,188.9h-12c-0.4,0-0.7-0.3-0.7-0.7s0.3-0.7,0.7-0.7h12c0.4,0,0.7,0.3,0.7,0.7
					S165.5,188.9,165.1,188.9z"/>
				<path class="st14" d="M135.4,188.9H114c-0.4,0-0.7-0.3-0.7-0.7s0.3-0.7,0.7-0.7h21.4c0.4,0,0.7,0.3,0.7,0.7
					S135.8,188.9,135.4,188.9z"/>
				<path class="st14" d="M166.2,195.3h-32c-0.4,0-0.7-0.3-0.7-0.7c0-0.4,0.3-0.7,0.7-0.7h32c0.4,0,0.7,0.3,0.7,0.7
					C166.9,195,166.6,195.3,166.2,195.3z"/>
				<path class="st14" d="M126.2,195.3h-11.1c-0.4,0-0.7-0.3-0.7-0.7c0-0.4,0.3-0.7,0.7-0.7h11.1c0.4,0,0.7,0.3,0.7,0.7
					C126.9,195,126.6,195.3,126.2,195.3z"/>
			</g>
		</g>
		<g>
			
				<linearGradient id="SVGID_30_" gradientUnits="userSpaceOnUse" x1="3724.2815" y1="420.5382" x2="3654.7373" y2="496.1828" gradientTransform="matrix(1 0 0 1 -3604.9897 0)">
				<stop  offset="0" style="stop-color:#09005D"/>
				<stop  offset="1" style="stop-color:#1A0F91"/>
			</linearGradient>
			<path class="st36" d="M97.3,426.2c0,0-0.7,4.1-1.1,8.1c-0.1,1.6,1.1,2.9,2.7,3c5.4,0.2,16.9,0.7,21,0.5c0.6,0,1-0.7,0.8-1.2l0,0
				c-0.2-0.5-0.6-0.9-1-1.1l-19-8.7L97.3,426.2z"/>
			
				<linearGradient id="SVGID_31_" gradientUnits="userSpaceOnUse" x1="3701.7085" y1="426.1564" x2="3707.8857" y2="426.1564" gradientTransform="matrix(1 0 0 1 -3604.9897 0)">
				<stop  offset="0" style="stop-color:#FF928E"/>
				<stop  offset="1" style="stop-color:#FEB3B1"/>
			</linearGradient>
			<path class="st37" d="M96.7,423.8l0.6,4.9c0,0,3.3,1.5,5.6-0.2l-1.4-5.4L96.7,423.8z"/>
			
				<linearGradient id="SVGID_32_" gradientUnits="userSpaceOnUse" x1="3729.7573" y1="334.9922" x2="3670.582" y2="415.1969" gradientTransform="matrix(1 0 0 1 -3604.9897 0)">
				<stop  offset="0" style="stop-color:#09005D"/>
				<stop  offset="1" style="stop-color:#1A0F91"/>
			</linearGradient>
			<path class="st38" d="M97.2,332.1c-0.3,1.3-1.3,63.6,5.3,91.5c0.1,0.5-0.1,0.9-0.6,1.1c-1,0.4-3,1-5.4,1.1
				c-0.7,0-1.4-0.5-1.6-1.2c-1.9-6.5-11-38.9-12.2-69.9c-1.3-34.6,0-1.2,0-1.2l0.8-21.4L97.2,332.1z"/>
			
				<linearGradient id="SVGID_33_" gradientUnits="userSpaceOnUse" x1="3708.6804" y1="406.1953" x2="3639.1362" y2="481.8398" gradientTransform="matrix(1 0 0 1 -3604.9897 0)">
				<stop  offset="0" style="stop-color:#09005D"/>
				<stop  offset="1" style="stop-color:#1A0F91"/>
			</linearGradient>
			<path class="st39" d="M75.5,428.3c0,0-1.1,2.1-2.3,7.5c-0.2,1,0.5,1.9,1.5,2c1.8,0.2,4.5,0.4,6.7,0.4c1,0,1.8-0.9,1.7-1.9
				c-0.2-2-1-5.3-3.3-7.8L75.5,428.3z"/>
			
				<linearGradient id="SVGID_34_" gradientUnits="userSpaceOnUse" x1="3679.4458" y1="425.8397" x2="3684.7793" y2="425.8397" gradientTransform="matrix(1 0 0 1 -3604.9897 0)">
				<stop  offset="0" style="stop-color:#FF928E"/>
				<stop  offset="1" style="stop-color:#FEB3B1"/>
			</linearGradient>
			<path class="st40" d="M74.5,422l1.4,7.4c0,0,1.3,1,4,0.3l-0.6-7.9L74.5,422z"/>
			
				<linearGradient id="SVGID_35_" gradientUnits="userSpaceOnUse" x1="3719.2109" y1="327.211" x2="3660.0356" y2="407.4156" gradientTransform="matrix(1 0 0 1 -3604.9897 0)">
				<stop  offset="0" style="stop-color:#09005D"/>
				<stop  offset="1" style="stop-color:#1A0F91"/>
			</linearGradient>
			<path class="st41" d="M70.8,334c-5.4,32.9,1.2,81.2,3.4,90.7c0.1,0.6,0.6,1,1.2,1.1c1,0.2,2.6,0.3,4.3-0.2c0.6-0.2,0.9-0.7,1-1.2
				c0.3-7.7-0.2-54.6,4.8-73.2c0.3-0.9,0.8-1.8,1.6-2.3l9.8-7l0.8-11.3L70.8,334z"/>
			<g>
				
					<linearGradient id="SVGID_36_" gradientUnits="userSpaceOnUse" x1="-1795.8271" y1="268.9575" x2="-1765.4247" y2="433.0568" gradientTransform="matrix(-1 0 0 1 -1693.7076 0)">
					<stop  offset="0" style="stop-color:#4042E2"/>
					<stop  offset="1" style="stop-color:#4F52FF"/>
				</linearGradient>
				<path class="st42" d="M105.5,271.7c-16.3-0.3-34.3,4.3-34.3,4.3c-4.9,28.4-0.9,61.1-0.9,61.1c12.6,3.3,26.9-2,26.9-2
					c2.1-11.9,11.9-45.2,11.9-45.2c8-1,14.5-3.3,19.9-6.3c-4.1-4.8-6.1-10.9-6.9-14.5C116.4,270.9,110.5,271.8,105.5,271.7z"/>
				<linearGradient id="SVGID_37_" gradientUnits="userSpaceOnUse" x1="130.5545" y1="273.9874" x2="179.9816" y2="192.8296">
					<stop  offset="0" style="stop-color:#FF928E"/>
					<stop  offset="1" style="stop-color:#FEB3B1"/>
				</linearGradient>
				<path class="st43" d="M153.7,247.7c-1.6-1.9-3.2-2.4-3.2-2.4c-2.4,10.1-15.4,19.7-28.3,23.7c0.8,3.6,2.8,9.7,6.9,14.5
					C150.5,271.5,153.7,247.7,153.7,247.7z"/>
			</g>
			<g>
				<linearGradient id="SVGID_38_" gradientUnits="userSpaceOnUse" x1="133.7897" y1="275.9576" x2="183.2168" y2="194.7998">
					<stop  offset="0" style="stop-color:#FF928E"/>
					<stop  offset="1" style="stop-color:#FEB3B1"/>
				</linearGradient>
				<path class="st44" d="M153.3,248.2c0.2,0.5-1.8,1.3-2.9-0.8c0-1-0.7-5.5-0.1-6.4c3.3-4.5,9.8-10.2,9.8-10.2
					c1.1,1.1,0.2,2.1,0.2,2.1l-3.1,3.3c0.7,1.2,1.5,2.2,1.8,3.6c0.3,1.1,0.1,2.2-0.4,3.2c-0.5,1-1.3,2.3-2,3.3
					C155.2,248.2,153.3,248.2,153.3,248.2z"/>
				
					<linearGradient id="SVGID_39_" gradientUnits="userSpaceOnUse" x1="-1843.4805" y1="251.3862" x2="-1851.6902" y2="234.8254" gradientTransform="matrix(-1 0 0 1 -1693.7076 0)">
					<stop  offset="0" style="stop-color:#FF928E"/>
					<stop  offset="1" style="stop-color:#FEB3B1"/>
				</linearGradient>
				<path class="st45" d="M155.8,238.3l-2.9,2.4l-0.9,2.4l2.5,2.8c0,0,0.9-4.8,1.5-5.8C156.7,239.1,156.4,238.6,155.8,238.3z"/>
			</g>
			
				<linearGradient id="SVGID_40_" gradientUnits="userSpaceOnUse" x1="-1765.141" y1="263.2723" x2="-1734.7385" y2="427.3716" gradientTransform="matrix(-1 0 0 1 -1693.7076 0)">
				<stop  offset="0" style="stop-color:#4042E2"/>
				<stop  offset="1" style="stop-color:#4F52FF"/>
			</linearGradient>
			<path class="st46" d="M77.4,291.8L71.2,276c0,0-15.2,10.4-17.7,23.5c2.9,0.2,8.1,1,13.2,3.6C67.8,296.9,77.4,291.8,77.4,291.8z"
				/>
			<linearGradient id="SVGID_41_" gradientUnits="userSpaceOnUse" x1="83.508" y1="297.8942" x2="72.5243" y2="305.7049">
				<stop  offset="0" style="stop-color:#FF928E"/>
				<stop  offset="1" style="stop-color:#FEB3B1"/>
			</linearGradient>
			<path class="st47" d="M90.8,306.7c0,0-17.1,9.7-22.9,1.4c-1.2-1.7-1.5-3.4-1.2-5c-5.1-2.6-10.4-3.3-13.2-3.6
				c-0.8,4-0.4,8.2,2,12.4c10.1,18.5,37.6-1,37.6-1L90.8,306.7z"/>
			<g>
				
					<linearGradient id="SVGID_42_" gradientUnits="userSpaceOnUse" x1="3710.0916" y1="281.3071" x2="3732.0518" y2="372.8081" gradientTransform="matrix(1 0 0 1 -3604.9897 0)">
					<stop  offset="0" style="stop-color:#09005D"/>
					<stop  offset="1" style="stop-color:#1A0F91"/>
				</linearGradient>
				<path class="st48" d="M88.7,318.9l9.3-32.6c0.1-0.4,0.4-0.6,0.8-0.7c1.7-0.2,6.6-0.8,12.3-1.2c6.8-0.6,14.7-1,19.5-0.6
					c0.7,0.1,1.1,0.8,0.8,1.4c-2.7,5.4-13.8,27.6-19.3,34.8c-0.2,0.2-0.5,0.4-0.8,0.4l-21.7-0.2C89,320.1,88.5,319.5,88.7,318.9z"/>
				
					<linearGradient id="SVGID_43_" gradientUnits="userSpaceOnUse" x1="3723.8406" y1="266.8841" x2="3719.1636" y2="287.4218" gradientTransform="matrix(1 0 0 1 -3604.9897 0)">
					<stop  offset="0" style="stop-color:#FE7062"/>
					<stop  offset="1" style="stop-color:#FF928E"/>
				</linearGradient>
				<path class="st49" d="M112.1,281.6l6.8-1.1c0.4-0.1,0.7,0.3,0.5,0.6l-0.7,2c-0.1,0.2-0.2,0.3-0.4,0.3l-6.5,0.9
					c-0.3,0-0.6-0.3-0.5-0.6l0.4-1.8C111.7,281.7,111.9,281.6,112.1,281.6z"/>
				
					<linearGradient id="SVGID_44_" gradientUnits="userSpaceOnUse" x1="3721.3931" y1="275.499" x2="3719.1563" y2="288.9198" gradientTransform="matrix(1 0 0 1 -3604.9897 0)">
					<stop  offset="0" style="stop-color:#FE7062"/>
					<stop  offset="1" style="stop-color:#FF928E"/>
				</linearGradient>
				<path class="st50" d="M107,287.3l0.6-2.9c0.1-0.3,0.3-0.5,0.6-0.5l13.7-1.4c0.5,0,0.8,0.4,0.7,0.8l-0.9,3.6
					c-0.1,0.3-0.3,0.5-0.6,0.5l-13.4,0.7C107.3,288.1,106.9,287.7,107,287.3z"/>
				
					<linearGradient id="SVGID_45_" gradientUnits="userSpaceOnUse" x1="3695.0437" y1="305.5139" x2="3707.4858" y2="305.5139" gradientTransform="matrix(1 0 0 1 -3604.9897 0)">
					<stop  offset="0" style="stop-color:#FF928E"/>
					<stop  offset="1" style="stop-color:#FEB3B1"/>
				</linearGradient>
				<path class="st51" d="M91,311c0,0-1.3-5.3-0.8-7.2c0.5-1.9,1.5-4.3,4.9-3.8c3.4,0.5,7.4,2,7.4,2s-0.2,2.5-2.8,1.7l1.6,1.2
					c0,0-0.2,2-2.4,0.9l1.5,1.6c0,0-0.9,1.6-2.5,0.6C96.3,307,95.5,311.7,91,311z"/>
			</g>
			<linearGradient id="SVGID_46_" gradientUnits="userSpaceOnUse" x1="94.7833" y1="262.2644" x2="88.1931" y2="276.0552">
				<stop  offset="0" style="stop-color:#FF928E"/>
				<stop  offset="1" style="stop-color:#FEB3B1"/>
			</linearGradient>
			<path class="st52" d="M89,258.5l-5.2,15c-0.1,0.2,0,0.5,0.2,0.7c1.4,0.8,6.5,3,12.7-0.9c0.6-0.4,1.1-1.1,1.2-1.8l1.7-13H89z"/>
			<g>
				<linearGradient id="SVGID_47_" gradientUnits="userSpaceOnUse" x1="102.5152" y1="241.3727" x2="93.362" y2="259.8011">
					<stop  offset="0" style="stop-color:#FF928E"/>
					<stop  offset="1" style="stop-color:#FEB3B1"/>
				</linearGradient>
				<path class="st53" d="M100.3,244.6c0,0,5.7,10.7,5,15.1c-0.7,4.3-7.8,4-14,0.5L87,248.6L100.3,244.6z"/>
				
					<linearGradient id="SVGID_48_" gradientUnits="userSpaceOnUse" x1="-3237.7888" y1="421.2217" x2="-3232.8533" y2="449.3738" gradientTransform="matrix(0.746 -0.6659 0.6659 0.746 2211.6416 -2235.0654)">
					<stop  offset="0" style="stop-color:#09005D"/>
					<stop  offset="1" style="stop-color:#1A0F91"/>
				</linearGradient>
				<path class="st54" d="M91.5,254.5c0.3-0.1,0.3-0.4,0.2-0.6c-0.5-0.7-1.3-2.1-1.6-3.4c0,0-1-0.7,2.6-1.5
					c3.6-0.9,9.1-2.2,10.2-5.3c1.1-3-1.8-10.6-6.5-4.6c-0.2,0.2-0.5,0.2-0.7,0c-0.8-1-2.8-3.1-5.6-1.8c-2.6,1.2-2.9,3.1-2.9,4
					c0,0.3-0.2,0.5-0.5,0.5c-1.3-0.3-4.5-0.5-6,2.8c-1.2,2.7-0.4,4.2,0.3,4.9c0.2,0.2,0.1,0.6-0.2,0.7c-0.9,0.3-2,1-1.9,3
					c0.2,2.8,3.3,2.6,4.2,2.4c0.1,0,0.3,0,0.4,0.1c0.8,0.8,4.2,4.4,7.9,4.9c0.3,0,0.6-0.3,0.5-0.6l-1.6-4.7c-0.1-0.2,0-0.5,0.2-0.6
					L91.5,254.5z"/>
				
					<linearGradient id="SVGID_49_" gradientUnits="userSpaceOnUse" x1="-3238.4973" y1="455.0396" x2="-3243.8059" y2="437.5299" gradientTransform="matrix(0.746 -0.6659 0.6659 0.746 2211.6416 -2235.0654)">
					<stop  offset="0" style="stop-color:#FF928E"/>
					<stop  offset="1" style="stop-color:#FEB3B1"/>
				</linearGradient>
				<path class="st55" d="M92.2,255.1c0,0-4.1-2.8-4.4-0.4c-0.3,2.3,3.7,3.4,5.6,2.5L92.2,255.1z"/>
			</g>
		</g>
	</g>
</g>
</svg>
