<?xml version="1.0" encoding="utf-8"?>
<!-- Generator: Adobe Illustrator 23.0.3, SVG Export Plug-In . SVG Version: 6.00 Build 0)  -->
<svg version="1.1" id="Layer_1" xmlns="http://www.w3.org/2000/svg" xmlns:xlink="http://www.w3.org/1999/xlink" x="0px" y="0px"
	 viewBox="0 0 648 470" style="enable-background:new 0 0 648 470;" xml:space="preserve">
<style type="text/css">
	.st0{fill:#F4F7FA;}
	.st1{clip-path:url(#SVGID_2_);}
	.st2{opacity:0.7;fill:#FFFFFF;}
	.st3{opacity:0.7;clip-path:url(#SVGID_5_);}
	.st4{fill:#FCFDFE;}
	.st5{fill:url(#SVGID_6_);}
	.st6{fill:url(#SVGID_7_);}
	.st7{fill:url(#SVGID_8_);}
	.st8{fill:url(#SVGID_9_);}
	.st9{fill:url(#SVGID_10_);}
	.st10{fill:#FFFFFF;}
	.st11{fill:url(#SVGID_11_);}
	.st12{opacity:0.3;fill:url(#SVGID_12_);}
	.st13{opacity:0.48;fill:#FFFFFF;}
	.st14{fill:url(#SVGID_13_);}
	.st15{fill:url(#SVGID_14_);}
	.st16{fill:url(#SVGID_15_);}
	.st17{fill:url(#SVGID_16_);}
	.st18{opacity:0.48;}
	.st19{fill:url(#SVGID_17_);}
	.st20{fill:url(#SVGID_18_);}
	.st21{fill:url(#SVGID_19_);}
	.st22{fill:url(#SVGID_20_);}
	.st23{fill:url(#SVGID_21_);}
	.st24{fill:url(#SVGID_22_);}
	.st25{fill:url(#SVGID_23_);}
	.st26{opacity:0.53;fill:#FFFFFF;}
	.st27{fill:url(#SVGID_24_);}
	.st28{fill:url(#SVGID_27_);}
	.st29{fill:url(#SVGID_28_);}
	.st30{fill:url(#SVGID_29_);}
	.st31{fill:url(#SVGID_30_);}
	.st32{fill:url(#SVGID_31_);}
	.st33{fill:url(#SVGID_32_);}
	.st34{fill:url(#SVGID_33_);}
	.st35{fill:url(#SVGID_34_);}
	.st36{fill:url(#SVGID_35_);}
	.st37{fill:url(#SVGID_36_);}
	.st38{fill:url(#SVGID_37_);}
	.st39{fill:url(#SVGID_38_);}
	.st40{fill:url(#SVGID_39_);}
	.st41{opacity:0.4;fill:url(#SVGID_40_);}
	.st42{fill:url(#SVGID_41_);}
	.st43{fill:url(#SVGID_42_);}
	.st44{fill:url(#SVGID_43_);}
	.st45{fill:url(#SVGID_44_);}
	.st46{fill:url(#SVGID_45_);}
	.st47{fill:url(#SVGID_46_);}
	.st48{fill:url(#SVGID_47_);}
	.st49{fill:url(#SVGID_48_);}
	.st50{opacity:0.3;fill:url(#SVGID_49_);}
	.st51{fill:url(#SVGID_50_);}
	.st52{fill:url(#SVGID_51_);}
	.st53{fill:url(#SVGID_52_);}
	.st54{fill:url(#SVGID_53_);}
	.st55{fill:url(#SVGID_54_);}
</style>
<g>
	<path class="st0" d="M561.6,198.9C548.9,115.8,496.8,13.8,394,3.1c0,0-78.1-9.5-155,4.9c-45.7,8.5-85.7,34-111,70.5
		C102.7,115,94.2,159.6,104.5,202c6.7,27.6,11.2,56.1,9.9,84.5c-2.2,49.3-0.9,95.4,47,124.8c42.8,26.3,96.6,49.4,147.9,53.5
		c34.9,2.8,74-1.7,107.6-10.8C588.2,407.8,574.3,282,561.6,198.9z"/>
	<g>
		<g>
			<g>
				<defs>
					<path id="SVGID_1_" d="M294.6,339.7c15.5-12.9,14.1-41.5,7-59.9c-8.3-21.5-21.3-20.5-26.3-37.7c-9.4-32,31.6-48.6,25-81.5
						c-5.4-26.9-34.8-26.1-39.2-56.1c-3.2-21.7,10.6-32.6,0.8-50.6c-0.8-1.5-10.1-18.1-27.4-20.1c-17.4-2-32.8,12-39.9,22.5
						c-13,19.6,0.6,30.5-5.3,58.8c-8,38.5-37.9,40.9-37.2,70.3c0.6,24.3,21.1,28.2,21.2,55.1c0,25-17.6,30.7-15.8,47.5
						C161.9,326.7,263.1,366,294.6,339.7z"/>
				</defs>
				<use xlink:href="#SVGID_1_"  style="overflow:visible;fill:#D8DEE8;"/>
				<clipPath id="SVGID_2_">
					<use xlink:href="#SVGID_1_"  style="overflow:visible;"/>
				</clipPath>
				<g class="st1">
					<path class="st2" d="M272.6,360.6c0.1,0,0.3,0,0.3-0.2c0.1-0.1,0-0.3-0.2-0.3c-17.3-6.4-32.3-15.7-44.7-27.7
						c-11.7-11.4-23.8-23.1-25.5-39.4c-1.3-12.3,4.1-19.6,11-29c6.7-9.1,14.9-20.4,18.9-39.9c2.3-11.2,5.1-25-1.2-40.6
						c-3.7-9-8.6-13.8-12.9-18c-4.5-4.4-8.1-7.9-8.6-14.7c-0.8-11.2,4.8-19.2,11.3-28.5c4-5.7,8.2-11.6,11.5-19.1
						c9.3-20.9,5.6-47.1-11.1-77.7c-0.1-0.1-0.2-0.2-0.4-0.1c-0.1,0.1-0.2,0.2-0.1,0.3c16.6,30.5,20.3,56.5,11,77.3
						c-3.3,7.4-7.4,13.3-11.4,19c-6.6,9.3-12.2,17.4-11.4,28.8c0.5,7.1,4.3,10.8,8.7,15.1c4.3,4.1,9.1,8.9,12.8,17.8
						c6.2,15.4,3.4,29.2,1.1,40.3c-4,19.4-12.2,30.7-18.9,39.7c-6.9,9.4-12.4,16.8-11,29.3c1.7,16.4,13.9,28.2,25.6,39.7
						C240.1,344.8,255.2,354.1,272.6,360.6C272.5,360.6,272.5,360.6,272.6,360.6z"/>
					<path class="st2" d="M233.3,191.4c0.1,0,0.2,0,0.3-0.1c24-25.2,33.7-47.1,37.7-61c4.3-15.1,2.8-24.3,2.8-24.4
						c0-0.1-0.2-0.2-0.3-0.2c-0.2,0-0.3,0.2-0.2,0.3c0,0.1,1.5,9.3-2.8,24.2c-3.9,13.8-13.6,35.6-37.5,60.7c-0.1,0.1-0.1,0.3,0,0.4
						C233.3,191.3,233.3,191.3,233.3,191.4z"/>
					<path class="st2" d="M227.5,239.9c0.1,0,0.3,0,0.3-0.1c0.1-0.1,0-0.3-0.1-0.4c-16.8-9.1-30.3-20.2-39.9-32.9
						c-7.7-10.1-13.1-21.3-15.9-33.2c-4.8-20.3-0.5-35.9-0.5-36c0-0.1-0.1-0.3-0.2-0.3l0,0c-0.2,0-0.3,0-0.4,0.2
						c0,0.2-4.3,15.9,0.5,36.3c2.8,12,8.2,23.2,16,33.4C197.1,219.6,210.6,230.7,227.5,239.9C227.5,239.9,227.5,239.9,227.5,239.9z"
						/>
					<path class="st2" d="M214.7,320.5c0.1,0,0.1,0,0.2,0c17.1-6.9,31.7-15.5,43.3-25.7c9.3-8.2,16.7-17.3,22-27.2
						c9.1-16.9,9-30.3,8.9-30.4c0-0.1-0.1-0.3-0.3-0.3c-0.2,0-0.3,0.1-0.3,0.3c0,0.1,0.1,13.4-8.9,30.2c-8.3,15.5-26.4,37.2-65,52.7
						c-0.1,0.1-0.2,0.2-0.1,0.3C214.6,320.4,214.6,320.4,214.7,320.5z"/>
					<path class="st2" d="M233.1,99.7c0.1,0,0.2,0,0.3-0.1c0.1-0.1,0.1-0.3,0-0.4c-11.6-8.5-20.3-18.3-25.8-29.2
						c-4.5-8.7-7-18.2-7.4-28.1c-0.8-16.9,4.7-29.4,4.8-29.5c0.1-0.1,0-0.3-0.2-0.3c-0.1-0.1-0.3,0-0.4,0.1
						c-0.1,0.1-5.6,12.7-4.8,29.7c0.5,10,3,19.5,7.5,28.3c5.6,11,14.4,20.9,26,29.4C233,99.6,233.1,99.6,233.1,99.7z"/>
				</g>
			</g>
		</g>
		<g>
			<g>
				<g>
					<defs>
						<path id="SVGID_3_" d="M312.8,404c3.2,1.6,11.7,2.1,13.9,1.4c15-5,43.8-12.6,52.1-27.1c1.4-2.5-7.8-11.7-7.8-14.9
							c-4.4-7.3-6.4-9.6-7.2-18.6c-2.4-26.6,50.9-38.6,21.6-74.4c-21.4-26.2-50.4-31.9-19.9-71.9c30.5-40,47.4-138.3-16.1-138.1
							C313,60.4,315.3,113,285,130.7c-28.8,16.8-31.8,44.4-15.1,76.8c16.7,32.4-5.1,34.7-28.4,53.3c-28,22.4,12.5,56.3,32.6,70.4
							C290.2,342.5,323.7,382.3,312.8,404z"/>
					</defs>
					
						<linearGradient id="SVGID_4_" gradientUnits="userSpaceOnUse" x1="-2352.7954" y1="-478.7168" x2="-2138.0742" y2="-478.7168" gradientTransform="matrix(-0.8587 -0.5124 -0.5124 0.8587 -1833.325 -505.907)">
						<stop  offset="0" style="stop-color:#FF9085"/>
						<stop  offset="1" style="stop-color:#FB6FBB"/>
					</linearGradient>
					<use xlink:href="#SVGID_3_"  style="overflow:visible;fill:url(#SVGID_4_);"/>
					<clipPath id="SVGID_5_">
						<use xlink:href="#SVGID_3_"  style="overflow:visible;"/>
					</clipPath>
					<g class="st3">
						<g>
							<path class="st4" d="M351.6,392.7l0.7-0.4c-60.1-101.3-53.7-227.2,17.3-337l-0.6-0.4c-33.6,52-53.5,109.9-57.4,167.4
								C307.5,282.8,321.3,341.7,351.6,392.7z"/>
							<path class="st4" d="M228.8,268.8c31.1,8.4,74,36.3,95.7,62.2l0.6-0.5c-21.8-26-64.9-54-96.1-62.4L228.8,268.8z"/>
							<path class="st4" d="M340,372.7l0.7-0.2c-4.4-17-0.1-35.5,12.9-55.2c9.5-14.4,23.3-29,41.1-43.5l-0.5-0.6
								c-17.8,14.5-31.7,29.2-41.3,43.6C339.9,336.8,335.6,355.5,340,372.7z"/>
							<path class="st4" d="M312.4,214.2l0.7-0.2c-6.7-32.4-31.9-56.5-51.8-70.9l-0.4,0.6C280.8,158.1,305.8,182,312.4,214.2z"/>
							<path class="st4" d="M327.8,140l0.7,0.4c18.2-32.6,54.1-48.2,73.9-54.6l-0.2-0.7C382.2,91.5,346.1,107.2,327.8,140z"/>
						</g>
					</g>
				</g>
			</g>
		</g>
	</g>
	<g>
		<g>
			<linearGradient id="SVGID_6_" gradientUnits="userSpaceOnUse" x1="288.8188" y1="411.6727" x2="259.1052" y2="424.1524">
				<stop  offset="0" style="stop-color:#40447E"/>
				<stop  offset="0.9964" style="stop-color:#3C3B6B"/>
			</linearGradient>
			<path class="st5" d="M533.1,395.4l-423-3.7v10.9c0,3,1.8,5.5,4.3,5.9L234.1,430c1.4,0.3,2.9,0.3,4.3,0.2l290.1-24.5
				c2.6-0.2,4.6-2.7,4.6-5.8V395.4z"/>
			<linearGradient id="SVGID_7_" gradientUnits="userSpaceOnUse" x1="249.1421" y1="280.7148" x2="216.8951" y2="294.2585">
				<stop  offset="0" style="stop-color:#40447E"/>
				<stop  offset="0.9964" style="stop-color:#3C3B6B"/>
			</linearGradient>
			<path class="st6" d="M397,377.7l-282.2,19.9c-5,0.4-9.2-3.4-9.2-8.5V187.5c0-5,4.1-9.1,9.2-9.1H397c4.2,0,7.5,3.7,7.5,8.2V369
				C404.5,373.5,401.1,377.4,397,377.7z"/>
			<linearGradient id="SVGID_8_" gradientUnits="userSpaceOnUse" x1="110.1525" y1="288.0461" x2="408.9938" y2="288.0461">
				<stop  offset="0" style="stop-color:#40447E"/>
				<stop  offset="0.9964" style="stop-color:#3C3B6B"/>
			</linearGradient>
			<path class="st7" d="M401.5,377.7l-282.2,19.9c-5,0.4-9.2-3.4-9.2-8.5V187.5c0-5,4.1-9.1,9.2-9.1h282.2c4.2,0,7.5,3.7,7.5,8.2
				V369C409,373.5,405.6,377.4,401.5,377.7z"/>
			<linearGradient id="SVGID_9_" gradientUnits="userSpaceOnUse" x1="360.0901" y1="139.2448" x2="117.2221" y2="478.6368">
				<stop  offset="0" style="stop-color:#FFC444"/>
				<stop  offset="0.9964" style="stop-color:#F36F56"/>
			</linearGradient>
			<path class="st8" d="M392.7,364.9l-262.8,17.3c-4.1,0.3-7.4-2.8-7.4-7V198.7c0-4.1,3.3-7.5,7.4-7.5l262.8-1.1
				c3.4,0,6.2,3,6.2,6.8v160.9C398.9,361.4,396.1,364.7,392.7,364.9z"/>
			<linearGradient id="SVGID_10_" gradientUnits="userSpaceOnUse" x1="110.1525" y1="398.5565" x2="533.1353" y2="398.5565">
				<stop  offset="0" style="stop-color:#40447E"/>
				<stop  offset="0.9964" style="stop-color:#3C3B6B"/>
			</linearGradient>
			<path class="st9" d="M394.4,376.8l-284.3,21l124,22.2c1.4,0.3,2.9,0.3,4.3,0.2l294.7-24.9L399,377
				C397.5,376.8,395.9,376.7,394.4,376.8z"/>
			<g>
				<ellipse class="st10" cx="277.1" cy="284" rx="45.5" ry="46.1"/>
				<linearGradient id="SVGID_11_" gradientUnits="userSpaceOnUse" x1="252.7123" y1="282.9452" x2="301.4427" y2="282.9452">
					<stop  offset="0" style="stop-color:#FF9085"/>
					<stop  offset="1" style="stop-color:#FB6FBB"/>
				</linearGradient>
				<path class="st11" d="M275.5,308.9c-2,0-3.8-1-4.8-2.8l-17.1-28.9c-1.6-2.7-0.7-6.2,1.9-7.8c2.7-1.6,6.1-0.7,7.7,2l11.9,20
					l15.7-31.3c1.4-2.8,4.8-3.9,7.6-2.5c2.8,1.4,3.9,4.9,2.5,7.7l-20.3,40.4c-0.9,1.8-2.8,3-4.8,3.1
					C275.6,308.9,275.5,308.9,275.5,308.9z"/>
			</g>
			<linearGradient id="SVGID_12_" gradientUnits="userSpaceOnUse" x1="151.6331" y1="395.0908" x2="461.5499" y2="395.0908">
				<stop  offset="0" style="stop-color:#40447E"/>
				<stop  offset="0.9964" style="stop-color:#3C3B6B"/>
			</linearGradient>
			<polygon class="st12" points="151.6,398.4 388.3,380.6 461.5,390.6 226.9,409.6 			"/>
			<path class="st13" d="M333.5,322.4c-21.8-11.7-38.9,3.1-55.4-11.5c-10-8.9-5.1-15.5-17.4-28.7c-13.6-14.7-22.5-9.7-36.2-23
				c-17.3-16.7-8.7-29.7-23.6-41.7c-18.1-14.6-37.6-1.1-54.9-15c-7.4-6-11.5-14.8-13.6-24.1h-16.9c-3,0-5.4,2.4-5.4,5.4v209.1
				c0,3,2.4,5.2,5.4,5l287.6-20.4c1.4-0.1,2.7-0.9,3.5-2.1c-21.1-0.8-34-7.8-42.3-15.1C348.1,345.9,350.9,331.8,333.5,322.4z"/>
		</g>
		<g>
			<g>
				<g>
					<linearGradient id="SVGID_13_" gradientUnits="userSpaceOnUse" x1="502.5475" y1="426.009" x2="420.5604" y2="356.0702">
						<stop  offset="0" style="stop-color:#444B8C"/>
						<stop  offset="0.9964" style="stop-color:#26264F"/>
					</linearGradient>
					<path class="st14" d="M491.7,283.6v157.5c0,2.4-2.6,3-5.5,3.3l-101.1,11.3l-1.5,0.2c-3.2,0.3-5.8-1.5-5.8-3.9V287.4
						c0-2.5,2.6-4.6,5.8-4.7l2.1-0.1l101.5,0.3C490.1,282.9,491.7,281.3,491.7,283.6z"/>
					
						<linearGradient id="SVGID_14_" gradientUnits="userSpaceOnUse" x1="-1864.2391" y1="1734.8466" x2="-1573.0449" y2="1745.6787" gradientTransform="matrix(0 -1 1 0 -1300.0323 -1416.6774)">
						<stop  offset="0" style="stop-color:#444B8C"/>
						<stop  offset="0.9964" style="stop-color:#26264F"/>
					</linearGradient>
					<path class="st15" d="M494.9,283.5v157.4c0,2.4-2.4,4.5-5.3,4.8l-102.8,10c-3.2,0.3-5.8-1.5-5.8-3.9V287.3
						c0-2.5,2.6-4.6,5.8-4.7l102.8-3.2C492.5,279.3,494.9,281.1,494.9,283.5z"/>
					<linearGradient id="SVGID_15_" gradientUnits="userSpaceOnUse" x1="464.2164" y1="332.0776" x2="360.0457" y2="472.1423">
						<stop  offset="0" style="stop-color:#FFC444"/>
						<stop  offset="0.9964" style="stop-color:#F36F56"/>
					</linearGradient>
					<path class="st16" d="M491.6,292.3v145.9c0,2.2-2.2,4.2-5,4.5l-96.6,9.3c-2.9,0.3-5.4-1.4-5.4-3.7v-152c0-2.3,2.4-4.3,5.4-4.4
						l96.6-3.4C489.3,288.4,491.6,290.1,491.6,292.3z"/>
				</g>
			</g>
			<g>
				<path class="st10" d="M476.2,356.4c0,19.7-15.9,36.7-35.5,38.1c-19.7,1.3-35.8-13.7-35.8-33.5c0-19.8,16-36.9,35.8-38.1
					C460.3,321.6,476.2,336.7,476.2,356.4z"/>
				<linearGradient id="SVGID_16_" gradientUnits="userSpaceOnUse" x1="421.515" y1="357.3808" x2="459.6688" y2="357.3808">
					<stop  offset="0" style="stop-color:#FF9085"/>
					<stop  offset="1" style="stop-color:#FB6FBB"/>
				</linearGradient>
				<path class="st17" d="M439.4,378c-1.5,0.1-3-0.6-3.8-1.9l-13.4-21.6c-1.3-2-0.6-4.8,1.5-6.2c2.1-1.4,4.8-0.9,6.1,1.1l9.3,15
					l12.3-25c1.1-2.2,3.8-3.3,5.9-2.3c2.2,1,3,3.6,1.9,5.8l-15.9,32.4c-0.7,1.5-2.2,2.5-3.8,2.7C439.5,378,439.4,378,439.4,378z"/>
			</g>
			<g class="st18">
				<path class="st10" d="M461.6,374.1c-9.4-18.8-31.2-14.3-39.4-34.8c-4.9-12.2,1.2-18-2.5-32.9c-2.5-10.1-7.9-18.1-14.1-24.4
					l-18.9,0.6c-3.2,0.1-5.8,2.2-5.8,4.7v164.5c0,2.5,2.6,4.2,5.8,3.9l82.7-8c-6.1-8.5-8.7-16.5-9.7-23.5
					C456.9,402.6,469.9,390.7,461.6,374.1z"/>
			</g>
		</g>
		<g>
			<g>
				<g>
					<linearGradient id="SVGID_17_" gradientUnits="userSpaceOnUse" x1="559.2906" y1="443.2744" x2="508.2282" y2="399.7159">
						<stop  offset="0" style="stop-color:#444B8C"/>
						<stop  offset="0.9964" style="stop-color:#26264F"/>
					</linearGradient>
					<path class="st19" d="M547.7,349.5v108.7c0,1.6-1.4,2.1-3,2.2l-54.3,6.7l-0.8,0.1c-1.7,0.2-3.1-1.1-3.1-2.8V351.4
						c0-1.7,1.4-3.1,3.1-3.2l1.1,0l54.5,0.8C546.8,349,547.7,347.9,547.7,349.5z"/>
					
						<linearGradient id="SVGID_18_" gradientUnits="userSpaceOnUse" x1="-1877.9675" y1="1816.7681" x2="-1679.782" y2="1824.1404" gradientTransform="matrix(0 -1 1 0 -1300.0323 -1416.6774)">
						<stop  offset="0" style="stop-color:#444B8C"/>
						<stop  offset="0.9964" style="stop-color:#26264F"/>
					</linearGradient>
					<path class="st20" d="M549.4,349.4v108.7c0,1.6-1.3,3.1-2.9,3.3l-55.2,5.8c-1.7,0.2-3.1-1.1-3.1-2.7v-113
						c0-1.7,1.4-3.1,3.1-3.2l55.2-1.6C548.1,346.5,549.4,347.8,549.4,349.4z"/>
					<linearGradient id="SVGID_19_" gradientUnits="userSpaceOnUse" x1="535.5753" y1="384.4487" x2="469.3201" y2="473.5334">
						<stop  offset="0" style="stop-color:#FFC444"/>
						<stop  offset="0.9964" style="stop-color:#F36F56"/>
					</linearGradient>
					<path class="st21" d="M547.6,355.5v100.7c0,1.5-1.2,2.9-2.7,3l-51.9,5.4c-1.6,0.2-2.9-1-2.9-2.6V357.5c0-1.6,1.3-2.9,2.9-3
						l51.9-1.7C546.4,352.8,547.6,354,547.6,355.5z"/>
				</g>
			</g>
			<g>
				<path class="st10" d="M541.5,400.2c0,11.7-9.4,21.9-21,22.7c-11.6,0.8-21.1-8.1-21.1-19.9c0-11.8,9.5-21.9,21.1-22.7
					C532.1,379.6,541.5,388.5,541.5,400.2z"/>
				<linearGradient id="SVGID_20_" gradientUnits="userSpaceOnUse" x1="509.1787" y1="400.8682" x2="531.7356" y2="400.8682">
					<stop  offset="0" style="stop-color:#FF9085"/>
					<stop  offset="1" style="stop-color:#FB6FBB"/>
				</linearGradient>
				<path class="st22" d="M519.7,413.2c-0.9,0.1-1.8-0.4-2.2-1.1l-7.9-12.8c-0.7-1.2-0.3-2.8,0.9-3.7c1.2-0.8,2.8-0.5,3.6,0.7
					l5.5,8.9l7.3-14.9c0.7-1.3,2.2-2,3.5-1.4c1.3,0.6,1.8,2.1,1.1,3.5l-9.4,19.3C521.6,412.4,520.8,413,519.7,413.2
					C519.8,413.1,519.8,413.1,519.7,413.2z"/>
			</g>
			<g class="st18">
				<path class="st10" d="M531.5,414.5c-5-12.7-18.6-9.7-22.8-22.5c-3.5-10.4,4.2-16.6,1.2-28.6c-1.7-6.8-5.8-11.8-10.1-15.5
					l-8.4,0.2c-1.7,0-3.1,1.5-3.1,3.2v113c0,1.7,1.4,2.9,3.1,2.7l42.3-4.4c-3.4-5.4-4.8-10.2-5.2-14.3
					C526.7,433.6,536.1,426.1,531.5,414.5z"/>
			</g>
		</g>
	</g>
	<g>
		
			<linearGradient id="SVGID_21_" gradientUnits="userSpaceOnUse" x1="-517.1328" y1="137.739" x2="-376.9544" y2="137.739" gradientTransform="matrix(1 0 0 1 918.7108 0)">
			<stop  offset="0" style="stop-color:#444B8C"/>
			<stop  offset="0.9964" style="stop-color:#26264F"/>
		</linearGradient>
		<path class="st23" d="M541.8,142.5c0,37.9-29.7,67.8-67.6,66.6c-39.4-1.2-72.6-35.3-72.6-76c0-40.8,33.2-70.4,72.6-66.3
			C512.1,70.7,541.8,104.5,541.8,142.5z"/>
		
			<linearGradient id="SVGID_22_" gradientUnits="userSpaceOnUse" x1="-404.9353" y1="64.059" x2="-477.9174" y2="225.0711" gradientTransform="matrix(1 0 0 1 918.7108 0)">
			<stop  offset="0" style="stop-color:#AA80F9"/>
			<stop  offset="0.9964" style="stop-color:#6165D7"/>
		</linearGradient>
		<path class="st24" d="M552,139.2c0,37.9-29.7,67.8-67.6,66.6c-39.4-1.2-72.6-35.3-72.6-76c0-40.8,33.2-70.4,72.6-66.3
			C522.3,67.4,552,101.3,552,139.2z"/>
		
			<linearGradient id="SVGID_23_" gradientUnits="userSpaceOnUse" x1="-482.0669" y1="206.6422" x2="-444.0428" y2="146.2509" gradientTransform="matrix(1 0 0 1 918.7108 0)">
			<stop  offset="0" style="stop-color:#AA80F9"/>
			<stop  offset="0.9964" style="stop-color:#6165D7"/>
		</linearGradient>
		<path class="st25" d="M549,139c0,36.3-28.4,64.7-64.6,63.6c-37.6-1.2-69.2-33.7-69.2-72.6c0-38.8,31.6-67.1,69.2-63.2
			C520.6,70.4,549,102.7,549,139z"/>
		<path class="st26" d="M545.9,138.8c0,31.8-23,57.3-53.6,60.2c-2.6,0.2-5.2,0.3-7.9,0.2c-35.7-1.2-65.7-32.1-65.7-69
			c0-32.1,22.7-56.6,52.1-60c4.4-0.5,9-0.6,13.6-0.1C518.9,73.6,545.9,104.3,545.9,138.8z"/>
		
			<linearGradient id="SVGID_24_" gradientUnits="userSpaceOnUse" x1="-465.2657" y1="117.7358" x2="-408.5665" y2="238.0974" gradientTransform="matrix(1 0 0 1 918.7108 0)">
			<stop  offset="0" style="stop-color:#AA80F9"/>
			<stop  offset="0.9964" style="stop-color:#6165D7"/>
		</linearGradient>
		<path class="st27" d="M492.3,199c-2.6,0.2-5.2,0.3-7.9,0.2c-35.7-1.2-65.7-32.1-65.7-69c0-32.1,22.7-56.6,52.1-60
			c9.9,7.8,18.8,17.7,20.4,29.4c2.5,19.2-16.7,28-18.8,48.8C470.6,165.6,478.9,184.8,492.3,199z"/>
		<g>
			<defs>
				<path id="SVGID_25_" d="M539.6,138.4c0,31.1-24.4,55.5-55.4,54.5c-32.2-1.1-59.2-29-59.2-62.2c0-33.3,27-57.5,59.2-54.2
					C515.3,79.6,539.6,107.2,539.6,138.4z"/>
			</defs>
			<clipPath id="SVGID_26_">
				<use xlink:href="#SVGID_25_"  style="overflow:visible;"/>
			</clipPath>
		</g>
	</g>
	<g>
		<path class="st10" d="M500.3,151.5l-3.5-0.7c0-1.6-0.1-3.2-0.4-4.8l3.4-1.2c0.9-0.3,1.4-1.3,1.1-2.3l-2-5.8
			c-0.3-0.9-1.3-1.4-2.2-1.1l-3.4,1.2c-0.8-1.4-1.7-2.8-2.7-4l2.4-2.8c0.6-0.7,0.5-1.9-0.2-2.5l-4.6-4.1c-0.7-0.7-1.9-0.6-2.5,0.2
			l-2.4,2.8c-1.4-0.9-2.9-1.6-4.4-2.2l0.7-3.6c0.2-1-0.5-1.9-1.4-2.1l-6.1-1.2c-1-0.2-1.9,0.4-2.1,1.4l-0.7,3.6
			c-1.6,0-3.3,0.1-4.9,0.3l-1.2-3.5c-0.3-0.9-1.4-1.5-2.3-1.1l-5.8,2c-0.9,0.3-1.4,1.3-1.1,2.3l1.2,3.5c-1.4,0.8-2.8,1.7-4.1,2.8
			l-2.8-2.4c-0.8-0.7-1.9-0.6-2.5,0.2l-4,4.7c-0.6,0.8-0.5,1.9,0.2,2.6l2.8,2.4c-0.8,1.4-1.6,2.9-2.1,4.5l-3.5-0.7
			c-1-0.2-1.9,0.4-2.1,1.4l-1.1,6.1c-0.2,1,0.5,1.9,1.5,2.1l3.5,0.7c0,1.7,0.1,3.3,0.4,5l-3.3,1.2c-0.9,0.3-1.4,1.3-1.1,2.3l2.1,5.8
			c0.3,0.9,1.4,1.4,2.3,1.1l3.3-1.2c0.8,1.4,1.8,2.8,2.9,4.1l-2.3,2.7c-0.6,0.7-0.5,1.9,0.2,2.5l4.7,4c0.8,0.6,1.9,0.6,2.5-0.2
			l2.3-2.7c1.4,0.9,2.9,1.6,4.5,2.1l-0.6,3.4c-0.2,1,0.5,1.9,1.4,2.1l6,1.1c1,0.2,1.9-0.5,2.1-1.4l0.6-3.4c1.6,0,3.3-0.1,4.9-0.4
			l1.2,3.3c0.3,0.9,1.3,1.4,2.2,1.1l5.7-2c0.9-0.3,1.4-1.3,1.1-2.2l-1.2-3.3c1.4-0.8,2.7-1.7,4-2.8l2.7,2.3c0.7,0.6,1.8,0.5,2.5-0.2
			l3.9-4.6c0.6-0.7,0.5-1.9-0.2-2.5l-2.7-2.3c0.8-1.4,1.5-2.9,2.1-4.4l3.5,0.7c0.9,0.2,1.9-0.4,2-1.4l1.1-6
			C501.9,152.6,501.3,151.7,500.3,151.5z M482.6,162.2c-6.4,7.5-17.7,8.3-25.2,1.9c-7.6-6.5-8.6-18-2.1-25.5
			c6.5-7.6,17.8-8.3,25.4-1.7C488.1,143.3,489,154.7,482.6,162.2z"/>
		<path class="st10" d="M522.8,104.4l-2-0.4c0-0.9-0.1-1.8-0.3-2.6l1.9-0.6c0.5-0.2,0.8-0.7,0.6-1.2l-1.2-3.2
			c-0.2-0.5-0.8-0.8-1.3-0.6l-1.9,0.6c-0.5-0.8-1-1.5-1.6-2.2l1.3-1.5c0.3-0.4,0.3-1-0.1-1.4l-2.6-2.2c-0.4-0.4-1-0.3-1.4,0.1
			l-1.3,1.5c-0.8-0.5-1.6-0.9-2.4-1.2l0.3-2c0.1-0.5-0.3-1-0.8-1.2l-3.4-0.7c-0.5-0.1-1,0.2-1.1,0.8l-0.3,2c-0.9,0-1.8,0-2.7,0.2
			l-0.7-1.9c-0.2-0.5-0.8-0.8-1.3-0.6l-3.2,1.1c-0.5,0.2-0.8,0.7-0.6,1.2l0.7,1.9c-0.8,0.4-1.5,0.9-2.2,1.5l-1.6-1.3
			c-0.4-0.4-1.1-0.3-1.4,0.1l-2.2,2.5c-0.3,0.4-0.3,1,0.2,1.4l1.6,1.3c-0.4,0.8-0.8,1.6-1.1,2.4l-2-0.4c-0.5-0.1-1.1,0.2-1.1,0.8
			l-0.5,3.3c-0.1,0.5,0.3,1,0.8,1.1l1.9,0.4c0,0.9,0.1,1.8,0.3,2.7l-1.8,0.6c-0.5,0.2-0.8,0.7-0.6,1.2l1.2,3.2
			c0.2,0.5,0.8,0.8,1.3,0.6l1.8-0.6c0.5,0.8,1,1.5,1.6,2.2l-1.2,1.4c-0.3,0.4-0.3,1,0.2,1.4l2.7,2.2c0.4,0.3,1,0.3,1.4-0.1l1.2-1.4
			c0.8,0.5,1.6,0.9,2.5,1.2l-0.3,1.8c-0.1,0.5,0.3,1,0.8,1.1l3.3,0.6c0.5,0.1,1-0.2,1.1-0.8l0.3-1.9c0.9,0,1.8,0,2.7-0.2l0.7,1.8
			c0.2,0.5,0.8,0.8,1.3,0.6l3.1-1.1c0.5-0.2,0.8-0.7,0.6-1.2l-0.7-1.8c0.8-0.4,1.5-0.9,2.2-1.5l1.5,1.3c0.4,0.3,1,0.3,1.4-0.1
			l2.1-2.5c0.3-0.4,0.3-1-0.1-1.3l-1.5-1.3c0.4-0.8,0.8-1.5,1.1-2.4l1.9,0.4c0.5,0.1,1-0.2,1.1-0.8l0.5-3.2
			C523.7,105,523.3,104.5,522.8,104.4z M513.1,110.1c-3.4,4-9.7,4.4-13.9,0.9c-4.3-3.6-5-9.7-1.5-13.8c3.5-4.1,9.7-4.4,14-0.8
			C515.9,99.9,516.6,106.1,513.1,110.1z"/>
	</g>
	<g>
		<linearGradient id="SVGID_27_" gradientUnits="userSpaceOnUse" x1="274.364" y1="253.476" x2="276.1162" y2="901.5944">
			<stop  offset="0" style="stop-color:#AA80F9"/>
			<stop  offset="0.9964" style="stop-color:#6165D7"/>
		</linearGradient>
		<path class="st28" d="M274.3,232.3c-1.3,0-2.3-1-2.3-2.3v-3.5c0-1.3,1-2.3,2.3-2.3c1.3,0,2.3,1,2.3,2.3v3.5
			C276.6,231.2,275.6,232.3,274.3,232.3z"/>
	</g>
	<g>
		<linearGradient id="SVGID_28_" gradientUnits="userSpaceOnUse" x1="274.5014" y1="253.4756" x2="276.2536" y2="901.5939">
			<stop  offset="0" style="stop-color:#AA80F9"/>
			<stop  offset="0.9964" style="stop-color:#6165D7"/>
		</linearGradient>
		<path class="st29" d="M274.3,218.3c-1.3,0-2.3-1-2.3-2.3v-7c0-1.3,1-2.3,2.3-2.3c1.3,0,2.3,1,2.3,2.3v7
			C276.6,217.2,275.6,218.3,274.3,218.3z M274.3,200.7c-1.3,0-2.3-1-2.3-2.3v-7c0-1.3,1-2.3,2.3-2.3c1.3,0,2.3,1,2.3,2.3v7
			C276.6,199.7,275.6,200.7,274.3,200.7z M274.3,183.2c-1.3,0-2.3-1-2.3-2.3v-7c0-1.3,1-2.3,2.3-2.3c1.3,0,2.3,1,2.3,2.3v7
			C276.6,182.2,275.6,183.2,274.3,183.2z M274.3,165.7c-1.3,0-2.3-1-2.3-2.3v-7c0-1.3,1-2.3,2.3-2.3c1.3,0,2.3,1,2.3,2.3v7
			C276.6,164.7,275.6,165.7,274.3,165.7z M274.3,148.2c-1.3,0-2.3-1-2.3-2.3v-7c0-1.3,1-2.3,2.3-2.3c1.3,0,2.3,1,2.3,2.3v7
			C276.6,147.2,275.6,148.2,274.3,148.2z"/>
	</g>
	<g>
		<linearGradient id="SVGID_29_" gradientUnits="userSpaceOnUse" x1="276.3949" y1="253.4701" x2="278.1471" y2="901.5884">
			<stop  offset="0" style="stop-color:#AA80F9"/>
			<stop  offset="0.9964" style="stop-color:#6165D7"/>
		</linearGradient>
		<path class="st30" d="M274.3,128.9c-1.3,0-2.3-1-2.3-2.3v-3.5c0-1.3,1-2.3,2.3-2.3h3.5c1.3,0,2.3,1,2.3,2.3s-1,2.3-2.3,2.3h-1.2
			v1.2C276.6,127.9,275.6,128.9,274.3,128.9z"/>
	</g>
	<g>
		<linearGradient id="SVGID_30_" gradientUnits="userSpaceOnUse" x1="333.9067" y1="253.3166" x2="335.6589" y2="901.4434">
			<stop  offset="0" style="stop-color:#AA80F9"/>
			<stop  offset="0.9964" style="stop-color:#6165D7"/>
		</linearGradient>
		<path class="st31" d="M379.4,125.4h-7c-1.3,0-2.3-1-2.3-2.3s1-2.3,2.3-2.3h7c1.3,0,2.3,1,2.3,2.3S380.7,125.4,379.4,125.4z
			 M362.5,125.4h-7c-1.3,0-2.3-1-2.3-2.3s1-2.3,2.3-2.3h7c1.3,0,2.3,1,2.3,2.3S363.7,125.4,362.5,125.4z M345.5,125.4h-7
			c-1.3,0-2.3-1-2.3-2.3s1-2.3,2.3-2.3h7c1.3,0,2.3,1,2.3,2.3S346.8,125.4,345.5,125.4z M328.6,125.4h-7c-1.3,0-2.3-1-2.3-2.3
			s1-2.3,2.3-2.3h7c1.3,0,2.3,1,2.3,2.3S329.9,125.4,328.6,125.4z M311.7,125.4h-7c-1.3,0-2.3-1-2.3-2.3s1-2.3,2.3-2.3h7
			c1.3,0,2.3,1,2.3,2.3S313,125.4,311.7,125.4z M294.7,125.4h-7c-1.3,0-2.3-1-2.3-2.3s1-2.3,2.3-2.3h7c1.3,0,2.3,1,2.3,2.3
			S296,125.4,294.7,125.4z"/>
	</g>
	<g>
		<linearGradient id="SVGID_31_" gradientUnits="userSpaceOnUse" x1="391.4137" y1="253.1595" x2="393.1659" y2="901.2767">
			<stop  offset="0" style="stop-color:#AA80F9"/>
			<stop  offset="0.9964" style="stop-color:#6165D7"/>
		</linearGradient>
		<path class="st32" d="M392.8,125.4h-3.5c-1.3,0-2.3-1-2.3-2.3s1-2.3,2.3-2.3h3.5c1.3,0,2.3,1,2.3,2.3S394.1,125.4,392.8,125.4z"/>
	</g>
	<linearGradient id="SVGID_32_" gradientUnits="userSpaceOnUse" x1="440.6697" y1="253.0266" x2="442.4219" y2="901.1451">
		<stop  offset="0" style="stop-color:#AA80F9"/>
		<stop  offset="0.9964" style="stop-color:#6165D7"/>
	</linearGradient>
	<path class="st33" d="M440.7,315.8c-1.3,0-2.3-1-2.3-2.3v-7c0-1.3,1-2.3,2.3-2.3s2.3,1,2.3,2.3v7C443,314.7,442,315.8,440.7,315.8z
		 M440.7,298.2c-1.3,0-2.3-1-2.3-2.3v-7c0-1.3,1-2.3,2.3-2.3s2.3,1,2.3,2.3v7C443,297.2,442,298.2,440.7,298.2z M440.7,280.7
		c-1.3,0-2.3-1-2.3-2.3v-7c0-1.3,1-2.3,2.3-2.3s2.3,1,2.3,2.3v7C443,279.7,442,280.7,440.7,280.7z M440.7,263.2
		c-1.3,0-2.3-1-2.3-2.3v-7c0-1.3,1-2.3,2.3-2.3s2.3,1,2.3,2.3v7C443,262.2,442,263.2,440.7,263.2z M440.7,245.7
		c-1.3,0-2.3-1-2.3-2.3v-7c0-1.3,1-2.3,2.3-2.3s2.3,1,2.3,2.3v7C443,244.7,442,245.7,440.7,245.7z M440.7,228.2
		c-1.3,0-2.3-1-2.3-2.3v-7c0-1.3,1-2.3,2.3-2.3s2.3,1,2.3,2.3v7C443,227.1,442,228.2,440.7,228.2z M440.7,210.7
		c-1.3,0-2.3-1-2.3-2.3V206c0-1.3,1-2.3,2.3-2.3s2.3,1,2.3,2.3v2.3C443,209.6,442,210.7,440.7,210.7z"/>
	<linearGradient id="SVGID_33_" gradientUnits="userSpaceOnUse" x1="520.5673" y1="252.8106" x2="522.3196" y2="900.9296">
		<stop  offset="0" style="stop-color:#AA80F9"/>
		<stop  offset="0.9964" style="stop-color:#6165D7"/>
	</linearGradient>
	<path class="st34" d="M520.7,376.5c-1.3,0-2.3-1-2.3-2.3v-7c0-1.3,1-2.3,2.3-2.3s2.3,1,2.3,2.3v7C523,375.4,522,376.5,520.7,376.5z
		 M520.7,359c-1.3,0-2.3-1-2.3-2.3v-7c0-1.3,1-2.3,2.3-2.3s2.3,1,2.3,2.3v7C523,357.9,522,359,520.7,359z M520.7,341.5
		c-1.3,0-2.3-1-2.3-2.3v-7c0-1.3,1-2.3,2.3-2.3s2.3,1,2.3,2.3v7C523,340.4,522,341.5,520.7,341.5z M520.7,323.9
		c-1.3,0-2.3-1-2.3-2.3v-7c0-1.3,1-2.3,2.3-2.3s2.3,1,2.3,2.3v7C523,322.9,522,323.9,520.7,323.9z M520.7,306.4
		c-1.3,0-2.3-1-2.3-2.3v-7c0-1.3,1-2.3,2.3-2.3s2.3,1,2.3,2.3v7C523,305.4,522,306.4,520.7,306.4z M520.7,288.9
		c-1.3,0-2.3-1-2.3-2.3v-7c0-1.3,1-2.3,2.3-2.3s2.3,1,2.3,2.3v7C523,287.9,522,288.9,520.7,288.9z M520.7,271.4
		c-1.3,0-2.3-1-2.3-2.3v-7c0-1.3,1-2.3,2.3-2.3s2.3,1,2.3,2.3v7C523,270.3,522,271.4,520.7,271.4z M520.7,253.9
		c-1.3,0-2.3-1-2.3-2.3v-7c0-1.3,1-2.3,2.3-2.3s2.3,1,2.3,2.3v7C523,252.8,522,253.9,520.7,253.9z M520.7,236.4
		c-1.3,0-2.3-1-2.3-2.3v-7c0-1.3,1-2.3,2.3-2.3s2.3,1,2.3,2.3v7C523,235.3,522,236.4,520.7,236.4z M520.7,218.8
		c-1.3,0-2.3-1-2.3-2.3v-7c0-1.3,1-2.3,2.3-2.3s2.3,1,2.3,2.3v7C523,217.8,522,218.8,520.7,218.8z"/>
	<g>
		<linearGradient id="SVGID_34_" gradientUnits="userSpaceOnUse" x1="233.8165" y1="303.6625" x2="228.2701" y2="400.8706">
			<stop  offset="0" style="stop-color:#AA80F9"/>
			<stop  offset="0.9964" style="stop-color:#6165D7"/>
		</linearGradient>
		<path class="st35" d="M249.3,347.3c4.6-2.5,3.2-16.9-3-27.1c-8.8-14.4-28.2-21.2-32.1-17c-4.1,4.4,7.6,20.8,9.5,23.5
			C230.6,336.4,243.9,350.3,249.3,347.3z"/>
		
			<linearGradient id="SVGID_35_" gradientUnits="userSpaceOnUse" x1="-557.8591" y1="568.1973" x2="-543.9951" y2="568.1973" gradientTransform="matrix(-0.9642 0.2651 0.2651 0.9642 -384.878 38.9532)">
			<stop  offset="0" style="stop-color:#444B8C"/>
			<stop  offset="0.9964" style="stop-color:#26264F"/>
		</linearGradient>
		<path class="st36" d="M290.8,439.1c-0.9,0.9-1.1,2.7-0.3,3.5c0.7,0.8,1.8,0.2,4.9,0.3c3.3,0.1,4.2,0.9,6.5,0.3
			c0.9-0.3,2.5-0.9,2.5-1.5c0-0.5-0.8-0.7-3.6-1.6c-3.9-1.3-3.9-1.4-4.7-1.5C294,438.2,291.9,437.8,290.8,439.1z"/>
		
			<linearGradient id="SVGID_36_" gradientUnits="userSpaceOnUse" x1="-707.8976" y1="548.2797" x2="-702.0511" y2="536.179" gradientTransform="matrix(-0.9802 0.1979 0.1979 0.9802 -507.0278 43.7254)">
			<stop  offset="0" style="stop-color:#FFC444"/>
			<stop  offset="0.9964" style="stop-color:#F36F56"/>
		</linearGradient>
		<path class="st37" d="M292.9,433.6l1.7,5.6c-0.1,0.3-1.8,1.3-3.3,0.7l-2.5-5.4L292.9,433.6z"/>
		
			<linearGradient id="SVGID_37_" gradientUnits="userSpaceOnUse" x1="-536.1395" y1="567.3036" x2="-522.2754" y2="567.3036" gradientTransform="matrix(-0.9642 0.2651 0.2651 0.9642 -384.878 38.9532)">
			<stop  offset="0" style="stop-color:#444B8C"/>
			<stop  offset="0.9964" style="stop-color:#26264F"/>
		</linearGradient>
		<path class="st38" d="M269.6,444c-0.9,0.9-1.1,2.7-0.3,3.5c0.7,0.8,1.8,0.2,4.9,0.3c3.3,0.1,4.2,0.9,6.5,0.3
			c0.9-0.3,2.5-0.9,2.5-1.5c0-0.5-0.8-0.7-3.6-1.6c-3.9-1.3-3.9-1.4-4.7-1.5C272.8,443.1,270.7,442.7,269.6,444z"/>
		
			<linearGradient id="SVGID_38_" gradientUnits="userSpaceOnUse" x1="-686.168" y1="548.8876" x2="-680.3217" y2="536.7869" gradientTransform="matrix(-0.9802 0.1979 0.1979 0.9802 -507.0278 43.7254)">
			<stop  offset="0" style="stop-color:#FFC444"/>
			<stop  offset="0.9964" style="stop-color:#F36F56"/>
		</linearGradient>
		<path class="st39" d="M271.7,438.5l1.7,5.6c-0.1,0.3-1.8,1.3-3.3,0.7l-2.5-5.4L271.7,438.5z"/>
		<linearGradient id="SVGID_39_" gradientUnits="userSpaceOnUse" x1="209.4853" y1="302.2743" x2="203.9389" y2="399.4823">
			<stop  offset="0" style="stop-color:#AA80F9"/>
			<stop  offset="0.9964" style="stop-color:#6165D7"/>
		</linearGradient>
		<path class="st40" d="M177.5,304.2c5.3-1.8,13.4-3.9,23.4-3.9c11.3,0,20.3,0,26.6,5.3c15.2,12.9-1.8,43.9,6.9,66.8
			c1,2.5,3.7,10.5,1.3,19c-0.4,1.6-1.4,3-2.9,5.3c-9.2,13.6-35,14.7-46.8,2.9c-6.2-6.2-11.9-5.1-12-12.2
			C173.4,359.3,177.7,331.2,177.5,304.2z"/>
		<linearGradient id="SVGID_40_" gradientUnits="userSpaceOnUse" x1="181.4152" y1="379.3197" x2="214.8712" y2="336.9566">
			<stop  offset="0" style="stop-color:#AA80F9"/>
			<stop  offset="0.9964" style="stop-color:#6165D7"/>
		</linearGradient>
		<path class="st41" d="M184,338c-2.1-5.9,0.1-12.6-4.7-15.5c-1.8-1.1-3.9-1.5-6.3-1.5c0.3,20.7,0.7,41.3,1.2,62.9
			c0.2,7.1,1.1,7.5,8,13.7c8,7.2,21.8,9.6,33.6,7.2c-15.5-9.5-26.5-19.4-24.9-27.8c1.8-9.8,19.9-12.8,19.1-19.8
			C209.2,349.8,188.7,350.9,184,338z"/>
		<linearGradient id="SVGID_41_" gradientUnits="userSpaceOnUse" x1="176.9634" y1="300.4187" x2="171.417" y2="397.627">
			<stop  offset="0" style="stop-color:#AA80F9"/>
			<stop  offset="0.9964" style="stop-color:#6165D7"/>
		</linearGradient>
		<path class="st42" d="M182.4,304.8c-5.2-3.5-17.7,5.3-24.7,13.1c-3.2,3.6-14.5,16.2-11.7,33.2c0.5,2.8,2.6,15.7,13.6,22
			c9.9,5.7,23.3,4.2,34-3.8c1.5-1.3,2.9-2.6,4.4-3.9c1.4-1.6,2.9-3.1,4.3-4.7c-2.3-1.9-6.1-4.6-11.5-6.3c-8.2-2.7-13.6,1.3-15.6-1.3
			c-2.4-3.2,5-9.1,6.9-22.7C182.6,326.8,188.2,308.7,182.4,304.8z"/>
		<linearGradient id="SVGID_42_" gradientUnits="userSpaceOnUse" x1="229.3305" y1="430.2131" x2="275.9086" y2="371.2342">
			<stop  offset="0" style="stop-color:#FF9085"/>
			<stop  offset="1" style="stop-color:#FB6FBB"/>
		</linearGradient>
		<path class="st43" d="M191,393.2c-3.4,11.2,2.9,6.6,15.9,0.3c13.7-6.7,43.5-16.4,56.4-3.7c9.6,9.4,2.8,24.3,17.6,40.7
			c2.6,2.9,5.1,4.9,6.6,6.1c2.7-1.1,5.3-2.2,8-3.3c1-6.1,4.4-29.7-10.5-50.9c-3.6-5.1-10.4-14.9-22.1-19.1
			C231.3,352.1,194.1,382.9,191,393.2z"/>
		<linearGradient id="SVGID_43_" gradientUnits="userSpaceOnUse" x1="257.0652" y1="375.7395" x2="203.0256" y2="435.5987">
			<stop  offset="0" style="stop-color:#FF9085"/>
			<stop  offset="1" style="stop-color:#FB6FBB"/>
		</linearGradient>
		<path class="st44" d="M178.4,382.8c-2.2,6.4-0.2,13.8,3.4,18.4c8.1,10.2,26.2,9.1,37.5,5.4c13.8-4.6,16.9-12.9,22.3-10.9
			c8.4,3.2,2.4,23.9,17.6,40.7c2.6,2.9,5.1,4.9,6.6,6.1c2.7-1.1,5.3-2.2,8-3.3c2-14.3,0.5-25.7-1-33c-1.8-8.4-3.3-15.9-9.2-23.1
			c-7.3-9-16.9-12.1-22.4-13.9C218,361.9,184.1,366.1,178.4,382.8z"/>
		<g>
			<linearGradient id="SVGID_44_" gradientUnits="userSpaceOnUse" x1="231.6397" y1="391.3256" x2="224.0524" y2="369.8281">
				<stop  offset="0" style="stop-color:#311944"/>
				<stop  offset="1" style="stop-color:#893976"/>
			</linearGradient>
			<polygon class="st45" points="253.7,365.4 191,364.5 207.6,372.5 253.8,369.5 			"/>
			<linearGradient id="SVGID_45_" gradientUnits="userSpaceOnUse" x1="198.4941" y1="360.1791" x2="201.2761" y2="379.4003">
				<stop  offset="0" style="stop-color:#311944"/>
				<stop  offset="1" style="stop-color:#893976"/>
			</linearGradient>
			<path class="st46" d="M188.7,366.1L188.7,366.1c0,1.2,0.7,2.2,1.8,2.6l20,7.9l0.1-5.4l-19.8-6.7
				C189.9,364.1,188.7,365,188.7,366.1z"/>
		</g>
		<linearGradient id="SVGID_46_" gradientUnits="userSpaceOnUse" x1="197.6596" y1="364.3901" x2="213.3829" y2="364.3901">
			<stop  offset="0" style="stop-color:#FFC444"/>
			<stop  offset="0.9964" style="stop-color:#F36F56"/>
		</linearGradient>
		<path class="st47" d="M197.7,363.6c-0.4-0.1,1.9-4.6,3.6-4.1c1.8,0.5,10.5,5.5,11.2,7.6c0.8,2.1,0.8,2.1,0.8,2.1s-3.8,0.3-6.1-0.5
			C204.9,367.9,200.8,364.3,197.7,363.6z"/>
		<g>
			<g>
				<linearGradient id="SVGID_47_" gradientUnits="userSpaceOnUse" x1="253.6184" y1="361.8625" x2="238.8259" y2="340.8572">
					<stop  offset="0" style="stop-color:#444B8C"/>
					<stop  offset="0.9964" style="stop-color:#26264F"/>
				</linearGradient>
				<path class="st48" d="M212.4,332.9l-4.4,40.3c-0.2,1.4,1.8,3.5,3.2,3.4l64.9-4c1.1-0.1,2-0.8,2.1-1.9l8.1-38.9
					c0.2-1.4-2.3-2.9-3.7-2.8l-68,1.9C213.4,330.9,212.5,331.8,212.4,332.9z"/>
				<linearGradient id="SVGID_48_" gradientUnits="userSpaceOnUse" x1="225.2438" y1="396.626" x2="257.6165" y2="330.869">
					<stop  offset="0" style="stop-color:#311944"/>
					<stop  offset="1" style="stop-color:#893976"/>
				</linearGradient>
				<path class="st49" d="M213.9,334.1l-4.4,40.3c-0.2,1.4,1,2.6,2.4,2.5l65.7-3.1c1.1-0.1,2-0.8,2.1-1.9l6.7-39.1
					c0.2-1.4-0.9-2.7-2.3-2.7l-68,1.9C214.9,332.1,214,333,213.9,334.1z"/>
			</g>
			<linearGradient id="SVGID_49_" gradientUnits="userSpaceOnUse" x1="209.4298" y1="354.4211" x2="280.5483" y2="354.4211">
				<stop  offset="0" style="stop-color:#311944"/>
				<stop  offset="1" style="stop-color:#893976"/>
			</linearGradient>
			<path class="st50" d="M252.4,364.3c-5.7-2.4-3.7-7.1-10.5-12.8c-8.9-7.6-18-4.3-21.2-10.2c-1-1.8-1.5-4.7,0.3-9.3l-4.9,0.1
				c-1.1,0-2.1,0.9-2.2,2l-4.4,40.3c-0.2,1.4,1,2.6,2.4,2.5l65.7-3.1c1.1-0.1,2-0.8,2.1-1.9l0.9-5.4c-2-1.1-4.4-2.1-7.2-2.7
				C263.8,361.9,259,367.1,252.4,364.3z"/>
		</g>
		<g>
			
				<linearGradient id="SVGID_50_" gradientUnits="userSpaceOnUse" x1="532.0972" y1="-202.8332" x2="533.6633" y2="-244.5504" gradientTransform="matrix(0.917 0.3988 -0.3988 0.917 -373.5243 291.2083)">
				<stop  offset="0" style="stop-color:#FFC444"/>
				<stop  offset="0.9964" style="stop-color:#F36F56"/>
			</linearGradient>
			<path class="st51" d="M202,284.9c0,4.2-0.4,7.5-0.9,9.8c-0.5,2.6-0.9,3.3-1.3,3.8c-0.7,0.8-1.8,1.5-7.7,3
				c-3.3,0.8-3.7,0.8-3.7,1.1c-0.4,1.6,8.5,6.9,17.7,5.7c5.6-0.8,10.7-4,10.4-5.7c-0.3-1.7-5.9-0.8-7.6-3.8
				c-1.2-2.1,0.1-5.2,1.7-7.7C209,288.2,203.5,287.7,202,284.9z"/>
			<g>
				
					<linearGradient id="SVGID_51_" gradientUnits="userSpaceOnUse" x1="-1194.6963" y1="12.5492" x2="-1205.3146" y2="-14.4194" gradientTransform="matrix(-0.9687 -0.2485 -0.2485 0.9687 -960.4593 -3.8543)">
					<stop  offset="0" style="stop-color:#311944"/>
					<stop  offset="1" style="stop-color:#6B3976"/>
				</linearGradient>
				<path class="st52" d="M213.8,290.2c1.7-1.4,2.6-4.3,1.6-6.6c-0.8-1.9-2.8-2.7-4-3.1c-3.4-1.3-8.1-1-10.5,1.8
					c-1.4,1.7-0.5,6.1-0.3,6.9c0.1,0.9,0.7,1.3,1.1,2.1c0.6,1,1.5,2.7,3,5.5c0.3-0.6,0.8-1.4,1.4-2.1c0.2-0.3,1.2-1.5,2.4-2.3
					C210.8,290.5,212.1,291.5,213.8,290.2z"/>
				
					<linearGradient id="SVGID_52_" gradientUnits="userSpaceOnUse" x1="-448.8127" y1="11.7498" x2="-449.3011" y2="51.0957" gradientTransform="matrix(0.982 0.1887 -0.1887 0.982 650.5309 361.8032)">
					<stop  offset="0" style="stop-color:#FFC444"/>
					<stop  offset="0.9964" style="stop-color:#F36F56"/>
				</linearGradient>
				<path class="st53" d="M202.2,294c0,0,1.3,4.3,5.9,5.2c4.1,0.8,7.1-8.2,5-10.8c-0.7-0.9-2.4-1.6-3.9-1.6c-0.9,0-1.3,0.3-2.7,0.3
					c-1.3,0-1.7-0.2-2.1,0c-0.6,0.3-1.2,1.2-1.1,4c-0.6-1-1.4-1.5-2.2-1.4c-0.1,0-0.4,0.1-0.7,0.4
					C199.7,291.1,200.3,292.7,202.2,294z"/>
				
					<linearGradient id="SVGID_53_" gradientUnits="userSpaceOnUse" x1="-1197.9404" y1="13.8402" x2="-1208.5692" y2="-13.1548" gradientTransform="matrix(-0.9687 -0.2485 -0.2485 0.9687 -960.4593 -3.8543)">
					<stop  offset="0" style="stop-color:#311944"/>
					<stop  offset="1" style="stop-color:#6B3976"/>
				</linearGradient>
				<path class="st54" d="M204.4,286.6c0.2,0.2-0.6,0.8-0.9,1.8c-0.6,2,0.8,4.9,2.8,5.7c1.2,0.4,1.7-0.2,3.8,0.1
					c1.3,0.2,2.3,0.6,2.9,0.9c0.1,2.4-1.1,4.4-2.8,5c-1.9,0.7-3.7-0.5-4.5-1c-0.5-0.3-2.2-1.4-2.7-3.3c-0.5-2,0.7-2.8-0.1-4.3
					c-0.4-0.7-1.1-1.2-1.5-2.5c-0.1-0.4-0.2-0.7-0.2-0.9C202.4,287.3,204.2,286.3,204.4,286.6z"/>
				
					<linearGradient id="SVGID_54_" gradientUnits="userSpaceOnUse" x1="-1208.3431" y1="-2.4256" x2="-1207.7904" y2="2.5023" gradientTransform="matrix(-0.9687 -0.2485 -0.2485 0.9687 -960.4593 -3.8543)">
					<stop  offset="0" style="stop-color:#FFC444"/>
					<stop  offset="1" style="stop-color:#F36F56"/>
				</linearGradient>
				<path class="st55" d="M211.3,295.6c0,0-1,0.2-2.5-0.3c-0.1,0-0.2,0-0.2,0c-0.1,0.1,0.7,1,1.7,1c0.7,0,1.3-0.5,1.3-0.7
					C211.6,295.6,211.4,295.6,211.3,295.6z"/>
			</g>
		</g>
	</g>
</g>
</svg>
