<?xml version="1.0" encoding="utf-8"?>
<!-- Generator: Adobe Illustrator 23.0.3, SVG Export Plug-In . SVG Version: 6.00 Build 0)  -->
<svg version="1.1" id="Layer_1" xmlns="http://www.w3.org/2000/svg" xmlns:xlink="http://www.w3.org/1999/xlink" x="0px" y="0px"
	 viewBox="0 0 648 470" style="enable-background:new 0 0 648 470;" xml:space="preserve">
<style type="text/css">
	.st0{fill:#ECECEC;}
	.st1{fill:#F5F5F5;}
	.st2{fill:#E1E1E1;}
	.st3{fill:#007CFF;}
	.st4{fill:#1A2E35;}
	.st5{fill:#FFFFFF;}
	.st6{opacity:0.2;}
	.st7{opacity:0.8;fill:#1A2E35;}
	.st8{opacity:0.8;}
	.st9{opacity:0.8;fill:#FFFFFF;}
	.st10{fill:#E27B62;}
	.st11{opacity:0.1;enable-background:new    ;}
	.st12{fill:#D14C38;}
	.st13{opacity:0.2;enable-background:new    ;}
	.st14{opacity:0.4;}
	.st15{opacity:0.3;enable-background:new    ;}
	.st16{fill:#CC7A63;}
	.st17{fill:#BB6953;}
	.st18{opacity:0.1;}
	.st19{opacity:0.2;fill:#FFFFFF;}
</style>
<g>
	<g>
		<rect x="537.1" y="437.9" class="st0" width="42.1" height="0.3"/>
		<rect x="417.2" y="441.4" class="st0" width="11.1" height="0.3"/>
		<rect x="511.4" y="426.1" class="st0" width="24.4" height="0.3"/>
		<rect x="73.7" y="428.2" class="st0" width="54.9" height="0.3"/>
		<rect x="140" y="428.2" class="st0" width="8.1" height="0.3"/>
		<rect x="174.2" y="433.6" class="st0" width="119.2" height="0.3"/>
		<path class="st0" d="M308.5,360.7H62.9c-4,0-7.3-3.3-7.3-7.3V8.2c0-4,3.3-7.3,7.3-7.3h245.6c4,0,7.3,3.3,7.3,7.3v345.2
			C315.7,357.5,312.5,360.7,308.5,360.7z M62.9,1.3c-3.8,0-6.9,3.1-6.9,6.9v345.2c0,3.8,3.1,6.9,6.9,6.9h245.6
			c3.8,0,6.9-3.1,6.9-6.9V8.2c0-3.8-3.1-6.9-6.9-6.9H62.9z"/>
		<path class="st0" d="M583.6,360.7H338c-4,0-7.3-3.3-7.3-7.3V8.2c0-4,3.3-7.3,7.3-7.3h245.6c4,0,7.3,3.3,7.3,7.3v345.2
			C590.8,357.5,587.6,360.7,583.6,360.7z M338,1.3c-3.8,0-6.9,3.1-6.9,6.9v345.2c0,3.8,3.1,6.9,6.9,6.9h245.6c3.8,0,6.9-3.1,6.9-6.9
			V8.2c0-3.8-3.1-6.9-6.9-6.9H338z"/>
		<rect x="7" y="417.4" class="st0" width="636" height="0.3"/>
	</g>
	<g>
		<g>
			<g>
				<g>
					<polygon class="st1" points="407.3,149.7 222,149.7 233,23.4 418.4,23.4 					"/>
				</g>
				<g>
					<g>
						<rect x="243.6" y="127.2" class="st2" width="100.6" height="1"/>
					</g>
					<g>
						<g>
							<path class="st2" d="M346.3,108.9H244.8l0-0.5l6.1-69.9h101.5l0,0.5L346.3,108.9z M245.9,107.9h99.5l6-68.4h-99.5
								L245.9,107.9z"/>
						</g>
					</g>
					<g>
						<path class="st2" d="M249,142.2h-2.7c-1.1,0-2.2-0.4-2.9-1.3c-0.8-0.8-1.1-1.9-1-3.1l0.2-2.7c0.2-2.3,2.3-4.2,4.6-4.2h2.7
							c1.1,0,2.2,0.4,2.9,1.3c0.8,0.8,1.1,1.9,1,3.1l-0.2,2.7C253.4,140.3,251.3,142.2,249,142.2z M247.1,131.9
							c-1.8,0-3.5,1.5-3.6,3.3l-0.2,2.7c-0.1,0.9,0.2,1.7,0.7,2.3c0.6,0.6,1.3,0.9,2.2,0.9h2.7c1.8,0,3.5-1.5,3.6-3.3l0.2-2.7
							c0.1-0.9-0.2-1.7-0.7-2.3c-0.6-0.6-1.3-0.9-2.2-0.9H247.1z"/>
					</g>
					<g>
						<path class="st2" d="M295,121.4h-51.2l0.5-5.4h51.2L295,121.4z M244.8,120.4h49.2l0.3-3.4h-49.2L244.8,120.4z"/>
					</g>
					<g>
						<path class="st2" d="M343.6,139.3h-20.4l0.5-5.4h20.4L343.6,139.3z M324.3,138.3h18.4l0.3-3.4h-18.4L324.3,138.3z"/>
					</g>
					<g>
						<g>
							<path class="st2" d="M345.2,121.4h-5.4l0.5-5.4h5.4L345.2,121.4z M340.9,120.4h3.4l0.3-3.4h-3.4L340.9,120.4z"/>
						</g>
						<g>
							<path class="st2" d="M337.7,121.4h-5.4l0.5-5.4h5.4L337.7,121.4z M333.3,120.4h3.4l0.3-3.4h-3.4L333.3,120.4z"/>
						</g>
						<g>
							<path class="st2" d="M330.2,121.4h-5.4l0.5-5.4h5.4L330.2,121.4z M325.8,120.4h3.4l0.3-3.4h-3.4L325.8,120.4z"/>
						</g>
					</g>
					<g>
						<path class="st2" d="M352.9,33.2h-76.4l0.4-4.8h76.4L352.9,33.2z M277.6,32.2H352l0.2-2.8h-74.4L277.6,32.2z"/>
					</g>
					<g>
						<path class="st2" d="M271.6,33.5h-20.4l0.5-5.4h20.4L271.6,33.5z M252.3,32.6h18.4l0.3-3.4h-18.4L252.3,32.6z"/>
					</g>
					<g>
						<g>
							<path class="st2" d="M400.9,61.3H365l1.8-20.6h35.9L400.9,61.3z M366.1,60.4h33.9l1.6-18.6h-33.9L366.1,60.4z"/>
						</g>
						<g>
							<path class="st2" d="M397.5,100h-35.9l1.8-20.6h35.9L397.5,100z M362.7,99h33.9l1.6-18.6h-33.9L362.7,99z"/>
						</g>
						<g>
							<path class="st2" d="M394.1,138.7h-35.9l1.8-20.6h35.9L394.1,138.7z M359.3,137.7h33.9l1.6-18.6H361L359.3,137.7z"/>
						</g>
					</g>
				</g>
			</g>
			<g>
				
					<rect x="363.1" y="50.5" transform="matrix(0.8811 -0.473 0.473 0.8811 21.5075 187.6214)" class="st2" width="41.5" height="1"/>
			</g>
			<g>
				<polygon class="st2" points="400.2,61.3 367,41.7 367.5,40.8 400.7,60.4 				"/>
			</g>
			<g>
				
					<rect x="359.7" y="89.2" transform="matrix(0.8817 -0.4718 0.4718 0.8817 2.6788 190.1242)" class="st2" width="41.5" height="1"/>
			</g>
			<g>
				
					<rect x="380" y="70.5" transform="matrix(0.5092 -0.8607 0.8607 0.5092 109.5128 371.4738)" class="st2" width="1" height="38.5"/>
			</g>
			<g>
				<path class="st2" d="M358.2,139.1l1.9-21.3l17,10.1l18-9.7l0.5,0.9l-17.5,9.4l15.8,9.4l-0.5,0.9l-16.3-9.7L358.2,139.1z
					 M360.9,119.4l-1.6,17.9l16.7-9L360.9,119.4z"/>
			</g>
			<g>
				<g>
					
						<rect x="235.1" y="73.2" transform="matrix(0.838 -0.5456 0.5456 0.838 8.1633 174.8909)" class="st2" width="127.2" height="1"/>
				</g>
				<g>
					
						<rect x="298.1" y="15.1" transform="matrix(0.5923 -0.8057 0.8057 0.5923 62.3768 270.6658)" class="st2" width="1" height="117.2"/>
				</g>
			</g>
		</g>
		<g>
			<g>
				<g>
					<polygon class="st1" points="480.8,418.1 378.8,418.1 393.2,253.8 495.2,253.8 					"/>
				</g>
				<g>
					<g>
						<g>
							<path class="st2" d="M412.1,410.8h-24.8l1.5-17.5h24.8L412.1,410.8z M388.4,409.8h22.8l1.4-15.4h-22.8L388.4,409.8z"/>
						</g>
						<g>
							<path class="st2" d="M442.4,410.8h-24.8l1.5-17.5h24.8L442.4,410.8z M418.6,409.8h22.8l1.4-15.4H420L418.6,409.8z"/>
						</g>
						<g>
							<path class="st2" d="M472.6,410.8h-24.8l1.5-17.5h24.8L472.6,410.8z M448.9,409.8h22.8l1.4-15.4h-22.8L448.9,409.8z"/>
						</g>
					</g>
					<g>
						<rect x="391.5" y="368.5" class="st2" width="84.3" height="1"/>
					</g>
					<g>
						<path class="st2" d="M448.9,345h-55.8l0.6-6.4h55.8L448.9,345z M394.3,344H448l0.4-4.4h-53.7L394.3,344z"/>
					</g>
					<g>
						<path class="st2" d="M474.8,386.1h-23.1l0.6-6.4h23.1L474.8,386.1z M452.7,385h21.1l0.4-4.3h-21.1L452.7,385z"/>
					</g>
					<g>
						<g>
							<path class="st2" d="M476.9,361.2h-8.8l0.8-8.8h8.8L476.9,361.2z M469.3,360.2h6.8l0.6-6.8h-6.8L469.3,360.2z"/>
						</g>
						<g>
							<path class="st2" d="M438.7,361.2h-8.8l0.8-8.8h8.8L438.7,361.2z M431,360.2h6.8l0.6-6.8h-6.8L431,360.2z"/>
						</g>
						<g>
							<path class="st2" d="M400.5,361.2h-8.8l0.8-8.8h8.8L400.5,361.2z M392.8,360.2h6.8l0.6-6.8h-6.8L392.8,360.2z"/>
						</g>
					</g>
					<g>
						<path class="st2" d="M426.1,269.1h-26.3l0.6-6.8h26.3L426.1,269.1z M400.9,268.1h24.2l0.4-4.8h-24.2L400.9,268.1z"/>
					</g>
					<g>
						<path class="st2" d="M397.8,387.8h-2.2c-1.6,0-3.1-0.6-4.2-1.8c-1.1-1.2-1.6-2.7-1.4-4.3l0.2-2.2c0.3-3.3,3.2-6.1,6.6-6.1h2.2
							c1.6,0,3.1,0.6,4.2,1.8c1.1,1.2,1.6,2.7,1.4,4.3l-0.2,2.2C404.1,385.1,401.1,387.8,397.8,387.8z M396.7,374.4
							c-2.8,0-5.3,2.3-5.6,5.1l-0.2,2.2c-0.1,1.4,0.3,2.6,1.2,3.6c0.9,0.9,2.1,1.5,3.4,1.5h2.2c2.8,0,5.3-2.3,5.6-5.1l0.2-2.2
							c0.1-1.4-0.3-2.6-1.2-3.6c-0.9-0.9-2.1-1.5-3.4-1.5H396.7z"/>
					</g>
					<g>
						<path class="st2" d="M479.3,333.2h-85.1l0-0.5l5.1-58.6h85.1l0,0.5L479.3,333.2z M395.3,332.2h83.1l5-57.1h-83.1L395.3,332.2z
							"/>
					</g>
				</g>
			</g>
			<g>
				<g>
					
						<rect x="438.8" y="254.6" transform="matrix(0.5923 -0.8057 0.8057 0.5923 -65.5316 477.7441)" class="st2" width="1" height="98.1"/>
				</g>
				<g>
					<polygon class="st2" points="395,333.1 394.4,332.2 483.1,274.7 483.6,275.5 					"/>
				</g>
				<g>
					<polygon class="st2" points="411.4,410.7 389,394.3 389.6,393.4 412,409.9 					"/>
				</g>
				<g>
					
						<rect x="385.4" y="401.6" transform="matrix(0.838 -0.5456 0.5456 0.838 -154.5163 283.6403)" class="st2" width="30.2" height="1"/>
				</g>
				<g>
					<polygon class="st2" points="441.6,410.7 419.2,394.3 419.8,393.4 442.2,409.9 					"/>
				</g>
				<g>
					
						<rect x="415.6" y="401.6" transform="matrix(0.8379 -0.5458 0.5458 0.8379 -149.6416 300.256)" class="st2" width="30.2" height="1"/>
				</g>
				<g>
					<polygon class="st2" points="471.8,410.7 449.5,394.3 450.1,393.4 472.4,409.9 					"/>
				</g>
				<g>
					
						<rect x="445.9" y="401.6" transform="matrix(0.8379 -0.5458 0.5458 0.8379 -144.7416 316.756)" class="st2" width="30.2" height="1"/>
				</g>
			</g>
		</g>
		<g>
			<path class="st0" d="M511.7,61.3c0-2.9-0.4-5.7-1.2-8.3l7.3-6.4l-4.6-8l-9.2,3.1c-3.8-4.1-8.8-7-14.4-8.3l-1.9-9.6h-9.2l-1.9,9.6
				c-5.6,1.3-10.6,4.3-14.5,8.3l-9.2-3.1l-4.6,8l7.3,6.4c-0.8,2.6-1.2,5.4-1.2,8.3c0,2.9,0.4,5.7,1.2,8.3l-7.3,6.4l4.6,8L462,81
				c3.8,4.1,8.8,7,14.5,8.4l1.9,9.6h9.2l1.9-9.6c5.6-1.3,10.6-4.3,14.4-8.4l9.2,3.1l4.6-8l-7.3-6.4C511.2,67,511.7,64.2,511.7,61.3z
				 M482.9,76.8c-8.2,0-14.9-6.7-14.9-14.9c0-8.2,6.7-14.9,14.9-14.9c8.2,0,14.9,6.7,14.9,14.9C497.9,70.2,491.2,76.8,482.9,76.8z"
				/>
		</g>
		<g>
			<path class="st0" d="M196.2,303.1c2.5-4.7,4.2-9.6,5.1-14.5l17.3-4.2l-0.6-16.8l-17.5-2.8c-2.7-9.8-8.2-18.8-16.2-25.7l5-17
				l-14.9-7.8L163.2,228c-10.2-2.7-20.8-2.2-30.4,1.2l-12.2-12.9l-14.2,8.9l6.3,16.6c-3.5,3.6-6.6,7.7-9.1,12.4
				c-2.5,4.7-4.2,9.6-5.1,14.5l-17.3,4.1l0.6,16.8l17.5,2.8c2.7,9.8,8.2,18.8,16.2,25.8l-5,17l14.9,7.8l11.2-13.8
				c10.2,2.7,20.8,2.1,30.4-1.2l12.2,12.9l14.2-8.9l-6.3-16.6C190.6,311.9,193.7,307.8,196.2,303.1z M136.7,303.6
				c-13.3-7-18.4-23.5-11.4-36.8c7-13.3,23.5-18.4,36.8-11.4c13.3,7,18.4,23.5,11.4,36.8C166.4,305.6,150,310.7,136.7,303.6z"/>
		</g>
		<g>
			<path class="st0" d="M510.7,258.4l10,5.5c0.5,0.3,0.8,0.5,1,0.8c0.2,0.2,0.2,0.5,0.2,0.8c0,0.4-0.2,0.8-0.5,1.1
				c-0.3,0.3-0.7,0.5-1.1,0.5c-0.3,0-0.7-0.2-1.2-0.5l-12.9-7.2c-0.9-0.5-0.9-1.7,0-2.2l12.9-7.2c0.5-0.3,0.9-0.4,1.2-0.4
				c0.4,0,0.8,0.2,1.1,0.5c0.3,0.3,0.5,0.7,0.5,1.1c0,0.3-0.1,0.6-0.2,0.8c-0.2,0.2-0.5,0.5-1,0.8L510.7,258.4z"/>
			<path class="st0" d="M536.3,248.1l-9.9,21.3c-0.3,0.5-0.5,0.9-0.7,1c-0.3,0.2-0.6,0.3-0.9,0.3c-0.4,0-0.8-0.2-1.1-0.5
				c-0.3-0.3-0.5-0.6-0.5-1c0-0.3,0.1-0.7,0.4-1.2l9.9-21.3c0.3-0.5,0.5-0.9,0.7-1c0.3-0.2,0.6-0.3,0.9-0.3c0.4,0,0.8,0.1,1.1,0.4
				c0.3,0.3,0.5,0.6,0.5,1C536.7,247.2,536.6,247.6,536.3,248.1z"/>
			<path class="st0" d="M548.7,258.4l-10-5.5c-0.5-0.3-0.8-0.5-1-0.8c-0.2-0.2-0.2-0.5-0.2-0.8c0-0.4,0.2-0.8,0.5-1.1
				c0.3-0.3,0.7-0.5,1.1-0.5c0.3,0,0.7,0.1,1.2,0.4l12.9,7.2c0.9,0.5,0.9,1.7,0,2.2l-12.9,7.2c-0.5,0.3-0.9,0.5-1.2,0.5
				c-0.4,0-0.8-0.2-1.1-0.5c-0.3-0.3-0.5-0.7-0.5-1.1c0-0.3,0.1-0.6,0.2-0.8c0.2-0.2,0.5-0.5,1-0.8L548.7,258.4z"/>
		</g>
	</g>
	<ellipse id="_x3C_Path_x3E__1_" class="st1" cx="318.9" cy="455.6" rx="246.6" ry="14.4"/>
	<g>
		<g>
			<g>
				<path class="st3" d="M151.4,168.1h-47.1c-2.1,0-4.1-0.8-5.5-2.4c-1.4-1.5-2.1-3.6-1.9-5.7l9.8-112.5c0.4-4.4,4.3-8,8.7-8h12.2
					c1.1,0,2,0.9,2.1,2l0,0.4c0.1,1.6,1.3,2.8,2.9,2.8h11.6c1.7,0,3.2-1.2,3.5-2.9l0.1-0.4c0.2-1.1,1.2-1.9,2.3-1.9h12.2
					c2.1,0,4.1,0.8,5.5,2.4c1.4,1.5,2.1,3.6,1.9,5.7l-9.8,112.5C159.7,164.5,155.8,168.1,151.4,168.1z M115.5,40.8
					c-3.8,0-7.1,3.1-7.4,6.8l-9.8,112.5c-0.2,1.8,0.4,3.5,1.6,4.8c1.2,1.3,2.8,1.9,4.6,1.9h47.1c3.8,0,7.1-3.1,7.4-6.8l9.8-112.5
					c0.2-1.8-0.4-3.5-1.6-4.7c-1.2-1.3-2.8-1.9-4.6-1.9h-12.2c-0.5,0-1,0.4-1.1,0.9l-0.1,0.4c-0.5,2.2-2.5,3.9-4.8,3.9h-11.6
					c-2.3,0-4.1-1.7-4.2-4l0-0.4c0-0.5-0.4-0.8-0.8-0.8H115.5z"/>
				<rect x="106.6" y="57.2" class="st3" width="61.9" height="1.3"/>
				<rect x="150.3" y="39.5" class="st3" width="12.2" height="1.3"/>
				<g>
					<path class="st3" d="M151.1,109.7H115l3.2-36.1h36.1L151.1,109.7z M116.4,108.5h33.5l2.9-33.5h-33.5L116.4,108.5z"/>
					<path class="st3" d="M151.5,150.5h-44.2l1.2-13.4h44.2L151.5,150.5z M108.6,149.2h41.7l0.9-10.8h-41.7L108.6,149.2z"/>
					<g>
						<path class="st3" d="M122.4,128.3c-1,0-2-0.4-2.6-1.1c-0.7-0.7-1-1.7-0.9-2.7c0.2-2.1,2-3.7,4.1-3.7c1,0,2,0.4,2.6,1.1
							c0.7,0.7,1,1.7,0.9,2.7l0,0C126.3,126.6,124.5,128.3,122.4,128.3z M122.9,122c-1.4,0-2.7,1.2-2.8,2.6
							c-0.1,0.7,0.1,1.3,0.6,1.8c0.4,0.5,1,0.7,1.7,0.7c1.4,0,2.7-1.2,2.8-2.6l0,0c0.1-0.7-0.1-1.3-0.6-1.8
							C124.2,122.2,123.6,122,122.9,122z"/>
						<path class="st3" d="M131.5,128.3c-1,0-2-0.4-2.6-1.1c-0.7-0.7-1-1.7-0.9-2.7c0.2-2.1,2-3.7,4.1-3.7c1,0,2,0.4,2.6,1.1
							c0.7,0.7,1,1.7,0.9,2.7C135.4,126.6,133.6,128.3,131.5,128.3z M132.1,122c-1.4,0-2.7,1.2-2.8,2.6c-0.1,0.7,0.1,1.3,0.6,1.8
							c0.4,0.5,1,0.7,1.7,0.7c1.4,0,2.7-1.2,2.8-2.6l0,0c0.1-0.7-0.1-1.3-0.6-1.8C133.4,122.2,132.8,122,132.1,122z"/>
						<path class="st3" d="M140.7,128.3c-1,0-2-0.4-2.6-1.1c-0.7-0.7-1-1.7-0.9-2.7c0.2-2.1,2-3.7,4.1-3.7c1,0,2,0.4,2.6,1.1
							c0.7,0.7,1,1.7,0.9,2.7l0,0C144.6,126.6,142.8,128.3,140.7,128.3z M141.2,122c-1.4,0-2.7,1.2-2.8,2.6
							c-0.1,0.7,0.1,1.3,0.6,1.8c0.4,0.5,1,0.7,1.7,0.7c1.4,0,2.7-1.2,2.8-2.6v0c0.1-0.7-0.1-1.3-0.6-1.8
							C142.5,122.2,141.9,122,141.2,122z"/>
					</g>
				</g>
			</g>
			<g>
				<rect x="457.6" y="295.5" class="st3" width="61.9" height="1.3"/>
				<g>
					<path class="st3" d="M502.4,406.4h-47.1c-2.1,0-4.1-0.8-5.5-2.4c-1.4-1.5-2.1-3.6-1.9-5.7l9.8-112.5c0.4-4.4,4.3-8,8.7-8h12.2
						c1.1,0,2,0.9,2.1,2l0,0.4c0.1,1.6,1.3,2.8,2.9,2.8h11.6c1.7,0,3.2-1.2,3.5-2.9l0.1-0.4c0.2-1.1,1.2-1.9,2.3-1.9h12.2
						c2.1,0,4.1,0.8,5.5,2.4c1.4,1.5,2.1,3.6,1.9,5.7l-9.8,112.5C510.7,402.9,506.8,406.4,502.4,406.4z M466.5,279.1
						c-3.8,0-7.1,3.1-7.4,6.8l-9.8,112.5c-0.2,1.8,0.4,3.5,1.6,4.8c1.2,1.3,2.8,1.9,4.6,1.9h47.1c3.8,0,7.1-3.1,7.4-6.8l9.8-112.5
						c0.2-1.8-0.4-3.5-1.6-4.7c-1.2-1.3-2.8-1.9-4.6-1.9h-12.2c-0.5,0-1,0.4-1.1,0.9l-0.1,0.4c-0.5,2.2-2.5,3.9-4.8,3.9h-11.6
						c-2.3,0-4.1-1.7-4.2-4l0-0.4c0-0.5-0.4-0.8-0.8-0.8H466.5z"/>
					<path class="st3" d="M510.3,313.2h-46.5c-1,0-1.9-0.4-2.5-1.1c-0.6-0.7-1-1.6-0.9-2.6c0.2-2,1.9-3.6,3.9-3.6h46.5
						c1,0,1.9,0.4,2.5,1.1c0.6,0.7,1,1.6,0.9,2.6C514.1,311.6,512.3,313.2,510.3,313.2z M464.4,307.1c-1.3,0-2.5,1.1-2.7,2.4
						c-0.1,0.6,0.1,1.2,0.5,1.7c0.4,0.4,1,0.7,1.6,0.7h46.5c1.3,0,2.5-1.1,2.7-2.4c0.1-0.6-0.1-1.2-0.5-1.7c-0.4-0.4-1-0.7-1.6-0.7
						H464.4z"/>
					<path class="st3" d="M509.3,325.3h-46.5c-1,0-1.9-0.4-2.5-1.1c-0.6-0.7-1-1.6-0.9-2.6c0.2-2,1.9-3.6,3.9-3.6h46.5
						c1,0,1.9,0.4,2.5,1.1c0.6,0.7,1,1.6,0.9,2.6C513,323.7,511.3,325.3,509.3,325.3z M463.3,319.3c-1.3,0-2.5,1.1-2.7,2.4
						c-0.1,0.6,0.1,1.2,0.5,1.7c0.4,0.4,1,0.7,1.6,0.7h46.5c1.3,0,2.5-1.1,2.7-2.4c0.1-0.6-0.1-1.2-0.5-1.7c-0.4-0.4-1-0.7-1.6-0.7
						H463.3z"/>
					<path class="st3" d="M508.2,337.4h-46.5c-1,0-1.9-0.4-2.5-1.1c-0.6-0.7-1-1.6-0.9-2.6c0.2-2,1.9-3.6,3.9-3.6h46.5
						c1,0,1.9,0.4,2.5,1.1c0.6,0.7,1,1.6,0.9,2.6C512,335.8,510.2,337.4,508.2,337.4z M462.3,331.4c-1.3,0-2.5,1.1-2.7,2.4
						c-0.1,0.6,0.1,1.2,0.5,1.7c0.4,0.4,1,0.7,1.6,0.7h46.5c1.3,0,2.5-1.1,2.7-2.4c0.1-0.6-0.1-1.2-0.5-1.7c-0.4-0.4-1-0.7-1.6-0.7
						H462.3z"/>
					<path class="st3" d="M505.3,370.6h-46.5c-1,0-1.9-0.4-2.5-1.1c-0.6-0.7-1-1.6-0.9-2.6c0.2-2,1.9-3.6,3.9-3.6h46.5
						c1,0,1.9,0.4,2.5,1.1c0.6,0.7,1,1.6,0.9,2.6C509.1,369,507.3,370.6,505.3,370.6z M459.3,364.6c-1.3,0-2.5,1.1-2.7,2.4
						c-0.1,0.6,0.1,1.2,0.5,1.7c0.4,0.4,1,0.7,1.6,0.7h46.5c1.3,0,2.5-1.1,2.7-2.4c0.1-0.6-0.1-1.2-0.5-1.7c-0.4-0.4-1-0.7-1.6-0.7
						H459.3z"/>
					<path class="st3" d="M504.2,382.7h-46.5c-1,0-1.9-0.4-2.5-1.1c-0.6-0.7-1-1.6-0.9-2.6c0.2-2,1.9-3.6,3.9-3.6h46.5
						c1,0,1.9,0.4,2.5,1.1c0.6,0.7,1,1.6,0.9,2.6C508,381.1,506.2,382.7,504.2,382.7z M458.3,376.7c-1.3,0-2.5,1.1-2.7,2.4
						c-0.1,0.6,0.1,1.2,0.5,1.7c0.4,0.4,1,0.7,1.6,0.7h46.5c1.3,0,2.5-1.1,2.7-2.4c0.1-0.6-0.1-1.2-0.5-1.7c-0.4-0.4-1-0.7-1.6-0.7
						H458.3z"/>
					<path class="st3" d="M503.2,394.8h-46.5c-1,0-1.9-0.4-2.5-1.1c-0.6-0.7-1-1.6-0.9-2.6c0.2-2,1.9-3.6,3.9-3.6h46.5
						c1,0,1.9,0.4,2.5,1.1c0.6,0.7,1,1.6,0.9,2.6C506.9,393.2,505.2,394.8,503.2,394.8z M457.2,388.8c-1.3,0-2.5,1.1-2.7,2.4
						c-0.1,0.6,0.1,1.2,0.5,1.7c0.4,0.4,1,0.7,1.6,0.7h46.5c1.3,0,2.5-1.1,2.7-2.4c0.1-0.6-0.1-1.2-0.5-1.7c-0.4-0.4-1-0.7-1.6-0.7
						H457.2z"/>
				</g>
			</g>
			<g>
				<path class="st3" d="M533,177.7h-47.1c-2.1,0-4.1-0.8-5.5-2.4c-1.4-1.5-2.1-3.6-1.9-5.7l9.8-112.5c0.4-4.4,4.3-8,8.7-8h12.2
					c1.1,0,2,0.9,2.1,2l0,0.4c0.1,1.6,1.3,2.8,2.9,2.8H526c1.7,0,3.2-1.2,3.5-2.9l0.1-0.4c0.2-1.1,1.2-1.9,2.3-1.9h12.2
					c2.1,0,4.1,0.8,5.5,2.4c1.4,1.5,2.1,3.6,1.9,5.7l-9.8,112.5C541.3,174.1,537.4,177.7,533,177.7z M497.1,50.4
					c-3.8,0-7.1,3.1-7.4,6.8l-9.8,112.5c-0.2,1.8,0.4,3.5,1.6,4.8c1.2,1.3,2.8,1.9,4.6,1.9H533c3.8,0,7.1-3.1,7.4-6.8l9.8-112.5
					c0.2-1.8-0.4-3.5-1.6-4.7c-1.2-1.3-2.8-1.9-4.6-1.9h-12.2c-0.5,0-1,0.4-1.1,0.9l-0.1,0.4c-0.5,2.2-2.5,3.9-4.8,3.9h-11.6
					c-2.3,0-4.1-1.7-4.2-4l0-0.4c0-0.5-0.4-0.8-0.8-0.8H497.1z"/>
				<rect x="488.1" y="66.8" class="st3" width="61.9" height="1.3"/>
				<path class="st3" d="M536,164.5H486l3.2-36.1h50.1L536,164.5z M487.4,163.3h47.5l2.9-33.5h-47.5L487.4,163.3z"/>
				
					<rect x="511.9" y="117.8" transform="matrix(0.6057 -0.7957 0.7957 0.6057 85.537 465.6151)" class="st3" width="1.3" height="57.5"/>
				
					<rect x="481.4" y="145.9" transform="matrix(0.8301 -0.5576 0.5576 0.8301 5.3947 310.7056)" class="st3" width="62.4" height="1.3"/>
				<g>
					<g>
						<path class="st3" d="M542.6,89.7h-50.1l1.2-13.4h50.1L542.6,89.7z M493.9,88.4h47.5l0.9-10.8h-47.5L493.9,88.4z"/>
						
							<rect x="492.5" y="82.4" transform="matrix(0.9717 -0.2364 0.2364 0.9717 -4.9418 124.8342)" class="st3" width="51.3" height="1.3"/>
						
							<rect x="517.5" y="58.4" transform="matrix(0.246 -0.9693 0.9693 0.246 310.1878 564.8077)" class="st3" width="1.3" height="49.2"/>
					</g>
					<g>
						<path class="st3" d="M541.1,107.1H491l1.2-13.4h50.1L541.1,107.1z M492.4,105.9h47.5l0.9-10.8h-47.5L492.4,105.9z"/>
						
							<rect x="491" y="99.8" transform="matrix(0.9717 -0.2363 0.2363 0.9717 -9.1029 124.9165)" class="st3" width="51.3" height="1.3"/>
						
							<rect x="516" y="75.8" transform="matrix(0.246 -0.9693 0.9693 0.246 292.1647 576.4579)" class="st3" width="1.3" height="49.2"/>
					</g>
					<g>
						<path class="st3" d="M539.5,124.5h-50.1l1.2-13.4h50.1L539.5,124.5z M490.9,123.3h47.5l0.9-10.8h-47.5L490.9,123.3z"/>
						
							<rect x="489.4" y="117.2" transform="matrix(0.9717 -0.2364 0.2364 0.9717 -13.2592 125.1009)" class="st3" width="51.3" height="1.3"/>
						
							<rect x="514.4" y="93.2" transform="matrix(0.246 -0.9693 0.9693 0.246 274.1417 588.1085)" class="st3" width="1.3" height="49.2"/>
					</g>
				</g>
			</g>
		</g>
		<g>
			<path class="st3" d="M525.8,235.5c-11.2,0-20.3-9.1-20.3-20.3s9.1-20.3,20.3-20.3c11.2,0,20.3,9.1,20.3,20.3
				S537,235.5,525.8,235.5z M525.8,196.1c-10.5,0-19.1,8.6-19.1,19.1c0,10.5,8.6,19.1,19.1,19.1c10.5,0,19.1-8.6,19.1-19.1
				C544.9,204.7,536.3,196.1,525.8,196.1z"/>
			<path class="st3" d="M522.3,227l-9.5-12.5l1-0.8l8,10.5c3.7-11.8,11.2-22.1,21.3-29.2l2.8-2l0.7,1l-2.8,2
				c-10.2,7.2-17.7,17.8-21.2,29.7L522.3,227z"/>
		</g>
	</g>
	<g>
		<g>
			<g>
				<path class="st4" d="M385,68.2h-33l-33.3,380.7h33c15.3,0,28.8-12.4,30.1-27.7l28.5-325.3C411.6,80.6,400.3,68.2,385,68.2z"/>
			</g>
			<path class="st3" d="M344.9,448.9H208.8c-15.3,0-26.6-12.4-25.3-27.7L212,95.9c1.3-15.3,14.8-27.7,30.1-27.7h136.1
				c15.3,0,26.6,12.4,25.3,27.7l-28.5,325.3C373.7,436.5,360.2,448.9,344.9,448.9z"/>
			<g>
				<path class="st5" d="M377.7,74.5h-35.4c-2.3,0-4.4,1.7-4.9,4l-0.2,1.1c-1.2,5.6-6.4,9.8-12,9.8h-33.6c-5.7,0-10.1-4.2-10.3-9.8
					l0-1.1c-0.1-2.3-1.9-4-4.2-4h-35.4c-11.8,0-22.2,9.6-23.2,21.4l-28.5,325.3c-1,11.8,7.7,21.4,19.5,21.4h136.1
					c11.8,0,22.2-9.6,23.2-21.4l28.5-325.3C398.2,84.1,389.5,74.5,377.7,74.5z"/>
			</g>
			<g class="st6">
				<path d="M301.1,78.1c-0.1,1.5-1.4,2.7-2.9,2.7s-2.6-1.2-2.5-2.7c0.1-1.5,1.4-2.7,2.9-2.7C300.1,75.4,301.2,76.6,301.1,78.1z"/>
				<path d="M320.5,75.4c-1.1,0-8.2,0-9.3,0c-1.5,0-2.8,1.2-2.9,2.7c-0.1,1.5,1,2.7,2.5,2.7c0.9,0,8.3,0,9.3,0
					c1.5,0,2.8-1.2,2.9-2.7C323.1,76.6,322,75.4,320.5,75.4z"/>
			</g>
			<g>
				<polygon class="st4" points="233.7,89.4 236.6,89.4 236.8,86.6 234,86.6 				"/>
				<polygon class="st4" points="239.7,86.6 239.4,89.4 242.3,89.4 242.6,86.6 242.8,83.7 240,83.7 				"/>
				<polygon class="st4" points="245.9,80.8 245.7,83.7 245.4,86.6 245.2,89.4 248,89.4 248.3,86.6 248.5,83.7 248.8,80.8 				"/>
			</g>
			<path class="st4" d="M369,81l-0.2,2.1h-1.4l-0.4,4.2h1.4l-0.2,2.1h12.6l0.7-8.4H369z M374,87.3h-4.2l0.4-4.2h4.2L374,87.3z"/>
		</g>
	</g>
	<polygon class="st7" points="363.3,307.9 179.2,307.9 194.7,130.9 378.8,130.9 	"/>
	<g>
		<polygon class="st3" points="358.4,302.5 174.3,302.5 189.8,125.5 373.9,125.5 		"/>
		<g class="st8">
			<polygon class="st5" points="358.4,302.5 174.3,302.5 189.8,125.5 373.9,125.5 			"/>
			<path class="st3" d="M359,303.2H173.6l0.1-0.7l15.5-177.6h185.3L359,303.2z M175,301.9h182.8l15.4-175.7H190.4L175,301.9z"/>
		</g>
		<polygon class="st9" points="348.2,253.8 193.1,253.8 203,140.5 358.1,140.5 		"/>
		<path class="st3" d="M348.7,254.4H192.4l10-114.6h156.3L348.7,254.4z M193.8,253.2h153.8l9.8-112H203.6L193.8,253.2z"/>
		
			<rect x="275" y="105.1" transform="matrix(0.6153 -0.7883 0.7883 0.6153 -49.3879 293.0957)" class="st3" width="1.3" height="184.1"/>
		<g>
			<line class="st5" x1="193.1" y1="253.8" x2="358.1" y2="140.5"/>
			
				<rect x="175.5" y="196.5" transform="matrix(0.8242 -0.5664 0.5664 0.8242 -63.1959 190.753)" class="st3" width="200.1" height="1.3"/>
		</g>
		<g>
			<path class="st3" d="M253.2,270.4c-0.3,3.2-3.1,5.8-6.4,5.8c-3.2,0-5.6-2.6-5.3-5.8c0.3-3.2,3.1-5.8,6.4-5.8
				C251.1,264.5,253.5,267.1,253.2,270.4z"/>
			<path class="st3" d="M275,270.4c-0.3,3.2-3.1,5.8-6.4,5.8c-3.2,0-5.6-2.6-5.3-5.8c0.3-3.2,3.1-5.8,6.4-5.8
				C272.9,264.5,275.3,267.1,275,270.4z"/>
			<path class="st3" d="M296.8,270.4c-0.3,3.2-3.1,5.8-6.4,5.8c-3.2,0-5.6-2.6-5.3-5.8c0.3-3.2,3.1-5.8,6.4-5.8
				C294.7,264.5,297.1,267.1,296.8,270.4z"/>
		</g>
	</g>
	<g>
		<polygon class="st3" points="251.8,402.2 165.6,402.2 172.9,319.4 259.1,319.4 		"/>
		<g class="st8">
			<polygon class="st5" points="251.8,402.2 165.6,402.2 172.9,319.4 259.1,319.4 			"/>
			<path class="st3" d="M252.4,402.9h-87.5l7.4-84.2h87.5L252.4,402.9z M166.3,401.6h84.9l7.1-81.6h-84.9L166.3,401.6z"/>
		</g>
		<g>
			<polygon class="st5" points="247,379.4 174.4,379.4 179,326.4 251.6,326.4 			"/>
			<path class="st3" d="M247.6,380.1h-73.9l4.8-54.3h73.9L247.6,380.1z M175.1,378.8h71.3l4.5-51.8h-71.3L175.1,378.8z"/>
		</g>
		<g>
			<line class="st5" x1="179" y1="326.4" x2="247" y2="379.4"/>
			
				<rect x="212.4" y="309.8" transform="matrix(0.6153 -0.7883 0.7883 0.6153 -196.2388 303.6973)" class="st3" width="1.3" height="86.2"/>
		</g>
		<g>
			<line class="st5" x1="174.4" y1="379.4" x2="251.6" y2="326.4"/>
			
				<rect x="166.2" y="352.3" transform="matrix(0.8242 -0.5664 0.5664 0.8242 -162.4107 182.7057)" class="st3" width="93.7" height="1.3"/>
		</g>
		<g>
			<path class="st3" d="M202.5,387.2c-0.1,1.5-1.5,2.7-3,2.7c-1.5,0-2.6-1.2-2.5-2.7s1.5-2.7,3-2.7
				C201.6,384.4,202.7,385.7,202.5,387.2z"/>
			<path class="st3" d="M212.8,387.2c-0.1,1.5-1.5,2.7-3,2.7c-1.5,0-2.6-1.2-2.5-2.7c0.1-1.5,1.5-2.7,3-2.7
				C211.8,384.4,212.9,385.7,212.8,387.2z"/>
			<path class="st3" d="M223,387.2c-0.1,1.5-1.5,2.7-3,2.7c-1.5,0-2.6-1.2-2.5-2.7c0.1-1.5,1.5-2.7,3-2.7
				C222,384.4,223.1,385.7,223,387.2z"/>
		</g>
	</g>
	<g>
		<polygon class="st3" points="349.7,402.2 263.5,402.2 270.7,319.4 356.9,319.4 		"/>
		<g class="st8">
			<polygon class="st5" points="349.7,402.2 263.5,402.2 270.7,319.4 356.9,319.4 			"/>
			<path class="st3" d="M350.3,402.9h-87.5l7.4-84.2h87.5L350.3,402.9z M264.2,401.6h84.9l7.1-81.6h-84.9L264.2,401.6z"/>
		</g>
		<g>
			<polygon class="st5" points="344.9,379.4 272.3,379.4 276.9,326.4 349.5,326.4 			"/>
			<path class="st3" d="M345.5,380.1h-73.9l4.8-54.3h73.9L345.5,380.1z M273,378.8h71.3l4.5-51.8h-71.3L273,378.8z"/>
		</g>
		<g>
			<line class="st5" x1="276.9" y1="326.4" x2="344.9" y2="379.4"/>
			
				<rect x="310.3" y="309.8" transform="matrix(0.6153 -0.7883 0.7883 0.6153 -158.5817 380.8583)" class="st3" width="1.3" height="86.2"/>
		</g>
		<g>
			<line class="st5" x1="272.3" y1="379.4" x2="349.5" y2="326.4"/>
			
				<rect x="264.1" y="352.3" transform="matrix(0.8242 -0.5664 0.5664 0.8242 -145.1986 238.1422)" class="st3" width="93.7" height="1.3"/>
		</g>
		<g>
			<path class="st3" d="M300.4,387.2c-0.1,1.5-1.5,2.7-3,2.7c-1.5,0-2.6-1.2-2.5-2.7c0.1-1.5,1.5-2.7,3-2.7S300.6,385.7,300.4,387.2
				z"/>
			<path class="st3" d="M310.6,387.2c-0.1,1.5-1.5,2.7-3,2.7c-1.5,0-2.6-1.2-2.5-2.7c0.1-1.5,1.5-2.7,3-2.7
				C309.7,384.4,310.8,385.7,310.6,387.2z"/>
			<path class="st3" d="M320.9,387.2c-0.1,1.5-1.5,2.7-3,2.7s-2.6-1.2-2.5-2.7s1.5-2.7,3-2.7C319.9,384.4,321,385.7,320.9,387.2z"/>
		</g>
	</g>
	<polygon class="st3" points="348.1,118.2 257,118.2 258.1,106 349.2,106 	"/>
	<g>
		<g>
			<line class="st3" x1="232.9" y1="116.1" x2="247" y2="116.1"/>
			<rect x="232.9" y="115.5" class="st4" width="14.1" height="1.3"/>
		</g>
		<g>
			<line class="st3" x1="233.3" y1="111.3" x2="247.4" y2="111.3"/>
			<rect x="233.3" y="110.7" class="st4" width="14.1" height="1.3"/>
		</g>
		<g>
			<line class="st3" x1="233.7" y1="106.6" x2="247.8" y2="106.6"/>
			<rect x="233.7" y="106" class="st4" width="14.1" height="1.3"/>
		</g>
	</g>
	<g class="st6">
		<path class="st5" d="M291.6,89.5l-93.9,349.3c3.2,2.3,7.3,3.7,11.7,3.7h7.3l94.9-353H291.6z"/>
		<path class="st5" d="M377.7,74.5h-35.4c-2.3,0-4.4,1.7-4.9,4l-0.2,1.1c-1.2,5.5-6.1,9.6-11.6,9.8l-94.9,353.1H303l94.1-350
			C396.4,82.3,388.3,74.5,377.7,74.5z"/>
	</g>
	<rect x="218" y="98.8" class="st3" width="178.7" height="1.9"/>
	<g>
		<g>
			<g>
				<path class="st10" d="M412.3,144.6c0.2-0.4,0.4-0.8,0.8-1c0.3-0.2,0.6-0.3,1-0.3c2.6-0.5,5.3-1,7.8-0.3c0.2,0.1,0.4,0.1,0.5,0.3
					c0.1,0.1,0.1,0.3,0.1,0.5c0.2,1.4,0.4,2.9,0.6,4.3c0,0.3,0.1,0.7,0,1c-0.1,0.3-0.4,0.5-0.6,0.7c-1.2,1.1-6.4,4.4-7.2,4.5
					c-1.3,0.3-5.2-1-6.4-1.5C407.5,152.2,411.2,147,412.3,144.6z"/>
			</g>
		</g>
		<g>
			<g>
				<g>
					<path class="st3" d="M383.7,188.3c1.1-9.1,21.4-33.5,24.1-37.1c1.5-2,7.6-0.5,8.9,3.2c-5.5,7.7-8.6,14.2-12.4,22.8
						c-0.9,2-4.9,9.9-6.2,11.7C387.9,203.3,383.2,192.2,383.7,188.3z"/>
				</g>
			</g>
		</g>
		<g class="st11">
			<g>
				<path d="M383.7,188.3c1.1-9.1,21.4-33.5,24.1-37.1c1.5-2,7.6-0.5,8.9,3.2c-5.5,7.7-8.6,14.2-12.4,22.8c-0.9,2-4.9,9.9-6.2,11.7
					C387.9,203.3,383.2,192.2,383.7,188.3z"/>
			</g>
		</g>
		<g>
			<g>
				<path class="st10" d="M456.8,209.9c0,0-6.4,0.1-8.4,1.9l-2.8,2.5c-0.5,0.5-0.6,1.3-0.1,1.9c1.5,1.7,4.8,5,8.5,6.3
					c0.8,0.3,1.8,0.1,2.4-0.4c0,0,4.4-5.6,3.7-6.7L456.8,209.9z"/>
				<path class="st3" d="M473.8,210.5c-0.6,0.3-1.2,0.6-1.8,0.9l-9.1,3.4c-6.2,3-6.7-4.6-6.7-4.6l2.5-2.2l16.9-14
					c0,0-15.7-11.7-25.9-21.5c-7.7-8.8-6.7-14.6,2.4-13.6c6.5,0.7,36.2,28.4,38.8,31.4C493.6,193.4,487.6,202.9,473.8,210.5z"/>
				<path class="st11" d="M473.8,210.5c-0.6,0.3-1.2,0.6-1.8,0.9l-9.1,3.4c-6.2,3-6.7-4.6-6.7-4.6l2.5-2.2l16.9-14
					c0,0-15.7-11.7-25.9-21.5c-7.7-8.8-6.7-14.6,2.4-13.6c6.5,0.7,36.2,28.4,38.8,31.4C493.6,193.4,487.6,202.9,473.8,210.5z"/>
				<path class="st4" d="M478.7,179.9c-0.1,0-0.1-0.1-0.1-0.2C478.5,179.7,478.6,179.8,478.7,179.9z"/>
			</g>
			<g>
				<g>
					<g id="_x3C_Group_x3E__1_">
						<path class="st4" d="M419.9,123.1c-0.5-0.1-1.1,0.5-1.2,1.3c-0.2,0.8,0.1,1.5,0.7,1.6c0.5,0.1,1.1-0.5,1.2-1.3
							C420.7,123.9,420.4,123.2,419.9,123.1z"/>
						<path class="st12" d="M418.5,133.5c-1.4,0.1-2.7-0.4-3.7-1.4c2-1.8,3.7-3.8,5.1-6.1L418.5,133.5z"/>
						<path class="st4" d="M424,120.7c-0.8-0.9-2-1.4-3.2-1.3l0,0c-0.1,0-0.1,0-0.2,0c-0.3,0-0.5-0.2-0.5-0.5c0-0.3,0.2-0.5,0.5-0.5
							c1.5-0.2,3,0.4,4,1.5c0.1,0.1,0.1,0.2,0.1,0.3c0,0.3-0.2,0.5-0.5,0.5C424.2,120.9,424.1,120.8,424,120.7z"/>
						<path class="st10" d="M430.2,168.8c13.6-0.1,15.5-7.6,15.5-7.6c-4.1-3.9-4.5-11.1-3.7-17.6c-1,1.5-2.3,2.8-4,3.9
							c-3.2,2.2-6.7,2.7-9.9,2c-0.1,0-0.1,0-0.2-0.1c0,0.1,0.1,0.3,0.1,0.4c0.9,5.2,0.3,10.7-5.1,12.5
							C422.9,162.3,415.2,168.9,430.2,168.8z"/>
						<path class="st10" d="M427.5,147.6c0.2,0.6,0.3,1.2,0.4,1.9c0.1,0,0.1,0.1,0.2,0.1c3.2,0.7,6.7,0.2,9.9-2c1.7-1.2,3-2.5,4-3.9
							c0.2-1.6,0.4-3.3,0.7-4.7l-14.6,8.4L427.5,147.6z"/>
						<path class="st3" d="M447.1,160.6c0,0-2.1-5.9-5-7.7c-2.9-1.8-15.7,0.4-17.7,1.2c-2,0.8-3.9,5.5-3.9,5.5L447.1,160.6z"/>
						<path class="st9" d="M447.1,160.6c0,0-2.1-5.9-5-7.7c-2.9-1.8-15.7,0.4-17.7,1.2c-2,0.8-3.9,5.5-3.9,5.5L447.1,160.6z"/>
						<g>
							<path class="st3" d="M430.4,453c-1.3,0-2.4-0.2-2.8-0.7c-0.2-0.3-0.2-0.7,0-1c0.2-0.3,0.4-0.5,0.7-0.5
								c1.6-0.4,4.9,1.5,5.1,1.5c0.1,0,0.1,0.1,0.1,0.2c0,0.1-0.1,0.2-0.2,0.2C432.4,452.9,431.4,453,430.4,453z M428.9,451.2
								c-0.1,0-0.3,0-0.4,0c-0.2,0-0.4,0.1-0.4,0.3c-0.2,0.3-0.1,0.4,0,0.5c0.4,0.6,2.9,0.6,4.6,0.4
								C431.5,451.7,430.2,451.3,428.9,451.2L428.9,451.2z"/>
							<path class="st3" d="M433.3,452.7L433.3,452.7c-1.2-0.5-3.5-2.5-3.3-3.6c0-0.3,0.2-0.6,0.8-0.6c0.5-0.1,0.9,0.1,1.3,0.4
								c1.3,1,1.5,3.6,1.5,3.7c0,0.1,0,0.2-0.1,0.2C433.4,452.7,433.4,452.7,433.3,452.7z M431,448.9l-0.1,0c-0.4,0-0.4,0.2-0.4,0.3
								c-0.1,0.6,1.4,2.3,2.6,3c-0.1-1.1-0.5-2.1-1.3-2.9C431.6,449,431.3,448.9,431,448.9L431,448.9z"/>
							<polygon class="st10" points="443,430.5 433.5,430.5 434.3,452.5 443.8,452.5 							"/>
							<path class="st4" d="M432,452.1c-6.5,4-8.5,4.2-16,5.8c-1.6,0.4-0.6,4.3,3.3,4.3c6.5,0,7.2-0.3,12.7-0.3
								c4.8,0,10.2,0.2,14,0.3c0.1,0,0.2,0,0.3,0c0.7-0.2,1.2-0.9,1-1.7l-1.9-8.5c-0.1-0.4-0.4-0.6-0.8-0.6l-10.4,0
								C433.5,451.4,432.7,451.7,432,452.1z"/>
							<polygon class="st13" points="443,430.5 443.4,442.8 433.9,442.8 433.5,430.6 							"/>
							<path class="st3" d="M513.9,449.1c-0.1-1.3-0.1-2.5,0.5-3c0.3-0.2,0.7-0.3,1-0.1c0.3,0.1,0.5,0.4,0.6,0.7
								c0.6,1.6-1,5.2-1.1,5.4c0,0.1-0.1,0.2-0.2,0.1c-0.1,0-0.2-0.1-0.2-0.2C514.2,451.1,514.1,450.1,513.9,449.1z M515.7,447.3
								c0-0.2,0-0.3,0-0.4c-0.1-0.2-0.2-0.4-0.4-0.4c-0.3-0.1-0.4-0.1-0.5,0c-0.6,0.5-0.4,3,0.1,4.8
								C515.4,450.1,515.7,448.7,515.7,447.3L515.7,447.3z"/>
							<path class="st3" d="M514.5,452C514.5,452,514.5,452,514.5,452c0.4-1.3,2.3-3.9,3.5-3.8c0.3,0,0.6,0.2,0.7,0.8
								c0.1,0.5,0,1-0.3,1.4c-0.9,1.4-3.6,1.8-3.7,1.9c-0.1,0-0.2,0-0.2-0.1C514.5,452.1,514.5,452.1,514.5,452z M518.3,449.3
								c0,0,0-0.1,0-0.1c0-0.4-0.3-0.4-0.3-0.4c-0.7-0.1-2.2,1.7-2.8,3c1.1-0.2,2.1-0.8,2.9-1.6
								C518.2,449.9,518.3,449.6,518.3,449.3L518.3,449.3z"/>
							<polygon class="st10" points="507.7,430.4 498.5,431.1 503.9,453.2 513.3,452.5 							"/>
							<path class="st4" d="M515.5,450.7c2.9,2.9,4.4,4.4,12.2,6.2c1.7,0.4,0.6,4.5-3.5,4.5c-6.8-0.1-3.1-0.3-8.9-0.4
								c-4.9-0.1-9.3,0-13.2,0c-0.1,0-0.3,0-0.4,0c-0.8-0.2-1.3-1-1.1-1.7l2-8.8c0.1-0.4,0.4-0.7,0.8-0.7l9.5,0.2
								C514,449.9,514.8,450.2,515.5,450.7z"/>
							<polygon class="st13" points="507.8,430.4 510.6,441.8 501.3,442.4 498.5,431.1 							"/>
							<path class="st3" d="M457.5,237.6c0,0,5.2,8,8.8,17.7c5.1,13.8,3.3,21,5,30.3c3,16.4,7.5,29,10.6,41.5
								c9.8,39,30.5,108.1,30.5,108.1l-16.8,3.7c0,0-31.1-82.5-39.9-110.4c-7.9-25.1-28.3-91-28.3-91L457.5,237.6z"/>
							<path class="st14" d="M457.5,237.6c0,0,5.2,8,8.8,17.7c5.1,13.8,3.3,21,5,30.3c3,16.4,7.5,29,10.6,41.5
								c9.8,39,30.5,108.1,30.5,108.1l-16.8,3.7c0,0-31.1-82.5-39.9-110.4c-7.9-25.1-28.3-91-28.3-91L457.5,237.6z"/>
							<g>
								<path class="st3" d="M514.4,432.1l0.2,6l-20.2,2.2c0,0-1.8-6.5-1.7-6.5L514.4,432.1z"/>
								<path class="st9" d="M514.4,432.1l0.2,6l-20.2,2.2c0,0-1.8-6.5-1.7-6.5L514.4,432.1z"/>
							</g>
							<path class="st15" d="M436.9,267.9c6.4,20.7,14.6,46.9,18.9,60.6c0.2,0.7,0.4,1.3,0.7,2.1c-1.7-22.9-6.2-61.4-17.7-62.8
								C438.1,267.7,437.5,267.7,436.9,267.9z"/>
							<path class="st3" d="M442,237.5c0,0,4.9,63.2,5.5,93.1c0.5,27.9-1.5,109-1.5,109l-16.1,0c0,0-7.7-82.9-10.6-111.1
								c-2.7-26.8-9.8-90.4-9.8-90.4L442,237.5z"/>
							<path class="st14" d="M442,237.5c0,0,4.9,63.2,5.5,93.1c0.5,27.9-1.5,109-1.5,109l-16.1,0c0,0-7.7-82.9-10.6-111.1
								c-2.7-26.8-9.8-90.4-9.8-90.4L442,237.5z"/>
							<g>
								<path class="st3" d="M448.3,434l-0.6,5.9l-19.6,0c0,0-0.9-6.6-0.8-6.6L448.3,434z"/>
								<path class="st9" d="M448.3,434l-0.6,5.9l-19.6,0c0,0-0.9-6.6-0.8-6.6L448.3,434z"/>
							</g>
						</g>
						<g>
							<path class="st3" d="M473.3,257.7l-4.5-1.3c-7.2-2.1-14.9-2.3-22.2-0.7l-5.3-12.1l1.6,12.7l-2.3,0
								c-6.7-0.2-13.3,1.2-19.4,3.9c-3.2,1.5-6.1,2.7-6.1,2.5c0-0.4-5.7-24.7-5.7-24.7c-5.8-39.4-4.8-59.4-3.1-69.1
								c0.9-5.2,5-9.3,10.2-10.3c2-0.4,4.2-0.7,6.4-0.9c6.8-0.5,13.6-0.5,20.4-0.2c0.1,0,4.4,0.3,4.5,0.3
								c7.1,0.4,14.4,6.4,13.1,13.4c-4.3,23.3-5,40.3-4.7,51.6L473.3,257.7z"/>
							<path class="st13" d="M405.3,200.9c0,0-0.1-19.4,0.1-23l14.5-9.9C417.1,172.7,410.5,183,405.3,200.9z"/>
						</g>
						<g>
							<path class="st10" d="M417.5,136.7c0.2,5,3,9.2,6.9,11.4l0,0c0,0,0,0,0.1,0c1,0.6,2.2,1.1,3.4,1.3c0.1,0,0.1,0.1,0.2,0.1
								c3.2,0.7,6.7,0.2,9.9-2c1.7-1.2,3-2.5,4-3.9c2.6-3.7,3.6-8.6,5.4-15.5c0.5-2,0.6-4.2,0.2-6.2c-1.5-7.4-8.7-12.1-16-10.6
								C421.3,113.3,417.1,127.5,417.5,136.7z"/>
							<path class="st6" d="M424.5,148.1c1,0.6,2.2,1.1,3.4,1.3c0.1,0-0.5-6-0.5-6C427.5,143.3,425.3,148.1,424.5,148.1z"/>
						</g>
						<g>
							<path class="st4" d="M459.3,129.6c-1.1,1.4-2.5,2.9-4.3,3.1c-1,0.1-2.1-0.1-3.1-0.5c-3.2,5.5-9.9,11.4-9.9,11.4
								c-1.7,0.6-3.5,1-5.3,1c-1.9,0-3.8-0.4-5.5-1.1c-0.6-0.2-1-0.4-1-0.4c-0.5-0.1-3.1-10.9-6.6-12.5c-0.8-0.4-0.8-0.4-0.8-0.4
								c0.2-1.1-0.1-4.3,1-5.3c0.6-0.6-1-2.1-0.9-3.2c0-0.1,0-0.2,0-0.3c-1.1-0.7-1.2-2.2-0.8-3.9c1.1-4.1,3.2-3,3.2-3
								s-1.1-1.4-0.7-3.7c0.4-2.3,4.8-3.5,4.8-3.5s0.6,0.1,1.6,0.3c1-0.8,2.3-1.2,3.5-1.1c1.7,0.1,3.8,1.3,4.7,2.7
								c1.4-1.1,3.3-1.4,5-0.9c1.7,0.6,3,2,3.5,3.7c1.6-0.6,3.3,0,4.6,1.2c1.3,1.2,1.8,3.1,1.3,4.7c1.3,0.4,2.1,1.3,2.2,2.6
								c0.1,1.3-0.2,2.6-0.3,4c-0.2,1.3-0.2,2.7,0.5,3.9C456.6,129.6,458.1,130.3,459.3,129.6z"/>
						</g>
						<path class="st10" d="M427.3,124.1c-2.8,0.9-4.2,5.1-4.3,7.8c-0.1,3,1.9,4.8,4.5,2.8c1.9-1.6,3.2-3.7,3.8-6.1
							C431.9,125.6,430.2,123.2,427.3,124.1z"/>
					</g>
				</g>
			</g>
			<path class="st3" d="M403,168.7c0,0,0,0-17.9,20.4c-2.5,5.8,6.1,12.1,12.2,6.5l21.5-24.8c1.6-3.4,1.8-6.2-0.5-8.4
				C415.3,159.3,410,157.5,403,168.7z"/>
		</g>
	</g>
	<g>
		<g>
			<g>
				<path class="st16" d="M157.9,207.5c8.2,8.8,13.2,13.2,16.3,15.6c3.3,2.6,32-14.8,35.5-16.8c0,0-3.2-3.2-4.5-2.8
					c-5,1.3-27.3,9-27.3,9c-1-0.3-11.3-12.1-11.3-12.1L157.9,207.5z"/>
			</g>
			<g>
				<g>
					<path class="st16" d="M213.4,202L213.4,202L213.4,202c0,0-2.5,4.2-6,5.2l-2.6-2.6l1.2-7.6l0.1-0.5l0.3-0.3l3.6-3.5
						c0.7-0.7,1.9-0.7,2.6,0l2.7,2.6c0.6,0.6,0.7,1.5,0.4,2.2L213.4,202z"/>
				</g>
			</g>
		</g>
		<g>
			<g>
				<g>
					<path class="st4" d="M173.2,204.1c-7.3-10.4-20.1-17.2-23.8-17.3c-5.3-0.1-6.9,1.1-4.9,5.1c3.4,6.8,9,13.7,16.7,22L173.2,204.1
						z"/>
				</g>
			</g>
		</g>
		<path class="st4" d="M152.4,187.4c-3-1.1-4.2-1.5-9-2.7c-5.6-1.3-11.2-2.3-16.9-2.8c-3.6-0.4-7.1-0.5-10-0.6c-0.3,0-0.7,0-1,0.1
			c-2.6,0.6-4.2,3.2-3.7,5.9c5.6,29.5,5.9,42.6,5,57.8l34,1.2c0.9,0,1.6-0.6,1.8-1.5c1.5-7.7,6.2-24.7,6.2-24.7
			c4.8-3.4,4.6-7.3,3.3-12.3c-0.4-1.6-1.3-3.1-5.2-11.5C157.1,196.3,154.2,188,152.4,187.4z"/>
		<path class="st5" d="M130.9,245.6l12.4,0.5c1.8-14.7,0.9-25.7,0.9-42.4C144.2,219.3,135.3,238,130.9,245.6z"/>
		<g>
			<g>
				<path class="st16" d="M143.8,251.6c0,0,15.3,75.6,14.5,106.9c-0.8,33-7.3,89.8-7.3,89.8l-8.1-0.1c0,0-7.2-42.1-3.1-88.2
					c-21.1-46.2-26.6-105.4-26.6-105.4L143.8,251.6z"/>
				<path class="st17" d="M143.8,251.6c0,0,15.3,75.6,14.5,106.9c-0.8,33-7.3,89.8-7.3,89.8l-8.1-0.1c0,0-7.2-42.1-3.1-88.2
					c-21.1-46.2-26.6-105.4-26.6-105.4L143.8,251.6z"/>
			</g>
			<g>
				<path class="st16" d="M136.9,270.2c0,0,4,59.1-0.2,90.2c-4.4,32.7-16.9,88.5-16.9,88.5l-8-1c0,0-2.7-42.6,6.4-88
					c-16-48.2-12-90.1-12-90.1L136.9,270.2z"/>
				<path class="st16" d="M136.9,270.2c0,0,4,59.1-0.2,90.2c-4.4,32.7-16.9,88.5-16.9,88.5l-8-1c0,0-2.7-42.6,6.4-88
					c-16-48.2-12-90.1-12-90.1L136.9,270.2z"/>
			</g>
			<g>
				<path class="st3" d="M106.5,338.2c4.8,1,12.4,3.1,25.1,4.4c0.3,0,0.5,0,0.8,0.1c0.5,0.1,1.1,0.1,1.7,0.1
					c3.4,0.2,26.3,3.1,27.8-6.3c0,0-4.9-23.3-9.7-49.2c-2.9-15.7-0.5-37.7-0.5-37.7l0,0c-9.9-1.2-19.9-1.5-29.9-0.9L116,249
					c0,0-19.6,19.4-14.7,38.6C108.6,316.3,106.5,338.2,106.5,338.2z"/>
			</g>
			<g class="st14">
				<path d="M106.5,338.2c4.8,1,12.4,3.1,25.1,4.4c0.3,0,0.5,0,0.8,0.1c0.5,0.1,1.1,0.1,1.7,0.1c3.4,0.2,26.3,3.1,27.8-6.3
					c0,0-4.9-23.3-9.7-49.2c-2.9-15.7-0.5-37.7-0.5-37.7l0,0c-9.9-1.2-19.9-1.5-29.9-0.9L116,249c0,0-19.6,19.4-14.7,38.6
					C108.6,316.3,106.5,338.2,106.5,338.2z"/>
			</g>
		</g>
		<path class="st18" d="M121.7,181.4L121.7,181.4c0.8,3,2.1,5.8,3.9,8.3c4.9,6.8,12.2,14.1,15.4,14.9c0.9-2.1,2.3-6.3,2.3-6.3
			c2.1,1,2.7,4,3.4,6.3c3.4-5.5,5.9-14.9,5.1-18.3c0,0-4.1-1.2-6.1-1.7c-5.6-1.3-11.2-2.2-16.9-2.7
			C126.4,181.6,123.9,181.4,121.7,181.4z"/>
		<path class="st5" d="M121.6,180.8l1.1,2c4.3,7.9,14.4,18,18.3,19c0.9-2.1,1.9-5.8,1.9-5.8c2.1,1,3.6,4,4.3,6.3
			c3.4-5.5,5.4-13.1,4.5-16.6l0,0c-2-0.6-4.1-1.2-6.1-1.7c-5.6-1.3-11.2-2.2-16.9-2.7C126.3,181,123.8,180.8,121.6,180.8z"/>
		<g>
			<path class="st3" d="M117,249l17.2,0.5l1.4,0l3.7,0.1l1.4,0l10.1,0.3c0.3,0,0.6-0.2,0.6-0.4l0.4-3.2c0-0.2-0.2-0.4-0.6-0.4
				l-10-0.4l-1.2,0l-4.9-0.2l-1.2,0l-16.6-0.7c-0.2,0-0.5,0.1-0.6,0.3l-0.4,3.7C116.3,248.8,116.6,249,117,249z"/>
			<path class="st19" d="M117,249l17.2,0.5l1.4,0l3.7,0.1l1.4,0l10.1,0.3c0.3,0,0.6-0.2,0.6-0.4l0.4-3.2c0-0.2-0.2-0.4-0.6-0.4
				l-10-0.4l-1.2,0l-4.9-0.2l-1.2,0l-16.6-0.7c-0.2,0-0.5,0.1-0.6,0.3l-0.4,3.7C116.3,248.8,116.6,249,117,249z"/>
		</g>
		<g>
			<path class="st4" d="M146.1,250.2l-1.1,0c-0.2,0-0.4-0.1-0.4-0.3l0.6-4.6c0-0.1,0.2-0.3,0.4-0.3l1.1,0c0.2,0,0.4,0.1,0.4,0.3
				l-0.6,4.6C146.5,250.1,146.4,250.3,146.1,250.2z"/>
			<path class="st4" d="M127,250l-1,0c-0.2,0-0.4-0.1-0.4-0.3l0.6-4.6c0-0.1,0.2-0.2,0.4-0.2l1,0c0.2,0,0.4,0.1,0.4,0.3l-0.6,4.6
				C127.4,249.9,127.2,250,127,250z"/>
		</g>
		<polygon class="st3" points="163.5,236.5 137.5,236.5 140.6,201.8 166.5,201.8 		"/>
		<g>
			<path class="st16" d="M117.1,230.1c1-1.1,1.6-2.4,1.4-3.8c0,0,0-2.1,0.1-5.3c0.1-9.4,0.2-28.1-0.8-30.6c-2.1-5.4-5.8-8.3-7.7-5.1
				c-2.2,3.7-2.4,31.5-2.4,31.5C108.2,235.1,114.9,232.6,117.1,230.1z"/>
			<g>
				<g>
					<path class="st16" d="M153,227.3L153,227.3L153,227.3c0,0-4.2,2.5-7.8,1.8l-1.1-3.5l4.6-6.2l0.3-0.4l0.4-0.1l4.8-1.4
						c1-0.3,2,0.3,2.3,1.2l1.1,3.6c0.3,0.8,0,1.6-0.7,2.1L153,227.3z"/>
				</g>
			</g>
			<path class="st16" d="M111.6,231.1c3,3.7,34.1-1.8,34.3-1.9c1-0.5,1.2-3.1,0-4.1c-0.6-0.5-32.4-3.4-34.6-3.6
				C107.6,227.3,110,229.2,111.6,231.1z"/>
		</g>
		<g>
			<g>
				<g>
					<path class="st4" d="M155.6,144.7c4.2,5.1,6.4,8.9,3.9,26c-0.5,3.2,0.9,10.8,1.5,10.9c-16.6-1.9-21.3-4.6-29.2-9.5
						c-5.3-3.2-9.6-14.9-8.2-20.9c1.5-6.5,8.6-14.1,15.4-14.7C146.7,135.8,150.8,138.9,155.6,144.7z"/>
					<path class="st16" d="M144.3,176.9c-1.8,3.5-2.8,7.5,1.4,11c0.9,0.7,1.6,1.8,1.8,2.9c0.4,1.9-0.4,3.9-7,1.3
						c-9.5-3.7-9.8-9.7-9.8-9.7c4.3-2.1,5.5-12.3,5.6-17.9L144.3,176.9z"/>
					<path class="st13" d="M138.2,172.7c-0.3,2.5,2.8,5.8,4.9,7c0.3-0.9,0.7-1.9,1.1-2.7l-4.7-7.4
						C138.9,170.5,138.4,171.5,138.2,172.7z"/>
					<path class="st16" d="M132,150.5c2.4-6.3,9.5-9.5,15.9-7c8.9,3.4,10.6,16.7,8.9,24.9c-1.8,9.1-12.8,12.1-19.9,5.2
						c-4.7-4.6-4.9-8.4-5.6-17.5C131.1,154.2,131.3,152.3,132,150.5z"/>
					<path class="st4" d="M133.1,165.7c0,0,3.8-3.7,3.1-10.4c0,0,4.1-4.2,3.9-8.7c0,0,1.2,3.6,0,6.2c0,0,10.7-0.8,10.4-6.2
						c0,0,0.9,4.7-0.7,6.1c0,0,7.4-0.6,6.8-5.6c-0.9-7.8-7.5-8.2-7.5-8.2s-7.1-6-16.9,4.6c0,0-11.6,7.2-3.4,19.2L133.1,165.7z"/>
					<path class="st12" d="M151.4,165.2c0.9,0.2,1.9,0,2.6-0.6c-1.1-1.4-2.1-3-2.8-4.7L151.4,165.2z"/>
					<path class="st4" d="M144.5,166c-0.1-0.1,0-0.2,0.1-0.3c0.1-0.1,0.2,0,0.3,0.1c1.2,1.5,3,2.3,4.8,2.2c0.1,0,0.2,0.1,0.2,0.2
						c0,0,0,0,0,0c0,0.1-0.1,0.2-0.2,0.2c-0.4,0-0.7,0-1.1,0C147,168.1,145.5,167.3,144.5,166z"/>
				</g>
				<path class="st16" d="M127.9,161.6c-0.1-1.9,1.4-3.4,3.2-3.5c2.6,0,4.2,3.1,4.6,5.4c0.4,2.4-1.1,4.5-3.5,3.5
					c-1.8-0.8-3.2-2.3-4-4.1C128,162.5,127.9,162,127.9,161.6z"/>
			</g>
			<g>
				<path class="st4" d="M145.2,157.5c0,0.9,0.4,1.7,1,1.7c0.6,0,1.1-0.7,1.1-1.6c0-0.9-0.4-1.7-1-1.7
					C145.7,155.8,145.2,156.6,145.2,157.5z"/>
				<path class="st4" d="M153.6,158.4c0,0.9,0.4,1.7,1,1.7c0.6,0,1.1-0.7,1.1-1.6c0-0.9-0.4-1.7-1-1.7
					C154.2,156.8,153.7,157.5,153.6,158.4z"/>
				<path class="st4" d="M154.5,156.9l2.2-0.6C156.7,156.3,155.5,158,154.5,156.9z"/>
				<path class="st4" d="M142.7,154.5c-0.1,0-0.1-0.1-0.2-0.1c-0.2-0.2-0.2-0.5,0-0.6c0,0,0,0,0,0c1.1-1.2,2.8-1.9,4.5-1.6
					c0.2,0.1,0.4,0.3,0.3,0.5c0,0.2-0.3,0.4-0.5,0.4c-1.4-0.2-2.8,0.4-3.7,1.4C143,154.5,142.8,154.5,142.7,154.5z"/>
				<path class="st4" d="M156.9,155.6c-0.1,0-0.1-0.1-0.2-0.2c-0.8-1.2-2-1.9-3.4-1.9c-0.2,0-0.5-0.2-0.5-0.4c0,0,0,0,0,0
					c0-0.2,0.2-0.4,0.4-0.5c1.7,0,3.2,0.9,4.2,2.3c0.1,0.2,0.1,0.5-0.1,0.6C157.2,155.6,157,155.7,156.9,155.6L156.9,155.6z"/>
				<path class="st4" d="M146.1,155.9l2.2-0.6C148.3,155.3,147.1,157,146.1,155.9z"/>
			</g>
		</g>
		<g>
			<g>
				<path class="st4" d="M113.8,181.8c2.2-0.5,4.5,0.1,6,1.7c1.7,1.8,2.8,4.3,3.1,6.8c0.5,3.9-3.7,17.7-3.6,21.6
					c-4.1-2.2-10.1-5.3-15.9-5.9c0.8-9.1,1.8-15.2,3.6-18.2c1-1.7,2.1-3.5,3.6-4.8C111.4,182.5,112.6,182.1,113.8,181.8z"/>
			</g>
		</g>
	</g>
	<path class="st4" d="M153.1,449.2c2.9,2.9,4.4,4.4,12.2,6.2c1.7,0.4,0.6,4.5-3.5,4.5c-6.8-0.1-3.1-0.3-8.9-0.4
		c-4.9-0.1-9.3,0-13.2,0c-0.1,0-0.3,0-0.4,0c-0.8-0.2-1.3-1-1.1-1.7l2-8.8c0.1-0.4,0.4-0.7,0.8-0.7l9.5,0.2
		C151.5,448.4,152.4,448.7,153.1,449.2z"/>
	<path class="st4" d="M122.7,449.9c1.9,3.6,2.8,5.5,9.7,9.7c1.5,0.9-0.8,4.5-4.7,3.2c-6.4-2.2-2.8-1.3-8.3-3.2
		c-4.7-1.6-8.8-2.9-12.6-4.1c-0.1,0-0.2-0.1-0.4-0.2c-0.7-0.4-0.9-1.3-0.5-2l4.6-7.8c0.2-0.4,0.6-0.5,1-0.4l9,3.2
		C121.5,448.6,122.3,449.1,122.7,449.9z"/>
</g>
</svg>
