<?xml version="1.0" encoding="utf-8"?>
<!-- Generator: Adobe Illustrator 23.0.3, SVG Export Plug-In . SVG Version: 6.00 Build 0)  -->
<svg version="1.1" id="Layer_1" xmlns:svgjs="http://svgjs.com/svgjs"
	 xmlns="http://www.w3.org/2000/svg" xmlns:xlink="http://www.w3.org/1999/xlink" x="0px" y="0px" viewBox="0 0 512 512"
	 style="enable-background:new 0 0 512 512;" xml:space="preserve">
<style type="text/css">
	.st0{fill:#347BFA;}
	.st1{fill:#CADCF0;}
	.st2{fill:#E9F3FC;}
	.st3{fill:#738BAB;}
	.st4{enable-background:new    ;}
</style>
<g>
	<g id="Exp-2.-F">
		<g>
			<path class="st0" d="M75.8,162.2L17,257.8c-1.4,2.3-1.5,5.1-0.2,7.4s3.8,3.8,6.4,3.8h66.2c4.1,0,7.4-3.3,7.4-7.4
				s-3.3-7.4-7.4-7.4h-53l51.9-84.4c2.1-3.5,1-8-2.4-10.1C82.4,157.7,77.9,158.7,75.8,162.2z"/>
			<path class="st0" d="M82,224.9v103c0,4.1,3.3,7.4,7.4,7.4s7.4-3.3,7.4-7.4v-103c0-4.1-3.3-7.4-7.4-7.4S82,220.8,82,224.9z"/>
			<path class="st0" d="M414.1,162.2l-58.8,95.6c-1.4,2.3-1.5,5.1-0.2,7.4s3.8,3.8,6.4,3.8h66.2c4.1,0,7.4-3.3,7.4-7.4
				s-3.3-7.4-7.4-7.4h-53l51.9-84.4c2.1-3.5,1-8-2.4-10.1C420.7,157.7,416.2,158.7,414.1,162.2L414.1,162.2z"/>
			<path class="st0" d="M420.3,224.9v103c0,4.1,3.3,7.4,7.4,7.4s7.4-3.3,7.4-7.4v-103c0-4.1-3.3-7.4-7.4-7.4
				S420.3,220.8,420.3,224.9z"/>
		</g>
		<path class="st1" d="M131.7,222c8.8-5.1,23.3,3.6,32.5,19.5s9.4,32.8,0.6,37.9c-8.8,5.1-23.3-3.6-32.5-19.5
			C123.2,244,122.9,227,131.7,222z"/>
		<path class="st1" d="M319.2,222c-8.8-5.1-23.3,3.6-32.5,19.5s-9.4,32.8-0.6,37.9s23.3-3.6,32.5-19.5C327.7,244,328,227,319.2,222z
			"/>
		<path class="st1" d="M232.8,135.1c39.7,0.7,76.5,34.6,73.5,95.6c-1.8,37.4-25,47.6-37.9,88.2c-6.3,19.8-6.9,39.8-6.7,50.6
			c0.1,2.1-0.7,4.2-2.3,5.7c-1.6,1.5-3.7,2.2-5.8,1.9c-47.8-7.1-109.2-70.5-109.2-131.8C144.5,180.5,184.1,134.3,232.8,135.1
			L232.8,135.1z"/>
		<path class="st2" d="M148.8,274.3c-2.8-9.5-4.3-19.2-4.3-28.9c0-64.9,39.6-111.1,88.3-110.3c30.1,0.5,58.5,20.1,69.2,56.1
			c-5.7,55.6-48.8,98.9-101,98.9C181.9,290.1,164.1,284.3,148.8,274.3z"/>
		<ellipse class="st3" cx="225.4" cy="239.6" rx="14.7" ry="22.1"/>
		<path class="st3" d="M203.1,189.1c1.3,4.9,1.4,13.1-5.9,18c-1.7,1.1-2.1,3.4-1,5.1c1.1,1.7,3.4,2.1,5.1,1
			c10.6-7.1,10.8-19,8.8-26.1c-0.5-2-2.6-3.1-4.5-2.6C203.7,185.1,202.6,187.1,203.1,189.1L203.1,189.1z"/>
		<path class="st3" d="M240.7,187.1c-1.9,7.1-1.7,18.9,8.8,26.1c1.7,1.1,4,0.7,5.1-1s0.7-4-1-5.1c-7.3-4.9-7.2-13.2-5.9-18
			c0.5-2-0.6-4-2.6-4.5C243.2,184,241.2,185.2,240.7,187.1L240.7,187.1z"/>
	</g>
</g>
<g class="st4">
	<path class="st0" d="M28.7,123.9V85.3H53v5.5H35v10.9h14.7v5.4H35v11.3H53v5.5H28.7z"/>
	<path class="st0" d="M59.1,123.9V95.7h6.1v3.4c3.2-2.1,6.4-3.4,9.6-4v6.1c-3.2,0.6-6,1.5-8.3,2.5l-1.2,0.5v19.7H59.1z"/>
	<path class="st0" d="M79.5,123.9V95.7h6.1v3.4c3.2-2.1,6.4-3.4,9.6-4v6.1c-3.2,0.6-6,1.5-8.3,2.5l-1.2,0.5v19.7H79.5z"/>
	<path class="st0" d="M101.1,98.8c1.9-2.4,5.2-3.7,9.7-3.7c4.5,0,7.7,1.2,9.7,3.7c1.9,2.4,2.9,6.1,2.9,11c0,4.9-0.9,8.6-2.8,11
		c-1.9,2.5-5.1,3.7-9.7,3.7c-4.6,0-7.9-1.2-9.7-3.7c-1.9-2.5-2.8-6.2-2.8-11C98.2,104.9,99.2,101.2,101.1,98.8z M105.7,117.1
		c0.9,1.5,2.6,2.3,5.1,2.3c2.5,0,4.2-0.8,5.1-2.3c0.9-1.5,1.3-4,1.3-7.4c0-3.4-0.5-5.8-1.4-7.3c-0.9-1.4-2.6-2.1-5-2.1
		c-2.4,0-4.1,0.7-5,2.1c-0.9,1.4-1.4,3.8-1.4,7.3C104.4,113.1,104.8,115.6,105.7,117.1z"/>
	<path class="st0" d="M129.4,123.9V95.7h6.1v3.4c3.2-2.1,6.4-3.4,9.6-4v6.1c-3.2,0.6-6,1.5-8.3,2.5l-1.2,0.5v19.7H129.4z"/>
	<path class="st0" d="M150.2,123.9V116h6.6v7.9H150.2z M150.8,110.3l-0.6-25h6.5l-0.6,25H150.8z"/>
</g>
<g class="st4">
	<path class="st0" d="M251.4,426.1h-4.9v7.5h-3.9v-24.1h8.8c5.5,0,8.2,2.7,8.2,8.1c0,2.8-0.7,4.9-2.1,6.3
		C256.1,425.4,254.1,426.1,251.4,426.1z M246.4,422.7h4.9c2.8,0,4.2-1.7,4.2-5.1c0-1.6-0.3-2.8-1-3.6c-0.7-0.8-1.7-1.1-3.2-1.1h-4.9
		V422.7z"/>
	<path class="st0" d="M275.7,421.4v8c0,0.5,0.2,0.9,0.4,1.1c0.2,0.2,0.6,0.4,1.1,0.5l-0.1,2.9c-2,0-3.6-0.4-4.7-1.3
		c-1.9,0.9-3.8,1.3-5.7,1.3c-3.5,0-5.2-1.9-5.2-5.6c0-1.8,0.5-3.1,1.4-3.9c1-0.8,2.4-1.3,4.4-1.4l4.5-0.4v-1.3c0-0.9-0.2-1.6-0.6-2
		c-0.4-0.4-1-0.6-1.8-0.6c-1.5,0-3.4,0.1-5.6,0.3l-1.1,0.1l-0.1-2.7c2.6-0.6,4.9-0.9,7.1-0.9s3.7,0.5,4.6,1.4
		C275.3,417.9,275.7,419.4,275.7,421.4z M267.8,425.8c-1.6,0.1-2.4,1-2.4,2.6s0.7,2.4,2.1,2.4c1.2,0,2.4-0.2,3.7-0.6l0.6-0.2v-4.7
		L267.8,425.8z"/>
	<path class="st0" d="M295.9,436c0,3.8-2.8,5.8-8.3,5.8c-2.7,0-4.7-0.4-6-1.1c-1.3-0.7-1.9-2.1-1.9-4c0-0.9,0.2-1.6,0.6-2.2
		c0.4-0.6,1.1-1.3,2-2c-0.8-0.5-1.2-1.4-1.2-2.6c0-0.5,0.3-1.2,1-2.3l0.3-0.5c-1.7-1-2.5-2.8-2.5-5.3c0-2.1,0.6-3.7,1.9-4.6
		s3-1.5,5.1-1.5c1,0,2.1,0.1,3.1,0.4l0.5,0.1l5.5-0.1v3.1l-2.9-0.2c0.6,0.8,1,1.8,1,2.9c0,2.3-0.6,3.9-1.7,4.8
		c-1.2,0.9-3,1.3-5.4,1.3c-0.6,0-1.1,0-1.5-0.1c-0.3,0.8-0.5,1.4-0.5,1.8c0,0.4,0.2,0.7,0.7,0.9c0.4,0.2,1.5,0.3,3.2,0.3
		c2.8,0,4.7,0.4,5.7,1.1C295.4,432.6,295.9,434,295.9,436z M283.5,436.3c0,0.8,0.3,1.4,1,1.8c0.7,0.4,1.8,0.5,3.4,0.5
		c2.8,0,4.3-0.8,4.3-2.4c0-0.9-0.3-1.5-0.8-1.7c-0.5-0.2-1.5-0.4-3-0.4l-3.5-0.2c-0.5,0.4-0.9,0.8-1.1,1.2
		C283.6,435.4,283.5,435.8,283.5,436.3z M284.5,424.1c0.5,0.5,1.3,0.8,2.5,0.8c1.1,0,2-0.3,2.5-0.8s0.8-1.3,0.8-2.4
		c0-1.1-0.3-1.9-0.8-2.4c-0.5-0.5-1.3-0.8-2.5-0.8c-2.2,0-3.2,1-3.2,3.1C283.8,422.8,284,423.6,284.5,424.1z"/>
	<path class="st0" d="M311.6,430.4l1-0.1l0.1,2.9c-2.7,0.5-5,0.8-7.1,0.8c-2.6,0-4.5-0.7-5.6-2.1c-1.1-1.4-1.7-3.7-1.7-6.9
		c0-6.2,2.5-9.4,7.6-9.4c4.9,0,7.4,2.7,7.4,8.1l-0.2,2.7h-10.9c0,1.5,0.3,2.5,1,3.2c0.6,0.7,1.7,1,3.4,1
		C308.1,430.6,309.8,430.6,311.6,430.4z M309.5,423.4c0-1.7-0.3-3-0.8-3.6c-0.6-0.7-1.5-1-2.8-1s-2.3,0.4-2.9,1.1s-0.9,1.9-0.9,3.6
		H309.5z"/>
	<path class="st0" d="M328.5,433.6h-3.8V416h3.8v1.1c1.7-1,3.3-1.5,4.9-1.5c2.3,0,3.9,0.7,4.8,2s1.3,3.5,1.3,6.6v9.4h-3.8v-9.3
		c0-1.9-0.2-3.3-0.6-4c-0.4-0.8-1.3-1.2-2.5-1.2c-1.2,0-2.3,0.2-3.4,0.7l-0.5,0.2V433.6z"/>
	<path class="st0" d="M344.8,417.9c1.2-1.5,3.2-2.3,6-2.3s4.8,0.8,6,2.3c1.2,1.5,1.8,3.8,1.8,6.9s-0.6,5.4-1.8,6.9
		c-1.2,1.5-3.2,2.3-6.1,2.3s-4.9-0.8-6.1-2.3c-1.2-1.5-1.8-3.8-1.8-6.9S343.6,419.4,344.8,417.9z M347.7,429.3
		c0.5,0.9,1.6,1.4,3.2,1.4s2.6-0.5,3.2-1.4c0.5-0.9,0.8-2.5,0.8-4.6s-0.3-3.6-0.9-4.5c-0.6-0.9-1.6-1.3-3.1-1.3s-2.5,0.4-3.1,1.3
		c-0.6,0.9-0.9,2.4-0.9,4.5S347.2,428.4,347.7,429.3z"/>
	<path class="st0" d="M372,419.3h-4.9v7.7c0,1.4,0.1,2.4,0.3,2.9c0.2,0.5,0.8,0.7,1.6,0.7l2.9-0.1l0.2,3.1c-1.6,0.3-2.8,0.5-3.6,0.5
		c-2,0-3.4-0.5-4.1-1.4c-0.7-0.9-1.1-2.6-1.1-5.2v-8.2h-2.3V416h2.3v-5.1h3.8v5.1h4.9V419.3z"/>
	<path class="st0" d="M387.5,419.3v14.3h-3.8v-14.3h-2V416h2v-1.1c0-2.5,0.4-4.2,1.1-5.2c0.7-0.9,2-1.4,3.9-1.4l3.8,0.4l0,3.1
		c-1.2,0-2.1-0.1-2.9-0.1s-1.3,0.2-1.6,0.7c-0.3,0.5-0.5,1.3-0.5,2.5v1.1h4.6v3.3H387.5z"/>
	<path class="st0" d="M395.8,417.9c1.2-1.5,3.2-2.3,6-2.3s4.8,0.8,6,2.3c1.2,1.5,1.8,3.8,1.8,6.9s-0.6,5.4-1.8,6.9s-3.2,2.3-6.1,2.3
		s-4.9-0.8-6.1-2.3s-1.8-3.8-1.8-6.9S394.6,419.4,395.8,417.9z M398.7,429.3c0.5,0.9,1.6,1.4,3.2,1.4c1.6,0,2.6-0.5,3.2-1.4
		c0.5-0.9,0.8-2.5,0.8-4.6s-0.3-3.6-0.9-4.5c-0.6-0.9-1.6-1.3-3.1-1.3c-1.5,0-2.5,0.4-3.1,1.3c-0.6,0.9-0.9,2.4-0.9,4.5
		S398.2,428.4,398.7,429.3z"/>
	<path class="st0" d="M424.2,416h3.8v17.6h-3.8v-1.1c-1.7,1-3.3,1.5-4.8,1.5c-2.4,0-4-0.7-4.9-2s-1.2-3.6-1.2-6.8V416h3.8v9.2
		c0,2.1,0.2,3.5,0.5,4.3c0.4,0.7,1.2,1.1,2.5,1.1c1.3,0,2.4-0.2,3.5-0.7l0.5-0.2V416z"/>
	<path class="st0" d="M436.5,433.6h-3.8V416h3.8v1.1c1.7-1,3.3-1.5,4.9-1.5c2.3,0,3.9,0.7,4.8,2s1.3,3.5,1.3,6.6v9.4h-3.8v-9.3
		c0-1.9-0.2-3.3-0.6-4c-0.4-0.8-1.3-1.2-2.5-1.2c-1.2,0-2.3,0.2-3.4,0.7l-0.5,0.2V433.6z"/>
	<path class="st0" d="M466.2,408.7v24.9h-3.8v-0.9c-1.7,0.9-3.3,1.3-4.7,1.3c-2.3,0-4-0.7-5.1-2.1c-1.1-1.4-1.6-3.7-1.6-7
		c0-3.3,0.6-5.6,1.8-7.1s3-2.2,5.5-2.2c0.8,0,2.2,0.2,4,0.5v-7.4H466.2z M461.8,429.9l0.6-0.2v-10.4c-1.4-0.2-2.7-0.4-3.9-0.4
		c-2.4,0-3.6,2-3.6,5.9c0,2.2,0.3,3.7,0.8,4.5s1.4,1.3,2.6,1.3S460.7,430.3,461.8,429.9z"/>
	<path class="st0" d="M471.1,433.6v-4.9h4.1v4.9H471.1z M471.5,425.1l-0.4-15.6h4.1l-0.4,15.6H471.5z"/>
</g>
</svg>
