<svg xmlns="http://www.w3.org/2000/svg" version="1.1" xmlns:xlink="http://www.w3.org/1999/xlink" xmlns:svgjs="http://svgjs.com/svgjs" width="512" height="512" x="0" y="0" viewBox="0 0 64 64" style="enable-background:new 0 0 512 512" xml:space="preserve" class=""><g><g xmlns="http://www.w3.org/2000/svg" id="Exp-2.-F"><path d="m32 5.529c3.208 0 4 3.241 4 6 0 2.76-1.792 4-4 4s-4-1.24-4-4c0-2.759.792-6 4-6z" fill="#a4bbdb" data-original="#a4bbdb" class=""></path><path d="m32 5.529c3.208 0 4 3.241 4 6 0 2.76-1.792 4-4 4-.2 0-.397-.01-.59-.031 1.929-.206 3.411-1.46 3.411-3.969 0-2.749.384-5.975-2.784-6z" fill="#738bab" data-original="#738bab"></path><path d="m32 47.471c11.866 0 20.5 2.464 21.5 5.5.95 2.883-9.634 5.5-21.5 5.5s-22.45-2.617-21.5-5.5c1-3.036 9.634-5.5 21.5-5.5z" fill="#a4bbdb" data-original="#a4bbdb" class=""></path><path d="m50.667 50.449c1.55.755 2.534 1.613 2.833 2.522.95 2.883-9.634 5.5-21.5 5.5-6.677 0-12.948-.829-16.986-2.067 3.276.373 6.89.585 10.612.585 13.898 0 26.295-2.955 25.182-6.21-.038-.111-.085-.221-.141-.33z" fill="#cadcf0" data-original="#cadcf0" class=""></path><circle cx="32" cy="50.959" fill="#738bab" r="5" data-original="#738bab"></circle><path d="m27.074 51.822c-.049-.28-.074-.568-.074-.863 0-2.759 2.24-5 5-5 2.023 0 3.767 1.204 4.554 2.934-.911-.37-1.906-.574-2.948-.574-2.725 0-5.126 1.392-6.532 3.503z" fill="#526b8f" data-original="#526b8f"></path><path d="m10.5 52.971s2.359-6.233 4.234-11.189c1.498-3.959 2.266-8.156 2.266-12.388 0-1.271 0-2.651 0-4.063 0-3.713 1.475-7.274 4.101-9.9 2.625-2.625 6.186-4.1 9.899-4.1h2c3.713 0 7.274 1.475 9.899 4.1 2.626 2.626 4.101 6.187 4.101 9.9v4.157c0 4.265.78 8.495 2.301 12.48l4.199 11.003c-1-3.036-9.634-5.5-21.5-5.5-11.125 0-19.408 2.166-21.224 4.938z" fill="#cadcf0" data-original="#cadcf0" class=""></path><path d="m31.463 11.331c-13.478 5.772-9.892 16.958-12.097 27.16-.626 2.896-1.719 6.984-3.801 11.067-2.422.8-4.088 1.78-4.789 2.851l-.276.562s2.359-6.233 4.234-11.189c1.498-3.959 2.266-8.156 2.266-12.388 0-1.271 0-2.651 0-4.063 0-3.713 1.475-7.274 4.101-9.9 2.625-2.625 6.186-4.1 9.899-4.1z" fill="#e9f3fc" data-original="#e9f3fc"></path><g fill="#347bfa"><path d="m4.36 21.099c3.557 2.962 6.83 4.415 9.454 4.77 2.18.295 3.956-.155 5.187-1.097 1.292-.987 2.033-2.523 1.999-4.459-.034-1.919-.753-3.285-1.727-4.157-2.424-2.171-6.486-1.307-7.247 1.947-.125.538.209 1.076.746 1.202.538.125 1.076-.209 1.202-.746.412-1.765 2.65-2.091 3.964-.913.629.562 1.04 1.464 1.062 2.702.018 1.026-.271 1.887-.85 2.507-.589.63-1.462.997-2.535 1.084-2.533.205-6.033-1.095-9.975-4.377-.424-.353-1.055-.295-1.409.129-.353.424-.295 1.055.129 1.408z" fill="#347bfa" data-original="#347bfa" class=""></path><path d="m4.301 30.046c3.781 3.694 11.591 4.689 18.056 2.219 6.622-2.529 8.607-4.802 12.979-6.364.52-.186.791-.759.606-1.279-.186-.519-.759-.79-1.278-.605-4.386 1.567-6.378 3.843-13.021 6.38-5.702 2.178-12.61 1.476-15.944-1.781-.395-.386-1.029-.379-1.414.016-.386.395-.379 1.028.016 1.414z" fill="#347bfa" data-original="#347bfa" class=""></path><path d="m40.45 24.224c1.736-.875 5.205-1.723 7.191-.96.515.198 1.094-.059 1.292-.574s-.059-1.094-.574-1.292c-2.428-.934-6.686-.03-8.809 1.04-.493.248-.691.85-.443 1.343s.85.691 1.343.443z" fill="#347bfa" data-original="#347bfa" class=""></path><path d="m45 21.988c1.34-6.93 11.733-4.999 14 1.343 0 0-1.353.152-4 2-4.447 3.106-10.852 1.065-10-3.343z" fill="#347bfa" data-original="#347bfa" class=""></path><path d="m31.646 44.094c3.763-3.183 9.377-5.686 13.589-5.913 2.374-.128 4.299.437 4.796 2.396.229.902.153 1.662-.15 2.267-.453.905-1.382 1.443-2.345 1.624-1.034.193-2.145-.005-2.757-.765-.347-.429-.977-.497-1.407-.151-.429.347-.497.977-.151 1.407 1.051 1.302 2.91 1.807 4.684 1.474 1.563-.293 3.029-1.225 3.764-2.693.489-.977.67-2.2.3-3.655-.73-2.878-3.355-4.089-6.841-3.901-4.575.246-10.687 2.927-14.774 6.383-.421.357-.474.988-.118 1.41.357.421.988.474 1.41.117z" fill="#347bfa" data-original="#347bfa" class=""></path></g></g></g></svg>