<svg width="572" height="466" viewBox="0 0 572 466" fill="none" xmlns="http://www.w3.org/2000/svg">
<rect x="6.18359" y="6.18311" width="443.634" height="359.282" stroke="#318EFF" stroke-width="2"/>
<rect x="444.246" y="1" width="10.7535" height="10.7535" fill="white" stroke="#318EFF" stroke-width="2"/>
<rect x="1" y="1" width="10.7535" height="10.7535" fill="white" stroke="#318EFF" stroke-width="2"/>
<rect x="1" y="359.894" width="10.7535" height="10.7535" fill="white" stroke="#318EFF" stroke-width="2"/>
<rect x="444.246" y="359.894" width="10.7535" height="10.7535" fill="white" stroke="#318EFF" stroke-width="2"/>
<rect x="61.2266" y="50.9617" width="449.549" height="364.077" stroke="#318EFF" stroke-width="2"/>
<rect x="505.129" y="45.7363" width="10.8697" height="10.8697" fill="white" stroke="#318EFF" stroke-width="2"/>
<rect x="56" y="45.7363" width="10.8697" height="10.8697" fill="white" stroke="#318EFF" stroke-width="2"/>
<rect x="56" y="409.395" width="10.8697" height="10.8697" fill="white" stroke="#318EFF" stroke-width="2"/>
<rect x="505.129" y="409.395" width="10.8697" height="10.8697" fill="white" stroke="#318EFF" stroke-width="2"/>
<rect x="116.227" y="95.698" width="449.549" height="364.077" stroke="#318EFF" stroke-width="2"/>
<rect x="560.129" y="90.4727" width="10.8697" height="10.8697" fill="white" stroke="#318EFF" stroke-width="2"/>
<rect x="111" y="90.4727" width="10.8697" height="10.8697" fill="white" stroke="#318EFF" stroke-width="2"/>
<rect x="111" y="454.131" width="10.8697" height="10.8697" fill="white" stroke="#318EFF" stroke-width="2"/>
<rect x="560.129" y="454.131" width="10.8697" height="10.8697" fill="white" stroke="#318EFF" stroke-width="2"/>
</svg>
