<svg xmlns="http://www.w3.org/2000/svg" version="1.1" xmlns:xlink="http://www.w3.org/1999/xlink" xmlns:svgjs="http://svgjs.com/svgjs" width="512" height="512" x="0" y="0" viewBox="0 0 512 512" style="enable-background:new 0 0 512 512" xml:space="preserve" class=""><g><g xmlns="http://www.w3.org/2000/svg"><path d="m48.556 427.936h-27.937c-9.286 0-16.813-7.527-16.813-16.813v-16.813c0-9.285 7.527-16.813 16.813-16.813h27.937z" fill="#f8f6f6" data-original="#f8f6f6" class=""></path><path d="m96.277 435.921v67.673c0 4.643-3.764 8.406-8.406 8.406h-16.813c-4.643 0-8.406-3.764-8.406-8.406v-67.673z" fill="#f8f6f6" data-original="#f8f6f6" class=""></path><path d="m72.935 435.921v67.672c0 3.485-2.121 6.474-5.142 7.749 1.004.424 2.107.658 3.265.658h16.813c4.643 0 8.406-3.764 8.406-8.406v-67.672h-23.342z" fill="#e2e2e2" data-original="#e2e2e2"></path><path d="m14.09 378.814v47.807c2.007.847 4.213 1.316 6.529 1.316h27.937v-50.438h-27.937c-2.316-.001-4.522.468-6.529 1.315z" fill="#e2e2e2" data-original="#e2e2e2"></path><path d="m121.496 444.749 62.768 47.076c2.91 2.183 6.45 3.362 10.088 3.362h11.209c9.286 0 16.813-7.527 16.813-16.813v-151.314c0-9.285-7.527-16.813-16.813-16.813h-11.209c-3.638 0-7.178 1.18-10.088 3.363l-62.768 47.076-9.281 42.031z" fill="#f8f6f6" data-original="#f8f6f6" class=""></path><path d="m205.561 310.247h-11.209c-2.09 0-4.142.401-6.066 1.146 6.283 2.436 10.746 8.523 10.746 15.666v151.314c0 7.143-4.463 13.231-10.746 15.666 1.924.745 3.977 1.146 6.066 1.146h11.209c9.286 0 16.813-7.527 16.813-16.813v-151.312c0-9.285-7.527-16.813-16.813-16.813z" fill="#e2e2e2" data-original="#e2e2e2"></path><path d="m181.137 315.956v173.523l3.128 2.346c2.91 2.182 6.45 3.362 10.088 3.362h2.007v-184.94h-2.007c-3.638 0-7.178 1.18-10.088 3.362z" fill="#cecece" data-original="#cecece"></path><path d="m491.381 108.495h-369.885c-9.285 0-16.813 7.527-16.813 16.813v134.502c0 9.285 7.527 16.813 16.813 16.813h126.097c4.643 0 8.407 3.764 8.407 8.406v21.737c0 7.489 9.055 11.24 14.351 5.944l33.626-33.625c1.577-1.576 3.715-2.462 5.944-2.462h181.46c9.285 0 16.813-7.527 16.813-16.813v-134.502c0-9.286-7.527-16.813-16.813-16.813z" fill="#8ac9fe" data-original="#8ac9fe" class=""></path><g fill="#60b7ff"><path d="m280.635 279.084-24.635 24.635v3.047c0 7.489 9.055 11.24 14.351 5.944l33.626-33.625c1.577-1.576 3.715-2.462 5.944-2.462h-23.342c-2.23-.001-4.368.885-5.944 2.461z" fill="#60b7ff" data-original="#60b7ff"></path><path d="m491.381 108.495h-23.342c9.286 0 16.813 7.527 16.813 16.813v134.502c0 9.285-7.527 16.813-16.813 16.813h23.342c9.285 0 16.813-7.527 16.813-16.813v-134.502c0-9.286-7.527-16.813-16.813-16.813z" fill="#60b7ff" data-original="#60b7ff"></path></g><g><g><g><path d="m348.026 82.474c-4.204 0-7.611-3.408-7.611-7.612v-67.125c0-3.331 2.166-6.275 5.346-7.266 3.181-.992 6.636.201 8.528 2.942l33.044 47.85-.421-43.577c-.041-4.204 3.334-7.644 7.537-7.685.026-.001.051-.001.076-.001 4.169 0 7.569 3.359 7.609 7.538l.628 64.985c.001 4.25-2.357 7.684-6.005 8.824-3.568 1.115-7.339-.283-9.607-3.561l-31.514-45.633v42.709c.002 4.204-3.406 7.612-7.61 7.612z" fill="#444444" data-original="#444444"></path></g></g><g><g><path d="m245.302 82.474c-3.928 0-7.402-2.495-8.654-6.222-.03-.09-.058-.18-.085-.271l-11.939-40.468-7.251 40.176c-.746 4.137-4.703 6.885-8.842 6.139-4.137-.747-6.886-4.706-6.139-8.842l11.82-65.49c.8-4.158 4.236-7.194 8.371-7.471 4.137-.269 7.947 2.273 9.267 6.203.03.09.059.18.085.271l13.268 44.972 12.799-44.894c.025-.088.052-.175.079-.262 1.278-3.941 5.056-6.529 9.198-6.299 4.138.233 7.606 3.231 8.434 7.292l12.538 65.603c.789 4.129-1.918 8.116-6.048 8.905-4.128.79-8.115-1.918-8.905-6.048l-7.703-40.304-11.528 40.437c-.025.088-.052.176-.08.263-1.219 3.755-4.69 6.291-8.638 6.312-.015-.002-.031-.002-.047-.002z" fill="#444444" data-original="#444444"></path></g></g><g><g><path d="m314.4 82.474c-4.204 0-7.612-3.408-7.612-7.612v-67.251c0-4.204 3.408-7.611 7.612-7.611s7.612 3.408 7.612 7.611v67.251c0 4.204-3.408 7.612-7.612 7.612z" fill="#444444" data-original="#444444"></path></g></g><g><g><path d="m462.404 82.474c-22.738 0-41.237-18.499-41.237-41.237-.001-22.738 18.499-41.237 41.237-41.237 8.263 0 16.238 2.437 23.062 7.048 3.483 2.353 4.399 7.085 2.046 10.568-2.352 3.484-7.085 4.4-10.568 2.046-4.297-2.903-9.325-4.438-14.54-4.438-14.344 0-26.014 11.67-26.014 26.014s11.67 26.014 26.014 26.014c12.516 0 18.639-8.787 20.646-18.402h-11.736c-4.204 0-7.612-3.408-7.612-7.611 0-4.204 3.408-7.611 7.612-7.611h20.118c4.204 0 7.612 3.408 7.612 7.611-.001 24.277-15.067 41.235-36.64 41.235z" fill="#444444" data-original="#444444"></path></g></g><g><g><path d="m54.194 82.474c-22.738 0-41.237-18.499-41.237-41.237s18.499-41.237 41.237-41.237c8.263 0 16.238 2.437 23.062 7.048 3.483 2.353 4.399 7.085 2.046 10.568-2.353 3.484-7.085 4.4-10.568 2.046-4.297-2.903-9.325-4.438-14.539-4.438-14.344 0-26.014 11.67-26.014 26.014s11.67 26.014 26.014 26.014c5.348 0 9.854-1.598 13.393-4.749.689-.613 1.349-1.295 1.961-2.024 2.702-3.221 7.502-3.64 10.723-.938s3.64 7.503.939 10.723c-1.084 1.291-2.261 2.505-3.498 3.607-6.322 5.627-14.454 8.603-23.519 8.603z" fill="#444444" data-original="#444444"></path></g></g><g><path d="m142.63 82.474c-22.738 0-41.237-18.499-41.237-41.237s18.499-41.237 41.237-41.237 41.237 18.499 41.237 41.237c.001 22.738-18.498 41.237-41.237 41.237zm0-67.251c-14.344 0-26.014 11.67-26.014 26.014s11.67 26.014 26.014 26.014 26.014-11.67 26.014-26.014c.001-14.344-11.669-26.014-26.014-26.014z" fill="#444444" data-original="#444444"></path></g></g><g fill="#f8f6f6"><path d="m476.511 158.867c-.04-4.179-3.44-7.538-7.609-7.538-.025 0-.05 0-.075.001-4.203.041-7.578 3.481-7.537 7.685l.422 43.578-33.046-47.851c-1.893-2.741-5.348-3.933-8.528-2.942-3.18.992-5.346 3.936-5.346 7.267v67.125c0 4.204 3.408 7.611 7.611 7.611 4.204 0 7.612-3.408 7.612-7.611v-42.709l31.514 45.633c2.268 3.277 6.039 4.674 9.607 3.56 3.648-1.14 6.006-4.575 6.005-8.824z" fill="#f8f6f6" data-original="#f8f6f6" class=""></path><path d="m175.258 185.954c-8.385-3.093-16.182-6.464-18.443-7.455-1.568-1.223-2.321-3.123-2.025-5.178.192-1.338 1.152-4.605 5.906-6.037 9.911-2.983 19.012 4.241 19.241 4.426 3.217 2.672 7.994 2.248 10.689-.959 2.705-3.218 2.289-8.019-.929-10.724-.621-.522-15.427-12.732-33.391-7.319-8.985 2.706-15.339 9.775-16.584 18.449-1.166 8.119 2.352 15.929 9.181 20.381.336.219.689.411 1.056.575.388.173 9.627 4.285 20.032 8.123 3.136 1.157 10.323 4.451 9.325 10.041-.729 4.081-5.615 8.302-12.53 8.302-6.905 0-13.558-2.792-17.796-7.469-2.823-3.114-7.636-3.352-10.751-.528-3.115 2.823-3.351 7.636-.528 10.751 7.076 7.808 17.945 12.469 29.076 12.469 13.787 0 25.359-8.768 27.516-20.849 1.616-9.059-2.537-20.91-19.045-26.999z" fill="#f8f6f6" data-original="#f8f6f6" class=""></path><path d="m254.273 151.314c-22.738 0-41.237 18.499-41.237 41.237s18.499 41.237 41.237 41.237 41.237-18.499 41.237-41.237-18.499-41.237-41.237-41.237zm0 67.251c-14.344 0-26.014-11.67-26.014-26.014s11.67-26.014 26.014-26.014 26.014 11.67 26.014 26.014-11.67 26.014-26.014 26.014z" fill="#f8f6f6" data-original="#f8f6f6" class=""></path><path d="m355.151 151.314c-22.738 0-41.237 18.499-41.237 41.237s18.499 41.237 41.237 41.237 41.237-18.499 41.237-41.237-18.499-41.237-41.237-41.237zm0 67.251c-14.344 0-26.014-11.67-26.014-26.014s11.67-26.014 26.014-26.014 26.014 11.67 26.014 26.014-11.67 26.014-26.014 26.014z" fill="#f8f6f6" data-original="#f8f6f6" class=""></path></g><path d="m121.496 444.749h-76.064c-4.418 0-8-3.582-8-8v-68.064c0-4.418 3.582-8 8-8h76.065v84.064z" fill="#8ac9fe" data-original="#8ac9fe" class=""></path><g><path d="m87.871 410.329h-16.813c-4.204 0-7.611-3.408-7.611-7.612s3.408-7.611 7.611-7.611h16.813c4.204 0 7.612 3.408 7.612 7.611-.001 4.204-3.409 7.612-7.612 7.612z" fill="#60b7ff" data-original="#60b7ff"></path></g><g fill="#fedf30"><path d="m412.065 405.108c-2.972-2.972-7.792-2.972-10.764 0-2.973 2.972-2.973 7.792 0 10.764l23.777 23.777c1.486 1.486 3.434 2.229 5.382 2.229s3.896-.743 5.382-2.229c2.973-2.972 2.973-7.792 0-10.764z" fill="#fedf30" data-original="#fedf30"></path><path d="m323.591 460.737c-1.088-4.06-5.262-6.468-9.323-5.382-4.06 1.088-6.47 5.262-5.382 9.323l8.703 32.48c.911 3.4 3.987 5.643 7.347 5.643.652 0 1.315-.085 1.975-.261 4.06-1.088 6.47-5.262 5.382-9.322z" fill="#fedf30" data-original="#fedf30"></path><path d="m493.351 321.397-32.48-8.703c-4.054-1.084-8.234 1.322-9.322 5.383-1.088 4.06 1.322 8.234 5.383 9.322l32.48 8.703c.66.177 1.322.261 1.975.261 3.36 0 6.436-2.243 7.348-5.644 1.086-4.06-1.324-8.233-5.384-9.322z" fill="#fedf30" data-original="#fedf30"></path></g></g></g></svg>