<svg xmlns="http://www.w3.org/2000/svg" version="1.1" xmlns:xlink="http://www.w3.org/1999/xlink" xmlns:svgjs="http://svgjs.com/svgjs" width="512" height="512" x="0" y="0" viewBox="0 0 64 64" style="enable-background:new 0 0 512 512" xml:space="preserve" class=""><g><g xmlns="http://www.w3.org/2000/svg" id="Exp-2.-F"><path d="m27 9.677c0-.265.105-.519.293-.707.187-.187.442-.293.707-.293h22.554l11.446 12.693v15.953s.036 13.177-3.707 19.468c-.182.289-.5.464-.842.464-3.827.003-26.548.003-32.899.003-.351 0-.676-.185-.857-.485-.181-.301-.19-.675-.025-.985 3.103-6.737 3.33-18.465 3.33-18.465z" fill="#cadcf0" data-original="#cadcf0" class=""></path><path d="m62 37.323s.036 13.177-3.707 19.468c-.182.289-.5.464-.842.464-3.827.003-26.548.003-32.899.003-.351 0-.676-.185-.857-.485-.181-.301-.19-.675-.025-.985l.039-.086c12.314.579 30.196-1.578 32.551-2.5 2.516-.985 5.69-10.437 5.739-15.755z" fill="#a4bbdb" data-original="#a4bbdb" class=""></path><path d="m62 21.37c-3.036-1.199-6.25-1.233-9.549-.724-.306.049-.617-.049-.842-.262-.225-.214-.337-.52-.304-.828.362-3.694-.003-7.308-.751-10.879 4.838 3.592 8.658 7.819 11.446 12.693z" fill="#347bfa" data-original="#347bfa"></path><path d="m27 12.068c2.674.333 5.262 1.525 7.314 3.577 4.103 4.103 4.769 10.349 1.999 15.148l1.647 5.223c.081.257.013.537-.177.727-.047.046-.095.094-.14.14-.179.178-.442.242-.682.166l-5.249-1.655c-1.474.851-3.085 1.378-4.728 1.58.012-.331.016-.513.016-.513z" fill="#a4bbdb" data-original="#a4bbdb" class=""></path><path d="m30.447 34.168c-4.588 2.649-10.56 2.012-14.483-1.911-4.683-4.683-4.683-12.287 0-16.97 4.683-4.684 12.287-4.684 16.971 0 3.922 3.922 4.559 9.894 1.911 14.482l1.574 4.994c.078.245.012.513-.169.694-.045.045-.09.09-.134.134-.171.171-.422.232-.652.16z" fill="#e9f3fc" data-original="#e9f3fc" class=""></path><g fill="#347bfa"><path d="m22.333 20.182c-.022-.954.335-1.649.888-2.057.868-.64 2.164-.613 2.868.18.303.341.478.823.483 1.433.012 1.462-.675 2.317-1.346 3.203-.904 1.193-1.807 2.419-1.919 4.466-.03.551.393 1.023.944 1.053s1.023-.393 1.053-.944c.085-1.555.829-2.461 1.516-3.367.92-1.213 1.768-2.423 1.752-4.427-.01-1.178-.403-2.087-.987-2.745-1.365-1.537-3.87-1.702-5.551-.462-1.008.744-1.741 1.976-1.7 3.714.013.552.471.989 1.023.976s.989-.471.976-1.023z" fill="#347bfa" data-original="#347bfa"></path><circle cx="24.212" cy="30.944" r="1.23" fill="#347bfa" data-original="#347bfa"></circle><path d="m12.217 7.364 4 5.032c.344.432.973.504 1.405.161s.504-.973.161-1.405l-4-5.032c-.344-.432-.973-.504-1.405-.161-.432.344-.504.973-.161 1.405z" fill="#347bfa" data-original="#347bfa"></path><path d="m1.502 9.867 10.452 6c.478.275 1.09.11 1.365-.369s.109-1.09-.37-1.365l-10.451-6c-.479-.275-1.09-.11-1.365.369s-.11 1.09.369 1.365z" fill="#347bfa" data-original="#347bfa"></path><path d="m3 21h7c.552 0 1-.448 1-1s-.448-1-1-1h-7c-.552 0-1 .448-1 1s.448 1 1 1z" fill="#347bfa" data-original="#347bfa"></path></g></g></g></svg>