<svg width="1320" height="415" viewBox="0 0 1320 415" fill="none" xmlns="http://www.w3.org/2000/svg">
<g clip-path="url(#clip0_1_2674)">
<rect width="1320" height="415" fill="#FCDE08"/>
<g opacity="0.1">
<path d="M10.0695 399.028C14.2155 307.817 72.5553 241.185 119.346 187.583L122.603 183.734C127.934 178.107 140.668 162.708 139.483 144.347C138.891 133.093 133.264 123.025 122.899 114.14C116.68 108.81 111.054 103.775 105.427 99.3334C81.1434 78.6035 62.1904 62.0196 32.5763 41.5858C21.619 34.1823 10.958 27.0749 0.593016 20.2637V21.4482C10.958 27.9633 21.3229 35.0707 31.984 42.4743C61.5981 62.908 80.8473 79.4919 104.835 100.222C110.165 104.96 116.088 109.994 122.307 115.029C132.376 123.617 138.002 133.686 138.595 144.643C139.483 162.708 127.341 177.811 121.715 183.437L118.457 187.287C71.6669 240.889 13.3271 307.521 8.88497 399.324C8.29268 409.097 4.73899 415.02 0.296875 417.093V418.277C5.33127 415.908 9.47725 409.985 10.0695 399.028Z" fill="#0876FC"/>
<path d="M30.7982 399.917C34.648 315.812 90.3226 252.142 135.04 201.206L138.297 197.356C147.774 186.695 155.177 177.218 160.804 169.223C167.615 159.154 180.646 140.793 150.143 111.179C117.271 79.4918 81.7345 50.1738 44.4207 24.4095C29.3175 13.7484 14.5104 4.27193 0.591797 -4.02002V-2.83547C14.5104 5.75262 28.7252 14.933 43.8284 25.2979C81.1422 51.0622 116.679 80.3802 149.551 112.067C179.461 141.089 167.023 159.154 160.212 168.926C154.585 176.922 147.182 186.399 137.705 197.06L134.448 200.91C89.4341 251.846 33.7596 315.516 29.9098 399.917C28.1329 439.007 21.0255 461.81 7.99532 471.583C5.33005 473.656 2.96093 474.544 0.591797 474.84V475.729C2.96093 475.432 5.6262 474.544 8.58761 472.175C21.914 462.402 29.0213 439.303 30.7982 399.917Z" fill="#0876FC"/>
<path d="M8.29147 265.765C16.2873 251.846 26.6522 239.112 36.721 226.674C51.2319 208.906 66.039 190.545 74.0348 168.038C88.2496 128.355 60.4123 109.994 31.0943 90.4491C28.4291 88.6723 25.7638 86.8954 22.8024 85.1186C18.0641 81.861 13.3259 78.6035 8.88375 75.6421C6.81076 74.1614 3.84935 72.0884 0.591797 69.7192V70.9038C3.84935 73.273 6.21848 75.0498 8.29147 76.5305C12.7336 79.788 17.4718 82.7494 22.2101 86.007C24.8754 87.7838 27.5406 89.5607 30.502 91.3375C59.5239 110.587 87.065 128.947 73.1464 168.038C65.1506 190.545 50.3435 208.906 35.8326 226.378C25.7638 238.816 15.3989 251.55 7.40304 265.469C5.03391 269.615 2.66478 275.241 0.591797 280.868V283.237C0.887938 282.645 1.18408 282.052 1.18408 281.46C3.55321 275.537 5.92234 270.207 8.29147 265.765Z" fill="#0876FC"/>
<path d="M80.5499 200.614C81.7345 199.133 83.2152 197.356 84.6959 195.875C103.649 173.369 123.49 150.27 100.984 122.432C83.5113 101.11 57.4509 83.3418 34.3519 67.6464C29.6136 64.3888 25.1715 61.4274 20.7294 58.1699C17.768 56.0969 13.622 53.1354 8.88375 49.5817C6.51462 48.101 3.55321 46.0281 0.591797 43.9551V45.1396C3.25707 47.2126 5.92234 48.9895 8.58761 50.7663C13.3259 54.32 17.1757 57.2814 20.4333 59.3544C24.8754 62.3158 29.3175 65.5734 34.0557 68.8309C57.1547 84.5264 83.2152 101.999 100.391 123.321C122.306 150.566 102.76 173.369 84.1036 195.579C82.6229 197.06 81.4383 198.837 79.9576 200.318C63.3737 220.159 42.3477 246.516 25.4676 275.834C15.3989 293.602 6.81076 312.555 0.591797 331.804V334.766C7.1069 314.628 15.695 295.083 26.3561 276.426C42.94 246.812 63.966 220.455 80.5499 200.614Z" fill="#0876FC"/>
<path d="M280.742 245.035C279.262 247.404 277.781 249.774 276.596 251.55C261.493 272.576 244.021 291.529 223.883 311.963C221.218 314.628 218.553 317.59 215.591 320.255C199.007 336.839 182.127 354.015 171.762 374.449C167.913 382.445 166.728 388.368 168.209 392.217C169.097 393.994 170.282 395.179 172.059 395.475C172.947 395.771 173.539 395.771 174.428 395.771C177.981 395.771 183.016 393.994 188.346 390.737C199.304 384.222 209.669 375.93 219.737 367.934C228.029 361.419 236.617 354.608 245.205 348.981C280.742 325.586 304.138 309.89 315.095 266.061C317.464 256.881 318.648 236.151 311.541 227.267C309.172 224.305 305.914 222.825 302.065 222.825C293.773 223.417 286.369 235.855 280.742 245.035ZM303.545 224.009C306.803 224.009 309.468 225.49 311.541 228.155C318.352 237.039 317.168 257.177 314.799 266.061C303.841 309.594 280.742 324.993 245.205 348.389C236.321 354.311 227.733 360.827 219.737 367.342C209.669 375.337 199.304 383.333 188.346 390.144C181.831 394.29 175.908 395.771 172.651 394.883C171.17 394.29 169.986 393.402 169.393 391.921C167.913 388.368 169.097 382.445 172.947 374.745C183.016 354.608 200.192 337.431 216.48 320.847C219.145 317.886 222.106 315.221 224.772 312.556C244.613 292.122 262.382 273.169 277.485 252.143C278.669 250.366 280.15 247.997 281.631 245.628C286.961 236.743 294.365 224.602 302.953 224.305C303.249 224.009 303.249 224.009 303.545 224.009Z" fill="#0876FC"/>
<path d="M51.8242 401.101C55.3779 324.401 108.387 263.988 150.735 215.125L153.993 211.275C204.633 153.527 202.56 133.094 178.869 109.699C152.808 83.9343 111.941 45.4359 56.2663 6.93759C37.3133 -6.09262 18.6564 -18.2344 0.591797 -28.8955V-27.1186C18.3603 -16.4576 36.721 -4.61193 55.3779 8.12214C110.756 46.6205 151.624 85.1189 177.684 110.587C200.783 133.39 202.56 152.935 152.808 210.09L149.551 213.94C106.906 262.804 53.8972 323.512 50.3435 400.805C46.7898 473.36 19.5448 494.682 0.591797 500.605V502.086C20.1371 496.459 48.2705 474.841 51.8242 401.101Z" fill="#0876FC"/>
<path d="M298.806 195.579C285.776 198.837 274.523 216.901 265.342 231.116C262.085 236.151 259.123 240.889 256.458 244.443C241.651 263.396 225.067 280.572 209.076 297.156C204.93 301.598 199.599 306.336 193.972 311.37C177.388 326.77 156.955 345.723 150.736 363.195C145.405 378.002 148.663 391.921 151.624 405.247C153.993 416.204 156.659 427.754 154.586 439.896C153.401 447.299 148.959 454.703 144.221 462.402C138.594 471.583 132.671 481.059 132.375 491.424C132.375 494.978 132.671 498.236 133.856 501.789C137.706 512.746 141.852 517.781 146.59 517.781C151.328 517.781 156.659 512.746 164.358 500.605C171.762 489.055 174.723 475.433 177.388 462.402C180.35 449.372 183.015 435.75 190.715 423.904C204.93 401.397 230.102 385.11 252.016 370.303C253.793 369.118 255.866 367.933 257.643 366.749C294.364 342.465 323.386 323.216 336.12 271.391C339.674 257.769 338.785 222.824 324.571 205.056C318.056 196.172 309.171 193.21 298.806 195.579ZM323.682 205.944C336.12 221.936 338.785 255.696 334.936 271.095C322.201 322.328 293.476 341.281 257.05 365.564C255.274 366.749 253.497 367.933 251.424 369.118C229.213 383.629 204.041 400.213 189.53 423.016C181.831 434.861 178.869 448.78 176.204 462.106C173.539 475.137 170.577 488.463 163.174 500.012C158.139 508.304 151.92 516.596 146.59 516.596C142.444 516.596 138.89 511.562 135.04 501.493C133.856 498.235 133.263 495.274 133.56 491.72C133.856 481.948 139.779 472.471 145.109 463.291C149.847 455.591 154.586 448.188 155.77 440.488C157.843 428.346 155.178 416.797 152.809 405.543C149.847 391.625 146.886 378.594 151.92 364.084C158.139 346.907 178.573 327.954 194.861 312.851C200.487 307.817 205.818 302.782 209.964 298.34C225.956 281.756 242.539 264.58 257.347 245.627C260.012 242.073 262.973 237.335 266.231 232.301C275.115 218.086 286.368 200.318 298.806 197.356C301.175 196.764 303.248 196.468 305.321 196.468C312.725 196.172 318.648 199.429 323.682 205.944Z" fill="#0876FC"/>
<path d="M312.428 131.316C305.321 121.248 299.102 119.767 292.883 118.582C288.441 117.694 283.703 116.509 278.372 112.66L278.076 112.067C262.973 95.1872 212.333 40.105 195.156 40.105C193.083 40.105 191.603 40.6973 190.418 42.178C188.049 45.1394 188.345 51.0622 190.714 60.5387C192.195 66.1654 206.706 73.8651 221.809 81.8609C234.543 88.6721 247.573 95.7795 252.015 100.814C255.865 105.552 261.196 112.067 260.9 114.436C260.9 115.029 260.011 115.325 258.827 115.917C256.161 117.102 252.312 119.175 254.385 128.651C255.865 135.166 259.715 141.385 263.861 147.604C267.415 153.527 270.968 158.858 272.153 164.188C276.003 178.699 252.015 205.352 236.32 223.12C230.989 229.043 226.547 234.077 223.882 237.927C212.333 253.327 198.118 267.245 184.199 280.868C157.25 307.52 129.413 335.062 119.64 372.968C104.241 429.827 101.28 479.875 110.164 521.927C114.902 544.433 131.19 575.528 147.181 575.528C156.954 575.528 164.358 563.683 168.504 540.287C185.088 450.26 230.397 420.35 273.93 391.328C312.724 365.564 349.446 341.281 365.141 278.499C371.064 254.807 361.884 218.086 350.038 197.948C344.708 189.064 338.193 183.733 331.677 178.995C326.051 174.553 320.72 170.703 316.574 164.188C313.613 159.45 314.205 154.119 314.797 148.493C315.39 142.57 315.982 136.647 312.428 131.316ZM314.797 165.077C319.239 171.888 324.57 176.034 330.493 180.476C336.712 185.214 343.227 190.249 348.261 198.837C359.811 218.678 368.991 254.511 363.068 277.906C347.373 340.096 311.244 364.083 272.745 389.552C228.62 418.87 183.015 449.076 166.431 539.991C162.285 561.906 155.77 573.455 147.181 573.455C133.855 573.455 117.271 545.322 112.237 521.334C103.353 479.578 106.314 429.827 120.825 373.56C130.598 336.246 158.139 309.001 184.791 282.348C198.71 268.726 213.221 254.511 224.77 239.112C227.436 235.262 232.174 230.228 237.208 224.601C254.385 205.352 277.484 179.291 273.634 163.596C272.153 157.969 268.599 152.342 265.046 146.42C261.196 140.497 257.346 133.982 255.865 128.059C254.088 120.359 256.754 118.879 259.419 117.694C260.9 117.102 262.084 116.213 262.38 114.733C262.973 112.66 261.492 109.106 253.2 99.3332C248.462 93.7065 235.135 86.5992 222.401 79.7879C209.075 72.6805 193.676 64.3886 192.491 59.6503C189.53 48.9892 190.418 44.8432 191.899 43.0664C192.491 42.178 193.676 41.8818 194.86 41.8818C207.89 41.8818 245.5 78.6033 276.299 113.252C276.595 113.548 276.891 113.844 276.891 113.844C282.814 118.286 287.849 119.175 292.291 120.359C298.51 121.84 304.136 123.024 310.651 132.501C313.909 136.943 313.317 142.57 312.724 148.196C312.132 154.119 311.54 160.042 314.797 165.077Z" fill="#0876FC"/>
<path d="M0.593016 -60.8786C100.393 -4.31568 208.188 85.4151 227.733 130.132C239.579 157.081 210.853 189.064 174.724 229.636C133.56 275.834 82.6241 333.285 79.3666 401.99C75.5167 486.094 33.7608 520.446 0.296875 530.811V532.884C34.3531 522.519 77.2936 487.575 81.1434 401.99C84.401 333.877 135.041 276.722 175.909 230.82C212.63 189.657 241.356 157.081 229.214 129.244C209.965 84.5266 101.281 -6.3887 0.593016 -62.9517V-60.8786Z" fill="#0876FC"/>
<path d="M28.1329 151.158C26.6522 141.681 20.1371 133.093 7.99532 125.097C5.6262 123.321 2.96093 121.84 0.591797 120.063V121.248C2.96093 122.728 5.33005 124.505 7.69918 125.986C19.5448 133.982 26.0599 142.274 27.5406 151.454C29.9098 166.853 18.3603 182.549 3.84935 200.317C2.96093 201.502 1.77636 202.982 0.591797 204.463V205.944C2.0725 203.871 3.25707 202.094 4.44163 200.613C18.9525 182.845 30.7982 166.853 28.1329 151.158Z" fill="#0876FC"/>
<path d="M54.4895 161.227C62.1892 139.609 54.4895 131.021 19.5448 107.922C16.8796 106.145 13.9181 104.368 11.2529 102.295C7.69918 99.9257 4.14549 97.5566 0.591797 95.1875V96.372C3.84935 98.7412 7.1069 100.814 10.6606 103.183C13.622 104.96 16.2873 107.033 18.9525 108.81C53.3049 131.613 61.0046 140.201 53.6011 161.227C46.7898 180.18 33.7596 196.468 19.841 213.644C13.3259 221.64 6.81076 229.636 0.591797 238.52V240.001C7.1069 230.82 13.9181 222.528 20.4333 214.236C34.3519 196.468 47.6782 180.476 54.4895 161.227Z" fill="#0876FC"/>
<path d="M288.144 272.872C283.702 272.872 279.556 278.203 276.299 282.052C275.707 282.941 275.114 283.533 274.522 284.125C271.561 287.383 268.895 290.937 265.934 294.49C264.157 296.563 262.38 298.932 260.603 301.005L260.307 301.302C254.384 308.409 252.015 312.851 252.904 315.22C253.2 315.812 253.792 316.701 255.273 316.997C255.569 316.997 255.865 316.997 255.865 316.997C267.711 316.701 277.187 306.04 281.925 299.525C286.368 293.306 289.625 286.791 290.514 281.46C290.81 280.276 291.402 275.833 289.921 273.761C289.921 273.168 289.033 272.872 288.144 272.872ZM289.921 281.46C288.737 286.495 285.775 293.01 281.333 298.932C276.891 305.151 267.711 315.516 256.457 315.812V316.701V315.812C256.161 315.812 256.161 315.812 255.865 315.812C254.68 315.812 254.681 315.22 254.681 315.22C254.384 314.332 254.384 311.666 261.788 302.782L262.084 302.486C263.861 300.413 265.638 298.044 267.415 295.971C270.08 292.713 273.041 289.16 276.003 285.606C276.595 285.014 277.187 284.125 277.78 283.237C280.445 279.683 284.591 274.649 288.441 274.649C289.033 274.649 289.625 274.945 289.921 275.241C290.514 276.13 290.217 279.091 289.921 281.46Z" fill="#0876FC"/>
<path d="M600.574 572.864C639.961 568.422 682.013 522.816 682.605 484.318C683.494 425.089 649.437 378.003 616.566 332.397C610.939 324.697 605.312 316.702 599.686 308.706L596.428 303.968C581.029 281.757 563.556 256.289 557.634 229.044C552.895 205.945 545.492 152.047 553.488 133.39C559.41 119.768 575.994 112.068 592.282 104.368C603.536 99.0379 614.197 94.2996 621.6 87.4884L621.896 87.1923C647.364 64.0933 647.364 64.0933 664.541 63.501C669.871 63.2048 676.386 63.2048 685.567 62.3164C698.005 61.1318 705.112 59.355 710.442 58.1704C713.7 57.282 716.365 56.6897 718.438 56.6897C723.769 56.6897 728.211 60.5396 743.018 72.9775C786.847 109.995 785.958 174.258 785.07 236.447C784.182 314.629 782.997 395.771 871.543 421.239C884.277 424.793 896.715 426.866 908.561 426.866C941.729 426.866 970.158 412.059 990.592 383.926C1020.5 342.762 1028.5 278.203 1010.43 223.417C968.678 97.2611 869.174 25.2988 761.971 -43.406C664.541 -105.892 571.848 -123.068 492.779 -134.321C487.152 -135.21 481.525 -135.506 476.491 -135.506C444.212 -135.506 429.108 -119.218 409.859 -98.4882C402.456 -90.4924 394.756 -82.4966 385.279 -73.9085C374.322 -64.432 360.404 -57.9169 347.077 -51.4018C325.163 -41.0368 304.729 -31.2642 296.141 -9.6459C278.076 36.256 322.498 72.3852 361.588 104.072C379.653 118.583 396.829 132.502 406.898 146.421C446.877 201.207 434.735 293.899 398.606 345.723C387.352 362.011 365.734 382.149 342.931 403.175C305.025 438.416 262.085 478.099 254.385 511.859C250.831 527.554 251.72 538.511 257.347 545.619C261.789 551.245 269.784 554.207 281.038 554.207C299.695 554.207 326.347 546.507 354.481 538.511C389.129 528.443 428.22 517.189 461.388 517.189C477.379 517.189 490.41 519.558 501.663 524.889C514.397 530.812 525.354 539.104 536.015 547.396C553.488 561.018 569.775 573.752 592.874 573.752C595.54 573.16 597.909 573.16 600.574 572.864ZM502.255 523.112C491.002 518.078 477.379 515.412 461.388 515.412C427.924 515.412 388.537 526.666 353.889 536.734C325.755 544.73 299.102 552.43 280.742 552.43C269.784 552.43 262.677 549.765 258.235 544.434C252.904 537.919 252.312 527.258 255.57 512.155C262.973 478.987 305.914 439.304 343.524 404.359C366.326 383.037 388.241 362.9 399.494 346.612C435.92 294.195 447.765 200.91 407.786 145.532C397.717 131.613 380.541 117.695 362.181 102.888C323.386 71.4968 279.261 35.9599 297.029 -9.05359C305.321 -30.0796 325.755 -39.8523 347.373 -49.9211C360.996 -56.4362 374.915 -62.9513 385.872 -72.7239C395.348 -81.0159 403.048 -89.3078 410.451 -97.3036C429.405 -117.737 444.508 -133.729 476.195 -133.729C481.229 -133.729 486.56 -133.433 492.186 -132.544C571.256 -121.291 663.948 -104.115 760.787 -41.9253C867.693 26.4833 966.901 98.4456 1008.36 224.306C1026.13 278.499 1018.43 342.466 988.815 383.333C968.678 411.171 940.84 425.682 907.969 425.682C896.419 425.682 883.981 423.905 871.543 420.055C832.157 408.802 807.577 385.406 795.731 348.685C785.07 315.813 785.662 275.538 786.255 236.447C787.143 173.962 787.735 109.107 743.61 71.7929C722.584 54.0244 721.992 53.7283 709.85 56.6897C704.52 57.8743 697.412 59.6511 684.974 60.8357C675.794 61.7241 669.279 62.0203 664.245 62.0203C646.476 62.6126 646.476 62.6125 620.416 86.0077L620.119 86.3038C612.716 92.819 602.351 97.8533 591.394 102.888C574.81 110.587 557.93 118.583 551.711 132.502C543.419 151.455 550.822 205.649 555.857 229.044C561.483 256.585 579.252 282.053 594.651 304.264L597.909 309.002C603.239 316.998 609.162 324.994 614.789 332.693C647.661 378.299 681.421 425.089 680.532 483.725C679.94 521.631 638.48 566.349 599.982 570.791C597.613 571.087 594.947 571.087 592.578 571.087C569.775 571.087 553.784 558.353 536.608 545.026C526.243 537.623 515.285 529.035 502.255 523.112Z" fill="#0876FC"/>
<path d="M1292.95 116.806C1291.47 115.621 1289.1 113.548 1286.14 111.179C1274.89 101.407 1255.93 84.8228 1242.61 84.8228C1237.28 84.8228 1233.43 87.488 1231.06 92.2263C1228.1 98.4453 1234.91 112.956 1239.35 122.433C1240.54 124.802 1241.42 126.875 1242.02 128.356C1243.2 131.317 1244.38 133.982 1245.27 136.647C1251.49 153.231 1258.01 170.111 1262.75 188.472C1263.34 190.545 1263.63 192.618 1264.23 194.987C1266.3 204.76 1269.26 217.198 1276.07 223.121C1278.74 225.49 1281.4 226.971 1283.77 227.859C1284.96 228.155 1286.14 228.451 1287.03 228.451C1295.03 228.451 1300.65 219.271 1305.98 210.387C1307.17 208.314 1308.35 206.241 1309.83 204.464L1311.02 202.687C1331.45 171.592 1343.89 152.935 1306.28 126.875C1302.72 123.913 1297.99 120.36 1292.95 116.806ZM1309.83 201.502L1308.65 203.279C1307.46 205.352 1305.98 207.425 1304.8 209.202C1299.76 217.79 1294.43 226.378 1287.03 226.378C1286.14 226.378 1285.25 226.082 1284.07 226.082C1281.7 225.49 1279.33 224.009 1276.96 221.64C1270.45 216.013 1267.78 203.872 1265.71 194.395C1265.11 192.026 1264.82 189.953 1264.23 187.88C1259.49 169.223 1252.97 152.343 1246.46 135.759C1245.57 133.39 1244.39 130.428 1243.2 127.467C1242.61 125.986 1241.72 123.913 1240.54 121.544C1236.39 112.956 1229.58 98.1491 1232.24 92.5224C1234.61 88.0803 1237.87 85.7112 1242.61 85.7112C1255.34 85.7112 1274 101.999 1284.96 111.475C1287.92 114.141 1290.29 116.214 1291.77 117.102C1296.8 120.656 1301.54 124.21 1305.09 126.579C1341.82 152.639 1329.67 171 1309.83 201.502Z" fill="#0876FC"/>
<path d="M1317.24 83.6377C1310.72 78.8994 1304.21 73.5689 1297.39 67.9422C1276.37 50.766 1252.38 31.2207 1230.76 31.2207C1226.62 31.2207 1222.47 32.1091 1218.32 33.5898C1180.42 47.8046 1185.75 88.0798 1192.56 110.883C1196.71 124.801 1201.74 138.424 1206.77 151.75C1212.7 167.15 1218.92 183.141 1223.06 199.429C1225.73 209.202 1226.91 219.567 1228.1 229.635C1231.95 260.138 1235.5 289.16 1276.37 289.16C1279.63 289.16 1283.18 288.864 1286.73 288.567C1291.47 287.975 1295.32 287.383 1298.58 286.198C1309.54 282.645 1312.79 276.129 1317.53 266.061C1319.01 263.099 1320.79 259.546 1322.86 255.992C1326.12 250.365 1329.67 245.035 1333.23 239.704V238.223C1329.38 243.85 1325.53 249.477 1321.97 255.4C1319.9 259.249 1318.12 262.507 1316.64 265.468C1311.9 275.241 1308.65 281.756 1297.99 285.014C1294.73 285.902 1291.18 286.791 1286.44 287.087C1282.88 287.383 1279.33 287.679 1276.07 287.679C1236.09 287.679 1232.54 260.434 1228.69 228.747C1227.5 218.678 1226.02 208.313 1223.65 198.54C1219.51 182.253 1213.29 166.261 1207.37 150.862C1202.33 137.535 1197 123.913 1193.15 110.29C1186.64 87.7837 1181.31 48.3969 1218.62 34.1821C1222.47 32.7014 1226.62 32.1091 1230.76 32.1091C1252.08 32.1091 1275.78 51.6545 1296.8 68.5345C1303.61 74.1612 1310.13 79.4917 1316.94 84.23C1321.97 87.7837 1326.12 91.0412 1329.38 93.4104C1330.56 94.2988 1332.04 95.1872 1333.52 96.0757V94.8911C1332.34 94.0026 1331.15 93.4103 1329.97 92.5219C1326.42 90.1528 1322.27 87.1914 1317.24 83.6377Z" fill="#0876FC"/>
<path d="M1317.83 109.698C1314.27 107.329 1309.83 104.072 1304.8 100.518C1297.69 95.4837 1291.17 89.857 1284.07 84.2304C1282.59 83.0458 1280.81 81.5651 1278.74 79.7882C1266.89 69.7194 1250.6 55.8008 1235.5 55.8008C1231.35 55.8008 1227.5 56.9854 1223.95 59.0584C1197.89 75.05 1213.59 113.548 1223.06 136.351C1224.25 139.016 1225.13 141.682 1226.02 144.051C1232.24 160.043 1238.46 176.626 1242.9 193.803C1243.79 197.06 1244.68 200.91 1245.57 205.056C1249.71 223.713 1255.34 249.181 1269.56 258.361C1271.93 259.842 1274.29 260.731 1276.96 261.027C1277.85 261.027 1278.44 261.323 1279.33 261.323C1296.8 261.323 1313.98 234.966 1326.71 215.421C1329.08 211.867 1331.15 208.61 1332.93 205.944V204.464C1330.86 207.425 1328.49 210.979 1325.82 214.829C1313.38 234.078 1295.91 260.138 1279.03 260.138C1278.44 260.138 1277.55 260.138 1276.96 259.842C1274.59 259.546 1272.22 258.658 1269.85 257.177C1255.93 248.293 1250.31 222.824 1246.16 204.464C1245.27 200.318 1244.38 196.468 1243.5 193.21C1239.05 175.738 1232.54 159.154 1226.62 143.162C1225.73 140.793 1224.54 138.128 1223.65 135.463C1214.47 112.66 1199.07 74.7538 1224.25 59.0584C1227.5 56.9854 1231.35 56.0969 1235.2 56.0969C1250.01 56.0969 1266 69.7194 1277.85 79.7882C1279.62 81.2689 1281.4 82.7497 1283.18 84.2304C1290.29 90.1532 1297.1 95.4837 1303.91 100.518C1308.65 104.072 1313.38 107.329 1316.94 109.698C1321.68 112.956 1326.12 115.917 1331.15 119.471C1331.75 119.767 1332.04 120.063 1332.63 120.36V119.175C1332.34 118.879 1332.04 118.583 1331.45 118.583C1327.3 115.917 1322.57 112.66 1317.83 109.698Z" fill="#0876FC"/>
<path d="M1163.83 319.662C1165.61 321.735 1168.57 324.993 1176.57 325.585C1206.18 327.954 1250.9 331.804 1288.81 366.156L1289.1 366.452C1302.13 378.298 1312.5 393.105 1320.2 410.874C1322.27 415.612 1325.82 418.573 1329.67 418.573C1330.86 418.573 1331.75 418.277 1332.93 417.981V416.796C1331.75 417.389 1330.86 417.685 1329.67 417.685C1326.12 417.685 1322.86 415.019 1320.79 410.577C1313.09 392.809 1302.43 377.706 1289.4 365.86L1289.1 365.564C1251.2 330.915 1206.18 327.362 1176.57 324.993C1168.87 324.4 1165.91 321.439 1164.43 319.366C1160.58 314.332 1160.28 306.928 1160.58 304.559C1164.72 286.494 1169.76 263.988 1167.98 239.112C1164.72 197.356 1148.14 161.523 1131.85 126.578C1118.82 98.7408 1104.31 67.0537 1109.34 52.8389C1118.52 27.0746 1155.54 -9.64687 1171.24 -24.1578C1181.01 -33.3382 1192.86 -38.0764 1206.18 -38.0764C1213.88 -38.0764 1220.4 -36.5957 1224.54 -35.115C1251.79 -26.2308 1290.29 -6.0932 1333.23 21.4479V20.2634C1290.29 -7.27774 1251.79 -27.4153 1224.84 -36.0034C1220.69 -37.4841 1213.88 -38.9648 1206.18 -38.9648C1192.56 -38.9648 1180.71 -34.2266 1170.65 -24.7501C1154.95 -10.2391 1117.93 26.7785 1108.75 52.5428C1103.42 67.3498 1118.23 99.0369 1131.26 127.17C1147.25 161.819 1164.13 197.652 1167.39 239.408C1169.16 263.988 1164.13 286.494 1159.98 304.559C1159.39 306.632 1159.98 314.628 1163.83 319.662Z" fill="#0876FC"/>
<path d="M1219.8 293.009C1226.62 296.563 1235.8 298.34 1244.68 299.821C1251.2 301.005 1258.01 302.19 1263.63 304.263C1267.19 305.447 1271.04 307.52 1275.18 309.593C1283.77 313.739 1293.25 318.478 1302.13 318.478C1303.91 318.478 1305.39 318.181 1306.87 317.885C1307.17 317.885 1307.76 317.589 1308.05 317.589C1320.49 313.739 1327.3 298.044 1333.23 283.533V280.868V281.164C1327.3 295.971 1320.79 312.555 1308.05 316.405C1307.76 316.405 1307.17 316.701 1306.87 316.701C1305.39 316.997 1303.91 317.293 1302.13 317.293C1293.54 317.293 1284.07 312.555 1275.78 308.409C1271.63 306.336 1267.78 304.559 1264.23 303.078C1258.6 301.005 1251.79 299.821 1244.98 298.636C1236.09 297.155 1226.91 295.675 1220.4 291.825C1205.89 283.829 1207.37 269.022 1208.85 253.623C1209.44 247.404 1210.03 241.185 1209.74 235.558C1205.89 186.399 1187.53 147.012 1169.76 108.81C1161.76 91.6334 1161.17 72.6803 1167.98 55.5042C1175.38 37.1434 1191.38 22.0402 1211.22 14.3406C1217.44 11.9714 1223.95 10.7869 1230.47 10.7869C1258.9 10.7869 1285.84 32.7013 1309.54 51.9505C1316.35 57.281 1322.57 62.6116 1328.78 67.0537C1330.27 68.2383 1331.75 69.1266 1333.23 70.3112V69.1267C1332.04 68.2382 1330.86 67.3498 1329.38 66.4614C1323.45 62.0193 1316.94 56.9849 1310.42 51.3582C1286.73 31.8129 1259.78 9.89844 1230.76 9.89844C1223.95 9.89844 1217.44 11.083 1211.22 13.4521C1191.08 21.1518 1175.09 36.255 1167.39 54.9119C1160.28 72.3842 1160.87 91.3372 1169.16 108.81C1186.93 146.716 1205 186.102 1208.85 235.262C1209.14 240.889 1208.55 247.107 1207.96 253.326C1206.18 269.022 1204.7 284.717 1219.8 293.009Z" fill="#0876FC"/>
<path d="M1200.56 308.705C1206.48 310.186 1212.4 311.667 1218.32 312.851C1249.42 319.959 1276.07 326.178 1302.72 350.461L1303.32 351.053C1309.54 356.68 1314.27 359.345 1318.12 359.345C1318.72 359.345 1319.31 359.345 1319.9 359.049C1325.82 357.568 1328.49 349.573 1331.75 339.208C1332.34 337.727 1332.64 335.95 1333.23 334.47V331.508C1332.34 333.877 1331.45 336.543 1330.86 338.912C1327.9 348.98 1324.94 356.976 1319.6 358.161C1315.76 359.049 1310.72 356.384 1303.91 350.165L1303.32 349.573C1276.37 325.289 1249.42 319.07 1218.62 311.667C1212.99 310.482 1207.07 309.001 1200.85 307.521C1179.23 302.19 1182.79 281.756 1186.34 261.915C1187.82 253.327 1189.6 244.443 1189.01 237.039C1185.45 191.433 1167.98 153.823 1151.1 117.398C1149.03 112.956 1146.95 108.81 1144.88 104.664C1133.92 83.3418 1124.74 64.981 1138.07 42.1781C1148.14 25.002 1163.24 11.0833 1178.05 -2.24303C1180.71 -4.61216 1183.38 -6.98129 1186.05 -9.64656C1191.67 -14.9771 1199.37 -17.6424 1208.85 -17.6424C1245.27 -17.6424 1301.54 21.1521 1333.82 44.5473V43.955C1301.24 20.5599 1245.57 -17.9385 1208.85 -17.9385C1199.08 -17.9385 1191.08 -15.2732 1185.45 -9.64656C1182.79 -7.27743 1180.12 -4.9083 1177.75 -2.24303C1162.95 11.3795 1147.84 25.2981 1137.77 42.4743C1124.15 65.5733 1133.92 85.1186 1144.59 105.848C1146.66 109.994 1148.73 114.14 1150.8 118.583C1167.68 155.008 1185.16 192.322 1188.71 237.927C1189.3 245.331 1187.82 254.215 1186.05 262.803C1181.9 282.349 1178.05 303.079 1200.56 308.705Z" fill="#0876FC"/>
<path d="M577.474 735.445C570.07 746.698 560.594 760.913 563.851 770.39C565.036 774.239 568.59 777.201 573.624 779.274C574.513 779.57 575.697 779.866 576.882 779.866C588.431 779.866 606.496 762.098 622.487 746.698C632.556 736.926 642.329 727.449 647.956 724.784C675.497 712.346 713.699 706.423 747.163 701.093C760.489 699.02 772.927 696.947 784.477 694.874C810.833 689.839 836.301 687.174 859.993 687.174C937.878 687.174 1003.62 715.307 1054.56 770.686C1060.18 776.905 1068.77 780.162 1079.43 780.162C1112.9 780.162 1170.05 747.587 1210.62 687.47C1234.91 651.341 1269.85 577.602 1233.43 489.056C1218.92 453.519 1197 436.935 1165.02 436.935C1140.73 436.935 1112.9 445.819 1080.62 456.184C1040.93 468.918 996.218 483.429 947.947 483.429C910.337 483.429 875.984 474.841 842.52 457.072C739.463 401.99 736.502 301.894 745.386 220.752C748.94 189.065 743.313 164.189 729.098 148.493C719.029 137.536 705.703 131.613 690.008 131.613C660.394 131.613 623.08 154.712 609.753 198.837C597.019 240.297 626.93 278.203 661.578 321.736C700.669 370.895 744.794 426.866 736.206 501.494C732.06 538.511 718.437 574.048 700.076 596.259C686.158 613.139 673.72 614.916 660.986 616.396C650.917 617.581 640.848 618.765 628.706 626.465C619.526 632.388 616.565 642.161 613.603 652.822C611.53 659.929 609.457 667.629 605.015 673.848C602.646 677.105 598.5 677.994 593.762 678.586C587.839 679.474 581.324 680.659 577.77 688.359C575.401 693.689 578.659 699.908 581.62 705.831C584.285 710.865 586.95 716.196 586.062 720.342C585.174 723.303 581.62 728.93 577.474 735.445ZM582.805 704.646C579.843 698.724 576.882 693.097 578.955 688.655C582.212 681.844 588.135 680.955 593.762 679.771C598.5 678.882 603.238 678.29 605.904 674.144C610.642 667.629 612.715 660.225 614.788 652.822C617.749 642.753 620.414 632.98 629.299 627.354C641.144 619.95 651.213 618.765 660.986 617.581C674.312 615.804 687.046 614.323 701.261 596.851C719.918 574.048 733.54 538.511 737.686 501.197C746.274 425.978 701.853 369.711 662.763 320.255C628.41 277.019 598.796 239.409 611.234 198.837C624.264 155.601 660.69 132.798 689.711 132.798C704.815 132.798 718.141 138.425 727.618 149.086C741.24 164.485 746.867 189.065 743.313 220.159C734.429 301.894 737.39 402.879 841.336 458.257C875.096 476.322 909.744 484.91 947.65 484.91C996.218 484.91 1041.23 470.399 1080.91 457.665C1112.9 447.3 1140.73 438.416 1164.72 438.416C1196.41 438.416 1216.84 454.111 1231.35 489.352C1267.48 577.009 1232.83 650.156 1208.85 685.989C1170.35 743.737 1112.6 778.089 1079.14 778.089C1068.77 778.089 1061.07 775.128 1055.45 769.205C1003.92 713.531 938.174 685.101 859.4 685.101C835.413 685.101 809.945 687.766 783.292 692.801C771.743 695.17 759.305 696.947 745.978 699.02C712.218 704.35 674.016 710.273 646.179 723.007C640.256 725.672 630.779 734.853 620.118 745.218C604.423 760.617 586.654 778.089 575.697 778.089C574.809 778.089 573.92 778.089 573.032 777.793C568.294 776.016 565.332 773.647 564.148 770.094C561.186 761.209 570.367 747.587 577.474 736.63C581.916 730.114 585.47 724.488 586.358 720.638C588.431 715.307 585.766 709.681 582.805 704.646Z" fill="#0876FC"/>
<path d="M1292.95 533.181C1296.8 535.55 1303.02 537.031 1310.42 537.031C1316.94 537.031 1324.94 535.846 1333.23 533.477V531.404C1324.94 534.069 1316.94 535.254 1310.42 535.254C1303.61 535.254 1297.69 534.069 1294.14 531.7C1276.66 520.447 1268.97 500.901 1260.97 480.171C1253.86 462.107 1246.75 443.746 1232.54 430.716V430.124H1231.95C1215.66 415.909 1193.75 408.801 1165.02 408.801C1136.89 408.801 1107.57 415.613 1083.88 420.943C1067.59 424.497 1053.67 427.754 1044.79 427.754C1039.46 427.754 1036.2 426.57 1035.01 424.497C1033.24 421.535 1034.72 415.909 1038.86 407.913C1059.3 370.599 1100.76 281.461 1097.8 244.739C1095.43 215.717 1081.51 185.511 1068.18 156.489C1048.64 114.141 1028.2 70.6082 1043.01 29.1485C1059.89 -18.2341 1133.92 -102.93 1186.64 -110.334C1189.6 -110.63 1193.15 -110.926 1196.41 -110.926C1230.76 -110.926 1280.81 -90.4925 1333.23 -60.8784V-62.9514C1280.81 -92.5655 1230.76 -112.703 1196.41 -112.703C1192.86 -112.703 1189.3 -112.407 1186.34 -112.111C1133.04 -104.707 1058.11 -19.1225 1040.94 28.5562C1025.83 70.9044 1046.27 114.733 1066.11 157.378C1079.43 186.399 1093.35 216.014 1095.72 244.739C1098.39 277.611 1062.26 360.827 1037.09 407.025C1032.05 415.909 1030.87 421.832 1033.24 425.681C1035.01 428.643 1038.86 430.124 1044.79 430.124C1053.97 430.124 1068.18 426.866 1084.47 423.312C1108.16 417.982 1137.48 411.171 1165.02 411.171C1193.45 411.171 1214.77 417.982 1230.76 432.197C1244.68 444.931 1252.09 463.291 1258.9 481.356C1267.19 501.79 1275.18 521.631 1292.95 533.181Z" fill="#0876FC"/>
<path d="M619.527 704.35C621.304 704.942 624.858 705.238 629.004 705.238C637.888 705.238 671.352 703.757 723.473 686.581C767.005 672.07 817.942 664.371 867.101 664.371C947.652 664.371 1001.25 676.512 1070.25 742.552C1075.29 747.29 1081.8 749.659 1089.8 749.659C1119.71 749.659 1165.02 717.084 1193.15 675.328C1215.07 642.752 1246.75 576.417 1213.88 496.755C1199.67 462.698 1182.2 457.96 1165.02 457.96C1143.99 457.96 1117.64 466.548 1087.13 476.321C1045.97 489.647 999.476 504.454 947.948 504.454C906.784 504.454 869.174 494.978 832.453 475.433C716.958 413.835 715.477 298.932 724.361 218.086C727.026 192.914 723.177 173.072 713.404 162.115C707.481 155.6 699.485 152.046 690.009 152.046C668.094 152.046 640.553 170.111 629.892 204.167C620.416 235.262 647.068 268.726 678.163 307.817C717.55 357.568 766.709 419.758 757.233 502.974C754.568 526.665 748.052 549.468 738.28 570.198C722.584 603.366 702.151 631.499 676.979 654.006C660.395 668.813 643.811 679.178 631.669 686.581C620.712 693.392 613.9 697.538 614.493 700.796C614.789 702.277 616.27 703.461 619.527 704.35ZM632.261 687.47C644.403 680.066 660.987 669.701 677.571 654.894C702.743 632.387 723.473 604.254 739.168 570.79C748.941 549.764 755.456 526.961 758.121 503.27C767.598 419.758 718.438 357.568 678.755 307.52C647.957 268.726 621.6 235.262 630.781 204.76C641.145 170.999 668.39 153.231 690.009 153.231C699.485 153.231 707.185 156.488 712.812 163.004C722.584 173.665 726.138 193.21 723.473 218.086C714.588 299.229 716.069 414.427 832.156 476.321C868.878 495.866 906.784 505.343 947.948 505.343C999.772 505.343 1046.27 490.24 1087.43 476.913C1117.93 467.141 1143.99 458.552 1165.02 458.552C1181.6 458.552 1199.08 463.291 1212.99 497.051C1245.57 576.121 1213.88 642.16 1192.26 674.736C1165.02 715.603 1119.12 748.771 1089.8 748.771C1082.1 748.771 1075.58 746.402 1070.85 741.96C1037.38 709.976 1006.29 689.543 972.824 677.993C944.098 667.924 912.411 663.778 867.101 663.778C817.942 663.778 767.005 671.774 723.177 686.285C671.056 703.461 637.888 704.942 629.004 704.942C624.858 704.942 621.304 704.646 619.527 704.35C616.862 703.757 615.381 702.869 615.085 701.684C615.085 698.131 622.192 693.689 632.261 687.47Z" fill="#0876FC"/>
<path d="M690.008 172.48C674.017 172.48 656.544 188.472 650.918 202.983C647.068 212.46 650.029 228.747 658.617 246.812C666.613 263.692 677.57 276.426 685.566 278.795C686.751 279.091 687.935 279.387 689.12 279.387C690.6 279.387 691.785 279.091 692.97 278.795C703.335 275.241 703.038 269.023 702.446 255.104C702.15 246.516 701.558 234.966 703.335 218.975C705.704 197.356 702.446 181.069 697.708 176.034C696.819 173.961 694.746 172.48 690.008 172.48ZM702.446 218.382C700.669 234.67 700.965 246.22 701.558 254.808C702.15 268.726 702.15 273.761 692.97 277.018C690.897 277.907 688.527 277.907 686.158 277.018C678.459 274.649 668.094 262.211 660.098 245.627C651.51 228.155 648.845 212.163 652.398 202.983C658.025 189.064 674.905 173.369 690.008 173.369C694.154 173.369 695.931 174.553 697.116 176.034C701.558 181.365 704.519 197.356 702.446 218.382Z" fill="#0876FC"/>
<path d="M524.468 363.196C522.395 361.419 520.618 360.53 519.137 360.53C514.991 360.53 512.03 365.861 507.588 373.857C503.146 382.149 496.927 393.402 485.97 404.951L482.712 408.209C470.274 421.239 464.647 427.162 466.128 430.42C466.72 431.9 468.793 432.493 472.347 432.493C475.309 432.493 480.047 431.9 487.746 431.012C491.004 430.716 493.965 430.42 497.223 430.42C522.987 430.42 544.309 444.93 560.005 455.295C569.185 461.514 576.293 466.253 581.623 466.253C583.696 466.253 585.473 465.364 586.954 463.587C603.242 442.858 545.79 382.741 524.468 363.196ZM585.769 462.995C584.585 464.476 583.4 465.068 581.623 465.068C576.885 465.068 569.778 460.33 560.893 454.407C545.198 443.746 523.58 429.235 497.223 429.235C493.965 429.235 490.708 429.531 487.45 429.827C480.047 431.012 475.309 431.308 472.347 431.308C469.386 431.308 467.905 431.012 467.609 430.123C466.72 427.754 473.532 420.647 483.897 409.394L487.154 406.136C498.111 394.586 504.33 383.037 509.069 374.745C513.215 367.342 515.88 362.307 519.137 362.307C520.322 362.307 521.803 363.196 523.58 364.676C549.936 388.368 600.28 444.338 585.769 462.995Z" fill="#0876FC"/>
<path d="M525.058 388.071C514.694 388.071 501.367 404.359 501.367 412.059C501.367 415.316 503.44 417.093 506.698 417.093C522.097 417.389 538.089 427.162 549.934 433.973C557.042 438.119 562.076 441.081 565.038 441.081C565.926 441.081 566.814 440.784 567.407 440.192C567.999 439.6 568.295 438.415 568.295 436.638C567.11 422.424 540.162 393.994 529.204 388.367C527.724 388.367 526.243 388.071 525.058 388.071ZM565.926 437.231C565.926 438.415 565.926 439.007 565.63 439.007C565.63 439.007 565.334 439.304 565.038 439.304C562.668 439.304 557.338 436.046 551.119 432.492C539.273 425.385 522.689 415.316 506.994 415.316C504.625 415.316 503.736 414.428 503.736 412.355C503.736 405.544 516.174 390.44 525.355 390.44C526.539 390.44 527.428 390.737 528.316 391.033C539.569 396.659 564.741 424.497 565.926 437.231Z" fill="#0876FC"/>
<path d="M488.337 119.472C491.003 119.472 492.78 115.918 494.853 107.922C502.256 77.7157 526.836 37.7366 565.038 16.4145C603.536 -5.20385 629.301 -10.8305 643.219 -13.7919C650.031 -15.2726 653.584 -16.1611 654.473 -17.9379C654.769 -18.5302 654.769 -19.4186 654.176 -20.307C651.511 -25.0453 603.832 -51.9941 534.832 -57.3247L531.87 -57.6208C525.651 -58.2131 520.321 -58.5093 515.286 -58.5093C497.222 -58.5093 483.007 -53.4749 449.247 -25.0453C443.916 -20.6032 438.586 -16.4572 433.255 -12.3112C416.967 0.126697 402.753 11.0839 403.641 23.2257C404.233 32.7022 413.71 41.8826 432.959 52.5437C454.281 64.3893 467.311 87.7845 475.9 103.184C481.23 112.956 484.784 119.472 488.337 119.472ZM433.255 51.6553C414.598 41.2903 405.122 31.8138 404.233 22.9296C403.345 11.0839 417.264 0.422856 433.255 -12.0151C438.586 -16.1611 443.916 -20.307 449.247 -24.7492C482.711 -53.1787 497.222 -58.2131 514.694 -58.2131C519.728 -58.2131 525.059 -57.917 531.278 -57.3247L534.239 -57.0286C601.463 -51.698 650.327 -25.0453 652.696 -20.307C653.288 -19.4186 652.992 -18.8264 652.992 -18.5302C652.4 -17.0495 648.55 -16.4572 642.627 -14.9765C628.708 -12.0151 602.944 -6.3884 564.15 15.2299C525.651 36.5521 501.072 76.8272 493.668 107.33C491.891 114.733 490.114 118.287 488.041 118.287C485.08 118.287 481.23 111.18 476.196 102.592C467.904 87.1922 454.874 63.5009 433.255 51.6553Z" fill="#0876FC"/>
<path d="M493.962 170.407C496.627 170.407 498.404 167.445 499.589 160.634C507.288 119.767 523.872 62.0191 579.547 31.2204C596.723 21.7439 616.268 14.0442 639.071 8.12137C643.513 6.93681 648.548 3.67928 653.286 0.421729C659.505 -3.72425 665.724 -7.87023 671.647 -7.87023C672.239 -7.87023 673.127 -7.87021 673.72 -7.57407C676.977 -6.98179 679.346 -5.20494 681.715 -3.13196C684.381 -1.05897 687.046 1.014 690.303 1.014C691.488 1.014 692.969 0.717852 694.449 0.125569C696.819 -0.762854 698.299 -2.83581 699.484 -4.61266C701.261 -7.27793 703.038 -9.64708 708.072 -9.35094C713.106 -9.0548 715.772 -5.20495 718.733 -1.05898C720.806 1.90243 722.879 4.5677 725.84 6.34455C727.913 7.52912 731.763 8.71369 735.317 8.71369C737.686 8.71369 739.463 8.12139 740.351 6.93682C741.24 5.75226 741.536 3.97542 740.944 1.90243C738.871 -5.20495 724.064 -11.7201 713.995 -15.866C711.033 -17.0506 708.664 -18.2352 706.887 -19.1236C692.08 -26.8233 677.569 -33.6345 664.835 -38.965C612.418 -62.0641 564.443 -75.9827 518.542 -81.9055C513.507 -82.4978 508.769 -82.7939 504.919 -82.7939C482.412 -82.7939 464.644 -73.0213 429.995 -40.4458C421.407 -32.4499 412.523 -25.6387 404.231 -19.1236C385.278 -4.31655 370.175 7.52912 370.471 22.04C370.767 33.5895 380.836 46.0275 402.158 61.1307C436.511 85.1181 459.313 121.84 474.417 146.123C483.301 160.338 489.52 170.407 493.962 170.407ZM402.158 59.9461C381.132 45.139 371.063 32.9972 370.767 21.7439C370.471 7.52911 385.278 -4.02039 404.231 -18.8274C412.819 -25.3425 421.704 -32.4499 430.292 -40.1496C464.94 -72.429 482.412 -82.2017 504.623 -82.2017C508.769 -82.2017 513.211 -81.9055 518.245 -81.3132C564.147 -75.3904 611.826 -61.4718 664.243 -38.6689C676.681 -33.3384 691.488 -26.5271 705.999 -18.8274C707.776 -17.939 710.145 -16.7545 713.106 -15.5699C722.879 -11.4239 737.686 -4.90883 739.463 1.60627C740.055 3.38312 739.759 4.86385 739.167 5.75228C738.278 6.93684 736.205 7.23298 735.021 7.23298C732.059 7.23298 728.21 6.04841 726.137 4.86385C723.471 3.38314 721.398 0.421701 719.325 -2.24357C716.364 -6.38954 713.402 -10.5355 708.072 -10.8316C702.445 -11.4239 700.668 -8.46252 698.892 -5.79725C697.707 -4.02041 696.522 -2.24356 694.153 -1.35514C692.673 -0.762854 691.488 -0.466704 690.303 -0.466704C687.046 -0.466704 684.677 -2.24356 682.308 -4.31655C679.939 -6.09339 677.273 -8.16638 673.72 -8.75866C673.127 -8.75866 672.239 -9.05478 671.647 -9.05478C665.428 -9.05478 658.913 -4.61268 652.694 -0.466704C647.659 2.79085 643.217 6.04842 638.775 7.23298C615.972 13.1558 596.427 20.8554 579.251 30.332C523.28 61.4268 506.4 119.47 498.7 160.338C497.516 166.261 496.035 169.222 493.962 169.222C490.112 169.222 483.597 159.153 474.713 144.939C459.61 120.655 436.511 84.2296 402.158 59.9461Z" fill="#0876FC"/>
<path d="M603.24 541.769C623.378 539.399 642.627 525.481 651.808 506.232C660.396 488.759 664.838 458.849 638.481 416.797C627.228 398.732 614.79 380.372 602.944 362.603C568.888 311.963 536.609 264.284 523.579 216.309C508.475 162.116 520.617 117.398 561.485 75.6424C597.021 39.5132 643.812 18.7833 690.01 18.7833C724.658 18.7833 755.753 30.9251 777.371 53.1357C801.063 77.4193 812.908 113.252 811.428 156.193C811.131 166.262 810.539 176.627 810.243 187.584C808.466 226.378 806.393 270.503 812.612 307.225C819.72 349.277 836.896 375.337 865.029 386.887C880.132 393.106 894.347 396.067 907.377 396.067C931.069 396.067 951.206 385.702 965.717 366.157C990.297 332.989 996.22 275.834 980.524 224.305C946.468 113.548 865.029 47.509 744.204 -23.2687C652.4 -76.8703 575.107 -93.7503 504.922 -103.523C499.591 -104.411 494.853 -104.708 490.115 -104.708C460.797 -104.708 446.878 -89.9005 429.406 -70.9474C422.594 -63.8401 415.783 -56.1404 406.899 -48.4407C396.83 -39.5565 388.242 -34.2259 380.542 -29.4877C368.104 -21.788 357.443 -15.2729 345.894 2.19941C322.499 37.1441 353.89 58.4662 386.761 80.973C404.234 92.8186 422.298 105.257 431.775 119.767C492.484 211.571 467.904 309.594 424.964 370.895C412.526 388.367 394.757 404.951 375.508 422.424C352.113 443.746 328.125 465.956 314.207 490.536C308.284 501.197 306.507 508.305 309.172 512.451C310.949 515.412 315.095 516.893 321.314 516.893C332.567 516.893 350.632 512.154 371.658 506.824C400.976 499.124 437.401 489.648 469.681 489.648C486.857 489.648 501.368 492.313 513.214 497.644C525.059 502.974 534.832 510.674 544.604 518.077C560.3 530.515 575.403 542.065 596.429 542.065C598.798 542.361 600.871 542.065 603.24 541.769ZM513.51 497.051C501.368 491.425 487.153 488.759 469.681 488.759C437.401 488.759 400.68 498.236 371.362 505.936C350.632 511.266 332.567 516.004 321.314 516.004C315.391 516.004 311.541 514.524 309.765 511.858C307.395 508.009 309.172 500.901 314.799 490.832C328.422 466.253 352.705 444.338 375.804 423.016C394.757 405.544 412.822 388.96 425.26 371.487C450.432 335.654 465.535 294.787 468.496 253.327C471.754 205.945 459.612 160.931 432.367 119.471C422.594 104.664 404.53 92.2263 387.057 80.3807C354.482 58.1701 323.683 36.848 346.486 2.79173C358.036 -14.6806 368.697 -21.1957 380.838 -28.5993C388.538 -33.3375 397.422 -38.668 407.491 -47.5523C416.079 -55.2519 423.187 -62.6555 429.998 -70.059C447.47 -88.7159 461.389 -103.523 490.115 -103.523C494.557 -103.523 499.591 -103.227 504.625 -102.338C574.515 -92.5657 651.808 -75.9818 743.611 -22.0842C864.141 48.6936 945.58 114.437 979.636 224.898C995.331 276.13 989.408 332.989 965.125 366.157C950.91 385.406 930.773 395.771 907.377 395.771C894.347 395.771 880.429 392.81 865.325 386.591C837.488 375.337 820.608 349.573 813.501 307.521C807.282 270.799 809.355 226.971 811.132 187.88C811.724 176.923 812.02 166.558 812.316 156.489C813.501 113.252 801.655 77.1231 777.964 52.5434C756.345 30.0367 724.954 17.8949 690.01 17.8949C643.516 17.8949 596.429 38.6248 560.892 75.0501C539.274 97.2607 525.651 120.064 519.729 144.939C514.398 167.15 515.287 190.545 522.69 216.309C536.016 264.284 568.296 312.259 602.352 362.899C614.198 380.668 626.636 398.732 637.889 417.093C663.949 458.849 659.507 488.463 651.215 505.639C642.035 524.592 623.378 538.215 603.24 540.584C600.871 540.88 598.798 540.88 596.429 540.88C575.699 540.88 560.892 529.331 545.197 517.189C535.424 510.081 525.355 502.382 513.51 497.051Z" fill="#0876FC"/>
<path d="M622.784 505.047C630.483 499.421 635.221 491.425 636.406 481.652C639.96 452.63 614.195 409.986 590.8 382.445C561.779 348.093 533.053 311.371 519.134 275.834C518.542 274.057 517.357 269.023 516.173 262.804C511.731 241.778 504.031 206.537 493.074 206.537C492.185 206.537 491.001 206.833 490.112 207.426C485.67 210.091 484.189 215.421 485.966 223.713C487.447 230.525 490.705 238.224 493.666 245.035C496.924 252.143 499.589 258.658 499.589 262.212C499.589 271.392 495.147 275.242 491.001 279.388C487.743 282.349 484.486 285.607 483.301 290.937C481.82 298.045 484.782 303.375 487.447 308.41C490.112 313.148 492.778 317.886 491.889 324.401C490.408 335.951 453.687 377.707 421.408 414.428C394.755 444.931 371.656 471.287 371.952 476.322C371.952 476.618 372.248 476.914 372.248 477.21C374.321 478.987 378.467 479.875 384.686 479.875C394.163 479.875 407.489 477.802 422.888 475.137C441.545 472.176 462.867 468.622 481.228 468.622C495.443 468.622 506.4 470.695 514.1 474.841C518.246 477.21 522.984 479.875 528.018 482.837C550.229 495.571 577.474 511.562 600.869 511.562C609.161 511.859 616.565 509.49 622.784 505.047ZM514.1 474.249C506.104 470.103 495.443 468.03 480.932 468.03C462.571 468.03 441.249 471.287 422.592 474.545C407.193 476.914 393.866 479.283 384.39 479.283C378.467 479.283 374.617 478.395 372.544 476.618C372.544 476.618 372.544 476.618 372.544 476.322C372.248 471.583 396.236 444.338 421.704 415.02C453.983 378.003 491.001 336.247 492.481 324.401C493.37 317.886 490.705 312.852 488.039 307.817C485.078 302.487 482.413 297.749 483.893 290.937C485.078 285.607 488.039 282.942 491.297 279.684C495.443 275.538 499.885 271.392 500.181 261.916C500.181 258.066 497.516 251.847 494.258 244.443C491.297 237.632 488.039 229.932 486.559 223.417C484.782 215.718 485.966 210.683 490.112 208.018C491.001 207.426 491.889 207.129 492.778 207.129C503.143 207.129 510.842 243.259 514.988 262.804C516.469 269.319 517.357 274.057 518.246 275.834C532.461 311.371 561.186 348.093 590.208 382.445C613.307 409.69 639.071 452.038 635.518 480.764C634.333 490.536 629.891 498.236 622.487 503.567C616.565 508.009 609.161 510.082 600.573 510.082C577.474 510.082 550.229 494.09 528.315 481.356C522.984 479.283 518.246 476.618 514.1 474.249Z" fill="#0876FC"/>
<path d="M612.419 468.029C615.084 443.745 589.024 405.247 575.993 390.736C553.487 365.268 537.791 343.65 527.426 329.435C517.061 315.22 511.435 307.521 507.881 307.521C505.216 307.521 504.031 310.778 503.143 318.774C496.628 379.187 457.537 411.762 434.438 431.307C424.369 439.896 417.558 445.522 417.262 450.261C417.262 451.741 417.558 452.926 418.742 453.814C420.815 456.183 424.369 457.072 429.404 457.072C435.03 457.072 442.434 455.591 450.726 454.11C461.683 452.037 474.121 449.964 486.559 449.964C503.735 449.964 517.654 454.406 529.203 462.995C545.195 475.432 568.886 488.759 587.543 488.759C594.354 488.759 599.981 486.982 604.719 483.724C608.865 479.875 611.827 474.544 612.419 468.029ZM586.951 487.574C568.59 487.574 545.195 474.248 529.203 462.106C517.654 453.222 503.439 448.78 486.263 448.78C473.529 448.78 461.091 451.149 450.133 452.926C441.841 454.406 434.438 455.887 428.811 455.887C424.073 455.887 420.815 454.999 418.742 452.926C417.854 452.037 417.558 451.149 417.558 449.964C417.854 445.818 424.665 439.896 434.438 431.604C457.833 412.058 496.924 379.187 503.439 318.478C504.327 311.37 505.512 308.113 507.289 308.113C510.546 308.113 516.469 316.405 526.242 329.731C536.607 343.946 552.302 365.86 574.809 391.032C587.839 405.543 613.9 443.745 611.234 467.733C610.642 474.248 607.681 479.282 603.238 482.54C599.092 485.797 593.466 487.574 586.951 487.574Z" fill="#0876FC"/>
<path d="M865.62 224.305C862.659 270.503 875.985 302.486 889.312 316.997C895.531 323.512 902.342 327.066 908.265 327.066C916.853 327.066 923.368 320.255 926.626 308.113C946.763 228.747 878.058 145.235 869.47 138.128C867.101 136.055 865.324 135.759 864.14 136.943C862.067 139.016 862.659 146.124 863.844 159.154C865.324 174.257 867.397 197.356 865.62 224.305ZM865.324 138.128C865.62 137.832 865.62 137.832 865.917 137.832C866.213 137.832 867.101 138.128 868.582 139.312C876.874 146.124 945.282 229.043 925.145 307.521C922.183 319.07 916.261 325.585 908.265 325.585C902.638 325.585 896.123 322.031 890.2 315.813C876.874 301.598 863.844 270.207 866.805 224.305C868.582 197.06 866.509 174.257 865.324 158.858C864.436 147.901 863.844 139.609 865.324 138.128Z" fill="#0876FC"/>
<path d="M842.817 221.64C839.263 266.653 848.148 303.079 867.693 324.105C878.058 335.062 890.496 341.281 902.934 341.281C920.998 341.281 935.213 328.843 939.359 309.594C951.797 253.327 932.548 202.391 914.187 169.815C892.569 131.613 865.028 104.368 851.701 95.4838C846.963 92.2263 843.409 90.1533 841.336 90.1533C840.448 90.1533 839.856 90.4494 839.559 91.0417C837.783 93.1147 838.671 98.4453 839.856 109.402C842.521 128.356 846.963 164.485 842.817 221.64ZM840.152 91.3379C840.448 91.0417 840.744 90.7456 841.336 90.7456C843.113 90.7456 846.667 92.8186 851.109 95.78C881.019 115.918 960.977 207.129 938.471 309.002C934.325 327.955 920.406 340.096 902.638 340.096C890.2 340.096 878.058 334.174 867.989 323.216C848.74 302.19 839.856 266.061 843.113 221.64C847.555 164.485 842.817 128.356 840.448 109.106C839.559 99.0375 838.967 93.1147 840.152 91.3379Z" fill="#0876FC"/>
<path d="M825.641 224.601C822.087 280.572 833.044 324.697 855.847 348.98C867.693 361.418 881.908 368.229 897.307 368.229C926.625 368.229 951.501 344.538 959.2 309.297C970.454 257.177 960.681 205.944 930.475 157.081C899.676 107.329 857.032 75.346 834.229 60.5389C822.679 53.1354 817.645 49.8778 815.868 52.2469C814.387 54.0238 815.276 59.6504 817.349 70.3115C821.495 93.1144 830.675 141.385 825.641 224.601ZM816.46 52.5431C816.757 52.2469 817.053 52.2469 817.645 52.2469C820.014 52.2469 825.345 55.5045 833.933 61.1312C909.449 110.291 982.003 201.206 958.608 309.001C950.908 343.946 926.625 367.341 897.603 367.341C882.5 367.341 868.285 360.826 856.736 348.388C833.933 324.401 823.568 280.276 826.825 224.601C831.86 141.385 822.679 93.1144 818.237 69.7192C816.164 59.9466 814.98 54.0238 816.46 52.5431Z" fill="#0876FC"/>
<path d="M484.784 38.6242C493.076 38.6242 499.295 30.6283 505.514 18.4865C516.767 -2.83561 540.163 -12.9044 552.897 -18.5311C559.412 -21.1964 561.781 -22.3809 561.485 -24.1577C561.189 -25.6385 559.708 -26.2307 550.824 -26.823C524.467 -28.5998 465.831 -3.724 459.02 15.229C457.539 19.6711 458.724 23.521 462.277 26.7785C472.346 35.0705 479.158 38.6242 484.784 38.6242ZM460.797 16.1175C467.016 -1.05873 521.802 -24.75 547.862 -24.75C548.751 -24.75 549.639 -24.75 550.528 -24.75C555.562 -24.4539 557.931 -24.1577 558.82 -23.8616C557.635 -22.9732 554.674 -21.7886 552.008 -20.6041C539.274 -14.9774 515.287 -4.61244 503.737 17.302C496.334 30.9245 491.003 36.5512 484.784 36.5512C479.454 36.5512 473.235 32.9975 463.462 25.0017C460.501 22.6326 459.612 19.6712 460.797 16.1175Z" fill="#0876FC"/>
<path d="M510.548 37.7364C530.685 1.01494 567.703 -11.7191 597.317 -18.8265C600.278 -19.4188 600.575 -20.8995 600.278 -21.7879C599.686 -27.7107 571.553 -39.2603 529.797 -39.2603C525.059 -39.2603 520.32 -39.2602 515.582 -38.9641C496.629 -37.7795 451.616 -11.1268 435.328 8.41849C431.182 13.4529 429.109 17.895 429.701 21.1526C430.886 29.4445 437.993 32.9982 446.581 37.1442C455.465 41.5863 465.534 46.6207 470.569 58.4663C473.53 65.2776 477.084 68.8313 481.822 68.8313C489.818 68.5351 499.294 58.1702 510.548 37.7364ZM472.049 57.874C467.015 45.7323 456.65 40.4017 447.47 35.9596C439.474 31.8136 432.366 28.5561 431.478 21.1526C431.182 18.4873 432.959 14.3413 436.809 9.60303C452.8 -9.94228 497.221 -36.0027 515.878 -37.1872C520.616 -37.4834 525.355 -37.4834 530.093 -37.4834C570.96 -37.4834 598.502 -26.23 599.094 -21.4918C599.094 -20.6034 597.909 -20.3072 597.317 -20.0111C567.111 -12.9037 529.797 0.126542 509.363 37.4403C492.187 67.9429 479.453 75.3464 472.049 57.874Z" fill="#0876FC"/>
<path d="M900.268 291.529C901.749 291.529 903.23 290.345 904.414 288.272C910.041 277.314 910.041 240.001 894.642 217.198C892.569 214.236 889.903 214.532 887.534 218.382C881.908 228.155 879.242 259.842 894.938 287.087C896.715 290.048 898.491 291.529 900.268 291.529ZM889.311 219.567C890.2 218.382 890.792 217.494 891.384 217.494C891.976 217.494 892.569 218.086 892.569 218.678C907.08 240.593 907.672 277.314 902.045 287.679C901.453 289.16 900.564 289.752 899.676 289.752C898.788 289.752 897.603 288.568 896.418 286.495C881.908 259.842 883.981 228.747 889.311 219.567Z" fill="#0876FC"/>
<path d="M1092.76 382.444C1094.83 385.406 1100.16 386.887 1109.94 386.887C1116.16 386.887 1123.56 386.294 1132.15 385.702C1142.81 385.11 1154.95 384.221 1167.39 384.221C1207.07 384.221 1233.72 392.513 1251.49 410.874C1268.08 423.608 1277.26 444.338 1285.25 462.699C1295.02 484.909 1303.61 504.159 1322.27 504.159C1324.34 504.159 1326.42 503.862 1328.49 503.566C1329.97 503.27 1331.45 502.974 1332.93 502.382V500.901C1331.15 501.493 1329.67 501.789 1328.19 502.086C1326.12 502.382 1324.05 502.678 1322.27 502.678C1304.5 502.678 1296.21 483.725 1286.73 462.107C1278.74 443.746 1269.26 422.72 1252.68 409.689C1234.61 391.329 1207.66 382.741 1167.68 382.741C1155.25 382.741 1143.1 383.629 1132.44 384.221C1123.85 384.814 1116.45 385.406 1110.23 385.406C1101.05 385.406 1096.02 384.221 1094.24 381.556C1093.35 380.075 1093.35 378.299 1094.24 375.929C1113.19 325.585 1128.89 261.915 1127.41 242.074C1124.74 207.721 1109.64 175.146 1095.13 143.755C1077.36 105.256 1060.48 69.1272 1071.14 38.9208C1085.95 -3.13125 1154.06 -76.2781 1191.08 -81.3125C1192.86 -81.6087 1194.93 -81.6086 1197 -81.6086C1225.73 -81.6086 1276.37 -61.1749 1333.82 -27.1187V-28.8956C1276.66 -62.6557 1226.02 -83.0894 1197 -83.0894C1194.93 -83.0894 1192.86 -83.0894 1190.78 -82.7932C1153.47 -77.7588 1084.76 -4.01967 1069.66 38.3285C1058.7 69.1272 1075.88 105.849 1093.65 144.347C1108.16 175.738 1123.26 208.017 1125.93 242.074C1127.41 259.25 1113.19 321.143 1093.06 375.337C1091.58 378.299 1091.58 380.668 1092.76 382.444Z" fill="#0876FC"/>
<path d="M1137.48 343.946C1143.1 351.941 1154.65 352.83 1170.65 354.014C1172.42 354.014 1174.2 354.31 1175.98 354.31C1181.01 354.607 1186.34 354.903 1191.97 355.199C1218.03 356.087 1247.94 356.976 1274.59 381.555L1274.89 381.852C1289.69 394.882 1298.58 417.685 1306.28 438.118C1314.27 458.552 1320.79 476.024 1331.75 476.024C1332.04 476.024 1332.34 476.024 1332.63 476.024V475.136C1332.34 475.136 1332.04 475.136 1331.75 475.136C1321.68 475.136 1314.87 457.664 1307.17 437.822C1299.47 417.389 1290.58 394.586 1275.48 381.259L1275.18 380.963C1248.23 356.383 1218.32 355.199 1191.97 354.31C1186.34 354.014 1181.01 354.014 1175.98 353.422C1174.2 353.126 1172.42 353.126 1170.65 353.126C1154.65 351.941 1143.4 351.053 1138.07 343.353C1133.04 336.246 1133.92 322.623 1140.44 299.821C1146.66 278.498 1148.73 259.249 1147.25 240.592C1144.29 202.39 1128.3 168.334 1112.9 135.166C1096.91 100.518 1081.8 67.942 1089.5 45.7314C1102.83 8.41765 1166.5 -57.3257 1192.86 -60.8794C1193.45 -60.8794 1194.34 -61.1755 1196.11 -61.1755C1218.32 -61.1755 1268.08 -42.8148 1332.93 -3.13185V-4.31644C1268.37 -43.9994 1218.32 -62.064 1196.11 -62.064C1194.63 -62.064 1193.45 -62.0639 1192.86 -61.7678C1166.2 -58.2141 1101.94 8.1215 1088.61 45.4353C1080.62 68.2381 1095.72 100.814 1112.01 135.758C1127.41 168.63 1143.1 202.982 1146.07 240.888C1147.55 259.545 1145.18 278.794 1139.25 299.821C1133.04 323.216 1132.44 336.246 1137.48 343.946Z" fill="#0876FC"/>
<path d="M597.614 611.658C641.739 606.623 694.156 554.206 708.37 514.227C732.95 444.634 689.417 388.664 647.365 334.47C606.794 282.349 568.592 232.893 587.249 172.777C603.536 120.36 655.953 92.2262 697.117 92.2262C719.328 92.2262 738.281 100.222 751.015 114.437C766.118 131.317 772.041 157.081 768.191 188.768C754.864 297.748 751.015 417.093 872.729 452.334C886.647 456.48 900.566 458.553 913.596 458.553C964.828 458.553 997.404 429.235 1015.76 404.655C1051.01 357.569 1063.15 286.791 1046.27 229.043C1031.76 179.884 1003.33 132.501 959.202 83.6381C893.755 11.0835 804.616 -51.4023 686.456 -107.077L681.421 -109.446C631.67 -132.841 580.437 -157.125 526.54 -170.451C523.282 -171.339 519.728 -172.228 515.879 -173.116C499.295 -177.558 478.269 -183.185 460.5 -183.185C453.393 -183.185 447.174 -182.297 442.139 -180.52C434.44 -177.855 429.998 -172.524 425.852 -167.49C422.594 -163.64 419.633 -159.79 414.894 -156.829C411.933 -155.052 406.01 -152.683 399.791 -150.313C389.722 -146.464 379.358 -142.318 376.1 -138.764C369.881 -131.36 371.658 -126.918 373.139 -122.476C374.323 -119.515 375.508 -116.553 374.027 -112.111L372.842 -108.557C363.958 -82.2009 363.958 -82.201 343.228 -76.2781C339.378 -75.0936 334.344 -73.6129 328.421 -71.836C311.245 -66.5055 304.434 -57.9174 297.623 -49.9215C292.292 -43.7026 287.554 -37.7798 278.373 -33.0415C278.077 -33.0415 277.781 -33.0415 277.485 -33.0415C266.824 -33.0415 185.977 -27.711 179.758 -7.86951C177.982 -2.53897 181.831 3.38386 190.419 9.30669C201.377 17.0064 209.965 17.8948 215.295 17.8948C217.961 17.8948 220.33 17.5986 222.403 17.3025C224.476 17.0063 226.253 17.0063 228.029 17.0063C234.544 17.0063 241.06 18.7832 250.24 40.9938C252.313 46.3243 254.09 51.0626 255.571 54.6163C262.678 72.977 262.678 73.2731 280.446 80.6767C284.888 82.4535 290.219 84.8227 297.326 88.0802C320.129 98.7413 324.868 110.587 330.79 125.69C334.048 133.686 337.602 142.866 344.117 152.935C351.224 163.892 359.812 172.777 367.808 181.069C382.319 196.172 395.941 210.387 400.384 234.078C407.787 275.241 385.576 314.628 360.404 351.054C348.263 368.822 323.091 389.256 296.142 410.874C250.832 447.892 199.6 489.648 199.304 528.442C199.304 550.653 204.93 567.533 216.184 578.786C228.622 591.224 247.279 597.147 273.339 597.147C311.245 597.147 358.035 584.413 399.199 573.159C431.775 564.275 459.612 556.576 477.676 556.576C481.822 556.576 485.08 556.872 487.745 557.76C504.921 562.794 518.84 573.752 531.87 584.413C549.342 598.331 565.926 611.658 589.914 611.658C592.579 612.25 595.244 611.954 597.614 611.658ZM488.634 555.983C485.672 555.095 482.118 554.799 477.972 554.799C459.908 554.799 431.775 562.498 399.199 571.383C358.035 582.636 311.541 595.37 273.931 595.37C248.167 595.37 230.102 589.447 218.257 577.602C207.3 566.644 201.969 550.06 201.969 528.738C202.265 490.832 253.201 449.372 297.919 412.947C324.571 391.033 350.04 370.599 362.477 352.534C387.946 315.813 410.452 276.13 403.049 234.078C398.607 209.794 384.688 195.283 369.881 179.884C361.885 171.592 353.297 162.708 346.19 152.047C339.675 141.978 336.121 133.094 332.863 125.098C326.644 109.402 321.906 97.2606 298.215 86.3034C291.107 83.0458 285.777 80.6767 281.335 78.8999C264.159 71.4963 264.159 71.4963 257.347 54.024C255.867 50.1741 254.09 45.732 252.017 40.4015C243.429 19.0793 236.617 14.9334 228.029 14.9334C226.253 14.9334 224.18 15.2295 222.403 15.2295C220.034 15.5257 217.961 15.5256 215.295 15.5256C209.669 15.5256 202.265 14.6372 191.604 7.23371C183.608 1.60703 180.351 -3.42739 181.535 -7.86951C186.866 -25.0457 262.382 -31.5608 277.189 -31.5608C277.485 -31.5608 277.781 -31.5608 277.781 -31.5608L278.077 -32.4492L278.67 -31.5608C288.442 -36.5952 293.773 -42.8141 299.103 -49.0331C305.915 -57.3251 312.43 -65.0248 329.014 -70.3553C334.936 -72.1322 339.971 -73.6129 343.821 -74.7974C365.439 -81.0164 365.735 -81.3125 374.915 -108.557L376.1 -112.111C377.877 -117.146 376.396 -120.699 375.212 -123.957C373.731 -128.103 372.25 -131.657 377.877 -137.875C380.838 -141.429 391.499 -145.279 400.68 -148.833C406.899 -151.202 412.821 -153.571 416.079 -155.348C421.113 -158.309 424.371 -162.455 427.628 -166.305C431.774 -171.339 435.92 -176.078 443.028 -178.743C447.766 -180.52 453.689 -181.408 460.796 -181.408C478.269 -181.408 498.998 -175.782 515.582 -171.636C519.432 -170.747 522.986 -169.563 526.244 -168.97C580.141 -155.644 631.374 -131.36 680.829 -107.965L685.864 -105.596C803.728 -49.9216 892.57 12.2681 957.721 84.5265C1001.55 133.094 1029.98 180.476 1044.19 229.043C1061.07 286.199 1048.93 356.088 1013.99 402.878C995.923 427.162 963.644 455.888 913.3 455.888C900.27 455.888 886.647 453.815 873.025 449.965C753.088 415.316 756.937 296.86 769.968 188.768C773.817 156.489 767.895 130.132 752.495 112.66C739.465 97.8529 719.624 89.8571 697.117 89.8571C655.361 89.8571 602.056 118.583 585.472 171.888C566.519 232.893 607.09 285.014 646.181 335.358C687.937 388.96 730.877 444.634 706.89 513.043C692.971 552.43 641.442 604.254 597.91 608.993C595.541 609.289 593.171 609.289 590.802 609.289C567.703 609.289 551.415 596.258 534.239 582.34C520.321 572.567 506.402 561.314 488.634 555.983Z" fill="#0876FC"/>
<path d="M868.287 -240.933C858.218 -233.825 844.595 -230.272 826.234 -230.272C804.912 -230.272 780.925 -235.01 759.603 -239.156C747.165 -241.525 735.319 -243.894 725.843 -245.079C721.104 -245.671 708.37 -246.856 692.971 -246.856C664.245 -246.856 627.228 -243.006 614.79 -224.349C609.459 -216.353 609.163 -205.988 614.197 -194.143C616.567 -188.516 622.489 -185.554 628.412 -182.593C633.151 -180.224 637.889 -177.855 640.554 -174.301C643.812 -170.155 645.588 -163.936 647.365 -158.309C649.734 -150.61 652.104 -142.614 657.73 -137.876C664.541 -131.953 672.241 -129.288 681.718 -129.288C688.233 -129.288 695.044 -130.472 701.559 -131.953C708.074 -133.138 714.589 -134.618 720.808 -134.618C727.027 -134.618 732.358 -133.434 737.096 -130.768C748.942 -124.846 753.68 -116.554 758.714 -108.558C764.933 -98.1928 770.856 -88.4202 790.401 -83.978C830.973 -74.5015 842.226 -64.4327 869.175 -40.4453C872.729 -37.4839 876.282 -33.9302 880.428 -30.3765C890.201 -21.7884 897.308 -12.0158 904.12 -2.83538C910.339 5.45657 916.558 14.3408 924.85 22.0405C934.918 31.8132 944.395 35.9591 953.575 40.4012C965.717 46.0279 977.563 51.3585 987.928 69.4231L989.704 72.3845C1003.03 95.1874 1016.36 116.51 1024.65 116.51C1025.83 116.51 1027.02 115.917 1027.91 115.029C1030.87 111.771 1031.76 103.183 1030.28 88.6723C1029.39 80.0842 1023.46 72.6806 1017.54 65.2771C1011.03 57.2813 1005.1 49.8777 1005.4 41.5858C1005.7 31.8131 1011.92 26.7787 1018.13 21.7443C1022.87 17.8945 1027.61 14.0447 1030.28 8.12183C1037.09 -6.38909 1038.57 -19.4193 1040.34 -32.1533C1042.42 -49.6257 1044.49 -66.2096 1060.19 -84.8665C1088.32 -118.33 1127.71 -143.799 1170.94 -156.237C1185.45 -160.382 1198.78 -162.455 1211.81 -162.455C1256.23 -162.455 1287.92 -138.468 1321.68 -112.704C1325.53 -109.742 1329.38 -106.781 1333.23 -104.116V-107.077C1329.67 -109.742 1326.42 -112.408 1322.86 -114.777C1288.81 -140.541 1256.82 -164.825 1211.81 -164.825C1198.48 -164.825 1184.86 -162.752 1170.35 -158.606C1126.52 -146.168 1086.84 -120.403 1058.41 -86.6433C1042.42 -67.3942 1040.34 -50.5141 1037.98 -32.7456C1036.49 -20.3077 1034.72 -7.57365 1028.2 6.64112C1025.54 12.2678 1021.1 16.1177 1016.65 19.6714C1010.14 25.0019 1003.62 30.3324 1003.03 40.9935C1002.73 50.1739 1009.25 58.1697 1015.47 66.1655C1021.1 73.2729 1027.02 80.6764 1027.91 88.3761C1029.39 105.552 1027.61 111.179 1026.13 113.252C1025.54 113.844 1024.95 114.14 1024.35 114.14C1016.06 114.14 998.885 83.934 991.185 71.1999L989.408 68.2385C978.451 49.5816 966.605 44.2511 954.168 38.6244C944.987 34.4784 935.807 30.3324 926.034 20.8559C918.038 13.1562 911.523 4.56814 905.6 -3.72382C898.493 -13.2003 891.386 -22.973 881.613 -31.5611C877.467 -35.1148 873.913 -38.3723 870.36 -41.6298C843.115 -65.9134 831.861 -75.9822 790.698 -85.4587C772.041 -89.9009 766.414 -99.0812 760.491 -109.15C755.457 -117.442 750.422 -125.734 738.281 -131.953C733.246 -134.618 727.62 -135.803 721.104 -135.803C714.589 -135.803 707.778 -134.618 701.263 -133.137C694.748 -131.953 688.233 -130.472 682.014 -130.472C673.13 -130.472 666.022 -133.137 659.211 -138.468C654.177 -142.91 651.807 -150.314 649.438 -158.013C647.661 -163.936 645.588 -170.155 642.331 -174.597C639.369 -178.743 634.335 -181.112 629.597 -183.481C623.97 -186.443 618.343 -189.108 616.27 -194.143C611.532 -205.396 611.828 -214.872 616.863 -222.572C628.708 -240.341 665.134 -244.19 693.563 -244.19C708.963 -244.19 721.697 -243.006 726.139 -242.414C735.615 -241.525 747.461 -239.156 759.899 -236.491C781.221 -232.345 805.209 -227.31 826.827 -227.31C845.484 -227.31 859.699 -230.864 870.063 -238.268C896.124 -256.628 888.424 -284.169 881.317 -310.822C873.617 -339.252 865.621 -368.866 897.605 -388.115C901.454 -390.484 906.489 -391.669 912.708 -391.669C931.661 -391.669 958.61 -381.304 984.67 -371.235C1007.18 -362.351 1028.8 -354.059 1042.71 -353.763C1044.79 -353.763 1046.86 -353.763 1048.64 -353.763C1078.55 -353.763 1108.75 -358.797 1138.07 -363.831C1167.39 -368.866 1197.6 -373.9 1227.21 -373.9C1247.94 -373.9 1266.89 -371.531 1284.66 -366.201C1301.24 -361.462 1317.53 -355.243 1333.52 -348.136V-350.505C1317.53 -357.612 1301.54 -363.535 1285.25 -368.274C1267.19 -373.308 1248.24 -375.973 1227.21 -375.973C1197.3 -375.973 1167.09 -370.939 1137.78 -365.904C1108.75 -360.87 1078.55 -355.836 1048.64 -355.836C1046.56 -355.836 1044.79 -355.836 1042.71 -355.836C1029.09 -356.132 1008.07 -364.424 985.558 -373.012C959.498 -383.081 932.253 -393.742 912.708 -393.742C905.897 -393.742 900.566 -392.557 896.42 -389.892C863.252 -369.754 871.248 -339.548 879.244 -310.23C886.055 -284.169 892.866 -258.405 868.287 -240.933Z" fill="#0876FC"/>
</g>
</g>
<defs>
<clipPath id="clip0_1_2674">
<rect width="1320" height="415" fill="white"/>
</clipPath>
</defs>
</svg>
